<svg width="75" height="30" viewBox="0 0 75 30" fill="none" xmlns="http://www.w3.org/2000/svg">
<path d="M29.5642 13.8857H29.8624C29.8956 14.5339 30.1717 15.0684 30.7018 15.4778C31.2319 15.8872 31.8945 16.1033 32.6897 16.1033C33.4628 16.1033 34.1034 15.8986 34.6004 15.4892C35.0973 15.0798 35.3403 14.5566 35.3403 13.9198C35.3403 13.4194 35.1747 13.0214 34.8323 12.7143C34.4899 12.4073 33.9377 12.1571 33.1646 11.9638L32.1596 11.7022C31.3423 11.4975 30.746 11.2132 30.3705 10.872C29.995 10.5309 29.8072 10.076 29.8072 9.53012C29.8072 8.85915 30.0833 8.29054 30.6245 7.83565C31.1656 7.38077 31.8283 7.15332 32.5903 7.15332C33.3966 7.15332 34.0702 7.36939 34.6224 7.80154C35.1747 8.23368 35.4618 8.76818 35.4839 9.40502H35.1857C35.1526 8.84779 34.8986 8.38152 34.4016 8.00624C33.9156 7.63095 33.3082 7.449 32.5903 7.449C31.8945 7.449 31.3092 7.64233 30.8343 8.04036C30.3484 8.43838 30.1164 8.92739 30.1164 9.53012C30.1164 10.0078 30.2821 10.383 30.6245 10.6787C30.9668 10.9744 31.508 11.2132 32.259 11.4065L33.253 11.6567C34.0813 11.8728 34.6998 12.1571 35.0753 12.5096C35.4618 12.8622 35.6496 13.3284 35.6496 13.8971C35.6496 14.6249 35.3734 15.2162 34.8212 15.6825C34.269 16.1488 33.5622 16.3762 32.6787 16.3762C31.7952 16.3762 31.0662 16.1374 30.4809 15.6711C29.9066 15.2162 29.5863 14.6135 29.5642 13.8857Z" fill="#B3B3B3"/>
<path d="M45.0371 7.28955V16.2622H44.7389V8.006H44.7169L41.1938 16.2622H40.8735L37.3504 8.006H37.3283V16.2622H37.0302V7.28955H37.3504L41.0281 15.8756H41.0502L44.7058 7.28955H45.0371Z" fill="#B3B3B3"/>
<path d="M52.9115 16.2622L51.7739 13.1463H47.7208L46.5611 16.2622H46.2298L49.5872 7.28955H49.8964L53.2539 16.2622H52.9115ZM49.7308 7.71032L47.8312 12.8506H51.6635L49.7639 7.71032H49.7308Z" fill="#B3B3B3"/>
<path d="M54.734 12.3388V16.2622H54.4248V7.28955H57.1306C58.0031 7.28955 58.6878 7.51699 59.1848 7.96051C59.6818 8.4154 59.9358 9.0295 59.9358 9.81419C59.9358 10.4738 59.7481 11.0196 59.3836 11.4518C59.0192 11.8839 58.5001 12.1682 57.8485 12.282L60.1457 16.2622H59.8033L57.5282 12.3275C57.3846 12.3388 57.2521 12.3388 57.1306 12.3388H54.734ZM54.734 7.57386V12.0545H57.1306C57.9037 12.0545 58.5222 11.8498 58.9639 11.4518C59.4057 11.0538 59.6266 10.5079 59.6266 9.81419C59.6266 9.10911 59.4057 8.56324 58.9639 8.16521C58.5222 7.76718 57.9037 7.57386 57.1196 7.57386H54.734Z" fill="#B3B3B3"/>
<path d="M64.1769 16.2622H63.8787V7.58523H60.7311V7.28955H67.3134V7.58523H64.1659L64.1769 16.2622Z" fill="#B3B3B3"/>
<path d="M33.4741 17.1714C34.6448 17.1714 35.5836 17.5922 36.2683 18.4223C36.9641 19.2525 37.3065 20.3784 37.3065 21.7885C37.3065 23.1987 36.9641 24.3245 36.2683 25.1547C35.5725 25.9849 34.6448 26.4056 33.4631 26.4056C32.2814 26.4056 31.3537 25.9849 30.6579 25.1547C29.9621 24.3245 29.6198 23.1987 29.6198 21.7885C29.6198 20.3784 29.9621 19.2639 30.6579 18.4223C31.3537 17.5808 32.2814 17.1714 33.4741 17.1714ZM33.4741 17.4557C32.3918 17.4557 31.5304 17.8423 30.8898 18.627C30.2493 19.4003 29.929 20.458 29.929 21.7771C29.929 23.0963 30.2493 24.1426 30.8898 24.9273C31.5304 25.7119 32.3918 26.0986 33.4741 26.0986C34.5454 26.0986 35.4069 25.7119 36.0474 24.9273C36.688 24.1426 37.0083 23.0963 37.0083 21.7771C37.0083 20.458 36.688 19.4117 36.0474 18.627C35.4069 17.8537 34.5454 17.4557 33.4741 17.4557Z" fill="#B3B3B3"/>
<path d="M39.0516 22.3466V26.2701H38.7424V17.2974H41.4482C42.3207 17.2974 43.0054 17.5248 43.5024 17.9683C43.9994 18.4232 44.2534 19.0373 44.2534 19.822C44.2534 20.4816 44.0656 21.0275 43.7012 21.4596C43.3257 21.8917 42.8177 22.1761 42.1661 22.2898L44.4632 26.2701H44.1209L41.8458 22.3353C41.7022 22.3466 41.5697 22.3466 41.4482 22.3466H39.0516ZM39.0516 17.5817V22.0623H41.4482C42.2213 22.0623 42.8397 21.8576 43.2815 21.4596C43.7233 21.0616 43.9442 20.5157 43.9442 19.822C43.9442 19.1169 43.7233 18.5711 43.2815 18.173C42.8397 17.775 42.2213 17.5817 41.4371 17.5817H39.0516Z" fill="#B3B3B3"/>
<path d="M51.8852 26.2701L50.7477 23.1541H46.6945L45.5459 26.2701H45.2146L48.572 17.2974H48.8812L52.2386 26.2701H51.8852ZM48.7156 17.7181L46.8049 22.8584H50.6372L48.7377 17.7181H48.7156Z" fill="#B3B3B3"/>
<path d="M53.7071 26.2701H53.3979V17.2974H53.7292L59.5163 25.6787H59.5384V17.2974H59.8366V26.2701H59.5605L53.7292 17.8205H53.7071V26.2701Z" fill="#B3B3B3"/>
<path d="M68.506 22.7563C68.506 23.8821 68.1968 24.7692 67.5783 25.4174C66.9598 26.0656 66.1094 26.384 65.0381 26.384C64.3092 26.384 63.6576 26.1907 63.0833 25.7927C62.509 25.406 62.0673 24.8488 61.758 24.1437C61.4378 23.4386 61.2831 22.6198 61.2831 21.71C61.2831 20.3454 61.6255 19.2423 62.3213 18.4121C63.006 17.5819 63.9227 17.1611 65.0492 17.1611C65.9106 17.1611 66.6506 17.4113 67.2801 17.9003C67.9096 18.3893 68.2962 19.0262 68.4618 19.8222H68.1636C67.998 19.1058 67.6225 18.5372 67.0592 18.105C66.496 17.6729 65.8223 17.4568 65.0492 17.4568C64.011 17.4568 63.1717 17.8435 62.5422 18.6282C61.9127 19.4128 61.6034 20.4363 61.6034 21.7214C61.6034 23.0178 61.9237 24.0755 62.5643 24.8829C63.2048 25.6903 64.0331 26.0997 65.0602 26.0997C66.0432 26.0997 66.8162 25.804 67.3795 25.2127C67.9427 24.6213 68.2299 23.8025 68.2299 22.779V22.1535H65.0271V21.8692H68.5281V22.7563H68.506Z" fill="#B3B3B3"/>
<path d="M75.0006 25.9744V26.2701H70.0086V17.2974H75.0006V17.593H70.3178V21.5278H74.7907V21.8121H70.3178V25.9858H75.0006V25.9744Z" fill="#B3B3B3"/>
<path d="M25.5004 19.3556L25.39 18.7188L26.7042 16.251L25.4341 14.1585L25.9311 12.8734L24.7163 11.9068L24.5506 9.29118L22.1651 8.18807L21.7233 7.13046L21.0165 6.89164L19.9673 5.17443L17.7474 5.27678L15.8699 3.55957L14.1581 4.1623L13.6059 3.85525L12.2475 4.53758L9.63002 3.9576L8.58083 5.09482L7.86296 4.99247L6.83585 6.61871L3.92021 7.5626L3.30174 10.2578L2.78266 10.6559L2.74953 11.2586L2.48447 11.5201L2.50656 11.8841L0.739502 13.8742L1.51259 15.9781L0.872033 17.2063L1.54572 18.4345L1.09292 20.4928L2.85997 22.3465L3.05877 23.9727L4.19631 24.5527L4.99149 27.0432L7.67521 27.5209L8.58083 28.7263L9.87299 28.6808L11.4523 29.8749L13.4955 29.0789L15.7816 30L16.7645 29.1357L17.648 29.3177L19.0948 27.6573L21.6791 27.3389L22.3528 25.599L22.8388 25.3829L23.2805 23.9159L25.6109 22.3124L25.3237 19.6399L25.5004 19.3556Z" fill="#727376"/>
<path d="M22.7615 21.812L22.1872 22.9947L23.3358 20.4019L22.7615 21.812Z" fill="#898A8D"/>
<path d="M18.6968 26.9295L17.8906 27.2593L20.1877 25.5308L18.6968 26.9295Z" fill="#A0A1A3"/>
<path d="M24.8597 14.8863L23.8878 11.7476L24.7714 13.4079L24.8597 14.8863Z" fill="#8D8E91"/>
<path d="M8.05035 27.009L7.19995 26.52L10.0162 27.5549L8.05035 27.009Z" fill="#6C6E70"/>
<path d="M25.5007 19.3558L24.6613 20.6182L25.2577 17.7979L25.5007 19.3558Z" fill="#F2F2F2"/>
<path d="M2.50655 12.8051L2.48447 11.52L3.88707 10.1099L2.50655 12.8051Z" fill="#E5E5E5"/>
<path d="M19.8021 26.7247L21.6354 25.6785L22.8392 25.3828L19.8021 26.7247Z" fill="#A0A0A0"/>
<path d="M22.839 25.383L21.6352 25.6787L23.4464 23.3701L22.839 25.383Z" fill="#CCCCCC"/>
<path d="M20.2437 6.75537L21.7236 7.13066L22.4305 8.82512L20.2437 6.75537Z" fill="#D8D8D8"/>
<path d="M18.6085 6.07275L21.723 7.13037L20.243 6.75509L18.6085 6.07275Z" fill="#F2F2F2"/>
<path d="M2.97052 21.937L4.71549 24.8028L3.05887 23.9726L2.97052 21.937Z" fill="#999999"/>
<path d="M2.96977 21.937L3.05812 23.9726L2.59427 20.3335L2.96977 21.937Z" fill="#A5A5A5"/>
<path d="M17.6484 29.3178L14.5561 28.6582L16.544 28.7492L17.6484 29.3178Z" fill="#BFBFBF"/>
<path d="M17.6485 29.3177L16.5441 28.7491L19.2499 27.4868L17.6485 29.3177Z" fill="#D8D8D8"/>
<path d="M1.92193 18.6617L2.59562 20.3334L0.872742 17.2061L1.92193 18.6617Z" fill="#BFBFBF"/>
<path d="M1.67896 15.6255L1.92193 18.6619L0.872742 17.2062L1.67896 15.6255Z" fill="#D8D8D8"/>
<path d="M14.5556 28.6582L11.4522 29.875L13.5506 28.9425L14.5556 28.6582Z" fill="#CCCCCC"/>
<path d="M15.8698 3.55957L18.6088 6.07283L17.5265 5.28815L15.8698 3.55957Z" fill="#E5E5E5"/>
<path d="M26.7045 16.2512L25.2467 14.6477L24.7828 13.1011L26.7045 16.2512Z" fill="#E5E5E5"/>
<path d="M25.2467 14.6477L24.319 11.5771L24.7829 13.101L25.2467 14.6477Z" fill="#808183"/>
<path d="M24.7829 13.1007L24.319 11.5768L24.5509 9.29102L24.7829 13.1007Z" fill="#D8D8D8"/>
<path d="M11.4524 29.875L10.2927 28.3853L13.5507 28.9425L11.4524 29.875Z" fill="#999999"/>
<path d="M11.4518 29.875L8.55823 27.6802L10.2922 28.3852L11.4518 29.875Z" fill="#999999"/>
<path d="M9.09974 5.39042L7.34372 6.45941L9.62986 3.95752L9.09974 5.39042Z" fill="#F2F2F2"/>
<path d="M9.62961 3.95752L12.744 4.65123L11.7611 4.76495L9.62961 3.95752Z" fill="#F2F2F2"/>
<path d="M9.1004 5.39042L9.63052 3.95752L11.762 4.76495L9.1004 5.39042Z" fill="#E5E5E5"/>
<path d="M14.6109 4.63993L15.8699 3.55957L17.5266 5.28815L14.6109 4.63993Z" fill="#F2F2F2"/>
<path d="M12.7443 4.65151L14.6108 4.64014L11.7614 4.76523L12.7443 4.65151Z" fill="#9C9EA0"/>
<path d="M12.7445 4.65131L15.87 3.55957L14.611 4.63993L12.7445 4.65131Z" fill="#E5E5E5"/>
<path d="M6.51541 7.10783L7.34372 6.45961L9.09973 5.39062L6.51541 7.10783Z" fill="#B9B9BA"/>
<path d="M6.51519 7.10769L3.91983 7.56258L7.3435 6.45947L6.51519 7.10769Z" fill="#E5E5E5"/>
<path d="M26.7042 16.2509L25.2022 17.3768L25.2464 14.6475L26.7042 16.2509Z" fill="#F2F2F2"/>
<path d="M25.2464 19.0144L25.2022 17.3768L26.7042 16.251L25.2464 19.0144Z" fill="#E5E5E5"/>
<path d="M16.5441 28.7491L18.3222 27.7484L19.2499 27.4868L16.5441 28.7491Z" fill="#BFBFBF"/>
<path d="M1.866 16.9902L1.92122 18.6619L1.67825 15.6255L1.866 16.9902Z" fill="#A5A5A5"/>
<path d="M8.55902 27.6799L7.31104 26.9976L10.2929 28.385L8.55902 27.6799Z" fill="#6E6F72"/>
<path d="M8.55846 27.6799L4.99121 27.043L7.31047 26.9976L8.55846 27.6799Z" fill="#999999"/>
<path d="M4.14071 9.75764L3.91983 7.5628L6.5152 7.10791L4.14071 9.75764Z" fill="#F2F2F2"/>
<path d="M4.1411 9.75734L3.05878 11.2471L3.92022 7.5625L4.1411 9.75734Z" fill="#E5E5E5"/>
<path d="M21.679 7.97217L24.5504 9.29135L22.7392 9.57565L21.679 7.97217Z" fill="#E5E5E5"/>
<path d="M22.7393 9.57532L24.5505 9.29102L24.3186 11.5768L22.7393 9.57532Z" fill="#F2F2F2"/>
<path d="M10.2927 28.3853L12.2475 28.59L13.5507 28.9425L10.2927 28.3853Z" fill="#CCCCCC"/>
<path d="M25.6112 22.3126L24.562 19.7311L25.2468 19.0146L25.6112 22.3126Z" fill="#D8D8D8"/>
<path d="M24.562 19.731L25.2026 17.377L25.2468 19.0146L24.562 19.731Z" fill="#CCCCCC"/>
<path d="M2.69479 12.5776L3.05925 11.2471L4.14157 9.75732L2.69479 12.5776Z" fill="#B9BABA"/>
<path d="M2.69431 12.5776L0.739502 13.8741L3.05877 11.2471L2.69431 12.5776Z" fill="#F2F2F2"/>
<path d="M14.6109 4.64014L17.5266 5.28836L16.5436 5.44757L14.6109 4.64014Z" fill="#CCCCCC"/>
<path d="M16.5441 5.44725L17.527 5.28804L19.9677 5.17432L16.5441 5.44725Z" fill="#F2F2F2"/>
<path d="M9.1004 5.39061L11.762 4.76514L10.9558 5.41336L9.1004 5.39061Z" fill="#CCCCCC"/>
<path d="M4.14059 9.75764L6.51508 7.10791L5.74199 8.37023L4.14059 9.75764Z" fill="#E5E5E5"/>
<path d="M5.19001 24.5298L7.31047 26.9976L4.99121 27.0431L5.19001 24.5298Z" fill="#A5A5A5"/>
<path d="M5.19003 24.5299L4.99124 27.0432L3.8316 23.3813L5.19003 24.5299Z" fill="#B2B2B2"/>
<path d="M25.6112 22.3125L23.4024 22.1191L24.562 19.731L25.6112 22.3125Z" fill="#E5E5E5"/>
<path d="M22.8941 24.1889L23.4022 22.1191L25.611 22.3125L22.8941 24.1889Z" fill="#F2F2F2"/>
<path d="M25.2465 14.6476L24.6391 15.1594L25.9313 12.8735L25.2465 14.6476Z" fill="#CCCCCC"/>
<path d="M25.2023 17.3768L24.6391 15.1592L25.2465 14.6475L25.2023 17.3768Z" fill="#D8D8D8"/>
<path d="M23.6669 11.9638L24.3185 11.5771L25.931 12.8736L23.6669 11.9638Z" fill="#E5E5E5"/>
<path d="M23.6669 11.9639L25.931 12.8736L24.6388 15.1595L23.6669 11.9639Z" fill="#F2F2F2"/>
<path d="M22.7393 9.57568L24.3186 11.5772L23.667 11.9639L22.7393 9.57568Z" fill="#CCCCCC"/>
<path d="M2.69431 12.5776L2.45134 15.307L0.739502 13.8741L2.69431 12.5776Z" fill="#D8D8D8"/>
<path d="M2.45134 15.3069L1.866 16.99L0.739502 13.874L2.45134 15.3069Z" fill="#B2B2B2"/>
<path d="M21.6792 7.97217L22.7394 9.57565L20.884 8.19961L21.6792 7.97217Z" fill="#CCCCCC"/>
<path d="M19.9674 5.17432L21.6792 7.97189L20.8841 8.19933L19.9674 5.17432Z" fill="#E5E5E5"/>
<path d="M10.9551 5.41347L11.7614 4.76525L13.6057 3.85547L10.9551 5.41347Z" fill="#D8D8D8"/>
<path d="M21.679 27.3391L21.7673 24.2003L22.8938 24.189L21.679 27.3391Z" fill="#D8D8D8"/>
<path d="M21.7672 24.2003L23.4017 22.1191L22.8937 24.1889L21.7672 24.2003Z" fill="#E5E5E5"/>
<path d="M15.7814 30.0001L12.2473 28.5899L14.4119 28.1123L15.7814 30.0001Z" fill="#A5A5A5"/>
<path d="M15.7813 29.9999L14.4118 28.1121L17.3054 27.3047L15.7813 29.9999Z" fill="#CCCCCC"/>
<path d="M15.7816 29.9999L17.3057 27.3047L18.3218 27.7482L15.7816 29.9999Z" fill="#E5E5E5"/>
<path d="M18.3217 27.7482L19.6359 25.9741L21.6791 27.3388L18.3217 27.7482Z" fill="#CCCCCC"/>
<path d="M21.6793 27.3389L19.6361 25.9743L21.7677 24.2002L21.6793 27.3389Z" fill="#E5E5E5"/>
<path d="M17.3058 27.3047L19.6361 25.9741L18.3219 27.7482L17.3058 27.3047Z" fill="#D8D8D8"/>
<path d="M3.63307 21.4138L3.83187 23.3812L1.09293 20.4927L3.63307 21.4138Z" fill="#B2B2B2"/>
<path d="M5.19018 24.5301L3.83176 23.3815L3.63297 21.4141L5.19018 24.5301Z" fill="#999999"/>
<path d="M2.72745 18.23L3.63307 21.4142L1.09293 20.4931L2.72745 18.23Z" fill="#999999"/>
<path d="M2.72786 18.2298L1.86642 16.9902L2.45176 15.3071L2.72786 18.2298Z" fill="#D8D8D8"/>
<path d="M2.72745 18.2298L1.09293 20.4929L1.86601 16.9902L2.72745 18.2298Z" fill="#F2F2F2"/>
<path d="M18.4876 7.1076L19.9675 5.17432L20.8841 8.19933L18.4876 7.1076Z" fill="#F2F2F2"/>
<path d="M16.5441 5.44725L19.9677 5.17432L18.4878 7.1076L16.5441 5.44725Z" fill="#E5E5E5"/>
<path d="M7.94024 7.54006L5.74246 8.37023L7.86293 4.99268L7.94024 7.54006Z" fill="#D8D8D8"/>
<path d="M12.2477 28.5898L8.58105 28.7262L11.2537 27.5776L12.2477 28.5898Z" fill="#A5A5A5"/>
<path d="M12.2476 28.5898L11.2536 27.5776L14.4122 28.1121L12.2476 28.5898Z" fill="#999999"/>
<path d="M7.12257 25.3713L7.31032 26.9976L5.18985 24.5298L7.12257 25.3713Z" fill="#999999"/>
<path d="M7.12286 25.3716L8.58069 28.7264L7.31061 26.9978L7.12286 25.3716Z" fill="#BFBFBF"/>
<path d="M7.94041 7.54006L7.8631 4.99268L10.6462 6.5393L7.94041 7.54006Z" fill="#E5E5E5"/>
<path d="M7.8631 4.99268L10.9555 5.41345L10.6462 6.5393L7.8631 4.99268Z" fill="#D8D8D8"/>
<path d="M2.78315 10.6558L3.58937 13.749L2.69479 12.5777L2.78315 10.6558Z" fill="#D8D8D8"/>
<path d="M3.58869 13.749L2.45114 15.307L2.69411 12.5776L3.58869 13.749Z" fill="#BFBFBF"/>
<path d="M16.5443 5.44727L18.4881 7.10761L15.8927 6.57312L16.5443 5.44727Z" fill="#CCCCCC"/>
<path d="M13.6056 3.85547L16.5433 5.44758L15.8917 6.57343L13.6056 3.85547Z" fill="#D8D8D8"/>
<path d="M5.67645 10.0988L5.74272 8.37022L7.9405 7.54004L5.67645 10.0988Z" fill="#F2F2F2"/>
<path d="M5.67658 10.0987L2.78302 10.6559L5.74284 8.37012L5.67658 10.0987Z" fill="#D8D8D8"/>
<path d="M10.9551 5.41347L13.6057 3.85547L13.164 6.41422L10.9551 5.41347Z" fill="#F2F2F2"/>
<path d="M13.1639 6.41422L13.6057 3.85547L15.8918 6.57343L13.1639 6.41422Z" fill="#E5E5E5"/>
<path d="M10.956 5.41309L13.1648 6.41384L10.6467 6.53894L10.956 5.41309Z" fill="#E5E5E5"/>
<path d="M23.6675 11.9639L24.6394 15.1595L23.0601 13.9199L23.6675 11.9639Z" fill="#E5E5E5"/>
<path d="M23.0601 13.9194L24.6394 15.159L25.3351 17.4562L23.0601 13.9194Z" fill="#CCCCCC"/>
<path d="M23.4019 22.1191L23.2032 19.5376L24.5616 19.7309L23.4019 22.1191Z" fill="#D8D8D8"/>
<path d="M24.5616 19.731L23.2032 19.5377L25.3347 17.4565L24.5616 19.731Z" fill="#F2F2F2"/>
<path d="M20.884 8.19922L22.7394 9.57526L22.9824 9.81407L20.884 8.19922Z" fill="#E5E5E5"/>
<path d="M22.9824 9.81445L23.6671 11.9638L23.0597 13.9198L22.9824 9.81445Z" fill="#D8D8D8"/>
<path d="M9.35378 25.7355L8.58069 28.7264L7.12286 25.3716L9.35378 25.7355Z" fill="#A5A5A5"/>
<path d="M9.35414 25.7354L11.2537 27.5777L8.58105 28.7263L9.35414 25.7354Z" fill="#BFBFBF"/>
<path d="M18.4876 7.10791L20.8841 8.19965L20.0227 9.35961L18.4876 7.10791Z" fill="#E5E5E5"/>
<path d="M20.0222 9.35918L20.8837 8.19922L22.9821 9.81407L20.0222 9.35918Z" fill="#F2F2F2"/>
<path d="M14.4118 28.1124L15.5493 26.4634L17.3054 27.3049L14.4118 28.1124Z" fill="#D8D8D8"/>
<path d="M14.4122 28.1124L13.3299 28.4876L15.5497 26.4634L14.4122 28.1124Z" fill="#E5E5E5"/>
<path d="M4.40619 19.5037L3.6331 21.4142L2.72748 18.23L4.40619 19.5037Z" fill="#BFBFBF"/>
<path d="M5.21272 12.68L3.58924 13.749L2.78302 10.6558L5.21272 12.68Z" fill="#CCCCCC"/>
<path d="M5.67658 10.0986L5.21272 12.6801L2.78302 10.6559L5.67658 10.0986Z" fill="#E5E5E5"/>
<path d="M19.6361 25.9745L19.9675 23.5977L21.7677 24.2004L19.6361 25.9745Z" fill="#D8D8D8"/>
<path d="M23.0593 13.9194L25.3344 17.4562L22.2089 16.1029L23.0593 13.9194Z" fill="#F2F2F2"/>
<path d="M22.2089 16.103L25.3344 17.4563L23.2029 19.5374L22.2089 16.103Z" fill="#D8D8D8"/>
<path d="M7.94077 7.53982L10.6466 6.53906L9.92871 8.55195L7.94077 7.53982Z" fill="#D8D8D8"/>
<path d="M23.0596 13.9197L22.2092 16.1031L21.1048 12.4526L23.0596 13.9197Z" fill="#CCCCCC"/>
<path d="M22.9823 9.81445L23.0596 13.9198L21.1048 12.4528L22.9823 9.81445Z" fill="#F2F2F2"/>
<path d="M20.0222 9.35938L22.9821 9.81426L21.1046 12.4526L20.0222 9.35938Z" fill="#D8D8D8"/>
<path d="M4.51685 23.313L7.12326 25.3714L5.19054 24.5298L4.51685 23.313Z" fill="#A5A5A5"/>
<path d="M4.40605 19.5034L4.51649 23.3131L3.63297 21.4139L4.40605 19.5034Z" fill="#A5A5A5"/>
<path d="M12.2807 25.8945L13.3299 28.4874L11.2536 27.5776L12.2807 25.8945Z" fill="#B2B2B2"/>
<path d="M12.2806 25.8946L11.2535 27.5777L9.35388 25.7354L12.2806 25.8946Z" fill="#999999"/>
<path d="M12.2807 25.8945L15.5498 26.4631L13.3299 28.4874L12.2807 25.8945Z" fill="#D8D8D8"/>
<path d="M2.63925 16.3076L4.40631 19.5032L2.7276 18.2295L2.63925 16.3076Z" fill="#B2B2B2"/>
<path d="M3.58869 13.749L2.63889 16.3078L2.45114 15.307L3.58869 13.749Z" fill="#F2F2F2"/>
<path d="M2.63889 16.3079L2.72724 18.2298L2.45114 15.3071L2.63889 16.3079Z" fill="#A5A5A5"/>
<path d="M6.86938 8.19963L7.94066 7.54004L9.92861 8.55217L6.86938 8.19963Z" fill="#E5E5E5"/>
<path d="M21.7676 24.2003L19.9674 23.5976L22.7064 22.2329L21.7676 24.2003Z" fill="#CCCCCC"/>
<path d="M23.4024 22.1191L22.7067 22.2328L23.2036 19.5376L23.4024 22.1191Z" fill="#CCCCCC"/>
<path d="M21.7672 24.2003L22.706 22.2329L23.4017 22.1191L21.7672 24.2003Z" fill="#D8D8D8"/>
<path d="M13.1639 6.41406L15.8918 6.57327L15.0414 8.16539L13.1639 6.41406Z" fill="#D8D8D8"/>
<path d="M8.08409 23.4495L7.12325 25.3714L4.51685 23.313L8.08409 23.4495Z" fill="#BFBFBF"/>
<path d="M9.35378 25.7355L7.12286 25.3716L8.0837 23.4497L9.35378 25.7355Z" fill="#999999"/>
<path d="M7.58646 11.2017L5.21198 12.6801L5.67583 10.0986L7.58646 11.2017Z" fill="#D8D8D8"/>
<path d="M6.86938 8.19922L9.92861 8.55176L7.58725 11.2015L6.86938 8.19922Z" fill="#D8D8D8"/>
<path d="M6.86922 8.19922L7.58709 11.2015L5.67645 10.0984L6.86922 8.19922Z" fill="#E5E5E5"/>
<path d="M17.3058 27.3049L15.5498 26.4634L18.3881 26.1904L17.3058 27.3049Z" fill="#BFBFBF"/>
<path d="M19.6357 25.9744L18.3878 26.1905L19.9671 23.5977L19.6357 25.9744Z" fill="#BFBFBF"/>
<path d="M17.3058 27.3047L18.3881 26.1902L19.6361 25.9741L17.3058 27.3047Z" fill="#E5E5E5"/>
<path d="M5.59859 15.0797L3.58856 13.7492L5.21205 12.6802L5.59859 15.0797Z" fill="#BFBFBF"/>
<path d="M5.59907 15.0796L2.63925 16.3078L3.58904 13.749L5.59907 15.0796Z" fill="#E5E5E5"/>
<path d="M15.0415 8.16536L15.8919 6.57324L18.167 7.71047L15.0415 8.16536Z" fill="#F2F2F2"/>
<path d="M15.8927 6.57324L18.4881 7.10774L18.1678 7.71047L15.8927 6.57324Z" fill="#D8D8D8"/>
<path d="M18.1669 7.71064L18.4871 7.10791L20.0223 9.35961L18.1669 7.71064Z" fill="#CCCCCC"/>
<path d="M22.2094 16.103L23.2034 19.5374L20.7958 18.3888L22.2094 16.103Z" fill="#E5E5E5"/>
<path d="M20.7958 18.3892L23.2034 19.5378L22.7064 22.233L20.7958 18.3892Z" fill="#F2F2F2"/>
<path d="M6.89136 20.743L4.51687 23.3131L4.40643 19.5034L6.89136 20.743Z" fill="#BFBFBF"/>
<path d="M6.89133 20.7432L8.08409 23.4498L4.51685 23.3133L6.89133 20.7432Z" fill="#A5A5A5"/>
<path d="M20.0228 9.35938L21.1051 12.4526L18.5981 11.4064L20.0228 9.35938Z" fill="#E5E5E5"/>
<path d="M18.1669 7.71045L20.0223 9.35942L18.5976 11.4064L18.1669 7.71045Z" fill="#F2F2F2"/>
<path d="M14.6109 24.3027L18.388 26.1905L15.5497 26.4635L14.6109 24.3027Z" fill="#A5A5A5"/>
<path d="M14.611 24.3027L15.5498 26.4635L12.2807 25.8948L14.611 24.3027Z" fill="#BFBFBF"/>
<path d="M6.89136 20.7428L4.40643 19.5032L6.11827 17.9111L6.89136 20.7428Z" fill="#999999"/>
<path d="M5.59907 15.0796L6.11815 17.9113L2.63925 16.3078L5.59907 15.0796Z" fill="#B2B2B2"/>
<path d="M6.11815 17.9111L4.40631 19.5032L2.63925 16.3076L6.11815 17.9111Z" fill="#A5A5A5"/>
<path d="M12.3911 7.11914L13.1642 6.41406L15.0417 8.16539L12.3911 7.11914Z" fill="#CCCCCC"/>
<path d="M10.6467 6.53916L13.1648 6.41406L12.3917 7.11914L10.6467 6.53916Z" fill="#D8D8D8"/>
<path d="M9.92877 8.55195L10.6466 6.53906L12.3916 7.11905L9.92877 8.55195Z" fill="#F2F2F2"/>
<path d="M20.7956 18.3892L22.7062 22.233L19.0285 20.5726L20.7956 18.3892Z" fill="#E5E5E5"/>
<path d="M19.0285 20.5723L22.7062 22.2326L19.9673 23.5973L19.0285 20.5723Z" fill="#CCCCCC"/>
<path d="M16.8864 22.6538L19.9677 23.5977L18.3884 26.1906L16.8864 22.6538Z" fill="#CCCCCC"/>
<path d="M16.886 22.6538L18.388 26.1906L14.6109 24.3028L16.886 22.6538Z" fill="#B2B2B2"/>
<path d="M19.029 20.5723L19.9677 23.5973L16.8864 22.6534L19.029 20.5723Z" fill="#BFBFBF"/>
<path d="M9.92877 8.55204L12.3916 7.11914L10.3484 10.8834L9.92877 8.55204Z" fill="#E5E5E5"/>
<path d="M9.92872 8.55176L10.3484 10.8831L7.58737 11.2015L9.92872 8.55176Z" fill="#CCCCCC"/>
<path d="M15.0415 8.16534L18.167 7.71045L15.8809 10.7127L15.0415 8.16534Z" fill="#D8D8D8"/>
<path d="M18.1671 7.71045L18.5978 11.4064L15.8809 10.7127L18.1671 7.71045Z" fill="#E5E5E5"/>
<path d="M12.3907 7.11914L13.0202 10.4626L10.3476 10.8834L12.3907 7.11914Z" fill="#BFBFBF"/>
<path d="M12.3911 7.11914L15.0417 8.16538L13.0206 10.4626L12.3911 7.11914Z" fill="#E5E5E5"/>
<path d="M15.0419 8.16553L15.8812 10.7129L13.0208 10.4627L15.0419 8.16553Z" fill="#CCCCCC"/>
<path d="M9.81762 21.5278L8.08369 23.4498L6.89093 20.7432L9.81762 21.5278Z" fill="#999999"/>
<path d="M16.8861 22.6535L14.611 24.3025L13.2416 21.9712L16.8861 22.6535Z" fill="#A5A5A5"/>
<path d="M8.16163 16.1486L6.11847 17.9113L5.5994 15.0796L8.16163 16.1486Z" fill="#999999"/>
<path d="M10.6571 24.7119L12.2806 25.8946L9.35388 25.7354L10.6571 24.7119Z" fill="#BFBFBF"/>
<path d="M9.81836 21.5278L13.242 21.9714L10.6577 24.7121L9.81836 21.5278Z" fill="#BFBFBF"/>
<path d="M13.2409 21.9712L14.6104 24.3025L10.6566 24.7119L13.2409 21.9712Z" fill="#999999"/>
<path d="M10.6566 24.7121L14.6104 24.3027L12.2801 25.8948L10.6566 24.7121Z" fill="#B2B2B2"/>
<path d="M9.81779 21.5278L10.6571 24.7121L8.08386 23.4498L9.81779 21.5278Z" fill="#A5A5A5"/>
<path d="M10.6571 24.712L9.35394 25.7355L8.08386 23.4497L10.6571 24.712Z" fill="#B2B2B2"/>
<path d="M20.796 18.3889L19.029 20.5724L17.7037 17.1152L20.796 18.3889Z" fill="#CCCCCC"/>
<path d="M13.0202 10.4624L10.4359 13.4419L10.3476 10.8832L13.0202 10.4624Z" fill="#B2B2B2"/>
<path d="M18.5978 11.4066L16.5657 13.7379L15.8809 10.7129L18.5978 11.4066Z" fill="#D8D8D8"/>
<path d="M21.1047 12.4526L22.2091 16.1031L20.3868 14.4087L21.1047 12.4526Z" fill="#E5E5E5"/>
<path d="M18.5978 11.4062L20.387 14.4085L16.5657 13.7376L18.5978 11.4062Z" fill="#E5E5E5"/>
<path d="M18.5981 11.4062L21.1051 12.4525L20.3872 14.4085L18.5981 11.4062Z" fill="#D8D8D8"/>
<path d="M20.3874 14.4087L20.796 18.389L17.7037 17.1153L20.3874 14.4087Z" fill="#F2F2F2"/>
<path d="M20.3868 14.4087L22.2091 16.1032L20.7954 18.389L20.3868 14.4087Z" fill="#D8D8D8"/>
<path d="M16.5657 13.7378L20.387 14.4088L17.7032 17.1153L16.5657 13.7378Z" fill="#D8D8D8"/>
<path d="M7.00131 13.2715L10.436 13.4421L8.16095 16.1487L7.00131 13.2715Z" fill="#BFBFBF"/>
<path d="M10.3477 10.8833L10.436 13.4421L7.00131 13.2715L10.3477 10.8833Z" fill="#D8D8D8"/>
<path d="M7.002 13.2715L8.16163 16.1487L5.5994 15.0797L7.002 13.2715Z" fill="#A5A5A5"/>
<path d="M7.00112 13.2715L5.59852 15.0797L5.21198 12.6802L7.00112 13.2715Z" fill="#B2B2B2"/>
<path d="M7.58646 11.2017L7.00112 13.2714L5.21198 12.6801L7.58646 11.2017Z" fill="#F2F2F2"/>
<path d="M7.58665 11.2017L10.3477 10.8833L7.00131 13.2715L7.58665 11.2017Z" fill="#E5E5E5"/>
<path d="M12.1155 19.1509L13.242 21.9712L9.81836 21.5277L12.1155 19.1509Z" fill="#A5A5A5"/>
<path d="M10.436 13.4419L11.1208 16.2963L8.16095 16.1485L10.436 13.4419Z" fill="#999999"/>
<path d="M14.3791 16.3646L12.115 19.1508L11.1211 16.2964L14.3791 16.3646Z" fill="#999999"/>
<path d="M16.5658 13.7378L17.7034 17.1153L14.3791 16.3648L16.5658 13.7378Z" fill="#CCCCCC"/>
<path d="M8.35962 19.2419L12.1146 19.1509L9.81744 21.5277L8.35962 19.2419Z" fill="#BFBFBF"/>
<path d="M8.3598 19.2417L9.81762 21.5275L6.89093 20.7428L8.3598 19.2417Z" fill="#A5A5A5"/>
<path d="M8.1613 16.1489L8.36009 19.2422L6.11813 17.9116L8.1613 16.1489Z" fill="#A5A5A5"/>
<path d="M8.36009 19.2417L6.89122 20.7428L6.11813 17.9111L8.36009 19.2417Z" fill="#BFBFBF"/>
<path d="M11.1206 16.2964L12.1146 19.1508L8.35962 19.2418L11.1206 16.2964Z" fill="#A5A5A5"/>
<path d="M8.16095 16.1489L11.1208 16.2968L8.35974 19.2422L8.16095 16.1489Z" fill="#B2B2B2"/>
<path d="M13.3077 12.7256L16.5657 13.7377L14.379 16.3647L13.3077 12.7256Z" fill="#D8D8D8"/>
<path d="M15.881 10.7129L16.5657 13.7379L13.3077 12.7258L15.881 10.7129Z" fill="#F2F2F2"/>
<path d="M13.0208 10.4624L15.8812 10.7126L13.308 12.7255L13.0208 10.4624Z" fill="#BFBFBF"/>
<path d="M13.3078 12.7256L14.3791 16.3647L11.1211 16.2965L13.3078 12.7256Z" fill="#A5A5A5"/>
<path d="M13.0201 10.4624L13.3073 12.7255L10.4358 13.4419L13.0201 10.4624Z" fill="#F2F2F2"/>
<path d="M10.4358 13.442L13.3073 12.7256L11.1206 16.2965L10.4358 13.442Z" fill="#B2B2B2"/>
<path d="M17.7033 17.1152L19.0286 20.5724L15.7816 19.9924L17.7033 17.1152Z" fill="#F2F2F2"/>
<path d="M15.7816 19.9922L19.0286 20.5722L16.886 22.6533L15.7816 19.9922Z" fill="#D8D8D8"/>
<path d="M14.3794 16.3647L15.782 19.9925L12.1154 19.1509L14.3794 16.3647Z" fill="#B2B2B2"/>
<path d="M14.3791 16.3647L17.7034 17.1153L15.7817 19.9925L14.3791 16.3647Z" fill="#D8D8D8"/>
<path d="M15.7817 19.9922L16.8861 22.6533L13.2416 21.971L15.7817 19.9922Z" fill="#BFBFBF"/>
<path d="M12.1154 19.1509L15.782 19.9924L13.2419 21.9712L12.1154 19.1509Z" fill="#999999"/>
<path d="M2.78305 3.33203L5.34529 4.45789L6.29508 6.82331L2.78305 3.33203Z" fill="#727272"/>
<path d="M5.74251 3.46867L6.29472 6.82348L5.34492 4.45806L4.4614 2.45654L5.74251 3.46867Z" fill="#A5A5A5"/>
<path d="M0.905457 2.45654L2.78296 3.3322L5.34519 4.45806L4.46166 2.45654H0.905457Z" fill="#8C8C8C"/>
<path d="M2.92653 1.02344L4.46167 2.45634H0.905457L2.92653 1.02344Z" fill="#B2B2B2"/>
<path d="M0 1.02344H2.92669L0.905617 2.45634L0 1.02344Z" fill="#BFBFBF"/>
<path d="M2.92669 1.0235L4.90359 1.17134L3.11444 0L0 1.0235H2.92669Z" fill="#8C8C8C"/>
<path d="M5.8428 1.17134H4.90405L3.1149 0L5.8428 1.17134Z" fill="#A5A5A5"/>
<path d="M5.74298 3.46847L4.90363 1.17128L2.92673 1.02344L4.46186 2.45634L5.74298 3.46847Z" fill="#727272"/>
<path d="M6.83656 6.65249L5.74319 3.46826L6.2954 6.82307L6.83656 6.65249Z" fill="#727272"/>
<path d="M5.8424 1.17139L6.83637 6.65281L5.74301 3.46858L4.90366 1.17139H5.8424Z" fill="#8C8C8C"/>
</svg>
