<svg viewBox="0 0 303 323" fill="none" xmlns="http://www.w3.org/2000/svg">
<path opacity="0.5" d="M46.0059 -113.346C45.9164 -113.206 45.9019 -113.028 45.9652 -112.871L202.736 269.363C202.82 269.569 203.026 269.699 203.251 269.687L297.709 264.354C297.931 264.34 298.121 264.187 298.18 263.975L299.098 260.665L302.355 260.481C302.577 260.468 302.767 260.315 302.826 260.103L303.744 256.793L306.999 256.608C307.222 256.594 307.412 256.445 307.471 256.229L308.388 252.919L311.645 252.735C311.868 252.722 312.057 252.569 312.117 252.357L313.035 249.047L316.292 248.863C316.514 248.849 316.704 248.696 316.763 248.484L317.681 245.174L320.938 244.991C321.16 244.977 321.349 244.826 321.409 244.612L322.327 241.302L325.584 241.118C325.807 241.104 325.996 240.952 326.056 240.739L326.974 237.429L330.228 237.244C330.451 237.231 330.64 237.078 330.7 236.866L331.618 233.556L334.875 233.372C335.097 233.358 335.287 233.205 335.346 232.993L336.264 229.683L339.521 229.5C339.743 229.486 339.932 229.335 339.992 229.121L340.91 225.811L344.165 225.626C344.388 225.612 344.577 225.459 344.637 225.247L345.554 221.937L348.809 221.752C349.032 221.738 349.221 221.586 349.281 221.373L350.199 218.063L353.455 217.88C353.678 217.866 353.868 217.713 353.927 217.501L464.061 -179.808C464.107 -179.97 464.069 -180.144 463.963 -180.275C463.926 -180.321 463.881 -180.361 463.83 -180.392C463.739 -180.448 463.634 -180.475 463.525 -180.468L384.357 -176.012C384.134 -175.999 383.946 -175.848 383.885 -175.634L382.967 -172.324L379.713 -172.139C379.49 -172.125 379.302 -171.974 379.241 -171.76L378.323 -168.45L375.068 -168.265C374.846 -168.251 374.658 -168.1 374.597 -167.886L373.679 -164.576L370.422 -164.392C370.199 -164.379 370.011 -164.228 369.951 -164.014L369.033 -160.704L365.778 -160.519C365.555 -160.505 365.367 -160.354 365.306 -160.14L364.389 -156.83L361.134 -156.645C360.911 -156.631 360.723 -156.481 360.662 -156.266L359.744 -152.956L356.49 -152.771C356.267 -152.757 356.077 -152.608 356.018 -152.392L355.1 -149.083L351.846 -148.897C351.623 -148.884 351.435 -148.733 351.374 -148.519L350.456 -145.209L347.201 -145.024C346.979 -145.01 346.791 -144.859 346.73 -144.645L345.812 -141.335L342.555 -141.151C342.332 -141.138 342.144 -140.987 342.083 -140.773L341.166 -137.463L337.911 -137.278C337.688 -137.264 337.5 -137.113 337.439 -136.899L336.522 -133.589L333.267 -133.404C333.044 -133.39 332.856 -133.239 332.795 -133.025L331.877 -129.715L328.623 -129.53C328.4 -129.516 328.212 -129.366 328.151 -129.151L313.847 -77.5485L219.549 -72.2238L181.815 -164.225C181.731 -164.431 181.524 -164.563 181.301 -164.549L102.147 -160.078C101.978 -160.07 101.827 -159.979 101.736 -159.837C101.647 -159.696 101.632 -159.519 101.697 -159.363L102.867 -156.507L97.5027 -156.205C97.3361 -156.195 97.1829 -156.106 97.092 -155.963C97.0025 -155.823 96.988 -155.645 97.0513 -155.487L98.2218 -152.631L92.8572 -152.329C92.6884 -152.32 92.5374 -152.23 92.4465 -152.087C92.3556 -151.945 92.3425 -151.769 92.4058 -151.611L93.5763 -148.756L88.2118 -148.453C88.0452 -148.443 87.8919 -148.354 87.8011 -148.211C87.7102 -148.069 87.697 -147.893 87.7582 -147.737L88.9287 -144.881L83.5642 -144.578C83.3954 -144.57 83.2443 -144.479 83.1534 -144.337C83.0639 -144.196 83.0494 -144.019 83.1127 -143.861L84.2832 -141.005L78.9187 -140.702C78.7499 -140.694 78.5988 -140.603 78.508 -140.461C78.4184 -140.321 78.4039 -140.143 78.4651 -139.986L79.6356 -137.131L74.2711 -136.828C74.1044 -136.818 73.9512 -136.729 73.8604 -136.586C73.7695 -136.444 73.7563 -136.268 73.8175 -136.112L74.988 -133.256L69.6235 -132.953C69.4547 -132.945 69.3036 -132.854 69.2128 -132.712C69.1219 -132.569 69.1087 -132.394 69.1721 -132.236L70.3425 -129.38L64.978 -129.077C64.8113 -129.068 64.6581 -128.978 64.5672 -128.836C64.4764 -128.693 64.4632 -128.518 64.5244 -128.361L65.695 -125.506L60.3304 -125.203C60.1615 -125.194 60.0105 -125.104 59.9196 -124.961C59.8288 -124.819 59.8156 -124.643 59.879 -124.486L61.0494 -121.63L55.6849 -121.327C55.5183 -121.317 55.3651 -121.228 55.2742 -121.085C55.1847 -120.945 55.1701 -120.767 55.2348 -120.612L56.4053 -117.756L51.0407 -117.453C50.8741 -117.443 50.7209 -117.354 50.6301 -117.212C50.5392 -117.069 50.526 -116.894 50.5907 -116.738L51.7612 -113.882L46.3966 -113.58C46.2478 -113.579 46.0968 -113.489 46.0059 -113.346ZM299.39 259.604L300.113 256.995L302.64 256.852L301.917 259.461L299.39 259.604ZM335.06 -59.9956L335.978 -63.3055L339.235 -63.4892C339.457 -63.503 339.645 -63.6537 339.706 -63.868L340.624 -67.1779L343.879 -67.3629C344.101 -67.3767 344.289 -67.5274 344.35 -67.7417L345.268 -71.0517L348.523 -71.2367C348.745 -71.2504 348.934 -71.4011 348.994 -71.6155L349.912 -74.9254L353.169 -75.1091C353.392 -75.1229 353.58 -75.2735 353.641 -75.4879L354.559 -78.7978L357.813 -78.9828C358.036 -78.9966 358.224 -79.1472 358.285 -79.3616L372.588 -130.962L407.114 -132.913L309.478 219.307L259.293 222.141L120.312 -116.718L125.264 -116.997L162.997 -24.9954C163.082 -24.7894 163.289 -24.6584 163.512 -24.6722L302.08 -32.4972C302.303 -32.511 302.494 -32.6625 302.552 -32.876L303.47 -36.1859L306.724 -36.3709C306.947 -36.3847 307.136 -36.5375 307.196 -36.7497L308.114 -40.0597L311.37 -40.2434C311.593 -40.2571 311.783 -40.4099 311.842 -40.6221L312.76 -43.9321L316.015 -44.1171C316.237 -44.1309 316.427 -44.2837 316.486 -44.4959L317.404 -47.8058L320.659 -47.9908C320.881 -48.0046 321.071 -48.1574 321.13 -48.3696L322.048 -51.6795L325.303 -51.8645C325.526 -51.8783 325.714 -52.029 325.775 -52.2433L326.692 -55.5533L329.947 -55.7383C330.17 -55.7521 330.358 -55.9027 330.419 -56.1171L331.337 -59.427L334.591 -59.612C334.812 -59.6271 335.001 -59.7799 335.06 -59.9956ZM331.626 -60.4898L332.35 -63.0989L334.876 -63.2412L334.153 -60.6322L331.626 -60.4898ZM330.233 -59.3696L329.51 -56.7606L326.984 -56.6182L327.707 -59.2273L330.233 -59.3696ZM325.589 -55.4959L324.866 -52.8868L322.339 -52.7445L323.063 -55.3535L325.589 -55.4959ZM320.944 -51.62L320.22 -49.0109L317.694 -48.8686L318.417 -51.4777L320.944 -51.62ZM316.3 -47.7463L315.576 -45.1372L313.05 -44.9949L313.773 -47.6039L316.3 -47.7463ZM311.656 -43.8725L310.932 -41.2635L308.406 -41.1212L309.129 -43.7302L311.656 -43.8725ZM307.011 -39.9988L306.288 -37.3897L303.762 -37.2474L304.485 -39.8565L307.011 -39.9988ZM302.367 -36.1251L301.644 -33.516L163.819 -25.7334L126.085 -117.735C126.001 -117.941 125.793 -118.072 125.572 -118.06L119.894 -117.741L118.864 -120.252L129.907 -120.874L167.641 -28.8726C167.725 -28.6666 167.933 -28.5356 168.155 -28.5494L302.367 -36.1251ZM258.469 222.878C258.554 223.084 258.761 223.215 258.984 223.201L309.184 220.368L308.461 222.977L254.649 226.015L114.22 -116.372L119.211 -116.653L258.469 222.878ZM310.579 219.245L408.314 -133.334C408.36 -133.495 408.322 -133.67 408.218 -133.8C408.181 -133.846 408.135 -133.887 408.085 -133.917C407.995 -133.973 407.889 -133.999 407.781 -133.992L372.88 -132.02L373.604 -134.629L411.759 -136.783L313.105 219.103L310.579 219.245ZM371.485 -130.902L357.377 -80.0016L354.851 -79.8593L368.959 -130.759L371.485 -130.902ZM352.733 -76.1279L350.206 -75.9855L350.93 -78.5946L353.456 -78.7369L352.733 -76.1279ZM348.81 -74.8645L348.087 -72.2555L345.56 -72.1132L346.284 -74.7222L348.81 -74.8645ZM344.166 -70.9908L343.443 -68.3818L340.916 -68.2394L341.639 -70.8485L344.166 -70.9908ZM339.522 -67.1171L338.798 -64.508L336.272 -64.3657L336.995 -66.9747L339.522 -67.1171ZM337.288 -68.0328L338.011 -70.6418L340.538 -70.7842L339.815 -68.1751L337.288 -68.0328ZM335.895 -66.9126L335.172 -64.3035L332.645 -64.1612L333.369 -66.7702L335.895 -66.9126ZM331.25 -63.0367L330.526 -60.4276L328 -60.2853L328.723 -62.8943L331.25 -63.0367ZM326.606 -59.163L325.882 -56.5539L323.356 -56.4116L324.079 -59.0206L326.606 -59.163ZM321.961 -55.2892L321.238 -52.6802L318.712 -52.5378L319.435 -55.1469L321.961 -55.2892ZM317.317 -51.4155L316.594 -48.8064L314.067 -48.6641L314.791 -51.2732L317.317 -51.4155ZM312.673 -47.5417L311.95 -44.9327L309.423 -44.7904L310.147 -47.3994L312.673 -47.5417ZM308.029 -43.668L307.306 -41.059L304.779 -40.9166L305.503 -43.5257L308.029 -43.668ZM303.385 -39.7943L302.662 -37.1853L168.465 -29.6058L130.731 -121.607C130.647 -121.813 130.442 -121.943 130.217 -121.931L118.446 -121.265L117.417 -123.776L134.552 -124.744L172.286 -32.7429C172.37 -32.5369 172.577 -32.4058 172.8 -32.4196L303.385 -39.7943ZM118.792 -117.676L113.801 -117.395L112.772 -119.906L117.763 -120.187L118.792 -117.676ZM253.825 226.752C253.909 226.958 254.117 227.089 254.34 227.075L308.167 224.037L307.443 226.646L250.004 229.889L108.128 -116.029L113.12 -116.31L253.825 226.752ZM309.561 222.914L310.284 220.305L312.811 220.163L312.087 222.772L309.561 222.914ZM314.205 219.041L412.958 -137.208C413.004 -137.369 412.966 -137.544 412.862 -137.673C412.825 -137.72 412.779 -137.76 412.729 -137.791C412.639 -137.847 412.533 -137.873 412.425 -137.866L373.898 -135.69L374.621 -138.299L416.405 -140.659L316.733 218.896L314.205 219.041ZM372.503 -134.571L371.78 -131.962L369.253 -131.819L369.976 -134.428L372.503 -134.571ZM367.859 -130.697L353.751 -79.7971L351.224 -79.6548L365.332 -130.555L367.859 -130.697ZM349.104 -75.9247L346.578 -75.7824L347.301 -78.3914L349.828 -78.5338L349.104 -75.9247ZM345.183 -74.66L344.46 -72.051L341.934 -71.9086L342.657 -74.5177L345.183 -74.66ZM342.95 -75.5757L343.673 -78.1847L346.2 -78.3271L345.476 -75.718L342.95 -75.5757ZM341.556 -74.4534L340.832 -71.8443L338.306 -71.702L339.029 -74.311L341.556 -74.4534ZM336.911 -70.5796L336.188 -67.9706L333.662 -67.8283L334.385 -70.4373L336.911 -70.5796ZM332.267 -66.7059L331.544 -64.0969L329.017 -63.9545L329.741 -66.5635L332.267 -66.7059ZM327.623 -62.8322L326.9 -60.2231L324.373 -60.0808L325.097 -62.6898L327.623 -62.8322ZM322.979 -58.9584L322.256 -56.3494L319.729 -56.207L320.453 -58.8161L322.979 -58.9584ZM318.335 -55.0847L317.611 -52.4756L315.085 -52.3333L315.808 -54.9424L318.335 -55.0847ZM313.691 -51.211L312.967 -48.6019L310.441 -48.4596L311.164 -51.0686L313.691 -51.211ZM309.047 -47.3373L308.323 -44.7282L305.797 -44.5859L306.52 -47.1949L309.047 -47.3373ZM304.402 -43.4635L303.679 -40.8545L173.109 -33.4796L135.375 -125.481C135.291 -125.687 135.084 -125.818 134.862 -125.807L117 -124.798L115.971 -127.309L139.198 -128.62L176.931 -36.6187C177.015 -36.4128 177.223 -36.2817 177.446 -36.2955L304.402 -43.4635ZM117.344 -121.205L112.352 -120.923L111.323 -123.434L116.314 -123.716L117.344 -121.205ZM112.7 -117.331L107.708 -117.05L106.679 -119.561L111.67 -119.842L112.7 -117.331ZM249.181 230.625C249.265 230.831 249.473 230.962 249.696 230.949L307.15 227.704L306.427 230.313L245.36 233.762L102.035 -115.687L107.026 -115.968L249.181 230.625ZM308.543 226.584L309.267 223.975L311.793 223.832L311.07 226.441L308.543 226.584ZM313.188 222.71L313.911 220.101L316.437 219.959L315.714 222.568L313.188 222.71ZM317.833 218.834L417.602 -141.085C417.648 -141.246 417.61 -141.421 417.505 -141.551C417.468 -141.597 417.422 -141.637 417.373 -141.668C417.282 -141.724 417.176 -141.75 417.068 -141.743L374.915 -139.362L375.638 -141.971L421.048 -144.536L320.359 218.692L317.833 218.834ZM373.52 -138.24L372.797 -135.631L370.271 -135.489L370.994 -138.098L373.52 -138.24ZM368.876 -134.366L368.153 -131.757L365.626 -131.615L366.35 -134.224L368.876 -134.366ZM364.232 -130.492L350.124 -79.5926L347.597 -79.4503L361.706 -130.35L364.232 -130.492ZM361.996 -131.409L362.72 -134.019L365.246 -134.161L364.523 -131.552L361.996 -131.409ZM360.603 -130.289L346.495 -79.3894L343.969 -79.2471L358.077 -130.147L360.603 -130.289ZM341.85 -75.5136L339.323 -75.3712L340.047 -77.9802L342.573 -78.1226L341.85 -75.5136ZM337.929 -74.2488L337.206 -71.6398L334.679 -71.4975L335.403 -74.1065L337.929 -74.2488ZM333.285 -70.3751L332.561 -67.7661L330.035 -67.6237L330.758 -70.2328L333.285 -70.3751ZM328.641 -66.5014L327.917 -63.8923L325.391 -63.75L326.114 -66.359L328.641 -66.5014ZM323.997 -62.6277L323.273 -60.0186L320.747 -59.8762L321.47 -62.4853L323.997 -62.6277ZM319.352 -58.7539L318.629 -56.1449L316.103 -56.0025L316.826 -58.6116L319.352 -58.7539ZM314.708 -54.8802L313.985 -52.2711L311.458 -52.1288L312.182 -54.7379L314.708 -54.8802ZM310.064 -51.0065L309.341 -48.3974L306.814 -48.2551L307.538 -50.8641L310.064 -51.0065ZM305.42 -47.1327L304.697 -44.5237L177.755 -37.3555L140.021 -129.357C139.937 -129.563 139.731 -129.693 139.507 -129.68L115.553 -128.328L114.523 -130.839L143.842 -132.494L181.575 -40.4925C181.659 -40.2865 181.867 -40.1554 182.09 -40.1692L305.42 -47.1327ZM115.896 -124.735L110.905 -124.454L109.876 -126.965L114.867 -127.246L115.896 -124.735ZM111.252 -120.861L106.261 -120.58L105.232 -123.091L110.223 -123.372L111.252 -120.861ZM106.608 -116.988L101.617 -116.706L100.587 -119.217L105.579 -119.498L106.608 -116.988ZM244.537 234.499C244.621 234.705 244.829 234.836 245.051 234.822L306.133 231.373L305.409 233.982L240.716 237.636L95.9432 -115.344L100.935 -115.625L244.537 234.499ZM307.527 230.251L308.251 227.642L310.777 227.499L310.054 230.108L307.527 230.251ZM312.171 226.377L312.895 223.768L315.421 223.626L314.698 226.235L312.171 226.377ZM316.815 222.503L317.539 219.894L320.065 219.752L319.342 222.361L316.815 222.503ZM321.46 218.63L422.246 -144.959C422.292 -145.12 422.254 -145.295 422.149 -145.424C422.113 -145.471 422.068 -145.51 422.017 -145.542C421.926 -145.598 421.821 -145.624 421.712 -145.617L375.93 -143.033L376.654 -145.642L425.69 -148.411L323.986 218.487L321.46 218.63ZM374.536 -141.91L373.813 -139.301L371.286 -139.159L372.009 -141.768L374.536 -141.91ZM369.892 -138.037L369.168 -135.428L366.642 -135.285L367.365 -137.894L369.892 -138.037ZM367.658 -138.952L368.382 -141.562L370.908 -141.704L370.185 -139.095L367.658 -138.952ZM366.265 -137.832L365.542 -135.223L363.015 -135.081L363.739 -137.69L366.265 -137.832ZM361.62 -133.956L360.896 -131.347L358.37 -131.205L359.093 -133.814L361.62 -133.956ZM356.976 -130.083L342.867 -79.1828L340.341 -79.0404L354.449 -129.94L356.976 -130.083ZM338.223 -75.309L335.697 -75.1667L336.42 -77.7757L338.947 -77.9181L338.223 -75.309ZM334.302 -74.0443L333.579 -71.4353L331.053 -71.293L331.776 -73.902L334.302 -74.0443ZM329.658 -70.1706L328.935 -67.5615L326.408 -67.4192L327.132 -70.0283L329.658 -70.1706ZM325.014 -66.2969L324.291 -63.6878L321.764 -63.5455L322.488 -66.1545L325.014 -66.2969ZM320.37 -62.4231L319.647 -59.8141L317.12 -59.6718L317.844 -62.2808L320.37 -62.4231ZM315.726 -58.5494L315.003 -55.9403L312.476 -55.798L313.199 -58.4071L315.726 -58.5494ZM311.08 -54.677L310.356 -52.068L307.83 -51.9256L308.553 -54.5347L311.08 -54.677ZM306.436 -50.7998L305.713 -48.1907L182.397 -41.227L144.664 -133.229C144.58 -133.435 144.374 -133.564 144.149 -133.552L114.103 -131.854L113.073 -134.365L148.485 -136.366L186.218 -44.364C186.302 -44.1581 186.51 -44.027 186.733 -44.0408L306.436 -50.7998ZM114.449 -128.265L109.458 -127.984L108.428 -130.495L113.42 -130.776L114.449 -128.265ZM109.805 -124.392L104.814 -124.11L103.784 -126.621L108.776 -126.903L109.805 -124.392ZM105.161 -120.518L100.169 -120.237L99.1401 -122.748L104.131 -123.029L105.161 -120.518ZM100.517 -116.644L95.5253 -116.363L94.496 -118.874L99.4873 -119.155L100.517 -116.644ZM239.893 238.373C239.977 238.579 240.185 238.71 240.407 238.696L305.115 235.042L304.392 237.651L236.07 241.508L89.8505 -114.998L94.8418 -115.279L239.893 238.373ZM306.51 233.92L307.233 231.311L309.759 231.169L309.036 233.778L306.51 233.92ZM311.154 230.046L311.877 227.437L314.404 227.295L313.68 229.904L311.154 230.046ZM315.798 226.173L316.521 223.563L319.048 223.421L318.324 226.03L315.798 226.173ZM320.442 222.299L321.165 219.69L323.692 219.547L322.968 222.156L320.442 222.299ZM325.086 218.425L426.89 -148.833C426.936 -148.994 426.898 -149.168 426.791 -149.299C426.755 -149.346 426.71 -149.385 426.659 -149.417C426.568 -149.473 426.463 -149.499 426.354 -149.492L376.944 -146.701L377.668 -149.31L430.331 -152.284L327.615 218.284L325.086 218.425ZM375.553 -145.58L374.83 -142.971L372.304 -142.828L373.027 -145.437L375.553 -145.58ZM373.32 -146.495L374.043 -149.104L376.57 -149.247L375.846 -146.638L373.32 -146.495ZM371.927 -145.375L371.204 -142.766L368.677 -142.624L369.4 -145.233L371.927 -145.375ZM367.283 -141.501L366.559 -138.892L364.033 -138.75L364.756 -141.359L367.283 -141.501ZM362.637 -137.626L361.914 -135.017L359.387 -134.874L360.111 -137.483L362.637 -137.626ZM357.993 -133.752L357.27 -131.143L354.743 -131.001L355.467 -133.61L357.993 -133.752ZM353.349 -129.878L339.241 -78.9783L336.714 -78.8359L350.823 -129.736L353.349 -129.878ZM334.597 -75.1045L332.07 -74.9622L332.794 -77.5712L335.32 -77.7135L334.597 -75.1045ZM330.676 -73.8398L329.952 -71.2308L327.426 -71.0884L328.149 -73.6975L330.676 -73.8398ZM326.03 -69.9674L325.306 -67.3584L322.78 -67.216L323.503 -69.8251L326.03 -69.9674ZM321.384 -66.0915L320.661 -63.4825L318.134 -63.3401L318.858 -65.9492L321.384 -66.0915ZM316.74 -62.2178L316.017 -59.6087L313.49 -59.4664L314.213 -62.0755L316.74 -62.2178ZM312.096 -58.3441L311.372 -55.735L308.846 -55.5927L309.569 -58.2017L312.096 -58.3441ZM307.452 -54.4703L306.728 -51.8613L187.039 -45.1021L149.306 -137.104C149.222 -137.31 149.016 -137.439 148.791 -137.427L112.653 -135.386L111.624 -137.897L153.127 -140.241L190.86 -48.2391C190.944 -48.0331 191.152 -47.9021 191.374 -47.9159L307.452 -54.4703ZM113.002 -131.796L108.01 -131.514L106.981 -134.025L111.972 -134.307L113.002 -131.796ZM108.356 -127.92L103.365 -127.639L102.336 -130.15L107.327 -130.431L108.356 -127.92ZM103.714 -124.048L98.7222 -123.767L97.6928 -126.278L102.684 -126.559L103.714 -124.048ZM99.0681 -120.172L94.0767 -119.891L93.0473 -122.402L98.0387 -122.683L99.0681 -120.172ZM94.4239 -116.299L89.4326 -116.017L88.4032 -118.528L93.3945 -118.81L94.4239 -116.299ZM235.247 242.249C235.332 242.455 235.537 242.584 235.762 242.572L304.098 238.712L303.374 241.321L231.424 245.384L83.7556 -114.654L88.7469 -114.935L235.247 242.249ZM305.492 237.589L306.215 234.98L308.742 234.838L308.018 237.447L305.492 237.589ZM310.136 233.715L310.859 231.106L313.386 230.964L312.663 233.573L310.136 233.715ZM314.78 229.842L315.504 227.233L318.03 227.09L317.307 229.699L314.78 229.842ZM319.424 225.968L320.148 223.359L322.674 223.217L321.951 225.826L319.424 225.968ZM324.069 222.094L324.792 219.485L327.318 219.343L326.595 221.952L324.069 222.094ZM328.715 218.222L431.536 -152.705C431.582 -152.866 431.544 -153.041 431.44 -153.17C431.403 -153.217 431.357 -153.257 431.307 -153.288C431.217 -153.344 431.111 -153.37 431.003 -153.363L377.966 -150.368L378.69 -152.977L434.978 -156.159L331.243 218.077L328.715 218.222ZM330.948 219.138L330.225 221.747L327.699 221.889L328.422 219.28L330.948 219.138ZM332.343 218.015L436.18 -156.579C436.226 -156.74 436.188 -156.915 436.082 -157.045C436.045 -157.092 436.001 -157.131 435.949 -157.163C435.859 -157.219 435.753 -157.245 435.645 -157.238L378.982 -154.038L379.705 -156.647L439.625 -160.031L334.869 217.873L332.343 218.015ZM377.589 -152.918L376.865 -150.309L374.339 -150.167L375.062 -152.776L377.589 -152.918ZM372.943 -149.042L372.22 -146.433L369.693 -146.291L370.417 -148.9L372.943 -149.042ZM368.299 -145.169L367.576 -142.559L365.049 -142.417L365.773 -145.026L368.299 -145.169ZM363.655 -141.295L362.932 -138.686L360.405 -138.543L361.128 -141.152L363.655 -141.295ZM359.011 -137.421L358.287 -134.812L355.761 -134.67L356.484 -137.279L359.011 -137.421ZM354.367 -133.547L353.643 -130.938L351.117 -130.796L351.84 -133.405L354.367 -133.547ZM349.722 -129.674L335.614 -78.7737L333.088 -78.6314L347.196 -129.531L349.722 -129.674ZM330.969 -74.8979L328.442 -74.7555L329.166 -77.3646L331.692 -77.5069L330.969 -74.8979ZM327.046 -73.6345L326.322 -71.0255L323.796 -70.8831L324.519 -73.4921L327.046 -73.6345ZM322.402 -69.7608L321.678 -67.1517L319.152 -67.0094L319.875 -69.6184L322.402 -69.7608ZM317.758 -65.887L317.034 -63.278L314.508 -63.1357L315.231 -65.7447L317.758 -65.887ZM313.113 -62.0133L312.39 -59.4042L309.864 -59.2619L310.587 -61.8709L313.113 -62.0133ZM308.469 -58.1396L307.746 -55.5305L191.683 -48.9758L153.95 -140.977C153.866 -141.183 153.66 -141.313 153.436 -141.301L111.206 -138.916L110.177 -141.427L157.771 -144.114L195.504 -52.1129C195.588 -51.9069 195.796 -51.7758 196.019 -51.7896L308.469 -58.1396ZM111.553 -135.324L106.562 -135.043L105.532 -137.554L110.524 -137.835L111.553 -135.324ZM106.909 -131.45L101.918 -131.169L100.888 -133.68L105.88 -133.961L106.909 -131.45ZM102.265 -127.576L97.2736 -127.295L96.2442 -129.806L101.236 -130.087L102.265 -127.576ZM97.6207 -123.703L92.6294 -123.422L91.6 -125.932L96.5914 -126.214L97.6207 -123.703ZM92.9766 -119.829L87.9853 -119.548L86.9559 -122.059L91.9473 -122.34L92.9766 -119.829ZM88.3325 -115.955L83.3411 -115.674L82.3117 -118.185L87.3031 -118.466L88.3325 -115.955ZM230.603 246.122C230.687 246.328 230.893 246.458 231.118 246.446L303.082 242.382L302.359 244.991L226.782 249.259L77.6663 -114.309L82.6576 -114.59L230.603 246.122ZM304.474 241.258L305.198 238.649L307.724 238.507L307.001 241.116L304.474 241.258ZM309.121 237.386L309.844 234.777L312.371 234.635L311.647 237.244L309.121 237.386ZM313.765 233.512L314.488 230.903L317.015 230.761L316.291 233.37L313.765 233.512ZM318.409 229.639L319.132 227.029L321.659 226.887L320.935 229.496L318.409 229.639ZM323.053 225.765L323.776 223.156L326.303 223.013L325.58 225.622L323.053 225.765ZM325.287 226.681L324.563 229.29L322.037 229.432L322.76 226.823L325.287 226.681ZM326.681 225.558L327.404 222.949L329.931 222.807L329.208 225.416L326.681 225.558ZM331.325 221.684L332.049 219.075L334.575 218.933L333.852 221.542L331.325 221.684ZM335.969 217.811L440.825 -160.452C440.871 -160.614 440.832 -160.788 440.726 -160.919C440.689 -160.966 440.645 -161.005 440.593 -161.037C440.503 -161.092 440.397 -161.119 440.289 -161.112L379.998 -157.705L380.721 -160.314L444.268 -163.902L338.496 217.668L335.969 217.811ZM378.605 -156.585L377.882 -153.976L375.355 -153.834L376.078 -156.443L378.605 -156.585ZM373.961 -152.711L373.237 -150.102L370.711 -149.96L371.434 -152.569L373.961 -152.711ZM369.317 -148.838L368.593 -146.229L366.067 -146.086L366.79 -148.695L369.317 -148.838ZM364.672 -144.964L363.949 -142.355L361.423 -142.213L362.146 -144.822L364.672 -144.964ZM360.028 -141.09L359.305 -138.481L356.778 -138.339L357.502 -140.948L360.028 -141.09ZM355.384 -137.217L354.661 -134.608L352.134 -134.465L352.858 -137.074L355.384 -137.217ZM350.74 -133.343L350.017 -130.734L347.49 -130.591L348.214 -133.2L350.74 -133.343ZM346.096 -129.469L331.988 -78.5692L329.461 -78.4269L343.571 -129.329L346.096 -129.469ZM327.34 -74.6947L324.814 -74.5523L325.537 -77.1614L328.063 -77.3037L327.34 -74.6947ZM323.419 -73.43L322.696 -70.8209L320.169 -70.6786L320.893 -73.2877L323.419 -73.43ZM318.775 -69.5562L318.052 -66.9472L315.525 -66.8049L316.249 -69.4139L318.775 -69.5562ZM314.131 -65.6825L313.408 -63.0735L310.881 -62.9311L311.604 -65.5402L314.131 -65.6825ZM309.487 -61.8088L308.763 -59.1997L196.33 -52.8482L158.596 -144.85C158.512 -145.056 158.307 -145.186 158.082 -145.173L109.759 -142.443L108.73 -144.954L162.417 -147.987L200.151 -55.9852C200.235 -55.7793 200.442 -55.6483 200.665 -55.662L309.487 -61.8088ZM110.106 -138.854L105.115 -138.573L104.085 -141.084L109.076 -141.365L110.106 -138.854ZM105.462 -134.981L100.47 -134.699L99.441 -137.21L104.432 -137.491L105.462 -134.981ZM100.818 -131.107L95.8262 -130.826L94.7969 -133.337L99.7883 -133.618L100.818 -131.107ZM96.1735 -127.233L91.1821 -126.952L90.1527 -129.463L95.1441 -129.744L96.1735 -127.233ZM91.5293 -123.359L86.538 -123.078L85.5086 -125.589L90.5 -125.87L91.5293 -123.359ZM86.8852 -119.486L81.8939 -119.204L80.8645 -121.715L85.8558 -121.997L86.8852 -119.486ZM82.241 -115.612L77.2497 -115.331L76.2203 -117.842L81.2117 -118.123L82.241 -115.612ZM225.959 249.996C226.043 250.202 226.251 250.333 226.473 250.319L302.065 246.051L301.341 248.66L222.138 253.133L71.5749 -113.966L76.5662 -114.247L225.959 249.996ZM303.459 244.929L304.182 242.32L306.709 242.178L305.985 244.787L303.459 244.929ZM308.103 241.055L308.827 238.446L311.353 238.304L310.63 240.913L308.103 241.055ZM312.747 237.181L313.471 234.572L315.997 234.43L315.274 237.039L312.747 237.181ZM317.393 233.306L318.116 230.697L320.643 230.554L319.919 233.163L317.393 233.306ZM319.625 234.223L318.902 236.832L316.375 236.975L317.099 234.366L319.625 234.223ZM321.019 233.101L321.743 230.492L324.269 230.35L323.546 232.959L321.019 233.101ZM325.663 229.227L326.387 226.618L328.913 226.476L328.19 229.085L325.663 229.227ZM330.308 225.354L331.031 222.745L333.557 222.602L332.834 225.211L330.308 225.354ZM334.952 221.48L335.675 218.871L338.202 218.729L337.478 221.338L334.952 221.48ZM339.596 217.606L445.469 -164.326C445.515 -164.487 445.477 -164.662 445.372 -164.792C445.335 -164.838 445.289 -164.879 445.24 -164.909C445.149 -164.965 445.043 -164.992 444.935 -164.984L381.018 -161.373L381.741 -163.982L448.914 -167.775L342.122 217.464L339.596 217.606ZM379.622 -160.254L378.899 -157.645L376.373 -157.503L377.096 -160.112L379.622 -160.254ZM374.978 -156.381L374.255 -153.772L371.728 -153.629L372.452 -156.238L374.978 -156.381ZM370.334 -152.507L369.611 -149.898L367.084 -149.756L367.808 -152.365L370.334 -152.507ZM365.69 -148.633L364.967 -146.024L362.44 -145.882L363.164 -148.491L365.69 -148.633ZM361.046 -144.76L360.323 -142.15L357.796 -142.008L358.519 -144.617L361.046 -144.76ZM356.402 -140.886L355.678 -138.277L353.152 -138.134L353.875 -140.743L356.402 -140.886ZM351.758 -137.012L351.034 -134.403L348.508 -134.261L349.231 -136.87L351.758 -137.012ZM347.112 -133.136L346.389 -130.527L343.862 -130.385L344.586 -132.994L347.112 -133.136ZM342.468 -129.262L328.36 -78.3626L325.833 -78.2202L339.942 -129.12L342.468 -129.262ZM323.713 -74.4901L321.187 -74.3478L321.91 -76.9569L324.437 -77.0992L323.713 -74.4901ZM319.793 -73.2255L319.069 -70.6164L316.543 -70.4741L317.266 -73.0831L319.793 -73.2255ZM315.149 -69.3517L314.425 -66.7427L311.899 -66.6003L312.622 -69.2094L315.149 -69.3517ZM310.504 -65.478L309.781 -62.8689L200.975 -56.7241L163.242 -148.726C163.158 -148.932 162.952 -149.061 162.727 -149.049L108.314 -145.976L107.284 -148.487L167.062 -151.863L204.796 -59.8611C204.88 -59.6551 205.088 -59.5241 205.31 -59.5379L310.504 -65.478ZM108.659 -142.385L103.667 -142.103L102.638 -144.614L107.629 -144.896L108.659 -142.385ZM104.014 -138.511L99.0231 -138.23L97.9937 -140.741L102.985 -141.022L104.014 -138.511ZM99.3703 -134.637L94.379 -134.356L93.3496 -136.867L98.3409 -137.148L99.3703 -134.637ZM94.7262 -130.763L89.7349 -130.482L88.7054 -132.993L93.6968 -133.274L94.7262 -130.763ZM90.0807 -126.888L85.0894 -126.606L84.06 -129.117L89.0513 -129.398L90.0807 -126.888ZM85.4366 -123.014L80.4452 -122.733L79.4159 -125.244L84.4072 -125.525L85.4366 -123.014ZM80.7924 -119.14L75.8011 -118.859L74.7717 -121.37L79.763 -121.651L80.7924 -119.14ZM76.1483 -115.266L71.1569 -114.985L70.1275 -117.496L75.1189 -117.777L76.1483 -115.266ZM221.315 253.87C221.399 254.076 221.607 254.207 221.829 254.193L301.048 249.718L300.325 252.327L217.494 257.007L65.4821 -113.62L70.4735 -113.901L221.315 253.87ZM302.441 248.598L303.165 245.989L305.691 245.847L304.968 248.456L302.441 248.598ZM307.086 244.724L307.809 242.115L310.335 241.973L309.612 244.582L307.086 244.724ZM311.731 240.849L312.454 238.24L314.981 238.097L314.258 240.706L311.731 240.849ZM313.963 241.766L313.24 244.375L310.713 244.518L311.437 241.909L313.963 241.766ZM315.358 240.644L316.081 238.035L318.607 237.893L317.884 240.502L315.358 240.644ZM320.002 236.77L320.725 234.161L323.252 234.019L322.528 236.628L320.002 236.77ZM324.646 232.897L325.369 230.288L327.896 230.145L327.172 232.754L324.646 232.897ZM329.29 229.023L330.013 226.414L332.54 226.271L331.817 228.881L329.29 229.023ZM333.934 225.149L334.658 222.54L337.184 222.398L336.461 225.007L333.934 225.149ZM338.578 221.275L339.302 218.666L341.828 218.524L341.105 221.133L338.578 221.275ZM343.222 217.402L450.111 -168.201C450.157 -168.363 450.119 -168.537 450.014 -168.667C449.977 -168.713 449.933 -168.752 449.881 -168.784C449.791 -168.84 449.685 -168.867 449.577 -168.859L382.031 -165.045L382.754 -167.654L453.555 -171.653L345.75 217.257L343.222 217.402ZM380.64 -163.924L379.917 -161.315L377.39 -161.172L378.114 -163.781L380.64 -163.924ZM375.996 -160.05L375.272 -157.441L372.746 -157.299L373.469 -159.908L375.996 -160.05ZM371.352 -156.176L370.628 -153.567L368.102 -153.425L368.825 -156.034L371.352 -156.176ZM366.705 -152.304L365.982 -149.695L363.456 -149.552L364.179 -152.161L366.705 -152.304ZM362.063 -148.429L361.34 -145.82L358.814 -145.677L359.537 -148.286L362.063 -148.429ZM357.417 -144.556L356.694 -141.947L354.167 -141.805L354.891 -144.414L357.417 -144.556ZM352.772 -140.68L352.048 -138.071L349.522 -137.929L350.245 -140.538L352.772 -140.68ZM348.128 -136.807L347.404 -134.198L344.878 -134.055L345.601 -136.664L348.128 -136.807ZM343.483 -132.933L342.76 -130.324L340.234 -130.182L340.957 -132.791L343.483 -132.933ZM338.839 -129.059L324.731 -78.1594L322.205 -78.017L336.313 -128.917L338.839 -129.059ZM320.087 -74.2856L317.56 -74.1433L318.284 -76.7524L320.81 -76.8947L320.087 -74.2856ZM316.166 -73.021L315.443 -70.4119L312.916 -70.2695L313.64 -72.8786L316.166 -73.021ZM311.522 -69.1472L310.799 -66.5382L205.619 -60.5979L167.886 -152.599C167.802 -152.805 167.594 -152.936 167.371 -152.923L106.866 -149.506L105.837 -152.017L171.708 -155.739L209.442 -63.737C209.526 -63.531 209.733 -63.4 209.956 -63.4138L311.522 -69.1472ZM107.211 -145.915L102.22 -145.634L101.191 -148.145L106.182 -148.426L107.211 -145.915ZM102.566 -142.039L97.5745 -141.758L96.5451 -144.269L101.536 -144.55L102.566 -142.039ZM97.9217 -138.165L92.9304 -137.884L91.901 -140.395L96.8923 -140.676L97.9217 -138.165ZM93.2776 -134.292L88.2862 -134.01L87.2568 -136.521L92.2481 -136.803L93.2776 -134.292ZM88.6334 -130.418L83.6421 -130.137L82.6127 -132.648L87.6041 -132.929L88.6334 -130.418ZM83.9893 -126.544L78.9979 -126.263L77.9685 -128.774L82.9599 -129.055L83.9893 -126.544ZM79.3452 -122.67L74.3538 -122.389L73.3244 -124.9L78.3157 -125.181L79.3452 -122.67ZM74.701 -118.797L69.7096 -118.516L68.6803 -121.026L73.6716 -121.308L74.701 -118.797ZM70.0569 -114.923L65.0655 -114.642L64.0361 -117.153L69.0275 -117.434L70.0569 -114.923ZM216.671 257.744C216.755 257.95 216.96 258.079 217.185 258.067L300.031 253.388L299.308 255.997L212.85 260.881L59.3906 -113.277L64.382 -113.558L216.671 257.744ZM301.425 252.265L302.149 249.656L304.675 249.514L303.952 252.123L301.425 252.265ZM306.069 248.392L306.793 245.782L309.319 245.64L308.596 248.249L306.069 248.392ZM308.302 249.309L307.578 251.918L305.052 252.061L305.775 249.452L308.302 249.309ZM309.696 248.187L310.419 245.578L312.946 245.436L312.222 248.045L309.696 248.187ZM314.34 244.313L315.063 241.704L317.59 241.562L316.867 244.171L314.34 244.313ZM318.984 240.44L319.708 237.83L322.234 237.688L321.511 240.297L318.984 240.44ZM323.628 236.566L324.352 233.957L326.878 233.814L326.155 236.423L323.628 236.566ZM328.272 232.692L328.996 230.083L331.522 229.941L330.799 232.55L328.272 232.692ZM332.917 228.818L333.64 226.209L336.166 226.067L335.443 228.676L332.917 228.818ZM337.561 224.945L338.284 222.336L340.811 222.193L340.087 224.802L337.561 224.945ZM342.206 221.069L342.93 218.46L345.456 218.317L344.733 220.926L342.206 221.069ZM346.85 217.195L454.756 -172.077C454.802 -172.238 454.764 -172.413 454.658 -172.544C454.621 -172.59 454.576 -172.629 454.525 -172.661C454.434 -172.717 454.329 -172.744 454.22 -172.737L383.048 -168.718L383.771 -171.327L458.203 -175.528L349.377 217.053L346.85 217.195ZM381.655 -167.594L380.932 -164.985L378.406 -164.843L379.129 -167.452L381.655 -167.594ZM377.011 -163.72L376.288 -161.111L373.761 -160.969L374.485 -163.578L377.011 -163.72ZM372.367 -159.847L371.644 -157.238L369.117 -157.095L369.841 -159.704L372.367 -159.847ZM367.723 -155.973L367 -153.364L364.473 -153.222L365.197 -155.831L367.723 -155.973ZM363.079 -152.099L362.355 -149.49L359.829 -149.348L360.552 -151.957L363.079 -152.099ZM358.433 -148.223L357.71 -145.614L355.184 -145.472L355.907 -148.081L358.433 -148.223ZM353.789 -144.35L353.066 -141.741L350.539 -141.598L351.263 -144.207L353.789 -144.35ZM349.145 -140.476L348.422 -137.867L345.895 -137.725L346.619 -140.334L349.145 -140.476ZM344.501 -136.602L343.778 -133.993L341.251 -133.851L341.974 -136.46L344.501 -136.602ZM339.857 -132.728L339.133 -130.119L336.607 -129.977L337.33 -132.586L339.857 -132.728ZM335.213 -128.855L321.104 -77.9548L318.578 -77.8125L332.688 -128.715L335.213 -128.855ZM316.459 -74.079L313.932 -73.9366L314.656 -76.5457L317.182 -76.688L316.459 -74.079ZM312.538 -72.8143L311.815 -70.2052L210.262 -64.4694L172.529 -156.471C172.445 -156.677 172.239 -156.807 172.014 -156.794L105.414 -153.034L104.385 -155.544L176.347 -159.609L214.081 -67.6078C214.165 -67.4018 214.373 -67.2707 214.595 -67.2845L312.538 -72.8143ZM105.763 -149.443L100.771 -149.162L99.742 -151.673L104.733 -151.954L105.763 -149.443ZM101.119 -145.569L96.1272 -145.288L95.0978 -147.799L100.089 -148.08L101.119 -145.569ZM96.4744 -141.696L91.4831 -141.414L90.4537 -143.925L95.445 -144.207L96.4744 -141.696ZM91.8303 -137.822L86.8389 -137.541L85.8095 -140.052L90.8009 -140.333L91.8303 -137.822ZM87.1861 -133.948L82.1948 -133.667L81.1654 -136.178L86.1567 -136.459L87.1861 -133.948ZM82.542 -130.075L77.5506 -129.793L76.5213 -132.304L81.5126 -132.585L82.542 -130.075ZM77.8978 -126.201L72.9065 -125.92L71.8771 -128.431L76.8685 -128.712L77.8978 -126.201ZM73.2537 -122.327L68.2623 -122.046L67.233 -124.557L72.2243 -124.838L73.2537 -122.327ZM68.6096 -118.453L63.6182 -118.172L62.5888 -120.683L67.5802 -120.964L68.6096 -118.453ZM63.9641 -114.577L58.9727 -114.296L57.9433 -116.807L62.9347 -117.088L63.9641 -114.577ZM212.027 261.617C212.111 261.823 212.318 261.954 212.541 261.941L299.015 257.058L298.292 259.667L208.206 264.754L53.2992 -112.933L58.2906 -113.215L212.027 261.617ZM300.408 255.934L301.131 253.325L303.657 253.183L302.934 255.792L300.408 255.934ZM304.034 255.73L304.758 253.121L307.284 252.979L306.561 255.588L304.034 255.73ZM308.678 251.856L309.402 249.247L311.928 249.105L311.205 251.714L308.678 251.856ZM313.322 247.982L314.046 245.373L316.572 245.231L315.849 247.84L313.322 247.982ZM317.967 244.109L318.69 241.5L321.216 241.357L320.493 243.966L317.967 244.109ZM322.611 240.235L323.334 237.626L325.861 237.484L325.141 240.092L322.611 240.235ZM327.256 236.359L327.98 233.75L330.506 233.608L329.783 236.217L327.256 236.359ZM331.9 232.485L332.624 229.876L335.15 229.734L334.427 232.343L331.9 232.485ZM336.544 228.612L337.268 226.003L339.794 225.86L339.071 228.469L336.544 228.612ZM341.191 224.739L341.914 222.13L344.441 221.988L343.717 224.597L341.191 224.739ZM345.833 220.864L346.556 218.255L349.083 218.113L348.359 220.722L345.833 220.864ZM462.847 -179.402L353.006 216.849L350.479 216.992L459.402 -175.949C459.448 -176.111 459.41 -176.285 459.306 -176.415C459.269 -176.461 459.223 -176.502 459.173 -176.532C459.083 -176.588 458.977 -176.615 458.869 -176.608L384.068 -172.382L384.791 -174.991L462.847 -179.402ZM382.673 -171.263L381.95 -168.654L379.423 -168.512L380.147 -171.121L382.673 -171.263ZM378.029 -167.39L377.306 -164.781L374.779 -164.638L375.502 -167.247L378.029 -167.39ZM373.385 -163.516L372.661 -160.907L370.135 -160.765L370.858 -163.374L373.385 -163.516ZM368.739 -159.64L368.016 -157.031L365.489 -156.889L366.213 -159.498L368.739 -159.64ZM364.095 -155.766L363.372 -153.157L360.845 -153.015L361.569 -155.624L364.095 -155.766ZM359.451 -151.893L358.728 -149.284L356.201 -149.141L356.925 -151.75L359.451 -151.893ZM354.807 -148.019L354.083 -145.41L351.557 -145.268L352.28 -147.877L354.807 -148.019ZM350.163 -144.145L349.439 -141.536L346.913 -141.394L347.636 -144.003L350.163 -144.145ZM345.519 -140.271L344.795 -137.662L342.269 -137.52L342.992 -140.129L345.519 -140.271ZM340.874 -136.398L340.151 -133.789L337.625 -133.646L338.348 -136.255L340.874 -136.398ZM336.23 -132.524L335.507 -129.915L332.98 -129.773L333.704 -132.382L336.23 -132.524ZM329.058 -128.506L331.585 -128.648L317.477 -77.7482L314.95 -77.6058L329.058 -128.506ZM102.939 -159.077L180.993 -163.485L218.726 -71.4837C218.81 -71.2777 219.018 -71.1466 219.241 -71.1604L313.556 -76.4835L312.832 -73.8745L214.908 -68.3453L177.174 -160.347C177.09 -160.553 176.882 -160.684 176.66 -160.67L103.968 -156.566L102.939 -159.077ZM98.2933 -155.201L103.285 -155.482L104.314 -152.971L99.3227 -152.69L98.2933 -155.201ZM93.6492 -151.327L98.6406 -151.609L99.6699 -149.098L94.6785 -148.816L93.6492 -151.327ZM89.0051 -147.454L93.9964 -147.735L95.0258 -145.224L90.0344 -144.943L89.0051 -147.454ZM84.3609 -143.58L89.3523 -143.861L90.3816 -141.35L85.3903 -141.069L84.3609 -143.58ZM79.7168 -139.706L84.7081 -139.987L85.7375 -137.476L80.7462 -137.195L79.7168 -139.706ZM75.0726 -135.832L80.064 -136.114L81.0934 -133.603L76.102 -133.322L75.0726 -135.832ZM70.4285 -131.959L75.4199 -132.24L76.4492 -129.729L71.4579 -129.448L70.4285 -131.959ZM65.7843 -128.085L70.7757 -128.366L71.8051 -125.855L66.8137 -125.574L65.7843 -128.085ZM61.1402 -124.211L66.1315 -124.492L67.1609 -121.982L62.1696 -121.7L61.1402 -124.211ZM56.4961 -120.338L61.4874 -120.619L62.5168 -118.108L57.5254 -117.827L56.4961 -120.338ZM51.8519 -116.464L56.8433 -116.745L57.8727 -114.234L52.8813 -113.953L51.8519 -116.464ZM52.1991 -112.871L207.38 265.49C207.465 265.696 207.672 265.827 207.895 265.813L297.996 260.726L297.272 263.335L203.562 268.628L47.2078 -112.59L52.1991 -112.871ZM243.799 -10.9263C243.709 -10.7838 243.695 -10.6082 243.759 -10.4506L244.929 -7.59483L239.565 -7.29195C239.398 -7.28214 239.245 -7.19294 239.154 -7.05046C239.063 -6.90797 239.05 -6.73235 239.115 -6.57688L240.285 -3.72108L234.921 -3.41824C234.754 -3.40843 234.601 -3.3192 234.51 -3.17671C234.42 -3.03637 234.406 -2.85862 234.47 -2.70315L235.641 0.152675L230.276 0.455494C230.11 0.4653 229.957 0.55454 229.866 0.69702C229.775 0.8395 229.762 1.0151 229.826 1.17058L230.997 4.02641L225.632 4.32925C225.466 4.33906 225.312 4.42826 225.222 4.57076C225.132 4.7111 225.117 4.88885 225.182 5.04432L226.353 7.90011L220.988 8.20296C220.821 8.21277 220.668 8.30198 220.577 8.44446C220.488 8.5848 220.473 8.76256 220.538 8.91806L221.709 11.7739L216.344 12.0767C216.175 12.0852 216.024 12.1757 215.933 12.3182C215.844 12.4586 215.829 12.6363 215.894 12.7918L217.064 15.6476L211.7 15.9504C211.531 15.9589 211.38 16.0495 211.289 16.1919C211.2 16.3323 211.185 16.51 211.25 16.6655L212.42 19.5213L207.056 19.8242C206.889 19.834 206.736 19.9232 206.645 20.0657C206.555 20.206 206.541 20.3838 206.606 20.5392L207.776 23.395L202.412 23.6979C202.245 23.7077 202.092 23.7969 202.001 23.9394C201.91 24.0819 201.897 24.2575 201.961 24.413L203.132 27.2688L197.767 27.5716C197.601 27.5814 197.448 27.6707 197.357 27.8131C197.267 27.9535 197.253 28.1312 197.317 28.2867L198.488 31.1425L193.123 31.4454C192.957 31.4552 192.803 31.5444 192.713 31.6869C192.622 31.8294 192.608 32.005 192.673 32.1604L193.844 35.0163L188.479 35.3191C188.312 35.3289 188.159 35.4181 188.068 35.5606C187.979 35.7009 187.964 35.8787 188.029 36.0342L244.387 173.448C244.473 173.656 244.679 173.785 244.901 173.772C245.124 173.758 245.313 173.605 245.373 173.393L247.481 165.791L249.033 169.576C249.117 169.782 249.325 169.913 249.548 169.899C249.77 169.885 249.958 169.735 250.019 169.52L252.128 161.919L253.68 165.704C253.764 165.91 253.971 166.041 254.194 166.027C254.417 166.013 254.608 165.862 254.666 165.648L256.772 158.045L258.324 161.83C258.408 162.036 258.615 162.167 258.838 162.153C259.061 162.139 259.249 161.989 259.31 161.774L261.418 154.173L262.97 157.958C263.054 158.163 263.262 158.295 263.484 158.281C263.707 158.267 263.895 158.116 263.956 157.902L266.064 150.3L267.616 154.085C267.7 154.291 267.908 154.422 268.131 154.408C268.353 154.395 268.541 154.244 268.602 154.03L270.711 146.428L272.263 150.213C272.347 150.419 272.552 150.548 272.777 150.536C273 150.522 273.189 150.369 273.249 150.157L275.357 142.556L276.909 146.34C276.993 146.546 277.201 146.677 277.423 146.664C277.646 146.65 277.834 146.499 277.895 146.285L280.003 138.683L281.555 142.468C281.639 142.674 281.847 142.805 282.07 142.791C282.292 142.777 282.484 142.626 282.541 142.412L284.649 134.811L286.202 138.595C286.286 138.801 286.493 138.932 286.716 138.919C286.939 138.905 287.127 138.754 287.188 138.54L289.296 130.938L290.848 134.723C290.932 134.929 291.14 135.06 291.362 135.046C291.585 135.033 291.774 134.88 291.834 134.668L293.942 127.066L295.494 130.851C295.578 131.057 295.786 131.188 296.008 131.174C296.231 131.16 296.421 131.011 296.48 130.795L298.588 123.194L300.14 126.978C300.225 127.184 300.43 127.314 300.655 127.302C300.877 127.288 301.066 127.137 301.126 126.923L340.719 -15.9109C340.765 -16.0722 340.727 -16.2468 340.623 -16.3764C340.586 -16.4228 340.539 -16.4633 340.49 -16.4939C340.399 -16.5497 340.294 -16.5763 340.187 -16.5713L244.234 -11.1532C244.041 -11.1594 243.89 -11.0688 243.799 -10.9263ZM240.357 -6.29631L245.348 -6.5775L246.378 -4.06661L241.386 -3.78541L240.357 -6.29631ZM274.484 64.464L272.425 71.8943L256.282 32.5346L261.273 32.2534L274.484 64.464ZM262.373 32.1878L283.766 30.9807L274.938 62.8267L262.373 32.1878ZM284.966 30.5593C285.012 30.398 284.974 30.2234 284.869 30.0937C284.832 30.0473 284.786 30.0069 284.736 29.9763C284.646 29.9205 284.54 29.8939 284.433 29.8989L261.957 31.1697L260.928 28.6588L288.413 27.1062L277.073 68.0197L275.588 64.401L284.966 30.5593ZM260.855 31.2305L255.863 31.5117L254.834 29.0008L259.825 28.7196L260.855 31.2305ZM271.971 73.5316L269.912 80.9619L250.189 32.8767L255.18 32.5955L271.971 73.5316ZM275.13 66.0391L276.615 69.6578L274.556 77.0882L273.071 73.4694L275.13 66.0391ZM289.61 26.6855C289.656 26.5242 289.618 26.3496 289.513 26.22C289.477 26.1736 289.432 26.1345 289.381 26.1026C289.29 26.0467 289.185 26.0202 289.077 26.0252L260.508 27.638L259.478 25.1271L293.056 23.2311L279.202 73.2123L277.717 69.5935L289.61 26.6855ZM259.407 27.7002L254.416 27.9814L253.387 25.4705L258.378 25.1893L259.407 27.7002ZM254.762 31.5761L249.771 31.8572L248.741 29.3463L253.733 29.0651L254.762 31.5761ZM269.458 82.5992L267.399 90.0295L244.098 33.2179L249.09 32.9367L269.458 82.5992ZM272.617 75.1067L274.102 78.7254L272.043 86.1558L270.558 82.537L272.617 75.1067ZM277.262 71.2329L278.746 74.8517L276.687 82.282L275.202 78.6633L277.262 71.2329ZM294.254 22.8118C294.3 22.6505 294.262 22.4759 294.158 22.3463C294.121 22.2999 294.074 22.2594 294.025 22.2288C293.934 22.173 293.829 22.1464 293.722 22.1514L259.06 24.1076L258.031 21.5967L297.7 19.3574L281.331 78.4083L279.847 74.7895L294.254 22.8118ZM257.959 24.172L252.967 24.4532L251.938 21.9423L256.929 21.661L257.959 24.172ZM253.315 28.0457L248.323 28.3269L247.294 25.816L252.285 25.5348L253.315 28.0457ZM248.671 31.9194L243.679 32.2007L242.65 29.6897L247.641 29.4085L248.671 31.9194ZM266.944 91.6689L264.885 99.0992L238.006 33.5634L242.997 33.2822L266.944 91.6689ZM270.103 84.1764L271.588 87.7952L269.529 95.2255L268.044 91.6068L270.103 84.1764ZM274.748 80.3005L276.233 83.9193L274.174 91.3497L272.689 87.7309L274.748 80.3005ZM279.393 76.4268L280.878 80.0456L278.818 87.4759L277.333 83.8571L279.393 76.4268ZM298.898 18.9381C298.944 18.7768 298.906 18.6022 298.802 18.4726C298.765 18.4261 298.718 18.3857 298.669 18.3551C298.578 18.2993 298.473 18.2727 298.366 18.2777L257.612 20.5794L256.582 18.0685L302.344 15.4836L283.461 83.6043L281.976 79.9856L298.898 18.9381ZM256.512 20.6416L251.52 20.9228L250.491 18.4119L255.482 18.1307L256.512 20.6416ZM251.867 24.5154L246.876 24.7965L245.847 22.2856L250.838 22.0044L251.867 24.5154ZM247.223 28.3891L242.232 28.6703L241.203 26.1594L246.194 25.8782L247.223 28.3891ZM242.579 32.2628L237.588 32.544L236.558 30.0331L241.55 29.7519L242.579 32.2628ZM264.431 100.737L262.372 108.167L231.914 33.9068L236.906 33.6256L264.431 100.737ZM267.59 93.244L269.075 96.8628L267.016 104.293L265.531 100.674L267.59 93.244ZM272.234 89.3703L273.719 92.9891L271.66 100.419L270.175 96.8006L272.234 89.3703ZM276.878 85.4966L278.363 89.1154L276.304 96.5457L274.819 92.9269L276.878 85.4966ZM281.522 81.6228L283.007 85.2416L280.948 92.6719L279.463 89.0532L281.522 81.6228ZM303.542 15.0643C303.588 14.903 303.55 14.7284 303.446 14.5988C303.409 14.5524 303.363 14.512 303.313 14.4814C303.223 14.4256 303.117 14.399 303.01 14.404L256.164 17.0491L255.135 14.5382L306.988 11.6099L285.592 88.7982L284.107 85.1794L303.542 15.0643ZM255.064 17.1113L250.073 17.3924L249.043 14.8815L254.035 14.6003L255.064 17.1113ZM250.42 20.985L245.429 21.2662L244.399 18.7553L249.391 18.4741L250.42 20.985ZM245.776 24.8587L240.785 25.1399L239.755 22.629L244.747 22.3478L245.776 24.8587ZM241.13 28.7346L236.139 29.0158L235.11 26.5049L240.101 26.2237L241.13 28.7346ZM236.486 32.6083L231.495 32.8895L230.466 30.3786L235.457 30.0974L236.486 32.6083ZM261.916 109.806L259.857 117.237L225.821 34.2523L230.813 33.9711L261.916 109.806ZM265.075 102.314L266.56 105.933L264.501 113.363L263.016 109.744L265.075 102.314ZM269.721 98.4379L271.206 102.057L269.147 109.487L267.662 105.868L269.721 98.4379ZM274.365 94.5642L275.85 98.183L273.791 105.613L272.306 101.995L274.365 94.5642ZM279.009 90.6904L280.494 94.3092L278.435 101.74L276.95 98.1208L279.009 90.6904ZM283.653 86.8167L285.138 90.4355L283.079 97.8658L281.594 94.247L283.653 86.8167ZM308.186 11.1906C308.232 11.0293 308.194 10.8547 308.09 10.7251C308.053 10.6787 308.007 10.6382 307.957 10.6076C307.867 10.5518 307.761 10.5252 307.654 10.5302L254.717 13.5187L253.688 11.0078L311.632 7.73618L287.721 93.9908L286.236 90.372L308.186 11.1906ZM253.617 13.5809L248.626 13.8621L247.596 11.3512L252.588 11.07L253.617 13.5809ZM248.971 17.4568L243.98 17.738L242.951 15.2271L247.942 14.9458L248.971 17.4568ZM244.327 21.3305L239.336 21.6117L238.307 19.1008L243.298 18.8196L244.327 21.3305ZM239.683 25.2042L234.692 25.4854L233.662 22.9745L238.654 22.6933L239.683 25.2042ZM235.039 29.078L230.048 29.3592L229.018 26.8482L234.01 26.567L235.039 29.078ZM230.395 32.9517L225.404 33.2329L224.374 30.722L229.366 30.4408L230.395 32.9517ZM259.403 118.874L257.344 126.304L219.73 34.5957L224.721 34.3145L259.403 118.874ZM262.562 111.381L264.047 115L261.988 122.431L260.503 118.812L262.562 111.381ZM267.207 107.508L268.691 111.126L266.632 118.557L265.147 114.938L267.207 107.508ZM271.851 103.634L273.336 107.253L271.277 114.683L269.792 111.064L271.851 103.634ZM276.495 99.7602L277.98 103.379L275.921 110.809L274.436 107.191L276.495 99.7602ZM281.139 95.8865L282.624 99.5052L280.565 106.936L279.08 103.317L281.139 95.8865ZM285.784 92.0106L287.269 95.6294L285.21 103.06L283.725 99.4409L285.784 92.0106ZM312.831 7.31688C312.877 7.15556 312.838 6.981 312.734 6.85138C312.697 6.80495 312.653 6.76579 312.601 6.7339C312.511 6.67808 312.405 6.65152 312.298 6.65651L253.268 9.99051L252.239 7.47958L316.276 3.86249L289.853 99.1881L288.368 95.5693L312.831 7.31688ZM252.168 10.0527L247.177 10.3339L246.148 7.82296L251.139 7.54176L252.168 10.0527ZM247.524 13.9264L242.533 14.2076L241.503 11.6967L246.495 11.4155L247.524 13.9264ZM242.88 17.8002L237.889 18.0813L236.859 15.5704L241.851 15.2892L242.88 17.8002ZM238.236 21.6739L233.245 21.9551L232.215 19.4442L237.207 19.163L238.236 21.6739ZM233.592 25.5476L228.6 25.8288L227.571 23.3179L232.562 23.0367L233.592 25.5476ZM228.948 29.4214L223.956 29.7026L222.927 27.1916L227.918 26.9104L228.948 29.4214ZM224.303 33.2951L219.312 33.5763L218.283 31.0653L223.274 30.7841L224.303 33.2951ZM256.887 127.942L254.828 135.373L213.635 34.9399L218.626 34.6587L256.887 127.942ZM260.049 120.449L261.534 124.068L259.475 131.498L257.99 127.879L260.049 120.449ZM264.693 116.575L266.178 120.194L264.119 127.624L262.634 124.006L264.693 116.575ZM269.338 112.702L270.823 116.32L268.763 123.751L267.278 120.132L269.338 112.702ZM273.982 108.828L275.467 112.447L273.408 119.877L271.923 116.258L273.982 108.828ZM278.626 104.954L280.111 108.573L278.052 116.003L276.567 112.384L278.626 104.954ZM283.27 101.08L284.755 104.699L282.696 112.129L281.211 108.511L283.27 101.08ZM287.914 97.2066L289.399 100.825L287.34 108.256L285.855 104.637L287.914 97.2066ZM317.476 3.44098C317.522 3.27969 317.484 3.1051 317.38 2.97549C317.343 2.92908 317.296 2.88861 317.247 2.85805C317.156 2.80224 317.051 2.77564 316.944 2.78063L251.822 6.45802L250.793 3.94708L320.92 -0.0112917L291.982 104.381L290.497 100.762L317.476 3.44098ZM250.721 6.52233L245.73 6.80352L244.7 4.29262L249.692 4.01143L250.721 6.52233ZM246.077 10.3961L241.086 10.6773L240.056 8.16634L245.048 7.88514L246.077 10.3961ZM241.433 14.2698L236.441 14.551L235.412 12.0401L240.403 11.7589L241.433 14.2698ZM236.789 18.1435L231.797 18.4247L230.768 15.9138L235.759 15.6326L236.789 18.1435ZM232.144 22.0173L227.153 22.2984L226.124 19.7875L231.115 19.5063L232.144 22.0173ZM227.5 25.891L222.509 26.1722L221.48 23.6613L226.471 23.3801L227.5 25.891ZM222.855 29.7669L217.863 30.0481L216.834 27.5371L221.825 27.256L222.855 29.7669ZM218.211 33.6406L213.219 33.9218L212.19 31.4109L217.181 31.1297L218.211 33.6406ZM254.374 137.01L252.314 144.44L207.546 35.2846L212.537 35.0034L254.374 137.01ZM257.535 129.519L259.02 133.138L256.961 140.568L255.476 136.949L257.535 129.519ZM262.179 125.645L263.664 129.264L261.605 136.694L260.12 133.075L262.179 125.645ZM266.823 121.771L268.308 125.39L266.249 132.82L264.764 129.202L266.823 121.771ZM271.467 117.898L272.952 121.516L270.893 128.947L269.408 125.328L271.467 117.898ZM276.113 114.022L277.598 117.64L275.539 125.071L274.054 121.452L276.113 114.022ZM280.757 110.148L282.242 113.767L280.183 121.197L278.698 117.578L280.757 110.148ZM285.401 106.274L286.886 109.893L284.827 117.323L283.342 113.705L285.401 106.274ZM290.045 102.4L291.53 106.019L289.471 113.45L287.986 109.831L290.045 102.4ZM322.12 -0.43274C322.166 -0.594032 322.128 -0.768625 322.024 -0.898244C321.987 -0.944646 321.943 -0.983816 321.891 -1.01571C321.8 -1.07153 321.695 -1.09809 321.588 -1.09307L250.374 2.9298L249.344 0.418894L325.566 -3.88719L294.113 109.575L292.628 105.956L322.12 -0.43274ZM249.274 2.99199L244.282 3.27316L243.253 0.762261L248.244 0.481049L249.274 2.99199ZM244.63 6.86569L239.638 7.1469L238.609 4.63596L243.6 4.3548L244.63 6.86569ZM239.985 10.7394L234.994 11.0206L233.965 8.50971L238.956 8.22852L239.985 10.7394ZM235.34 14.6153L230.349 14.8965L229.319 12.3856L234.311 12.1044L235.34 14.6153ZM230.696 18.489L225.704 18.7702L224.675 16.2593L229.666 15.9781L230.696 18.489ZM226.052 22.3628L221.06 22.644L220.031 20.1331L225.022 19.8519L226.052 22.3628ZM221.405 26.2352L216.414 26.5164L215.385 24.0055L220.376 23.7243L221.405 26.2352ZM216.761 30.1089L211.77 30.3901L210.741 27.8792L215.732 27.598L216.761 30.1089ZM212.117 33.9826L207.126 34.2638L206.096 31.7529L211.088 31.4717L212.117 33.9826ZM251.86 146.078L249.801 153.508L201.452 35.6267L206.444 35.3455L251.86 146.078ZM255.022 138.586L256.507 142.205L254.448 149.635L252.963 146.017L255.022 138.586ZM259.664 134.711L261.149 138.33L259.09 145.76L257.605 142.142L259.664 134.711ZM264.31 130.839L265.795 134.458L263.736 141.888L262.251 138.269L264.31 130.839ZM268.954 126.965L270.439 130.584L268.38 138.014L266.895 134.396L268.954 126.965ZM273.598 123.091L275.083 126.71L273.024 134.141L271.539 130.522L273.598 123.091ZM278.243 119.218L279.727 122.836L277.668 130.267L276.183 126.648L278.243 119.218ZM282.887 115.344L284.372 118.963L282.312 126.393L280.828 122.774L282.887 115.344ZM287.531 111.47L289.016 115.089L286.957 122.519L285.472 118.901L287.531 111.47ZM292.176 107.594L293.661 111.213L291.602 118.643L290.117 115.025L292.176 107.594ZM326.764 -4.30647C326.81 -4.46778 326.772 -4.64235 326.668 -4.77196C326.631 -4.8184 326.585 -4.85885 326.535 -4.88943C326.445 -4.94524 326.339 -4.9718 326.232 -4.96682L248.927 -0.600546L247.897 -3.1115L330.21 -7.76089L296.243 114.771L294.758 111.152L326.764 -4.30647ZM247.826 -0.53837L242.835 -0.257179L241.806 -2.76811L246.797 -3.04931L247.826 -0.53837ZM243.181 3.33751L238.19 3.61869L237.16 1.10775L242.152 0.826571L243.181 3.33751ZM238.537 7.21124L233.545 7.49242L232.516 4.9815L237.507 4.70032L238.537 7.21124ZM233.893 11.085L228.901 11.3662L227.872 8.85524L232.863 8.57403L233.893 11.085ZM229.249 14.9587L224.257 15.2399L223.228 12.729L228.219 12.4478L229.249 14.9587ZM224.602 18.8311L219.611 19.1123L218.582 16.6014L223.573 16.3202L224.602 18.8311ZM219.958 22.7048L214.967 22.986L213.937 20.4751L218.929 20.1939L219.958 22.7048ZM215.314 26.5786L210.323 26.8597L209.293 24.3488L214.285 24.0676L215.314 26.5786ZM210.67 30.4523L205.678 30.7335L204.649 28.2226L209.64 27.9414L210.67 30.4523ZM206.026 34.326L201.034 34.6072L200.005 32.0963L204.996 31.8151L206.026 34.326ZM249.346 155.147L247.287 162.578L195.36 35.9722L200.351 35.691L249.346 155.147ZM252.505 147.655L253.99 151.274L251.931 158.704L250.446 155.085L252.505 147.655ZM257.151 143.779L258.636 147.398L256.577 154.828L255.092 151.209L257.151 143.779ZM261.795 139.905L263.28 143.524L261.221 150.954L259.736 147.336L261.795 139.905ZM266.44 136.035L267.925 139.654L265.866 147.084L264.381 143.465L266.44 136.035ZM271.085 132.159L272.57 135.778L270.511 143.208L269.026 139.589L271.085 132.159ZM275.729 128.285L277.214 131.904L275.155 139.334L273.67 135.716L275.729 128.285ZM280.371 124.41L281.856 128.029L279.797 135.459L278.312 131.841L280.371 124.41ZM285.018 120.538L286.503 124.157L284.444 131.587L282.959 127.968L285.018 120.538ZM289.662 116.664L291.147 120.283L289.088 127.713L287.603 124.094L289.662 116.664ZM294.306 112.79L295.791 116.409L293.732 123.839L292.247 120.221L294.306 112.79ZM331.408 -8.18019C331.454 -8.34148 331.416 -8.51607 331.312 -8.64569C331.275 -8.69209 331.229 -8.73261 331.179 -8.76317C331.089 -8.81899 330.983 -8.84556 330.876 -8.84057L247.479 -4.13091L246.45 -6.64185L334.854 -11.6346L298.374 119.964L296.889 116.346L331.408 -8.18019ZM235.713 -2.42259L240.704 -2.70377L241.734 -0.192855L236.742 0.0883436L235.713 -2.42259ZM231.068 1.45331L236.059 1.17209L237.088 3.68301L232.097 3.96421L231.068 1.45331ZM226.423 5.32702L231.415 5.04583L232.444 7.55676L227.453 7.83795L226.423 5.32702ZM221.779 9.20075L226.771 8.91956L227.8 11.4305L222.809 11.7117L221.779 9.20075ZM217.135 13.0745L222.126 12.7933L223.156 15.3042L218.164 15.5854L217.135 13.0745ZM212.489 16.9469L217.48 16.6657L218.509 19.1766L213.518 19.4578L212.489 16.9469ZM207.845 20.8206L212.836 20.5394L213.865 23.0504L208.874 23.3315L207.845 20.8206ZM203.2 24.6943L208.192 24.4132L209.221 26.9241L204.23 27.2053L203.2 24.6943ZM198.556 28.5681L203.548 28.2869L204.577 30.7978L199.586 31.079L198.556 28.5681ZM193.912 32.4418L198.904 32.1606L199.933 34.6715L194.942 34.9527L193.912 32.4418ZM244.773 171.647L189.267 36.3177L194.258 36.0365L246.833 164.215L244.773 171.647ZM249.418 167.772L247.933 164.153L249.992 156.722L251.477 160.341L249.418 167.772ZM254.062 163.898L252.577 160.279L254.636 152.849L256.121 156.467L254.062 163.898ZM258.706 160.024L257.221 156.405L259.28 148.975L260.765 152.594L258.706 160.024ZM263.35 156.15L261.865 152.532L263.925 145.101L265.41 148.72L263.35 156.15ZM267.995 152.277L266.51 148.658L268.569 141.227L270.054 144.846L267.995 152.277ZM272.639 148.403L271.154 144.784L273.213 137.354L274.698 140.973L272.639 148.403ZM277.283 144.529L275.798 140.91L277.857 133.48L279.342 137.099L277.283 144.529ZM281.927 140.655L280.442 137.037L282.501 129.606L283.986 133.225L281.927 140.655ZM286.571 136.782L285.086 133.163L287.145 125.733L288.63 129.351L286.571 136.782ZM291.215 132.908L289.73 129.289L291.789 121.859L293.274 125.478L291.215 132.908ZM295.859 129.034L294.374 125.415L296.434 117.985L297.919 121.604L295.859 129.034ZM339.497 -15.5062L300.505 125.158L299.02 121.54L336.053 -12.0539C336.099 -12.2152 336.061 -12.3898 335.956 -12.5194C335.919 -12.5658 335.873 -12.6063 335.823 -12.6369C335.733 -12.6927 335.627 -12.7193 335.52 -12.7143L246.031 -7.65914L245.001 -10.1701L339.497 -15.5062Z" fill="#7D828B"/>
</svg>
