<svg viewBox="0 0 189 466" fill="none" xmlns="http://www.w3.org/2000/svg">
<path opacity="0.5" d="M60.4225 83.1824C60.5571 83.23 60.6609 83.3423 60.7014 83.482L156.883 423.898C156.935 424.081 156.865 424.276 156.707 424.386L90.1133 470.505C89.9557 470.612 89.7471 470.609 89.5947 470.497L87.2256 468.747L84.9296 470.337C84.772 470.445 84.5633 470.442 84.411 470.33L82.0418 468.58L79.7466 470.168C79.589 470.276 79.3816 470.275 79.2279 470.161L76.8588 468.41L74.5628 470.001C74.4052 470.108 74.1965 470.105 74.0442 469.993L71.675 468.243L69.379 469.833C69.2214 469.941 69.0128 469.938 68.8604 469.826L66.4913 468.076L64.1953 469.666C64.0377 469.774 63.831 469.771 63.6767 469.659L61.3075 467.908L59.0115 469.499C58.8539 469.607 58.6453 469.603 58.4929 469.491L56.1237 467.741L53.8285 469.329C53.6709 469.437 53.4622 469.434 53.3099 469.322L50.9407 467.572L48.6447 469.162C48.4871 469.27 48.2785 469.267 48.1261 469.155L45.757 467.405L43.461 468.995C43.3034 469.103 43.0967 469.1 42.9423 468.987L40.5732 467.237L38.2779 468.825C38.1203 468.933 37.9117 468.93 37.7593 468.818L35.3902 467.068L33.0949 468.656C32.9373 468.764 32.7287 468.761 32.5763 468.649L30.2072 466.899L27.9112 468.489C27.7536 468.597 27.5449 468.593 27.3926 468.481L-256.962 258.375C-257.079 258.291 -257.145 258.153 -257.143 258.009C-257.142 257.958 -257.133 257.908 -257.115 257.859C-257.083 257.774 -257.026 257.701 -256.949 257.648L-201.142 218.985C-200.985 218.878 -200.778 218.88 -200.624 218.993L-198.255 220.743L-195.959 219.155C-195.802 219.047 -195.595 219.05 -195.441 219.162L-193.072 220.912L-190.776 219.324C-190.619 219.216 -190.412 219.219 -190.258 219.332L-187.889 221.082L-185.593 219.491C-185.435 219.384 -185.228 219.386 -185.074 219.499L-182.705 221.249L-180.41 219.661C-180.252 219.553 -180.045 219.556 -179.891 219.668L-177.522 221.418L-175.227 219.83C-175.069 219.722 -174.862 219.725 -174.708 219.837L-172.339 221.588L-170.044 219.999C-169.886 219.892 -169.679 219.892 -169.525 220.007L-167.156 221.757L-164.861 220.169C-164.703 220.061 -164.496 220.064 -164.342 220.176L-161.973 221.926L-159.678 220.338C-159.52 220.23 -159.313 220.233 -159.159 220.345L-156.79 222.096L-154.494 220.505C-154.336 220.398 -154.13 220.4 -153.975 220.513L-151.606 222.263L-149.311 220.675C-149.153 220.567 -148.947 220.569 -148.792 220.682L-146.423 222.432L-144.128 220.844C-143.97 220.736 -143.763 220.739 -143.609 220.851L-141.24 222.602L-138.945 221.013C-138.787 220.905 -138.58 220.908 -138.426 221.021L-101.494 248.31L-35.0127 202.27L-58.1633 120.334C-58.2154 120.151 -58.1445 119.953 -57.9869 119.845L-2.18193 81.2002C-2.06348 81.1171 -1.91363 81.0987 -1.77697 81.147C-1.64232 81.1945 -1.5386 81.3068 -1.50007 81.4457L-0.780937 83.9887L3.00106 81.3695C3.11876 81.2884 3.26936 81.268 3.40602 81.3163C3.54067 81.3638 3.64438 81.4762 3.68494 81.6159L4.40408 84.1588L8.18612 81.5396C8.30458 81.4565 8.45439 81.438 8.59108 81.4864C8.72774 81.5347 8.82946 81.6462 8.87002 81.7859L9.58913 84.3289L13.3712 81.7097C13.4888 81.6286 13.6394 81.6082 13.7761 81.6565C13.9128 81.7048 14.0145 81.8163 14.0558 81.954L14.7749 84.4969L18.557 81.8778C18.6754 81.7946 18.8252 81.7762 18.9619 81.8245C19.0965 81.872 19.2003 81.9843 19.2408 82.124L19.96 84.667L23.742 82.0478C23.8605 81.9646 24.0103 81.9463 24.1469 81.9946C24.2816 82.0421 24.3853 82.1544 24.4266 82.2921L25.1458 84.835L28.9278 82.2158C29.0455 82.1347 29.1961 82.1143 29.3327 82.1626C29.4694 82.2109 29.5711 82.3225 29.6124 82.4601L30.3315 85.0031L34.1136 82.3839C34.232 82.3008 34.3819 82.2824 34.5185 82.3307C34.6552 82.379 34.7569 82.4905 34.7974 82.6302L35.5166 85.1732L39.2986 82.5539C39.4163 82.4728 39.5669 82.4524 39.7036 82.5007C39.8403 82.549 39.9419 82.6606 39.9832 82.7983L40.7024 85.3412L44.4844 82.722C44.6029 82.6389 44.7527 82.6205 44.8894 82.6688C45.0261 82.7171 45.1277 82.8286 45.1683 82.9683L45.8874 85.5113L49.6694 82.8921C49.7871 82.811 49.9377 82.7906 50.0744 82.8389C50.209 82.8864 50.3128 82.9987 50.3513 83.1377L51.0704 85.6807L54.8525 83.0614C54.9702 82.9803 55.1208 82.9599 55.2574 83.0082C55.3941 83.0565 55.4958 83.1681 55.5343 83.307L56.2534 85.85L60.0355 83.2307C60.136 83.1525 60.2858 83.1341 60.4225 83.1824ZM86.4673 468.184L84.5999 466.805L82.8189 468.039L84.6863 469.418L86.4673 468.184ZM-106.539 271.318L-108.908 269.568L-111.204 271.158C-111.361 271.266 -111.568 271.263 -111.722 271.151L-114.092 269.401L-116.387 270.989C-116.544 271.097 -116.751 271.094 -116.905 270.981L-119.275 269.231L-121.57 270.819C-121.727 270.927 -121.934 270.925 -122.088 270.812L-124.458 269.062L-126.754 270.652C-126.911 270.76 -127.118 270.757 -127.272 270.645L-129.641 268.895L-131.937 270.483C-132.094 270.591 -132.301 270.588 -132.455 270.475L-169.385 243.187L-193.727 260.044L58.3576 446.306L93.739 421.803L8.47124 120.018L4.98066 122.435L28.1313 204.371C28.1834 204.555 28.1124 204.752 27.9548 204.86L-69.7376 272.513C-69.8952 272.621 -70.1046 272.62 -70.2563 272.506L-72.6254 270.756L-74.9206 272.344C-75.0782 272.452 -75.2869 272.449 -75.4392 272.337L-77.8084 270.587L-80.1044 272.177C-80.262 272.285 -80.4707 272.281 -80.623 272.169L-82.9922 270.419L-85.2874 272.007C-85.445 272.115 -85.6537 272.112 -85.806 272L-88.1752 270.25L-90.4705 271.838C-90.6281 271.946 -90.8367 271.943 -90.9891 271.831L-93.3582 270.081L-95.6534 271.669C-95.811 271.777 -96.0177 271.774 -96.1721 271.661L-98.5412 269.911L-100.836 271.499C-100.994 271.607 -101.201 271.605 -101.355 271.492L-103.724 269.742L-106.019 271.33C-106.176 271.436 -106.385 271.433 -106.539 271.318ZM-104.482 269.177L-106.349 267.798L-108.13 269.031L-106.263 270.411L-104.482 269.177ZM-102.949 269.2L-101.082 270.58L-99.3007 269.346L-101.168 267.966L-102.949 269.2ZM-97.7662 269.369L-95.8988 270.749L-94.1177 269.515L-95.9851 268.136L-97.7662 269.369ZM-92.5811 269.539L-90.7137 270.919L-88.9327 269.685L-90.8001 268.306L-92.5811 269.539ZM-87.3981 269.709L-85.5307 271.088L-83.7497 269.855L-85.6171 268.475L-87.3981 269.709ZM-82.2151 269.878L-80.3477 271.258L-78.5667 270.024L-80.4341 268.644L-82.2151 269.878ZM-77.0321 270.047L-75.1647 271.427L-73.3837 270.193L-75.2511 268.814L-77.0321 270.047ZM-71.8491 270.217L-69.9817 271.596L27.1868 204.305L4.03616 122.37C3.98406 122.186 4.05496 121.989 4.21053 121.88L8.21334 119.107L7.58117 116.871L-0.203634 122.263L22.947 204.199C22.9991 204.382 22.9282 204.58 22.7706 204.688L-71.8491 270.217ZM94.6842 421.867C94.7363 422.05 94.6654 422.248 94.5078 422.356L59.1165 446.866L60.9839 448.246L98.922 421.972L12.7675 117.044L9.24889 119.481L94.6842 421.867ZM57.5819 446.843L-194.76 260.391C-194.877 260.306 -194.943 260.169 -194.941 260.026C-194.941 259.976 -194.931 259.924 -194.914 259.877C-194.882 259.792 -194.825 259.718 -194.748 259.666L-170.142 242.627L-172.01 241.248L-198.909 259.877L55.8009 448.076L57.5819 446.843ZM-168.609 242.648L-132.181 269.566L-130.4 268.332L-166.828 241.414L-168.609 242.648ZM-126.998 269.735L-125.217 268.501L-127.084 267.122L-128.865 268.355L-126.998 269.735ZM-123.681 268.523L-121.814 269.902L-120.033 268.669L-121.9 267.289L-123.681 268.523ZM-118.498 268.692L-116.631 270.072L-114.85 268.838L-116.717 267.458L-118.498 268.692ZM-113.315 268.861L-111.448 270.241L-109.667 269.007L-111.534 267.628L-113.315 268.861ZM-112.291 267.068L-114.159 265.688L-115.94 266.922L-114.072 268.302L-112.291 267.068ZM-110.759 267.091L-108.891 268.47L-107.11 267.237L-108.978 265.857L-110.759 267.091ZM-105.574 267.261L-103.706 268.64L-101.925 267.407L-103.792 266.027L-105.574 267.261ZM-100.391 267.43L-98.5231 268.81L-96.7421 267.576L-98.6095 266.196L-100.391 267.43ZM-95.2075 267.599L-93.3401 268.979L-91.5591 267.745L-93.4264 266.366L-95.2075 267.599ZM-90.0245 267.769L-88.1571 269.148L-86.3761 267.915L-88.2435 266.535L-90.0245 267.769ZM-84.8415 267.938L-82.9741 269.318L-81.1931 268.084L-83.0604 266.704L-84.8415 267.938ZM-79.6585 268.107L-77.7911 269.487L-76.01 268.253L-77.8774 266.874L-79.6585 268.107ZM-74.4754 268.277L-72.6081 269.656L22.003 204.138L-1.14759 122.202C-1.19971 122.019 -1.12952 121.823 -0.971169 121.713L7.32786 115.967L6.69569 113.731L-5.38533 122.097L17.7652 204.033C17.8173 204.216 17.7464 204.414 17.5888 204.521L-74.4754 268.277ZM8.99094 118.571L12.5096 116.133L11.8774 113.897L8.35881 116.335L8.99094 118.571ZM99.8673 422.036C99.9193 422.219 99.8484 422.417 99.6908 422.525L61.7429 448.806L63.6103 450.186L104.105 422.142L17.0617 114.069L13.5431 116.507L99.8673 422.036ZM60.2083 448.783L58.3409 447.403L56.5599 448.637L58.4273 450.016L60.2083 448.783ZM55.0253 448.613L-199.943 260.222C-200.06 260.137 -200.126 259.999 -200.124 259.857C-200.124 259.806 -200.114 259.754 -200.097 259.708C-200.065 259.622 -200.008 259.549 -199.931 259.497L-172.769 240.687L-174.636 239.308L-204.094 259.707L53.2423 449.846L55.0253 448.613ZM-171.235 240.708L-169.368 242.088L-167.587 240.854L-169.454 239.474L-171.235 240.708ZM-166.052 240.877L-129.624 267.795L-127.843 266.561L-164.271 239.644L-166.052 240.877ZM-124.44 267.962L-122.659 266.729L-124.527 265.349L-126.308 266.583L-124.44 267.962ZM-121.125 266.752L-119.257 268.132L-117.476 266.898L-119.344 265.518L-121.125 266.752ZM-120.101 264.958L-121.968 263.579L-123.749 264.813L-121.882 266.192L-120.101 264.958ZM-118.566 264.982L-116.699 266.362L-114.918 265.128L-116.785 263.748L-118.566 264.982ZM-113.383 265.151L-111.516 266.531L-109.734 265.297L-111.602 263.918L-113.383 265.151ZM-108.2 265.321L-106.333 266.7L-104.551 265.466L-106.419 264.087L-108.2 265.321ZM-103.017 265.49L-101.15 266.87L-99.3684 265.636L-101.236 264.256L-103.017 265.49ZM-97.8339 265.659L-95.9665 267.039L-94.1854 265.805L-96.0528 264.425L-97.8339 265.659ZM-92.6509 265.829L-90.7834 267.208L-89.0024 265.974L-90.8699 264.595L-92.6509 265.829ZM-87.4679 265.998L-85.6004 267.378L-83.8194 266.144L-85.6868 264.764L-87.4679 265.998ZM-82.2849 266.167L-80.4174 267.547L-78.6364 266.313L-80.5038 264.933L-82.2849 266.167ZM-77.1018 266.337L-75.2344 267.716L16.82 203.969L-6.33062 122.033C-6.38271 121.85 -6.31178 121.652 -6.15622 121.543L6.43703 112.822L5.8049 110.586L-10.5704 121.927L12.5802 203.863C12.6323 204.046 12.5614 204.243 12.4038 204.351L-77.1018 266.337ZM8.10418 115.428L11.6228 112.99L10.9907 110.754L7.47205 113.192L8.10418 115.428ZM13.2872 115.597L16.8058 113.16L16.1737 110.924L12.655 113.361L13.2872 115.597ZM105.05 422.206C105.102 422.389 105.031 422.586 104.874 422.694L64.3673 450.746L66.2347 452.125L109.288 422.311L21.3567 111.093L17.838 113.53L105.05 422.206ZM62.8347 450.723L60.9673 449.343L59.1863 450.577L61.0537 451.957L62.8347 450.723ZM57.6517 450.554L55.7843 449.174L54.0033 450.408L55.8707 451.787L57.6517 450.554ZM52.4667 450.383L-205.128 260.05C-205.244 259.965 -205.311 259.827 -205.309 259.685C-205.308 259.634 -205.298 259.582 -205.281 259.536C-205.249 259.45 -205.192 259.377 -205.115 259.325L-175.396 238.744L-177.264 237.365L-209.279 259.535L50.6856 451.617L52.4667 450.383ZM-173.862 238.768L-171.994 240.148L-170.213 238.914L-172.081 237.534L-173.862 238.768ZM-168.679 238.937L-166.811 240.317L-165.03 239.083L-166.898 237.703L-168.679 238.937ZM-163.496 239.107L-127.067 266.024L-125.286 264.79L-161.715 237.873L-163.496 239.107ZM-162.471 237.311L-164.338 235.931L-166.119 237.165L-164.252 238.545L-162.471 237.311ZM-160.938 237.334L-124.51 264.251L-122.729 263.018L-159.157 236.1L-160.938 237.334ZM-119.325 264.421L-117.544 263.188L-119.411 261.808L-121.192 263.042L-119.325 264.421ZM-116.009 263.211L-114.142 264.591L-112.361 263.357L-114.228 261.977L-116.009 263.211ZM-110.826 263.38L-108.959 264.76L-107.178 263.526L-109.045 262.147L-110.826 263.38ZM-105.643 263.55L-103.776 264.929L-101.995 263.696L-103.862 262.316L-105.643 263.55ZM-100.46 263.719L-98.5929 265.099L-96.8118 263.865L-98.6793 262.485L-100.46 263.719ZM-95.2772 263.888L-93.4099 265.268L-91.6288 264.034L-93.4962 262.655L-95.2772 263.888ZM-90.0942 264.058L-88.2268 265.437L-86.4458 264.204L-88.3132 262.824L-90.0942 264.058ZM-84.9112 264.227L-83.0438 265.607L-81.2628 264.373L-83.1302 262.993L-84.9112 264.227ZM-79.7282 264.396L-77.8608 265.776L11.6349 203.799L-11.5156 121.863C-11.5677 121.68 -11.4976 121.484 -11.3392 121.374L5.54821 109.678L4.91608 107.443L-15.7534 121.757L7.39718 203.693C7.44928 203.876 7.3784 204.074 7.22079 204.182L-79.7282 264.396ZM7.21539 112.284L10.734 109.847L10.1019 107.611L6.58326 110.048L7.21539 112.284ZM12.3984 112.453L15.917 110.016L15.2849 107.78L11.7663 110.217L12.3984 112.453ZM17.5814 112.623L21.1 110.185L20.4679 107.949L16.9493 110.387L17.5814 112.623ZM110.233 422.375C110.285 422.558 110.214 422.756 110.057 422.864L66.9937 452.686L68.861 454.065L114.471 422.48L25.6509 108.119L22.1323 110.556L110.233 422.375ZM65.4591 452.662L63.5917 451.283L61.8106 452.516L63.678 453.896L65.4591 452.662ZM60.2761 452.493L58.4087 451.113L56.6276 452.347L58.495 453.727L60.2761 452.493ZM55.093 452.324L53.2256 450.944L51.4446 452.178L53.312 453.557L55.093 452.324ZM49.91 452.154L-210.311 259.88C-210.427 259.796 -210.494 259.658 -210.492 259.515C-210.491 259.465 -210.482 259.415 -210.464 259.366C-210.432 259.281 -210.375 259.208 -210.298 259.155L-178.022 236.802L-179.889 235.423L-214.461 259.364L48.129 453.388L49.91 452.154ZM-176.487 236.826L-174.62 238.205L-172.839 236.972L-174.706 235.592L-176.487 236.826ZM-171.304 236.995L-169.437 238.375L-167.656 237.141L-169.523 235.761L-171.304 236.995ZM-170.28 235.202L-172.148 233.822L-173.929 235.056L-172.061 236.435L-170.28 235.202ZM-168.748 235.224L-166.88 236.604L-165.099 235.37L-166.967 233.991L-168.748 235.224ZM-163.563 235.394L-161.695 236.774L-159.914 235.54L-161.782 234.161L-163.563 235.394ZM-158.38 235.564L-121.951 262.481L-120.17 261.248L-156.599 234.33L-158.38 235.564ZM-116.768 262.651L-114.987 261.417L-116.855 260.037L-118.636 261.271L-116.768 262.651ZM-113.453 261.44L-111.585 262.82L-109.804 261.586L-111.672 260.207L-113.453 261.44ZM-108.27 261.61L-106.402 262.989L-104.621 261.756L-106.489 260.376L-108.27 261.61ZM-103.087 261.779L-101.219 263.159L-99.4382 261.925L-101.306 260.545L-103.087 261.779ZM-97.9036 261.948L-96.0362 263.328L-94.2552 262.094L-96.1226 260.715L-97.9036 261.948ZM-92.7206 262.118L-90.8532 263.497L-89.0722 262.264L-90.9396 260.884L-92.7206 262.118ZM-87.5369 262.285L-85.6695 263.665L-83.8884 262.431L-85.7558 261.051L-87.5369 262.285ZM-82.3526 262.457L-80.4851 263.837L6.45397 203.63L-16.6966 121.694C-16.7487 121.511 -16.6786 121.315 -16.5202 121.205L4.66347 106.536L4.03136 104.3L-20.9344 121.589L2.2162 203.525C2.26831 203.708 2.19738 203.906 2.03978 204.013L-82.3526 262.457ZM6.32659 109.14L9.84519 106.703L9.21308 104.467L5.69448 106.904L6.32659 109.14ZM11.5096 109.309L15.0282 106.872L14.3961 104.636L10.8775 107.073L11.5096 109.309ZM16.6926 109.479L20.2112 107.041L19.5791 104.805L16.0605 107.243L16.6926 109.479ZM21.8757 109.648L25.3943 107.211L24.7621 104.975L21.2435 107.412L21.8757 109.648ZM115.416 422.544C115.468 422.727 115.397 422.925 115.24 423.033L69.62 454.626L71.4874 456.005L119.655 422.648L29.9472 105.145L26.4286 107.582L115.416 422.544ZM68.0854 454.602L66.2181 453.223L64.437 454.456L66.3044 455.836L68.0854 454.602ZM62.9024 454.433L61.035 453.053L59.254 454.287L61.1214 455.667L62.9024 454.433ZM57.7194 454.264L55.852 452.884L54.071 454.118L55.9384 455.497L57.7194 454.264ZM52.5364 454.094L50.669 452.715L48.888 453.948L50.7554 455.328L52.5364 454.094ZM47.3534 453.925L-215.494 259.711C-215.61 259.626 -215.677 259.489 -215.674 259.344C-215.673 259.293 -215.664 259.244 -215.646 259.195C-215.615 259.11 -215.557 259.036 -215.48 258.984L-180.646 234.861L-182.513 233.481L-219.641 259.193L45.5716 455.161L47.3534 453.925ZM-179.114 234.886L-177.246 236.265L-175.465 235.032L-177.333 233.652L-179.114 234.886ZM-178.09 233.092L-179.957 231.713L-181.738 232.946L-179.871 234.326L-178.09 233.092ZM-176.557 233.115L-174.69 234.494L-172.909 233.261L-174.776 231.881L-176.557 233.115ZM-171.374 233.284L-169.507 234.664L-167.726 233.43L-169.593 232.05L-171.374 233.284ZM-166.189 233.454L-164.322 234.834L-162.541 233.6L-164.408 232.22L-166.189 233.454ZM-161.006 233.624L-159.139 235.003L-157.358 233.769L-159.225 232.39L-161.006 233.624ZM-155.823 233.793L-119.395 260.711L-117.614 259.477L-154.042 232.559L-155.823 233.793ZM-114.212 260.88L-112.431 259.646L-114.298 258.266L-116.079 259.5L-114.212 260.88ZM-110.896 259.67L-109.029 261.049L-107.248 259.815L-109.115 258.436L-110.896 259.67ZM-105.712 259.837L-103.845 261.217L-102.064 259.983L-103.931 258.603L-105.712 259.837ZM-100.527 260.007L-98.6598 261.387L-96.8788 260.153L-98.7462 258.773L-100.527 260.007ZM-95.3442 260.176L-93.4768 261.556L-91.6958 260.322L-93.5632 258.943L-95.3442 260.176ZM-90.1612 260.346L-88.2938 261.725L-86.5128 260.491L-88.3802 259.112L-90.1612 260.346ZM-84.9782 260.515L-83.1108 261.895L1.27171 203.459L-21.8789 121.523C-21.931 121.34 -21.8608 121.144 -21.7025 121.034L3.77543 103.39L3.14329 101.154L-26.1167 121.417L-2.96605 203.353C-2.91395 203.537 -2.98486 203.734 -3.14245 203.842L-84.9782 260.515ZM5.4378 105.996L8.95644 103.559L8.32428 101.323L4.80566 103.76L5.4378 105.996ZM10.6229 106.166L14.1415 103.729L13.5093 101.493L9.99071 103.93L10.6229 106.166ZM15.8038 106.335L19.3225 103.898L18.6903 101.662L15.1717 104.099L15.8038 106.335ZM20.9888 106.505L24.5075 104.068L23.8754 101.832L20.3568 104.269L20.9888 106.505ZM26.1719 106.674L29.6905 104.237L29.0584 102.001L25.5397 104.438L26.1719 106.674ZM120.601 422.714C120.653 422.898 120.583 423.093 120.425 423.203L72.2464 456.566L74.1138 457.946L124.84 422.818L34.2441 102.169L30.7255 104.607L120.601 422.714ZM70.7118 456.542L68.8444 455.163L67.0634 456.397L68.9308 457.776L70.7118 456.542ZM65.5288 456.373L63.6614 454.994L61.8804 456.227L63.7478 457.607L65.5288 456.373ZM60.3458 456.204L58.4784 454.824L56.6974 456.058L58.5648 457.438L60.3458 456.204ZM55.1628 456.034L53.2954 454.655L51.5144 455.889L53.3818 457.268L55.1628 456.034ZM49.9798 455.865L48.1124 454.486L46.3314 455.719L48.1988 457.099L49.9798 455.865ZM44.796 455.698L-220.677 259.544C-220.794 259.459 -220.86 259.321 -220.858 259.179C-220.858 259.128 -220.848 259.076 -220.831 259.03C-220.799 258.944 -220.742 258.871 -220.665 258.819L-183.273 232.925L-185.141 231.545L-224.827 259.025L43.013 456.931L44.796 455.698ZM43.7719 457.491L45.6393 458.871L47.4204 457.637L45.553 456.258L43.7719 457.491ZM42.2374 457.468L-225.86 259.374C-225.977 259.29 -226.043 259.152 -226.041 259.007C-226.04 258.957 -226.031 258.907 -226.013 258.858C-225.981 258.773 -225.924 258.7 -225.847 258.647L-185.899 230.983L-187.766 229.603L-230.011 258.858L40.4563 458.702L42.2374 457.468ZM-184.366 231.005L-182.499 232.385L-180.718 231.151L-182.585 229.772L-184.366 231.005ZM-179.181 231.175L-177.314 232.555L-175.533 231.321L-177.4 229.942L-179.181 231.175ZM-173.998 231.345L-172.131 232.724L-170.35 231.491L-172.217 230.111L-173.998 231.345ZM-168.815 231.514L-166.948 232.894L-165.167 231.66L-167.034 230.28L-168.815 231.514ZM-163.632 231.683L-161.765 233.063L-159.984 231.829L-161.851 230.45L-163.632 231.683ZM-158.449 231.853L-156.582 233.232L-154.801 231.999L-156.668 230.619L-158.449 231.853ZM-153.266 232.022L-116.838 258.94L-115.057 257.706L-151.485 230.788L-153.266 232.022ZM-111.653 259.11L-109.872 257.876L-111.739 256.496L-113.52 257.73L-111.653 259.11ZM-108.337 257.897L-106.469 259.277L-104.688 258.043L-106.556 256.664L-108.337 257.897ZM-103.154 258.067L-101.286 259.446L-99.5052 258.213L-101.373 256.833L-103.154 258.067ZM-97.9706 258.236L-96.1032 259.616L-94.3222 258.382L-96.1896 257.002L-97.9706 258.236ZM-92.7876 258.405L-90.9202 259.785L-89.1392 258.551L-91.0065 257.172L-92.7876 258.405ZM-87.6046 258.575L-85.7372 259.954L-3.91132 203.29L-27.0619 121.354C-27.114 121.17 -27.0439 120.975 -26.8855 120.865L2.88665 100.247L2.25452 98.0107L-31.2997 121.248L-8.14907 203.184C-8.09698 203.367 -8.16789 203.565 -8.32548 203.673L-87.6046 258.575ZM4.55103 102.853L8.06966 100.416L7.43751 98.18L3.9189 100.617L4.55103 102.853ZM9.73402 103.023L13.2527 100.585L12.6205 98.3493L9.10191 100.787L9.73402 103.023ZM14.9171 103.192L18.4357 100.755L17.8035 98.5186L14.2849 100.956L14.9171 103.192ZM20.1001 103.361L23.6187 100.924L22.9866 98.688L19.4679 101.125L20.1001 103.361ZM25.2831 103.531L28.8017 101.093L28.1696 98.8573L24.651 101.295L25.2831 103.531ZM30.4661 103.7L33.9847 101.263L33.3526 99.0266L29.834 101.464L30.4661 103.7ZM125.784 422.884C125.836 423.067 125.766 423.262 125.608 423.372L74.8721 458.508L76.7394 459.888L130.022 422.989L38.5376 99.1967L35.019 101.634L125.784 422.884ZM73.3382 458.483L71.4708 457.103L69.6898 458.337L71.5572 459.716L73.3382 458.483ZM68.1544 458.315L66.2871 456.936L64.506 458.169L66.3734 459.549L68.1544 458.315ZM62.9714 458.146L61.104 456.766L59.323 458L61.1904 459.38L62.9714 458.146ZM57.7884 457.977L55.921 456.597L54.14 457.831L56.0074 459.21L57.7884 457.977ZM52.6054 457.807L50.738 456.428L48.957 457.661L50.8244 459.041L52.6054 457.807ZM51.5813 459.601L53.4487 460.98L55.2298 459.747L53.3624 458.367L51.5813 459.601ZM50.0467 459.577L48.1794 458.198L46.3983 459.431L48.2657 460.811L50.0467 459.577ZM44.8637 459.408L42.9963 458.028L41.2153 459.262L43.0827 460.642L44.8637 459.408ZM39.6807 459.239L-231.043 259.205C-231.16 259.12 -231.226 258.983 -231.224 258.838C-231.223 258.787 -231.214 258.738 -231.196 258.689C-231.164 258.604 -231.107 258.53 -231.03 258.478L-188.523 229.043L-190.391 227.664L-235.192 258.689L37.8997 460.472L39.6807 459.239ZM-186.991 229.066L-185.123 230.446L-183.342 229.212L-185.21 227.832L-186.991 229.066ZM-181.808 229.235L-179.94 230.615L-178.159 229.381L-180.027 228.002L-181.808 229.235ZM-176.625 229.405L-174.757 230.784L-172.976 229.551L-174.844 228.171L-176.625 229.405ZM-171.442 229.574L-169.574 230.954L-167.793 229.72L-169.661 228.34L-171.442 229.574ZM-166.259 229.743L-164.391 231.123L-162.61 229.889L-164.478 228.51L-166.259 229.743ZM-161.076 229.913L-159.208 231.292L-157.427 230.059L-159.295 228.679L-161.076 229.913ZM-155.893 230.082L-154.025 231.462L-152.244 230.228L-154.112 228.848L-155.893 230.082ZM-150.71 230.251L-114.281 257.169L-112.5 255.935L-148.931 229.017L-150.71 230.251ZM-109.096 257.337L-107.315 256.103L-109.182 254.724L-110.963 255.957L-109.096 257.337ZM-105.78 256.127L-103.913 257.506L-102.132 256.273L-103.999 254.893L-105.78 256.127ZM-100.597 256.296L-98.7296 257.676L-96.9486 256.442L-98.816 255.062L-100.597 256.296ZM-95.414 256.465L-93.5466 257.845L-91.7655 256.611L-93.6329 255.232L-95.414 256.465ZM-90.231 256.635L-88.3636 258.014L-9.09508 203.122L-32.2457 121.186C-32.2978 121.003 -32.2276 120.807 -32.0692 120.697L1.99916 97.1057L1.367 94.8697L-36.4834 121.081L-13.3328 203.017C-13.2807 203.2 -13.3516 203.398 -13.5093 203.505L-90.231 256.635ZM3.66224 99.7096L7.18086 97.2722L6.54872 95.0362L3.03012 97.4736L3.66224 99.7096ZM8.84529 99.8789L12.3639 97.4415L11.7318 95.2056L8.21313 97.6429L8.84529 99.8789ZM14.0283 100.048L17.5469 97.6109L16.9147 95.3749L13.3961 97.8123L14.0283 100.048ZM19.2113 100.218L22.7299 97.7802L22.0978 95.5442L18.5791 97.9816L19.2113 100.218ZM24.3943 100.387L27.9129 97.9495L27.2808 95.7135L23.7622 98.151L24.3943 100.387ZM29.5773 100.556L33.0959 98.1188L32.4638 95.8829L28.9452 98.3203L29.5773 100.556ZM34.7603 100.726L38.2789 98.2882L37.6468 96.0522L34.1282 98.4896L34.7603 100.726ZM130.967 423.053C131.019 423.236 130.949 423.434 130.791 423.542L77.4984 460.448L79.3658 461.828L135.205 423.158L42.8319 96.2223L39.3132 98.6597L130.967 423.053ZM75.9638 460.425L74.0964 459.045L72.3154 460.279L74.1828 461.658L75.9638 460.425ZM70.7808 460.255L68.9134 458.876L67.1324 460.11L68.9998 461.489L70.7808 460.255ZM65.5978 460.086L63.7304 458.706L61.9494 459.94L63.8168 461.32L65.5978 460.086ZM60.4128 459.916L58.5454 458.536L56.7643 459.77L58.6317 461.15L60.4128 459.916ZM59.3907 461.71L61.2581 463.09L63.0392 461.856L61.1718 460.476L59.3907 461.71ZM57.8561 461.687L55.9887 460.307L54.2077 461.541L56.0751 462.921L57.8561 461.687ZM52.6731 461.517L50.8057 460.138L49.0247 461.372L50.8921 462.751L52.6731 461.517ZM47.4901 461.348L45.6227 459.969L43.8417 461.202L45.7091 462.582L47.4901 461.348ZM42.3071 461.179L40.4397 459.799L38.6587 461.033L40.5261 462.413L42.3071 461.179ZM37.1241 461.009L-236.226 259.036C-236.343 258.951 -236.409 258.813 -236.407 258.671C-236.407 258.62 -236.397 258.568 -236.38 258.522C-236.348 258.436 -236.291 258.363 -236.214 258.311L-191.151 227.105L-193.018 225.726L-240.375 258.522L35.3431 462.243L37.1241 461.009ZM-189.617 227.126L-187.75 228.506L-185.969 227.272L-187.836 225.892L-189.617 227.126ZM-184.434 227.295L-182.567 228.675L-180.786 227.441L-182.653 226.061L-184.434 227.295ZM-179.251 227.465L-177.384 228.844L-175.603 227.61L-177.47 226.231L-179.251 227.465ZM-174.068 227.634L-172.201 229.014L-170.42 227.78L-172.287 226.4L-174.068 227.634ZM-168.885 227.803L-167.018 229.183L-165.237 227.949L-167.104 226.569L-168.885 227.803ZM-163.702 227.973L-161.835 229.352L-160.054 228.118L-161.921 226.739L-163.702 227.973ZM-158.519 228.142L-156.652 229.522L-154.871 228.288L-156.738 226.908L-158.519 228.142ZM-153.334 228.312L-151.467 229.692L-149.686 228.458L-151.553 227.078L-153.334 228.312ZM-148.151 228.481L-111.723 255.399L-109.942 254.165L-146.37 227.248L-148.151 228.481ZM-106.539 255.566L-104.758 254.332L-106.625 252.953L-108.406 254.187L-106.539 255.566ZM-103.223 254.356L-101.356 255.736L-99.5749 254.502L-101.442 253.122L-103.223 254.356ZM-98.0403 254.525L-96.173 255.905L-94.3919 254.671L-96.2593 253.291L-98.0403 254.525ZM-92.8573 254.695L-90.9899 256.074L-14.2801 202.952L-37.4307 121.016C-37.4828 120.833 -37.4127 120.637 -37.2543 120.527L1.1083 93.9611L0.476199 91.7252L-41.6685 120.911L-18.5179 202.847C-18.4658 203.03 -18.5367 203.228 -18.6943 203.335L-92.8573 254.695ZM2.77348 96.5658L6.29209 94.1284L5.65994 91.8925L2.14132 94.3298L2.77348 96.5658ZM7.95647 96.7351L11.4751 94.2978L10.843 92.0618L7.32432 94.4992L7.95647 96.7351ZM13.1395 96.9045L16.6581 94.4671L16.026 92.2311L12.5074 94.6685L13.1395 96.9045ZM18.3225 97.0738L21.8411 94.6364L21.209 92.4004L17.6904 94.8378L18.3225 97.0738ZM23.5075 97.2439L27.0262 94.8065L26.394 92.5705L22.8754 95.0079L23.5075 97.2439ZM28.6905 97.4132L32.2092 94.9758L31.577 92.7399L28.0584 95.1772L28.6905 97.4132ZM33.8736 97.5825L37.3922 95.1451L36.76 92.9092L33.2414 95.3466L33.8736 97.5825ZM39.0566 97.7519L42.5752 95.3145L41.9431 93.0785L38.4244 95.5159L39.0566 97.7519ZM136.15 423.222C136.202 423.405 136.132 423.603 135.974 423.711L80.1228 462.388L81.9902 463.767L140.388 423.328L47.1281 93.2486L43.6095 95.686L136.15 423.222ZM78.5902 462.365L76.7228 460.985L74.9418 462.219L76.8092 463.599L78.5902 462.365ZM73.4072 462.196L71.5398 460.816L69.7588 462.05L71.6262 463.429L73.4072 462.196ZM68.2222 462.025L66.3548 460.646L64.5737 461.88L66.4411 463.259L68.2222 462.025ZM67.2001 463.82L69.0675 465.199L70.8485 463.966L68.9812 462.586L67.2001 463.82ZM65.6655 463.796L63.7981 462.417L62.0171 463.65L63.8845 465.03L65.6655 463.796ZM60.4825 463.627L58.6151 462.247L56.8341 463.481L58.7015 464.861L60.4825 463.627ZM55.2995 463.458L53.4321 462.078L51.6511 463.312L53.5185 464.691L55.2995 463.458ZM50.1165 463.288L48.2491 461.909L46.4681 463.142L48.3355 464.522L50.1165 463.288ZM44.9335 463.119L43.0661 461.739L41.2851 462.973L43.1525 464.353L44.9335 463.119ZM39.7505 462.95L37.8831 461.57L36.1021 462.804L37.9694 464.183L39.7505 462.95ZM34.5675 462.78L-241.409 258.864C-241.525 258.78 -241.592 258.642 -241.59 258.499C-241.589 258.449 -241.58 258.399 -241.562 258.35C-241.531 258.265 -241.473 258.192 -241.396 258.139L-193.775 225.161L-195.643 223.781L-245.559 258.348L32.7844 464.013L34.5675 462.78ZM-192.244 225.186L-190.376 226.565L-188.595 225.332L-190.463 223.952L-192.244 225.186ZM-187.061 225.355L-185.193 226.735L-183.412 225.501L-185.28 224.121L-187.061 225.355ZM-181.878 225.524L-180.01 226.904L-178.229 225.67L-180.097 224.291L-181.878 225.524ZM-176.694 225.692L-174.826 227.071L-173.045 225.838L-174.913 224.458L-176.694 225.692ZM-171.512 225.863L-169.644 227.243L-167.863 226.009L-169.731 224.629L-171.512 225.863ZM-166.328 226.03L-164.46 227.41L-162.679 226.176L-164.547 224.797L-166.328 226.03ZM-161.143 226.2L-159.275 227.58L-157.494 226.346L-159.362 224.967L-161.143 226.2ZM-155.96 226.37L-154.092 227.749L-152.311 226.516L-154.179 225.136L-155.96 226.37ZM-150.777 226.539L-148.909 227.919L-147.128 226.685L-148.996 225.305L-150.777 226.539ZM-145.594 226.708L-109.165 253.626L-107.384 252.392L-143.813 225.475L-145.594 226.708ZM-103.982 253.795L-102.201 252.562L-104.069 251.182L-105.85 252.416L-103.982 253.795ZM-100.667 252.585L-98.7993 253.965L-97.0183 252.731L-98.8857 251.351L-100.667 252.585ZM-95.4837 252.754L-93.6163 254.134L-19.4631 202.783L-42.6137 120.847C-42.6658 120.664 -42.5949 120.466 -42.4373 120.358L0.219496 90.8174L-0.412595 88.5814L-46.8535 120.741L-23.7029 202.676C-23.6508 202.86 -23.7217 203.057 -23.8793 203.165L-95.4837 252.754ZM1.88467 93.4221L5.40327 90.9847L4.77114 88.7487L1.25254 91.1861L1.88467 93.4221ZM7.0697 93.5921L10.5883 91.1548L9.95619 88.9188L6.43758 91.3561L7.0697 93.5921ZM12.2527 93.7615L15.7713 91.3241L15.1392 89.0881L11.6206 91.5255L12.2527 93.7615ZM17.4357 93.9308L20.9544 91.4934L20.3222 89.2574L16.8036 91.6948L17.4357 93.9308ZM22.6187 94.1001L26.1373 91.6627L25.5052 89.4267L21.9866 91.8642L22.6187 94.1001ZM27.8017 94.2694L31.3204 91.8321L30.6882 89.5961L27.1696 92.0335L27.8017 94.2694ZM32.9848 94.4388L36.5034 92.0014L35.8713 89.7654L32.3526 92.2028L32.9848 94.4388ZM38.1678 94.6081L41.6864 92.1707L41.0543 89.9347L37.5356 92.3722L38.1678 94.6081ZM43.3508 94.7774L46.8694 92.34L46.2373 90.1041L42.7186 92.5415L43.3508 94.7774ZM141.333 423.392C141.385 423.575 141.315 423.77 141.157 423.88L82.7492 464.328L84.6166 465.707L145.571 423.497L51.4223 90.2742L47.9037 92.7115L141.333 423.392ZM81.2146 464.304L79.3472 462.925L77.5662 464.158L79.4335 465.538L81.2146 464.304ZM76.0316 464.135L74.1642 462.755L72.3831 463.989L74.2505 465.369L76.0316 464.135ZM75.0095 465.929L76.8769 467.309L78.6579 466.075L76.7905 464.695L75.0095 465.929ZM73.4749 465.906L71.6075 464.526L69.8265 465.76L71.6939 467.139L73.4749 465.906ZM68.2919 465.736L66.4245 464.357L64.6435 465.59L66.5109 466.97L68.2919 465.736ZM63.1089 465.567L61.2415 464.187L59.4605 465.421L61.3279 466.801L63.1089 465.567ZM57.9259 465.398L56.0585 464.018L54.2775 465.252L56.1449 466.631L57.9259 465.398ZM52.7429 465.228L50.8755 463.849L49.0945 465.082L50.9618 466.462L52.7429 465.228ZM47.5599 465.059L45.6925 463.679L43.9114 464.913L45.7788 466.293L47.5599 465.059ZM42.3768 464.89L40.5095 463.51L38.7284 464.744L40.5958 466.123L42.3768 464.89ZM37.1918 464.72L35.3244 463.34L33.5434 464.574L35.4108 465.953L37.1918 464.72ZM32.0088 464.55L-246.594 258.694C-246.71 258.61 -246.777 258.472 -246.774 258.327C-246.774 258.277 -246.764 258.227 -246.746 258.178C-246.715 258.093 -246.658 258.019 -246.581 257.967L-196.403 223.218L-198.27 221.839L-250.745 258.18L30.2278 465.784L32.0088 464.55ZM-194.869 223.244L-193.002 224.623L-191.221 223.39L-193.088 222.01L-194.869 223.244ZM-189.686 223.413L-187.819 224.793L-186.038 223.559L-187.905 222.179L-189.686 223.413ZM-184.503 223.582L-182.636 224.962L-180.855 223.728L-182.722 222.349L-184.503 223.582ZM-179.32 223.752L-177.453 225.131L-175.672 223.898L-177.539 222.518L-179.32 223.752ZM-174.137 223.921L-172.27 225.301L-170.489 224.067L-172.356 222.687L-174.137 223.921ZM-168.952 224.091L-167.085 225.471L-165.304 224.237L-167.171 222.857L-168.952 224.091ZM-163.769 224.26L-161.902 225.64L-160.121 224.406L-161.988 223.027L-163.769 224.26ZM-158.586 224.43L-156.719 225.809L-154.938 224.576L-156.805 223.196L-158.586 224.43ZM-153.403 224.599L-151.536 225.979L-149.755 224.745L-151.622 223.365L-153.403 224.599ZM-148.22 224.768L-146.353 226.148L-144.572 224.914L-146.439 223.535L-148.22 224.768ZM-143.037 224.938L-106.609 251.855L-104.828 250.622L-141.258 223.703L-143.037 224.938ZM-101.424 252.025L-99.6426 250.792L-101.51 249.412L-103.291 250.646L-101.424 252.025ZM-98.1081 250.815L-96.2407 252.195L-24.6441 202.614L-47.7947 120.678C-47.8468 120.495 -47.7767 120.299 -47.6183 120.19L-0.664482 87.6731L-1.29662 85.4371L-52.0317 120.571L-28.8811 202.507C-28.829 202.69 -28.8999 202.888 -29.0575 202.995L-98.1081 250.815ZM0.997911 90.279L4.5165 87.8417L3.88438 85.6057L0.365781 88.0431L0.997911 90.279ZM6.1809 90.4484L9.69952 88.0109L9.0674 85.775L5.5488 88.2124L6.1809 90.4484ZM11.3639 90.6177L14.8826 88.1803L14.2504 85.9443L10.7318 88.3817L11.3639 90.6177ZM16.5469 90.787L20.0656 88.3497L19.4334 86.1137L15.9148 88.551L16.5469 90.787ZM21.73 90.9563L25.2486 88.519L24.6164 86.283L21.0978 88.7204L21.73 90.9563ZM26.913 91.1257L30.4316 88.6883L29.7994 86.4523L26.2808 88.8897L26.913 91.1257ZM32.096 91.295L35.6146 88.8576L34.9825 86.6216L31.4638 89.059L32.096 91.295ZM37.279 91.4643L40.7976 89.0269L40.1655 86.791L36.6469 89.2283L37.279 91.4643ZM42.462 91.6337L45.9806 89.1963L45.3485 86.9603L41.8298 89.3977L42.462 91.6337ZM47.6471 91.8037L51.1657 89.3664L50.5335 87.1304L47.0149 89.5677L47.6471 91.8037ZM146.516 423.561C146.568 423.744 146.498 423.942 146.34 424.05L85.3748 466.27L87.2422 467.649L150.754 423.666L55.7165 87.2997L52.1979 89.7371L146.516 423.561ZM83.841 466.244L81.9736 464.865L80.1925 466.098L82.0599 467.478L83.841 466.244ZM81.2843 468.015L79.4169 466.635L77.6359 467.869L79.5033 469.249L81.2843 468.015ZM76.1013 467.846L74.2339 466.466L72.4529 467.7L74.3203 469.08L76.1013 467.846ZM70.9183 467.676L69.0509 466.297L67.2699 467.531L69.1373 468.91L70.9183 467.676ZM65.7353 467.507L63.8679 466.128L62.0869 467.361L63.9543 468.741L65.7353 467.507ZM60.5523 467.338L58.6849 465.958L56.9039 467.192L58.7685 468.573L60.5523 467.338ZM55.3672 467.168L53.4998 465.788L51.7188 467.022L53.5862 468.401L55.3672 467.168ZM50.1842 466.998L48.3168 465.619L46.5358 466.853L48.4032 468.232L50.1842 466.998ZM45.0012 466.829L43.1338 465.449L41.3528 466.683L43.2202 468.063L45.0012 466.829ZM39.8174 466.662L37.9501 465.282L36.169 466.516L38.0364 467.896L39.8174 466.662ZM34.6352 466.49L32.7678 465.111L30.9868 466.345L32.8541 467.724L34.6352 466.49ZM-255.928 258.011L27.6704 467.557L29.4514 466.323L-251.778 258.527C-251.894 258.442 -251.96 258.305 -251.958 258.162C-251.958 258.111 -251.948 258.06 -251.931 258.013C-251.899 257.928 -251.842 257.854 -251.765 257.802L-199.029 221.283L-200.896 219.903L-255.928 258.011ZM-197.496 221.304L-195.628 222.683L-193.847 221.449L-195.715 220.07L-197.496 221.304ZM-192.313 221.473L-190.445 222.853L-188.664 221.619L-190.532 220.239L-192.313 221.473ZM-187.13 221.642L-185.262 223.022L-183.481 221.788L-185.349 220.408L-187.13 221.642ZM-181.945 221.812L-180.077 223.192L-178.296 221.958L-180.164 220.579L-181.945 221.812ZM-176.762 221.982L-174.894 223.361L-173.113 222.127L-174.98 220.748L-176.762 221.982ZM-171.579 222.151L-169.711 223.531L-167.93 222.297L-169.798 220.917L-171.579 222.151ZM-166.396 222.32L-164.528 223.7L-162.747 222.466L-164.615 221.086L-166.396 222.32ZM-161.213 222.49L-159.345 223.869L-157.564 222.635L-159.431 221.256L-161.213 222.49ZM-156.029 222.659L-154.162 224.039L-152.381 222.805L-154.248 221.425L-156.029 222.659ZM-150.846 222.828L-148.979 224.208L-147.198 222.974L-149.065 221.594L-150.846 222.828ZM-145.663 222.998L-143.796 224.377L-142.015 223.143L-143.882 221.764L-145.663 222.998ZM-138.697 221.934L-140.478 223.168L-104.05 250.085L-102.269 248.852L-138.697 221.934ZM-2.18742 82.2926L-57.2168 120.401L-34.0662 202.337C-34.0141 202.52 -34.085 202.718 -34.2426 202.825L-100.734 248.875L-98.8671 250.255L-29.8291 202.444L-52.9798 120.508C-53.0318 120.325 -52.9609 120.127 -52.8033 120.019L-1.55529 84.5285L-2.18742 82.2926ZM2.9976 82.4627L-0.520991 84.9L0.111139 87.136L3.62973 84.6986L2.9976 82.4627ZM8.18062 82.632L4.662 85.0694L5.29417 87.3053L8.81279 84.868L8.18062 82.632ZM13.3636 82.8013L9.84503 85.2387L10.4772 87.4747L13.9958 85.0373L13.3636 82.8013ZM18.5466 82.9706L15.0281 85.408L15.6602 87.644L19.1788 85.2066L18.5466 82.9706ZM23.7297 83.14L20.211 85.5774L20.8432 87.8133L24.3618 85.376L23.7297 83.14ZM28.9127 83.3093L25.3941 85.7467L26.0262 87.9827L29.5448 85.5453L28.9127 83.3093ZM34.0957 83.4786L30.5771 85.916L31.2092 88.152L34.7278 85.7146L34.0957 83.4786ZM39.2787 83.648L35.7601 86.0854L36.3922 88.3213L39.9108 85.8839L39.2787 83.648ZM44.4617 83.8173L40.9431 86.2546L41.5752 88.4906L45.0939 86.0533L44.4617 83.8173ZM49.6447 83.9866L46.1261 86.424L46.7583 88.6599L50.2769 86.2226L49.6447 83.9866ZM54.8278 84.1559L51.3091 86.5933L51.9413 88.8293L55.4599 86.3919L54.8278 84.1559ZM56.4922 86.7626L151.7 423.728C151.752 423.911 151.681 424.109 151.524 424.217L88.0019 468.208L89.8693 469.588L155.937 423.836L60.0108 84.3252L56.4922 86.7626ZM-18.9873 256.393C-18.8506 256.441 -18.7489 256.553 -18.7084 256.692L-17.9892 259.235L-14.2072 256.616C-14.0895 256.535 -13.9389 256.514 -13.8023 256.563C-13.6656 256.611 -13.5639 256.723 -13.5254 256.862L-12.8062 259.405L-9.0242 256.785C-8.90649 256.704 -8.7559 256.684 -8.61924 256.732C-8.4846 256.78 -8.38088 256.892 -8.34237 257.031L-7.62321 259.574L-3.84119 256.955C-3.72348 256.874 -3.57288 256.853 -3.43622 256.901C-3.29955 256.95 -3.19784 257.061 -3.15934 257.2L-2.44019 259.743L1.34185 257.124C1.45953 257.043 1.61011 257.022 1.74677 257.071C1.88141 257.118 1.98518 257.231 2.02369 257.37L2.74281 259.913L6.52486 257.293C6.64255 257.212 6.79313 257.192 6.92979 257.24C7.06443 257.288 7.16819 257.4 7.20669 257.539L7.92581 260.082L11.7079 257.463C11.8263 257.379 11.9762 257.361 12.1128 257.409C12.2475 257.457 12.3512 257.569 12.3897 257.708L13.1088 260.251L16.8909 257.632C17.0093 257.549 17.1592 257.53 17.2958 257.579C17.4305 257.626 17.5342 257.739 17.5727 257.878L18.2918 260.421L22.0739 257.801C22.1916 257.72 22.3422 257.7 22.4788 257.748C22.6135 257.796 22.7172 257.908 22.7557 258.047L23.4749 260.59L27.2569 257.971C27.3746 257.89 27.5252 257.869 27.6619 257.917C27.7985 257.966 27.9002 258.077 27.9387 258.216L28.6579 260.759L32.4399 258.14C32.5576 258.059 32.7082 258.038 32.8449 258.087C32.9795 258.134 33.0832 258.247 33.1217 258.386L33.8409 260.929L37.6229 258.309C37.7406 258.228 37.8912 258.208 38.0279 258.256C38.1646 258.304 38.2663 258.416 38.3048 258.555L39.0239 261.098L42.8059 258.479C42.9236 258.398 43.0742 258.377 43.2109 258.425C43.3455 258.473 43.4493 258.585 43.4878 258.724L78.0665 381.104C78.1178 381.289 78.0477 381.485 77.8901 381.593C77.7325 381.7 77.5238 381.697 77.3715 381.585L71.9303 377.566L72.8827 380.936C72.9348 381.12 72.8639 381.317 72.7063 381.425C72.5487 381.533 72.3421 381.53 72.1877 381.418L66.7465 377.399L67.699 380.769C67.751 380.952 67.6801 381.15 67.5225 381.258C67.3649 381.366 67.1555 381.364 67.0039 381.251L61.5635 377.229L62.5159 380.6C62.568 380.783 62.4971 380.981 62.3395 381.089C62.1819 381.197 61.9753 381.194 61.8209 381.081L56.3797 377.062L57.3322 380.433C57.3843 380.616 57.3134 380.813 57.1558 380.921C56.9982 381.029 56.7915 381.027 56.6371 380.914L51.196 376.895L52.1484 380.265C52.2005 380.448 52.1296 380.646 51.972 380.754C51.8144 380.862 51.6078 380.859 51.4534 380.747L46.0122 376.727L46.9647 380.098C47.0167 380.281 46.9466 380.477 46.7882 380.587C46.6306 380.695 46.422 380.691 46.2696 380.579L40.8284 376.56L41.7809 379.931C41.833 380.114 41.7621 380.312 41.6045 380.419C41.4469 380.527 41.2402 380.525 41.0858 380.412L35.6447 376.393L36.5971 379.763C36.6492 379.947 36.5783 380.144 36.4207 380.252C36.2631 380.36 36.0537 380.359 35.9021 380.245L30.4609 376.226L31.4133 379.596C31.4654 379.779 31.3945 379.977 31.2369 380.085C31.0793 380.193 30.8727 380.19 30.7183 380.077L25.2771 376.058L26.2296 379.429C26.2817 379.612 26.2108 379.81 26.0532 379.918C25.8956 380.025 25.6869 380.022 25.5346 379.91L20.0934 375.891L21.0458 379.261C21.0979 379.445 21.027 379.642 20.8694 379.75C20.7118 379.858 20.5044 379.858 20.3508 379.743L14.9096 375.724L15.8621 379.094C15.9142 379.277 15.844 379.473 15.6856 379.583C15.528 379.691 15.3214 379.688 15.167 379.576L-87.0588 304.042C-87.1751 303.957 -87.2417 303.819 -87.2397 303.677C-87.2394 303.626 -87.2294 303.574 -87.2121 303.528C-87.1806 303.442 -87.1234 303.369 -87.0483 303.316L-19.4005 256.468C-19.2738 256.363 -19.124 256.344 -18.9873 256.393ZM-14.216 257.705L-17.7346 260.142L-17.1025 262.378L-13.5839 259.941L-14.216 257.705ZM0.142476 323.411L5.45999 327.34L-4.44409 292.287L-7.96271 294.724L0.142476 323.411ZM-8.73961 295.259L-23.8215 305.704L-1.02938 322.545L-8.73961 295.259ZM-24.8543 306.051C-24.9706 305.966 -25.0373 305.829 -25.0353 305.686C-25.035 305.636 -25.025 305.584 -25.0077 305.537C-24.9761 305.452 -24.9189 305.378 -24.8439 305.325L-8.997 294.353L-9.62913 292.117L-29.0073 305.536L0.2742 327.172L-0.635903 323.949L-24.8543 306.051ZM-8.22065 293.814L-4.70203 291.376L-5.33418 289.14L-8.85278 291.578L-8.22065 293.814ZM6.63188 328.206L11.9494 332.136L-0.149123 289.31L-3.66773 291.748L6.63188 328.206ZM0.538769 324.814L1.44888 328.037L6.76639 331.966L5.85629 328.743L0.538769 324.814ZM-30.0374 305.882C-30.1536 305.797 -30.2203 305.659 -30.2183 305.517C-30.218 305.466 -30.2088 305.417 -30.1907 305.368C-30.1592 305.283 -30.102 305.209 -30.027 305.156L-9.88504 291.207L-10.5172 288.971L-34.1896 305.365L1.58134 331.796L0.671234 328.573L-30.0374 305.882ZM-9.10943 290.67L-5.59081 288.232L-6.22296 285.997L-9.74156 288.434L-9.10943 290.67ZM-3.92439 290.84L-0.405786 288.403L-1.0379 286.167L-4.55654 288.604L-3.92439 290.84ZM13.1213 333.002L18.4388 336.931L4.14307 286.335L0.624443 288.773L13.1213 333.002ZM7.02816 329.609L7.93827 332.832L13.2558 336.762L12.3457 333.539L7.02816 329.609ZM1.84515 329.44L2.75525 332.663L8.07276 336.592L7.16266 333.369L1.84515 329.44ZM-35.2204 305.712C-35.3367 305.628 -35.4033 305.49 -35.4013 305.348C-35.401 305.297 -35.3911 305.245 -35.3738 305.198C-35.3422 305.113 -35.285 305.04 -35.2099 304.987L-10.7738 288.063L-11.406 285.827L-39.3726 305.195L2.88976 336.423L1.97965 333.2L-35.2204 305.712ZM-9.99621 287.527L-6.47757 285.089L-7.10972 282.854L-10.6283 285.291L-9.99621 287.527ZM-4.81319 287.696L-1.29456 285.259L-1.92669 283.023L-5.44532 285.46L-4.81319 287.696ZM0.36982 287.866L3.88844 285.428L3.25632 283.192L-0.26231 285.63L0.36982 287.866ZM19.6127 337.798L24.9302 341.727L8.43931 283.362L4.9207 285.799L19.6127 337.798ZM13.5196 334.405L14.4297 337.628L19.7472 341.558L18.8371 338.335L13.5196 334.405ZM8.33454 334.235L9.24467 337.458L14.5622 341.388L13.6521 338.165L8.33454 334.235ZM3.15154 334.066L4.06165 337.289L9.37917 341.219L8.46906 337.995L3.15154 334.066ZM-40.4034 305.543C-40.5197 305.459 -40.5863 305.321 -40.5843 305.178C-40.584 305.128 -40.5741 305.076 -40.5568 305.029C-40.5252 304.944 -40.468 304.87 -40.393 304.817L-11.6606 284.92L-12.2927 282.684L-44.5556 305.026L4.19819 341.05L3.28808 337.827L-40.4034 305.543ZM-10.885 284.383L-7.36637 281.946L-7.99852 279.71L-11.5171 282.147L-10.885 284.383ZM-5.70196 284.552L-2.18336 282.115L-2.81549 279.879L-6.33411 282.316L-5.70196 284.552ZM-0.518965 284.722L2.99966 282.284L2.36752 280.048L-1.15111 282.486L-0.518965 284.722ZM4.66405 284.891L8.18266 282.454L7.55052 280.218L4.0319 282.655L4.66405 284.891ZM26.1021 342.593L31.4196 346.523L12.7335 280.387L9.21492 282.824L26.1021 342.593ZM20.009 339.2L20.9191 342.424L26.2366 346.353L25.3265 343.13L20.009 339.2ZM14.826 339.031L15.7361 342.254L21.0536 346.184L20.1435 342.961L14.826 339.031ZM9.64295 338.862L10.5531 342.085L15.8706 346.015L14.9605 342.791L9.64295 338.862ZM4.45995 338.693L5.37005 341.916L10.6876 345.845L9.77745 342.622L4.45995 338.693ZM-45.5864 305.374C-45.7027 305.289 -45.7693 305.151 -45.7673 305.009C-45.767 304.958 -45.7571 304.907 -45.7398 304.86C-45.7082 304.775 -45.651 304.701 -45.576 304.648L-12.5494 281.776L-13.1815 279.54L-49.7386 304.857L5.50456 345.676L4.59446 342.453L-45.5864 305.374ZM-11.7738 281.239L-8.25517 278.802L-8.88729 276.566L-12.4059 279.003L-11.7738 281.239ZM-6.59076 281.409L-3.07215 278.971L-3.70429 276.735L-7.22289 279.173L-6.59076 281.409ZM-1.40776 281.578L2.11086 279.141L1.47872 276.905L-2.0399 279.342L-1.40776 281.578ZM3.77729 281.748L7.29592 279.311L6.66377 277.075L3.14514 279.512L3.77729 281.748ZM8.96029 281.917L12.4789 279.48L11.8468 277.244L8.32817 279.681L8.96029 281.917ZM32.5935 347.389L37.9111 351.319L17.0298 277.413L13.5112 279.851L32.5935 347.389ZM26.5004 343.997L27.4105 347.22L32.728 351.15L31.8179 347.926L26.5004 343.997ZM21.3154 343.827L22.2255 347.05L27.543 350.979L26.6329 347.756L21.3154 343.827ZM16.1324 343.657L17.0425 346.88L22.36 350.81L21.4499 347.587L16.1324 343.657ZM10.9493 343.488L11.8595 346.711L17.177 350.641L16.2669 347.418L10.9493 343.488ZM5.76635 343.319L6.67645 346.542L11.994 350.471L11.0839 347.248L5.76635 343.319ZM-50.7694 305.204C-50.8857 305.12 -50.9523 304.982 -50.9503 304.84C-50.95 304.789 -50.9401 304.737 -50.9228 304.691C-50.8912 304.605 -50.834 304.532 -50.759 304.479L-13.4382 278.633L-14.0703 276.397L-54.9216 304.687L6.8117 350.3L5.90159 347.077L-50.7694 305.204ZM-12.6626 278.096L-9.14394 275.658L-9.7761 273.422L-13.2947 275.86L-12.6626 278.096ZM-7.47755 278.266L-3.9589 275.828L-4.59104 273.592L-8.10968 276.03L-7.47755 278.266ZM-2.29452 278.435L1.22411 275.998L0.591968 273.762L-2.92665 276.199L-2.29452 278.435ZM2.88849 278.604L6.40711 276.167L5.77495 273.931L2.25636 276.368L2.88849 278.604ZM8.0715 278.774L11.5901 276.336L10.958 274.1L7.43937 276.538L8.0715 278.774ZM13.2545 278.943L16.7731 276.506L16.141 274.27L12.6224 276.707L13.2545 278.943ZM39.0829 352.185L44.4005 356.114L21.324 274.439L17.8054 276.876L39.0829 352.185ZM32.9898 348.792L33.8999 352.015L39.2174 355.945L38.3073 352.722L32.9898 348.792ZM27.8068 348.623L28.7169 351.846L34.0344 355.776L33.1243 352.552L27.8068 348.623ZM22.6238 348.453L23.5339 351.677L28.8514 355.606L27.9413 352.383L22.6238 348.453ZM17.4408 348.284L18.3509 351.507L23.6684 355.437L22.7583 352.214L17.4408 348.284ZM12.2578 348.115L13.1679 351.338L18.4854 355.268L17.5753 352.044L12.2578 348.115ZM7.0727 347.945L7.98284 351.168L13.3004 355.097L12.3902 351.874L7.0727 347.945ZM-55.9524 305.035C-56.0687 304.951 -56.1353 304.813 -56.1333 304.67C-56.133 304.62 -56.1239 304.57 -56.1058 304.521C-56.0742 304.436 -56.017 304.362 -55.942 304.309L-14.3249 275.49L-14.9571 273.254L-60.1046 304.518L8.11936 354.929L7.20926 351.706L-55.9524 305.035ZM-13.5494 274.953L-10.0307 272.515L-10.6629 270.279L-14.1815 272.717L-13.5494 274.953ZM-8.36631 275.122L-4.84771 272.684L-5.47984 270.449L-8.99846 272.886L-8.36631 275.122ZM-3.1833 275.291L0.335308 272.854L-0.296822 270.618L-3.81547 273.055L-3.1833 275.291ZM1.9997 275.461L5.51831 273.023L4.88618 270.787L1.36756 273.225L1.9997 275.461ZM7.18271 275.63L10.7013 273.192L10.0692 270.956L6.55057 273.394L7.18271 275.63ZM12.3657 275.799L15.8843 273.362L15.2522 271.126L11.7336 273.563L12.3657 275.799ZM17.5487 275.969L21.0673 273.531L20.4352 271.295L16.9166 273.733L17.5487 275.969ZM45.5751 356.979L50.8926 360.908L25.621 271.463L22.1024 273.901L45.5751 356.979ZM39.4792 353.587L40.3893 356.811L45.7068 360.74L44.7967 357.517L39.4792 353.587ZM34.2962 353.418L35.2063 356.641L40.5238 360.571L39.6137 357.348L34.2962 353.418ZM29.1132 353.249L30.0233 356.472L35.3408 360.402L34.4307 357.178L29.1132 353.249ZM23.9302 353.079L24.8403 356.303L30.1578 360.232L29.2477 357.009L23.9302 353.079ZM18.7472 352.91L19.6573 356.133L24.9748 360.063L24.0647 356.84L18.7472 352.91ZM13.5641 352.741L14.4743 355.964L19.7918 359.894L18.8817 356.67L13.5641 352.741ZM8.38115 352.571L9.29126 355.795L14.6088 359.724L13.6987 356.501L8.38115 352.571ZM-61.1375 304.865C-61.2538 304.78 -61.3204 304.643 -61.3184 304.5C-61.3181 304.45 -61.3081 304.398 -61.2908 304.351C-61.2593 304.266 -61.202 304.192 -61.127 304.139L-15.2158 272.345L-15.8479 270.109L-65.2877 304.349L9.4265 359.553L8.5164 356.33L-61.1375 304.865ZM-14.4381 271.809L-10.9195 269.371L-11.5516 267.135L-15.0703 269.573L-14.4381 271.809ZM-9.25511 271.978L-5.73651 269.541L-6.36865 267.305L-9.88726 269.742L-9.25511 271.978ZM-4.07211 272.147L-0.553476 269.71L-1.18563 267.474L-4.70425 269.911L-4.07211 272.147ZM1.1109 272.317L4.62953 269.879L3.99739 267.643L0.478785 270.081L1.1109 272.317ZM6.29391 272.486L9.81254 270.049L9.1804 267.813L5.66179 270.25L6.29391 272.486ZM11.477 272.655L14.9956 270.218L14.3634 267.982L10.8448 270.419L11.477 272.655ZM16.662 272.826L20.1806 270.388L19.5484 268.152L16.0298 270.59L16.662 272.826ZM21.845 272.995L25.3636 270.557L24.7315 268.321L21.2129 270.759L21.845 272.995ZM52.0645 361.774L57.382 365.704L29.9145 268.491L26.3958 270.928L52.0645 361.774ZM45.9706 358.384L46.8807 361.607L52.1983 365.536L51.2882 362.313L45.9706 358.384ZM40.7876 358.214L41.6977 361.437L47.0153 365.367L46.1051 362.144L40.7876 358.214ZM35.6046 358.045L36.5147 361.268L41.8323 365.198L40.9221 361.975L35.6046 358.045ZM30.4216 357.876L31.3317 361.099L36.6492 365.028L35.7391 361.805L30.4216 357.876ZM25.2366 357.706L26.1467 360.929L31.4642 364.858L30.5541 361.635L25.2366 357.706ZM20.0536 357.536L20.9637 360.759L26.2812 364.689L25.3711 361.466L20.0536 357.536ZM14.8705 357.367L15.7806 360.59L21.0982 364.52L20.1881 361.296L14.8705 357.367ZM9.68752 357.198L10.5976 360.421L15.9151 364.35L15.005 361.127L9.68752 357.198ZM-66.3205 304.696C-66.4368 304.611 -66.5034 304.473 -66.5014 304.331C-66.5011 304.28 -66.4919 304.231 -66.4739 304.182C-66.4423 304.096 -66.385 304.023 -66.31 303.97L-16.1025 269.202L-16.7346 266.966L-70.4727 304.179L10.7329 364.179L9.82277 360.956L-66.3205 304.696ZM-15.3269 268.665L-11.8083 266.228L-12.4404 263.992L-15.9591 266.429L-15.3269 268.665ZM-10.1439 268.834L-6.62529 266.397L-7.25743 264.161L-10.776 266.598L-10.1439 268.834ZM-4.9609 269.004L-1.44228 266.566L-2.07442 264.33L-5.59304 266.768L-4.9609 269.004ZM0.224133 269.174L3.74278 266.736L3.11063 264.5L-0.407997 266.938L0.224133 269.174ZM5.40716 269.343L8.92577 266.906L8.29364 264.67L4.77503 267.107L5.40716 269.343ZM10.5902 269.512L14.1088 267.075L13.4767 264.839L9.95803 267.276L10.5902 269.512ZM15.7739 269.68L19.2926 267.242L18.6604 265.006L15.1418 267.444L15.7739 269.68ZM20.957 269.849L24.4756 267.412L23.8434 265.176L20.3248 267.613L20.957 269.849ZM26.14 270.018L29.6586 267.581L29.0264 265.345L25.5078 267.782L26.14 270.018ZM58.5539 366.57L63.8714 370.499L34.2095 265.514L30.6908 267.952L58.5539 366.57ZM52.46 363.179L53.3702 366.402L58.6877 370.332L57.7776 367.109L52.46 363.179ZM47.2778 363.008L48.1879 366.231L53.5054 370.16L52.5953 366.937L47.2778 363.008ZM42.094 362.84L43.0041 366.064L48.3217 369.993L47.4115 366.77L42.094 362.84ZM36.911 362.671L37.8211 365.894L43.1386 369.824L42.2285 366.601L36.911 362.671ZM31.728 362.502L32.6381 365.725L37.9556 369.655L37.0455 366.431L31.728 362.502ZM26.545 362.332L27.4551 365.556L32.7726 369.485L31.8625 366.262L26.545 362.332ZM21.362 362.163L22.2721 365.386L27.5896 369.316L26.6795 366.093L21.362 362.163ZM16.179 361.994L17.0891 365.217L22.4066 369.147L21.4965 365.923L16.179 361.994ZM10.9939 361.824L11.904 365.047L17.2215 368.976L16.3114 365.753L10.9939 361.824ZM-71.5035 304.526C-71.6198 304.442 -71.6864 304.304 -71.6844 304.162C-71.6841 304.111 -71.6741 304.059 -71.6568 304.012C-71.6253 303.927 -71.5681 303.854 -71.4931 303.801L-16.9913 266.058L-17.6234 263.822L-75.6557 304.009L12.0413 368.806L11.1312 365.583L-71.5035 304.526ZM-16.2157 265.521L-12.6971 263.084L-13.3292 260.848L-16.8479 263.285L-16.2157 265.521ZM-11.0306 265.691L-7.51205 263.254L-8.1442 261.018L-11.6628 263.455L-11.0306 265.691ZM-5.84765 265.861L-2.32904 263.423L-2.96118 261.187L-6.47979 263.625L-5.84765 265.861ZM-0.664657 266.03L2.85398 263.593L2.22185 261.357L-1.2968 263.794L-0.664657 266.03ZM4.51835 266.199L8.03698 263.762L7.40485 261.526L3.88621 263.963L4.51835 266.199ZM9.70213 266.367L13.2207 263.929L12.5886 261.693L9.07 264.131L9.70213 266.367ZM14.8851 266.536L18.4038 264.099L17.7716 261.863L14.253 264.3L14.8851 266.536ZM20.0682 266.705L23.5868 264.268L22.9546 262.032L19.436 264.469L20.0682 266.705ZM25.2512 266.875L28.7698 264.437L28.1377 262.201L24.619 264.639L25.2512 266.875ZM30.4342 267.044L33.9528 264.607L33.3207 262.371L29.802 264.808L30.4342 267.044ZM65.0453 371.366L70.3629 375.295L38.5057 262.541L34.9871 264.978L65.0453 371.366ZM58.9522 367.973L59.8623 371.196L65.1799 375.126L64.2697 371.903L58.9522 367.973ZM53.7672 367.803L54.6773 371.026L59.9948 374.956L59.0847 371.733L53.7672 367.803ZM48.5842 367.634L49.4943 370.857L54.8118 374.787L53.9017 371.563L48.5842 367.634ZM43.4024 367.467L44.3125 370.69L49.6301 374.62L48.72 371.397L43.4024 367.467ZM38.2174 367.297L39.1275 370.52L44.445 374.45L43.5349 371.227L38.2174 367.297ZM33.0344 367.128L33.9445 370.351L39.262 374.281L38.3519 371.057L33.0344 367.128ZM27.8521 366.956L28.7622 370.18L34.0797 374.109L33.1696 370.886L27.8521 366.956ZM22.6683 366.789L23.5785 370.012L28.896 373.942L27.9859 370.719L22.6683 366.789ZM17.4853 366.62L18.3954 369.843L23.713 373.773L22.8029 370.549L17.4853 366.62ZM12.3023 366.45L13.2124 369.674L18.53 373.603L17.6198 370.38L12.3023 366.45ZM-76.6865 304.357C-76.8028 304.272 -76.8694 304.135 -76.8674 303.992C-76.8671 303.942 -76.8572 303.89 -76.8399 303.843C-76.8083 303.758 -76.7511 303.684 -76.6761 303.631L-17.8801 262.915L-18.5122 260.679L-80.8387 303.84L13.3477 373.432L12.4376 370.209L-76.6865 304.357ZM-9.03299 257.874L-12.5516 260.312L-11.9195 262.548L-8.40083 260.11L-9.03299 257.874ZM-3.84795 258.044L-7.36655 260.482L-6.73443 262.718L-3.2158 260.28L-3.84795 258.044ZM1.33508 258.214L-2.18355 260.651L-1.55141 262.887L1.96723 260.45L1.33508 258.214ZM6.51808 258.383L2.99946 260.82L3.6316 263.056L7.15024 260.619L6.51808 258.383ZM11.7011 258.552L8.18248 260.99L8.81462 263.226L12.3332 260.788L11.7011 258.552ZM16.8849 258.72L13.3662 261.157L13.9984 263.393L17.517 260.956L16.8849 258.72ZM22.0679 258.889L18.5493 261.326L19.1814 263.562L22.7 261.125L22.0679 258.889ZM27.2509 259.058L23.7323 261.496L24.3644 263.732L27.883 261.294L27.2509 259.058ZM32.4339 259.228L28.9153 261.665L29.5474 263.901L33.066 261.464L32.4339 259.228ZM37.6169 259.397L34.0983 261.834L34.7304 264.07L38.249 261.633L37.6169 259.397ZM76.8543 380.091L42.8019 259.567L39.2833 262.004L71.5348 376.161L76.8543 380.091ZM71.6693 379.921L70.7592 376.698L65.4416 372.768L66.3517 375.992L71.6693 379.921ZM66.4862 379.752L65.5761 376.529L60.2586 372.599L61.1687 375.822L66.4862 379.752ZM61.3032 379.583L60.3931 376.359L55.0756 372.43L55.9857 375.653L61.3032 379.583ZM56.1202 379.413L55.2101 376.19L49.8926 372.26L50.8027 375.484L56.1202 379.413ZM50.9372 379.244L50.0271 376.021L44.7096 372.091L45.6197 375.314L50.9372 379.244ZM45.7542 379.075L44.8441 375.851L39.5266 371.922L40.4367 375.145L45.7542 379.075ZM40.5712 378.905L39.6611 375.682L34.3435 371.753L35.2537 374.976L40.5712 378.905ZM35.3882 378.736L34.4781 375.513L29.1605 371.583L30.0706 374.806L35.3882 378.736ZM30.2051 378.567L29.295 375.343L23.9775 371.414L24.8876 374.637L30.2051 378.567ZM25.0221 378.397L24.112 375.174L18.7945 371.245L19.7046 374.468L25.0221 378.397ZM19.8391 378.228L18.929 375.005L13.6115 371.075L14.5216 374.298L19.8391 378.228ZM-86.0197 303.671L14.6541 378.058L13.744 374.835L-81.8695 304.188C-81.9858 304.103 -82.0524 303.965 -82.0504 303.823C-82.0501 303.772 -82.0402 303.721 -82.0229 303.674C-81.9913 303.589 -81.9341 303.515 -81.8591 303.462L-18.7669 259.772L-19.399 257.536L-86.0197 303.671Z" fill="#7D828B"/>
</svg>
