<svg viewBox="0 0 53 59" fill="none" xmlns="http://www.w3.org/2000/svg">
<path d="M53 27.3075C53 27.2887 52.9916 27.2709 52.976 27.2605L15.9185 0.21324C15.8987 0.198631 15.8716 0.19863 15.8507 0.212195L7.24503 6.23731C7.22416 6.25192 7.21581 6.27696 7.22207 6.30096L7.32851 6.66827L7.03216 6.87593C7.01233 6.89054 7.00294 6.91558 7.01025 6.93958L7.11668 7.30689L6.82033 7.51454C6.8005 7.52915 6.79111 7.55419 6.79842 7.57819L6.90485 7.94551L6.6085 8.15316C6.58763 8.16777 6.57928 8.19281 6.58659 8.21681L6.69303 8.58412L6.39667 8.79177C6.37685 8.80638 6.36746 8.83143 6.37476 8.85543L6.4812 9.22274L6.18485 9.43039C6.16502 9.445 6.15563 9.47004 6.16189 9.49404L6.26832 9.86135L5.97197 10.069C5.9511 10.0836 5.94276 10.1087 5.95006 10.1327L6.0565 10.5L5.76014 10.7076C5.74032 10.7222 5.73093 10.7473 5.73823 10.7713L5.84467 11.1386L5.54832 11.3462C5.52849 11.3608 5.5191 11.3859 5.5264 11.4099L5.63284 11.7772L5.33649 11.9849C5.31666 11.9995 5.30727 12.0245 5.31353 12.0485L5.41997 12.4158L5.12362 12.6235C5.10275 12.6381 5.0944 12.6631 5.10066 12.6871L5.2071 13.0544L4.90448 13.261C4.88466 13.2757 4.87526 13.3007 4.88257 13.3247L4.98901 13.692L4.69265 13.8997C4.67283 13.9143 4.66344 13.9393 4.67074 13.9633L17.4118 58.0372C17.417 58.055 17.4305 58.0696 17.4483 58.0758C17.4545 58.0779 17.4608 58.079 17.4671 58.079C17.4785 58.079 17.49 58.0748 17.5005 58.0685L24.712 53.0191C24.7318 53.0045 24.7412 52.9794 24.7339 52.9554L24.6275 52.5881L24.9238 52.3805C24.9437 52.3658 24.9531 52.3408 24.9468 52.3168L24.8404 51.9495L25.1367 51.7418C25.1576 51.7272 25.1659 51.7022 25.1597 51.6782L25.0532 51.3109L25.3496 51.1032C25.3694 51.0886 25.3788 51.0636 25.3715 51.0396L25.2651 50.6723L25.5614 50.4646C25.5812 50.45 25.5906 50.425 25.5844 50.401L25.4779 50.0336L25.7743 49.826C25.7941 49.8114 25.8035 49.7863 25.7972 49.7623L25.6908 49.395L25.9872 49.1874C26.008 49.1728 26.0164 49.1477 26.0101 49.1237L25.9037 48.7564L26.2 48.5488C26.2199 48.5342 26.2293 48.5091 26.2219 48.4851L26.1155 48.1178L26.4119 47.9101C26.4317 47.8955 26.4411 47.8705 26.4338 47.8465L26.3273 47.4792L26.6237 47.2715C26.6435 47.2569 26.6529 47.2319 26.6456 47.2079L26.5392 46.8406L26.8355 46.6329C26.8553 46.6183 26.8647 46.5933 26.8574 46.5693L26.751 46.202L27.0473 45.9943C27.0672 45.9797 27.0766 45.9546 27.0693 45.9306L26.9628 45.5633L27.2592 45.3557C27.28 45.3411 27.2884 45.316 27.2811 45.292L25.6261 39.5674L34.2172 33.5517L43.1369 40.062C43.1568 40.0767 43.1839 40.0767 43.2048 40.0631L50.4163 35.0136C50.432 35.0032 50.4403 34.9855 50.4414 34.9667C50.4414 34.9479 50.433 34.9302 50.4174 34.9197L50.1408 34.7173L50.6292 34.375C50.6448 34.3646 50.6532 34.3469 50.6542 34.3281C50.6542 34.3093 50.6459 34.2916 50.6302 34.2811L50.3537 34.0787L50.8421 33.7364C50.8577 33.726 50.8661 33.7082 50.8671 33.6895C50.8671 33.6707 50.8588 33.6529 50.8431 33.6425L50.5666 33.4401L51.0549 33.0978C51.0706 33.0874 51.0789 33.0696 51.08 33.0508C51.08 33.0321 51.0716 33.0143 51.056 33.0039L50.7795 32.8014L51.2678 32.4592C51.2835 32.4487 51.2918 32.431 51.2928 32.4122C51.2928 32.3934 51.2845 32.3757 51.2688 32.3653L50.9923 32.1628L51.4807 31.8206C51.4963 31.8101 51.5047 31.7924 51.5057 31.7736C51.5057 31.7548 51.4974 31.7371 51.4817 31.7266L51.2052 31.5242L51.6936 31.1819C51.7092 31.1715 51.7175 31.1538 51.7186 31.135C51.7186 31.1162 51.7102 31.0985 51.6946 31.088L51.4181 30.8856L51.9064 30.5433C51.9221 30.5329 51.9304 30.5152 51.9315 30.4964C51.9315 30.4776 51.9231 30.4599 51.9075 30.4494L51.6309 30.247L52.1193 29.9047C52.1349 29.8943 52.1433 29.8765 52.1443 29.8578C52.1443 29.839 52.136 29.8212 52.1203 29.8108L51.8438 29.6084L52.3322 29.2661C52.3478 29.2557 52.3562 29.2379 52.3572 29.2191C52.3572 29.2004 52.3489 29.1826 52.3332 29.1722L52.0567 28.9697L52.545 28.6275C52.5607 28.6171 52.569 28.5993 52.5701 28.5805C52.5701 28.5617 52.5617 28.544 52.5461 28.5336L52.2696 28.3311L52.7579 27.9889C52.7736 27.9784 52.7819 27.9607 52.783 27.9419C52.783 27.9231 52.7746 27.9054 52.759 27.895L52.4824 27.6925L52.9708 27.3503C52.9906 27.344 53 27.3263 53 27.3075ZM7.36295 6.78619L7.44643 7.07523L7.21581 7.23593L7.13233 6.94688L7.36295 6.78619ZM22.6083 39.1469L22.7148 39.5142L22.4184 39.7219C22.3986 39.7365 22.3892 39.7615 22.3955 39.7855L22.5019 40.1528L22.2056 40.3605C22.1847 40.3751 22.1763 40.4001 22.1836 40.4241L22.2901 40.7915L21.9937 40.9991C21.9729 41.0137 21.9645 41.0388 21.9718 41.0628L22.0782 41.4301L21.7819 41.6377C21.7621 41.6523 21.7527 41.6774 21.7589 41.7014L21.8654 42.0687L21.569 42.2763C21.5482 42.291 21.5398 42.316 21.5461 42.34L23.201 48.0635L20.0549 50.2663L8.75809 11.1939L13.3296 7.99246L46.1818 31.9698L45.731 32.286L36.8113 25.7756C36.7915 25.761 36.7643 25.761 36.7435 25.7746L24.1193 34.614C24.0984 34.6286 24.0901 34.6536 24.0964 34.6776L24.2028 35.045L23.9064 35.2526C23.8866 35.2672 23.8772 35.2923 23.8845 35.3163L23.991 35.6836L23.6946 35.8912C23.6748 35.9058 23.6654 35.9309 23.6727 35.9549L23.7791 36.3222L23.4828 36.5298C23.4619 36.5444 23.4536 36.5695 23.4598 36.5935L23.5663 36.9608L23.2699 37.1685C23.249 37.1831 23.2407 37.2081 23.247 37.2321L23.3534 37.5994L23.057 37.8071C23.0362 37.8217 23.0278 37.8467 23.0351 37.8707L23.1416 38.238L22.8452 38.4457C22.8243 38.4603 22.816 38.4853 22.8233 38.5093L22.9297 38.8766L22.6334 39.0843C22.6104 39.0968 22.601 39.1229 22.6083 39.1469ZM22.961 38.9925L23.0445 39.2815L22.8139 39.4422L22.7304 39.1532L22.961 38.9925ZM23.0278 38.8057L22.9443 38.5166L23.175 38.3559L23.2584 38.645L23.0278 38.8057ZM23.2397 38.1671L23.1562 37.878L23.3868 37.7173L23.4703 38.0064L23.2397 38.1671ZM23.4525 37.5285L23.369 37.2394L23.5997 37.0777L23.6831 37.3667L23.4525 37.5285ZM23.6654 36.8898L23.5819 36.6008L23.8125 36.4401L23.896 36.7291L23.6654 36.8898ZM23.8783 36.2512L23.7948 35.9622L24.0254 35.8015L24.1089 36.0905L23.8783 36.2512ZM24.0911 35.6137L24.0077 35.3246L24.2383 35.1639L24.3218 35.453L24.0911 35.6137ZM24.304 34.975L24.2205 34.686L36.7769 25.8935L45.6966 32.4039C45.7164 32.4185 45.7436 32.4185 45.7644 32.4049L46.282 32.0428L46.5251 32.2202L45.5192 32.9246L36.5995 26.4142C36.5796 26.3996 36.5525 26.3996 36.5316 26.4132L24.304 34.975ZM13.3651 7.87455C13.3453 7.85994 13.3181 7.85994 13.2973 7.8735L8.72366 11.076L8.64018 10.7869L13.5425 7.35384L46.737 31.5806L46.282 31.8988L13.3651 7.87455ZM8.65792 11.2638L19.9652 50.3749C19.9704 50.3926 19.984 50.4072 20.0017 50.4135C20.008 50.4156 20.0142 50.4166 20.0205 50.4166C20.032 50.4166 20.0434 50.4135 20.0539 50.4062L23.2334 48.1794L23.3169 48.4684L19.841 50.9029L8.42731 11.4245L8.65792 11.2638ZM23.2991 47.9926L21.6671 42.3463L21.8977 42.1856L23.5297 47.8319L23.2991 47.9926ZM21.88 41.7076L22.1106 41.5469L22.1941 41.836L21.9635 41.9967L21.88 41.7076ZM22.1763 41.3591L22.0929 41.0701L22.3235 40.9083L22.4069 41.1974L22.1763 41.3591ZM22.3892 40.7205L22.3057 40.4304L22.5363 40.2697L22.6198 40.5588L22.3892 40.7205ZM22.6021 40.0819L22.5186 39.7928L22.7492 39.6321L22.8327 39.9212L22.6021 40.0819ZM22.8661 40.0381L22.9496 40.3271L22.719 40.4878L22.6355 40.1977L22.8661 40.0381ZM22.9318 39.8502L22.8483 39.5612L23.079 39.4005L23.1624 39.6895L22.9318 39.8502ZM23.1447 39.2127L23.0612 38.9226L23.2918 38.7608L23.3753 39.0499L23.1447 39.2127ZM23.3576 38.574L23.2741 38.285L23.5047 38.1243L23.5882 38.4133L23.3576 38.574ZM23.5704 37.9354L23.487 37.6464L23.7176 37.4846L23.8011 37.7747L23.5704 37.9354ZM23.7833 37.2968L23.6998 37.0078L23.9304 36.8471L24.0139 37.1361L23.7833 37.2968ZM23.9962 36.6582L23.9127 36.3691L24.1433 36.2084L24.2268 36.4975L23.9962 36.6582ZM24.2091 36.0206L24.1256 35.7316L24.3562 35.5698L24.4397 35.8589L24.2091 36.0206ZM24.4219 35.382L24.3384 35.0929L36.564 26.5322L45.4837 33.0425C45.5036 33.0571 45.5307 33.0571 45.5516 33.0435L46.6243 32.2933L46.8674 32.4707L45.3063 33.5642L36.3866 27.0539C36.3668 27.0393 36.3396 27.0393 36.3188 27.0529L24.4219 35.382ZM46.3811 31.9719L46.8361 31.6536L47.0792 31.831L46.6243 32.1493L46.3811 31.9719ZM13.578 7.23593C13.5581 7.22132 13.531 7.22132 13.5101 7.23489L8.60574 10.669L8.52226 10.38L13.7554 6.71627L47.2921 31.1934L46.8371 31.5117L13.578 7.23593ZM8.54 10.8568L8.62348 11.1459L8.39287 11.3066L8.30939 11.0175L8.54 10.8568ZM8.32713 11.4955L19.7513 51.0145C19.7565 51.0323 19.77 51.0469 19.7878 51.0531C19.794 51.0552 19.8003 51.0563 19.8066 51.0563C19.818 51.0563 19.8295 51.0531 19.84 51.0458L23.3503 48.5884L23.4337 48.8775L19.6271 51.5425L8.09652 11.6562L8.32713 11.4955ZM23.417 48.3995L23.3336 48.1105L23.5642 47.9498L23.6477 48.2388L23.417 48.3995ZM23.6299 47.7609L21.9979 42.1146L22.2285 41.9539L23.8605 47.6002L23.6299 47.7609ZM22.2097 41.476L22.4403 41.3142L22.5238 41.6043L22.2932 41.765L22.2097 41.476ZM22.5061 41.1275L22.4226 40.8384L22.6532 40.6767L22.7367 40.9657L22.5061 41.1275ZM22.7711 41.0836L22.8546 41.3737L22.624 41.5344L22.5405 41.2454L22.7711 41.0836ZM22.8369 40.8958L22.7534 40.6068L22.984 40.4461L23.0675 40.7351L22.8369 40.8958ZM23.0497 40.2572L22.9663 39.9681L23.1969 39.8074L23.2803 40.0975L23.0497 40.2572ZM23.2626 39.6196L23.1791 39.3306L23.4097 39.1688L23.4932 39.4579L23.2626 39.6196ZM23.4755 38.981L23.392 38.6919L23.6226 38.5313L23.7061 38.8203L23.4755 38.981ZM23.6884 38.3424L23.6049 38.0533L23.8355 37.8916L23.919 38.1806L23.6884 38.3424ZM23.9012 37.7038L23.8177 37.4147L24.0484 37.254L24.1318 37.5431L23.9012 37.7038ZM24.1141 37.0652L24.0306 36.7761L24.2612 36.6144L24.3447 36.9034L24.1141 37.0652ZM24.327 36.4276L24.2435 36.1385L24.4741 35.9768L24.5576 36.2658L24.327 36.4276ZM24.5398 35.789L24.4564 35.4999L36.3522 27.1708L45.2719 33.6811C45.2917 33.6957 45.3189 33.6957 45.3397 33.6822L46.9665 32.5427L47.2097 32.7201L45.0935 34.2018L36.1737 27.6915C36.1539 27.6769 36.1268 27.6769 36.1069 27.6904L24.5398 35.789ZM46.7234 32.2213L47.1784 31.903L47.4215 32.0804L46.9665 32.3987L46.7234 32.2213ZM46.9363 31.5826L47.3912 31.2644L47.6344 31.4418L47.1794 31.76L46.9363 31.5826ZM13.7908 6.59731C13.771 6.5827 13.7439 6.5827 13.723 6.59627L8.48887 10.2621L8.40539 9.97301L13.9693 6.07765L47.8472 30.8042L47.3923 31.1225L13.7908 6.59731ZM8.42209 10.4499L8.50557 10.7389L8.27496 10.8996L8.19148 10.6106L8.42209 10.4499ZM8.20922 11.0885L8.2927 11.3775L8.06208 11.5382L7.97861 11.2492L8.20922 11.0885ZM7.99634 11.7261L19.5384 51.6521C19.5436 51.6698 19.5572 51.6844 19.5749 51.6907C19.5812 51.6928 19.5874 51.6938 19.5937 51.6938C19.6052 51.6938 19.6167 51.6907 19.6271 51.6834L23.4671 48.9943L23.5506 49.2834L19.4132 52.1801L7.76678 11.8878L7.99634 11.7261ZM23.535 48.8065L23.4515 48.5164L23.6821 48.3557L23.7656 48.6448L23.535 48.8065ZM23.7468 48.1679L23.6633 47.8788L23.8939 47.7171L23.9774 48.0061L23.7468 48.1679ZM23.9597 47.5293L22.3276 41.8829L22.5583 41.7222L24.1903 47.3686L23.9597 47.5293ZM24.2247 47.4865L24.3082 47.7755L24.0776 47.9362L23.9941 47.6472L24.2247 47.4865ZM24.2904 47.2987L22.6584 41.6523L22.889 41.4906L24.5211 47.1369L24.2904 47.2987ZM22.8713 41.0137L23.1019 40.853L23.1854 41.1421L22.9548 41.3038L22.8713 41.0137ZM23.1677 40.6641L23.0842 40.3751L23.3148 40.2144L23.3983 40.5035L23.1677 40.6641ZM23.3805 40.0266L23.297 39.7375L23.5277 39.5758L23.6111 39.8659L23.3805 40.0266ZM23.5934 39.388L23.5099 39.0989L23.7405 38.9382L23.824 39.2273L23.5934 39.388ZM23.8063 38.7493L23.7228 38.4603L23.9534 38.2996L24.0369 38.5886L23.8063 38.7493ZM24.0191 38.1107L23.9357 37.8217L24.1663 37.661L24.2498 37.95L24.0191 38.1107ZM24.232 37.4732L24.1485 37.1831L24.3791 37.0224L24.4626 37.3114L24.232 37.4732ZM24.4438 36.8345L24.3604 36.5455L24.591 36.3837L24.6745 36.6728L24.4438 36.8345ZM24.6567 36.1959L24.5732 35.9069L36.1382 27.8094L45.058 34.3197C45.0778 34.3343 45.1049 34.3343 45.1258 34.3208L47.3078 32.7931L47.5509 32.9705L44.8796 34.8404L35.9598 28.3301C35.94 28.3155 35.9128 28.3155 35.893 28.329L24.6567 36.1959ZM47.0657 32.4707L47.5206 32.1524L47.7638 32.3298L47.3088 32.6481L47.0657 32.4707ZM47.2785 31.8331L47.7335 31.5148L47.9766 31.6922L47.5217 32.0105L47.2785 31.8331ZM47.4914 31.1945L47.9464 30.8762L48.1895 31.0536L47.7345 31.3719L47.4914 31.1945ZM14.0037 5.9587C13.9839 5.94409 13.9568 5.94409 13.9359 5.95765L8.37096 9.85405L8.28748 9.565L14.1811 5.43799L48.4024 30.415L47.9474 30.7332L14.0037 5.9587ZM8.30522 10.0429L8.3887 10.332L8.15809 10.4927L8.07461 10.2036L8.30522 10.0429ZM8.09235 10.6805L8.17582 10.9695L7.94521 11.1302L7.86173 10.8412L8.09235 10.6805ZM7.87947 11.3191L7.96295 11.6082L7.73234 11.7699L7.64886 11.4809L7.87947 11.3191ZM7.6666 11.9577L19.3266 52.2907C19.3318 52.3085 19.3453 52.3231 19.3631 52.3293C19.3693 52.3314 19.3756 52.3325 19.3819 52.3325C19.3933 52.3325 19.4048 52.3293 19.4153 52.322L23.5861 49.4013L23.6696 49.6903L19.2024 52.8187L7.43599 12.1195L7.6666 11.9577ZM23.6518 49.2135L23.5684 48.9244L23.799 48.7637L23.8824 49.0528L23.6518 49.2135ZM23.8647 48.5748L23.7812 48.2858L24.0118 48.1251L24.0953 48.4142L23.8647 48.5748ZM24.1287 48.531L24.2122 48.8211L23.9816 48.9818L23.8981 48.6928L24.1287 48.531ZM24.1955 48.3442L24.112 48.0541L24.3426 47.8934L24.4261 48.1835L24.1955 48.3442ZM24.4084 47.7056L24.3249 47.4166L24.5555 47.2559L24.639 47.5449L24.4084 47.7056ZM24.6212 47.067L22.9892 41.4207L23.2198 41.2589L24.8518 46.9053L24.6212 47.067ZM23.201 40.7821L23.4317 40.6214L23.5151 40.9115L23.2845 41.0722L23.201 40.7821ZM23.4984 40.4335L23.415 40.1445L23.6456 39.9827L23.729 40.2718L23.4984 40.4335ZM23.7103 39.7949L23.6268 39.5048L23.8574 39.3431L23.9409 39.6332L23.7103 39.7949ZM23.9231 39.1563L23.8397 38.8673L24.0703 38.7066L24.1537 38.9956L23.9231 39.1563ZM24.136 38.5177L24.0525 38.2286L24.2831 38.0669L24.3666 38.3559L24.136 38.5177ZM24.3489 37.8801L24.2654 37.5911L24.496 37.4304L24.5795 37.7194L24.3489 37.8801ZM24.5618 37.2415L24.4783 36.9524L24.7089 36.7918L24.7924 37.0808L24.5618 37.2415ZM24.7746 36.6029L24.6911 36.3138L35.9254 28.447L44.8451 34.9573C44.8649 34.9719 44.8921 34.9719 44.9119 34.9583L47.649 33.0415L47.8921 33.2188L44.6656 35.478L35.7459 28.9677C35.7261 28.9531 35.6989 28.9531 35.6781 28.9666L24.7746 36.6029ZM47.4079 32.7211L47.8629 32.4028L48.106 32.5802L47.6511 32.8985L47.4079 32.7211ZM47.6208 32.0825L48.0758 31.7642L48.3189 31.9416L47.8639 32.2599L47.6208 32.0825ZM47.8337 31.4439L48.2886 31.1256L48.5318 31.303L48.0768 31.6213L47.8337 31.4439ZM48.0466 30.8053L48.5015 30.487L48.7446 30.6644L48.2897 30.9826L48.0466 30.8053ZM14.2155 5.32008C14.1957 5.30547 14.1686 5.30547 14.1477 5.31904L8.252 9.44709L8.16852 9.15804L14.394 4.80042L48.9575 30.0268L48.5026 30.3451L14.2155 5.32008ZM8.1873 9.63596L8.27078 9.925L8.04017 10.0857L7.95669 9.79666L8.1873 9.63596ZM7.97443 10.2735L8.05791 10.5626L7.8273 10.7243L7.74382 10.4353L7.97443 10.2735ZM7.76156 10.9121L7.84504 11.2012L7.61443 11.3619L7.53095 11.0728L7.76156 10.9121ZM7.54869 11.5508L7.63217 11.8398L7.40156 12.0005L7.31808 11.7115L7.54869 11.5508ZM7.33582 12.1894L19.1137 52.9293C19.1189 52.9471 19.1325 52.9617 19.1502 52.9679C19.1565 52.97 19.1627 52.9711 19.169 52.9711C19.1805 52.9711 19.192 52.9679 19.2024 52.9606L23.704 49.8083L23.7875 50.0973L18.9895 53.4573L7.1052 12.3501L7.33582 12.1894ZM23.7697 49.6204L23.6863 49.3314L23.9169 49.1707L24.0004 49.4597L23.7697 49.6204ZM24.0337 49.5766L24.1172 49.8656L23.8866 50.0263L23.8031 49.7373L24.0337 49.5766ZM24.1005 49.3888L24.0171 49.0997L24.2477 48.939L24.3311 49.2281L24.1005 49.3888ZM24.3134 48.7512L24.2299 48.4622L24.4605 48.3015L24.544 48.5905L24.3134 48.7512ZM24.5263 48.1126L24.4428 47.8235L24.6734 47.6628L24.7569 47.9519L24.5263 48.1126ZM24.7391 47.474L24.6557 47.1849L24.8863 47.0242L24.9698 47.3133L24.7391 47.474ZM24.951 46.8354L23.319 41.189L23.5496 41.0283L25.1816 46.6746L24.951 46.8354ZM23.5318 40.5504L23.7624 40.3897L23.8459 40.6788L23.6153 40.8395L23.5318 40.5504ZM23.8282 40.2019L23.7447 39.9128L23.9753 39.7511L24.0588 40.0401L23.8282 40.2019ZM24.0411 39.5633L23.9576 39.2742L24.1882 39.1135L24.2717 39.4026L24.0411 39.5633ZM24.2539 38.9247L24.1704 38.6356L24.4011 38.4739L24.4845 38.7629L24.2539 38.9247ZM24.4668 38.2871L24.3833 37.997L24.6139 37.8352L24.6974 38.1243L24.4668 38.2871ZM24.6797 37.6485L24.5962 37.3594L24.8268 37.1987L24.9103 37.4878L24.6797 37.6485ZM24.8925 37.0098L24.8091 36.7208L35.7135 29.0856L44.6333 35.5959C44.6531 35.6105 44.6802 35.6105 44.7011 35.597L47.9933 33.2919L48.2365 33.4693L44.4549 36.1166L35.5351 29.6063C35.5153 29.5917 35.4881 29.5917 35.4673 29.6052L24.8925 37.0098ZM47.7502 32.9705L48.2052 32.6522L48.4483 32.8296L47.9933 33.1479L47.7502 32.9705ZM47.9631 32.3319L48.418 32.0136L48.6612 32.191L48.2062 32.5093L47.9631 32.3319ZM48.1759 31.6943L48.6309 31.376L48.874 31.5534L48.4191 31.8717L48.1759 31.6943ZM48.3888 31.0557L48.8438 30.7374L49.0869 30.9148L48.6319 31.2331L48.3888 31.0557ZM48.6017 30.4171L49.0566 30.0988L49.2998 30.2762L48.8448 30.5945L48.6017 30.4171ZM14.4284 4.68251C14.4086 4.6679 14.3815 4.6679 14.3606 4.68146L8.13513 9.04117L8.05165 8.75212L14.6069 4.16285L49.5127 29.6386L49.0577 29.9569L14.4284 4.68251ZM8.06939 9.229L8.15287 9.51805L7.92226 9.67979L7.83878 9.39074L8.06939 9.229ZM7.85652 9.86657L7.94 10.1556L7.70938 10.3163L7.62591 10.0273L7.85652 9.86657ZM7.64364 10.5052L7.72712 10.7942L7.49651 10.9549L7.41303 10.6659L7.64364 10.5052ZM7.43077 11.1438L7.51425 11.4328L7.28364 11.5935L7.20016 11.3045L7.43077 11.1438ZM7.2179 11.7824L7.30138 12.0715L7.07077 12.2332L6.98729 11.9442L7.2179 11.7824ZM7.00503 12.421L18.8998 53.5679C18.905 53.5857 18.9186 53.6003 18.9363 53.6066C18.9426 53.6086 18.9488 53.6097 18.9551 53.6097C18.9666 53.6097 18.978 53.6066 18.9885 53.5993L23.8198 50.2163L23.9033 50.5053L18.7746 54.096L6.77546 12.5817L7.00503 12.421ZM6.74103 12.4638L6.65755 12.1748L6.88816 12.0141L6.97164 12.3031L6.74103 12.4638ZM6.67529 12.6516L18.6879 54.2055C18.6932 54.2233 18.7067 54.2379 18.7245 54.2441C18.7307 54.2462 18.737 54.2473 18.7433 54.2473C18.7547 54.2473 18.7662 54.2441 18.7766 54.2368L23.9388 50.6222L24.0223 50.9112L18.5638 54.7335L6.44467 12.8134L6.67529 12.6516ZM24.0056 50.4343L23.9221 50.1453L24.1527 49.9836L24.2362 50.2726L24.0056 50.4343ZM24.2184 49.7957L24.135 49.5067L24.3656 49.346L24.4491 49.635L24.2184 49.7957ZM24.4303 49.1582L24.3468 48.8691L24.5774 48.7084L24.6609 48.9975L24.4303 49.1582ZM24.6431 48.5195L24.5597 48.2305L24.7903 48.0698L24.8738 48.3588L24.6431 48.5195ZM24.856 47.8809L24.7725 47.5919L25.0032 47.4312L25.0866 47.7202L24.856 47.8809ZM25.0689 47.2423L24.9854 46.9533L25.216 46.7926L25.2995 47.0816L25.0689 47.2423ZM25.2818 46.6037L23.6497 40.9574L23.8804 40.7967L25.5124 46.443L25.2818 46.6037ZM23.8626 40.3198L24.0932 40.1581L24.1767 40.4481L23.9461 40.6088L23.8626 40.3198ZM24.159 39.9702L24.0755 39.6812L24.3061 39.5205L24.3896 39.8095L24.159 39.9702ZM24.3718 39.3316L24.2884 39.0426L24.519 38.8819L24.6025 39.1709L24.3718 39.3316ZM24.5847 38.694L24.5012 38.405L24.7318 38.2432L24.8153 38.5323L24.5847 38.694ZM24.7976 38.0554L24.7141 37.7664L24.9447 37.6057L25.0282 37.8947L24.7976 38.0554ZM25.0105 37.4168L24.927 37.1278L35.5007 29.7242L44.4204 36.2345C44.4402 36.2491 44.4674 36.2491 44.4882 36.2356L48.3356 33.5413L48.5787 33.7187L44.243 36.7552L35.3233 30.2449C35.3034 30.2303 35.2763 30.2303 35.2554 30.2439L25.0105 37.4168ZM48.0925 33.2199L48.5474 32.9016L48.7906 33.079L48.3356 33.3973L48.0925 33.2199ZM48.3053 32.5823L48.7603 32.264L49.0034 32.4414L48.5485 32.7597L48.3053 32.5823ZM48.5182 31.9437L48.9732 31.6254L49.2163 31.8028L48.7613 32.1211L48.5182 31.9437ZM48.7311 31.3051L49.186 30.9868L49.4292 31.1642L48.9742 31.4825L48.7311 31.3051ZM48.944 30.6665L49.3989 30.3482L49.642 30.5256L49.1871 30.8439L48.944 30.6665ZM49.1568 30.0289L49.6118 29.7106L49.8549 29.888L49.4 30.2063L49.1568 30.0289ZM14.6413 4.04389C14.6215 4.02928 14.5943 4.02928 14.5745 4.04285L8.01826 8.63316L7.93478 8.34412L14.8197 3.52319L50.0678 29.2494L49.6128 29.5677L14.6413 4.04389ZM7.95147 8.82204L8.03495 9.11108L7.80434 9.27282L7.72086 8.98378L7.95147 8.82204ZM7.7386 9.45961L7.82208 9.74865L7.59147 9.90936L7.50799 9.62031L7.7386 9.45961ZM7.52573 10.0982L7.60921 10.3873L7.3786 10.548L7.29512 10.2589L7.52573 10.0982ZM7.31286 10.7368L7.39634 11.0259L7.16573 11.1876L7.08225 10.8986L7.31286 10.7368ZM7.10103 11.3755L7.18451 11.6645L6.9539 11.8252L6.87042 11.5362L7.10103 11.3755ZM6.83598 11.4193L6.7525 11.1302L6.98312 10.9695L7.06659 11.2586L6.83598 11.4193ZM6.77024 11.6061L6.85372 11.8951L6.62311 12.0558L6.53963 11.7668L6.77024 11.6061ZM6.55737 12.2447L6.64085 12.5337L6.41024 12.6955L6.32676 12.4064L6.55737 12.2447ZM6.3445 12.8833L18.4751 54.8441C18.4803 54.8619 18.4939 54.8765 18.5116 54.8827C18.5179 54.8848 18.5241 54.8859 18.5304 54.8859C18.5419 54.8859 18.5533 54.8827 18.5638 54.8754L24.0567 51.0291L24.1402 51.3192L18.3509 55.3732L6.11389 13.045L6.3445 12.8833ZM24.1224 50.8413L24.039 50.5523L24.2696 50.3905L24.3531 50.6796L24.1224 50.8413ZM24.3353 50.2027L24.2518 49.9136L24.4824 49.7529L24.5659 50.042L24.3353 50.2027ZM24.5482 49.5651L24.4647 49.2761L24.6953 49.1154L24.7788 49.4044L24.5482 49.5651ZM24.7611 48.9265L24.6776 48.6375L24.9082 48.4757L24.9917 48.7648L24.7611 48.9265ZM24.9739 48.2879L24.8905 47.9988L25.1211 47.8381L25.2045 48.1272L24.9739 48.2879ZM25.1868 47.6493L25.1033 47.3602L25.3339 47.1995L25.4174 47.4886L25.1868 47.6493ZM25.3997 47.0107L25.3162 46.7216L25.5468 46.5599L25.6303 46.8489L25.3997 47.0107ZM25.6125 46.3731L23.9805 40.7268L24.2111 40.565L25.8432 46.2113L25.6125 46.3731ZM24.1934 40.0881L24.424 39.9274L24.5075 40.2165L24.2769 40.3782L24.1934 40.0881ZM24.4898 39.7386L24.4063 39.4495L24.6369 39.2888L24.7204 39.5779L24.4898 39.7386ZM24.7026 39.101L24.6191 38.812L24.8498 38.6502L24.9332 38.9403L24.7026 39.101ZM24.9145 38.4624L24.831 38.1733L25.0616 38.0126L25.1451 38.3017L24.9145 38.4624ZM25.1273 37.8238L25.0438 37.5347L35.2867 30.3628L44.2065 36.8731C44.2263 36.8878 44.2535 36.8878 44.2743 36.8742L48.6768 33.7917L48.92 33.9691L44.0291 37.3938L35.1094 30.8835C35.0895 30.8689 35.0624 30.8689 35.0415 30.8825L25.1273 37.8238ZM48.4347 33.4703L48.8897 33.1521L49.1328 33.3295L48.6779 33.6477L48.4347 33.4703ZM48.6476 32.8317L49.1026 32.5134L49.3457 32.6908L48.8907 33.0091L48.6476 32.8317ZM48.8605 32.1931L49.3154 31.8748L49.5586 32.0522L49.1036 32.3705L48.8605 32.1931ZM49.0733 31.5545L49.5283 31.2362L49.7714 31.4136L49.3165 31.7319L49.0733 31.5545ZM49.2862 30.9169L49.7412 30.5986L49.9843 30.776L49.5294 31.0943L49.2862 30.9169ZM49.4991 30.2783L49.9541 29.96L50.1972 30.1374L49.7422 30.4557L49.4991 30.2783ZM49.712 29.6397L50.1669 29.3214L50.4101 29.4988L49.9551 29.8171L49.712 29.6397ZM14.8542 3.40528C14.8343 3.39067 14.8072 3.39067 14.7874 3.40423L7.90034 8.2262L7.81686 7.93716L15.0326 2.88458L50.6229 28.8602L50.168 29.1784L14.8542 3.40528ZM7.83356 8.41508L7.91704 8.70412L7.68643 8.86482L7.60295 8.57577L7.83356 8.41508ZM7.62173 9.05265L7.70521 9.3417L7.4746 9.50239L7.39112 9.21334L7.62173 9.05265ZM7.40886 9.69126L7.49234 9.98031L7.26173 10.1421L7.17825 9.853L7.40886 9.69126ZM7.19599 10.3299L7.27947 10.6189L7.04886 10.7796L6.96538 10.4906L7.19599 10.3299ZM6.93198 10.3737L6.8485 10.0847L7.07912 9.92396L7.1626 10.213L6.93198 10.3737ZM6.8652 10.5615L6.94868 10.8506L6.71807 11.0113L6.63459 10.7222L6.8652 10.5615ZM6.65233 11.1991L6.73581 11.4882L6.5052 11.6489L6.42172 11.3598L6.65233 11.1991ZM6.43946 11.8377L6.52294 12.1268L6.29232 12.2875L6.20885 11.9984L6.43946 11.8377ZM6.22658 12.4763L6.31006 12.7654L6.07945 12.9261L5.99597 12.637L6.22658 12.4763ZM6.01371 13.115L18.2622 55.4828C18.2674 55.5005 18.281 55.5151 18.2987 55.5214C18.305 55.5235 18.3112 55.5245 18.3175 55.5245C18.329 55.5245 18.3405 55.5203 18.3509 55.5141L24.1746 51.4361L24.2581 51.7251L18.138 56.0108L5.78415 13.2757L6.01371 13.115ZM24.2404 51.2483L24.1569 50.9592L24.3875 50.7985L24.471 51.0876L24.2404 51.2483ZM24.4532 50.6097L24.3698 50.3206L24.6004 50.1589L24.6838 50.4479L24.4532 50.6097ZM24.6661 49.9721L24.5826 49.682L24.8132 49.5213L24.8967 49.8114L24.6661 49.9721ZM24.879 49.3335L24.7955 49.0444L25.0261 48.8837L25.1096 49.1728L24.879 49.3335ZM25.0918 48.6949L25.0084 48.4048L25.239 48.243L25.3225 48.5331L25.0918 48.6949ZM25.3047 48.0562L25.2212 47.7672L25.4519 47.6065L25.5353 47.8955L25.3047 48.0562ZM25.5176 47.4187L25.4341 47.1296L25.6647 46.9679L25.7482 47.2569L25.5176 47.4187ZM25.7305 46.78L25.647 46.49L25.8776 46.3293L25.9611 46.6183L25.7305 46.78ZM25.9433 46.1414L24.3113 40.4951L24.5419 40.3344L26.1739 45.9807L25.9433 46.1414ZM24.5231 39.8565L24.7538 39.6958L24.8372 39.9848L24.6066 40.1455L24.5231 39.8565ZM24.8195 39.508L24.736 39.2189L24.9666 39.0572L25.0501 39.3462L24.8195 39.508ZM25.0324 38.8693L24.9489 38.5803L25.1795 38.4196L25.263 38.7086L25.0324 38.8693ZM25.2452 38.2307L25.1618 37.9417L35.0749 31.0004L43.9947 37.5107C44.0145 37.5253 44.0416 37.5253 44.0625 37.5118L49.0201 34.0401L49.2633 34.2175L43.8173 38.0304L34.8975 31.52C34.8777 31.5054 34.8506 31.5054 34.8297 31.519L25.2452 38.2307ZM48.777 33.7197L49.232 33.4015L49.4751 33.5788L49.0201 33.8971L48.777 33.7197ZM48.9899 33.0811L49.4448 32.7628L49.688 32.9402L49.233 33.2585L48.9899 33.0811ZM49.2027 32.4435L49.6577 32.1253L49.9008 32.3027L49.4459 32.6209L49.2027 32.4435ZM49.4156 31.8049L49.8706 31.4866L50.1137 31.664L49.6587 31.9823L49.4156 31.8049ZM49.6285 31.1663L50.0834 30.848L50.3266 31.0254L49.8716 31.3437L49.6285 31.1663ZM49.8414 30.5277L50.2963 30.2094L50.5394 30.3868L50.0845 30.7051L49.8414 30.5277ZM50.0542 29.8891L50.5092 29.5708L50.7523 29.7482L50.2974 30.0665L50.0542 29.8891ZM50.2661 29.2515L50.721 28.9332L50.9641 29.1106L50.5092 29.4289L50.2661 29.2515ZM15.067 2.76666C15.0472 2.75205 15.0201 2.75205 14.9992 2.76562L7.78243 7.81924L7.69895 7.53019L15.2455 2.24596L51.1781 28.472L50.7231 28.7903L15.067 2.76666ZM7.71669 8.00811L7.80017 8.29716L7.56956 8.45786L7.48608 8.16881L7.71669 8.00811ZM7.50382 8.64569L7.5873 8.93473L7.35668 9.09543L7.27321 8.80639L7.50382 8.64569ZM7.29095 9.2843L7.37442 9.57335L7.14381 9.73509L7.06033 9.44604L7.29095 9.2843ZM7.02694 9.32813L6.94346 9.03908L7.17407 8.87838L7.25755 9.16743L7.02694 9.32813ZM6.96016 9.51596L7.04364 9.80501L6.81303 9.9657L6.72955 9.67665L6.96016 9.51596ZM6.74729 10.1546L6.83077 10.4436L6.60015 10.6054L6.51668 10.3163L6.74729 10.1546ZM6.53441 10.7921L6.61789 11.0812L6.38728 11.2419L6.3038 10.9528L6.53441 10.7921ZM6.32154 11.4308L6.40502 11.7198L6.17441 11.8805L6.09093 11.5915L6.32154 11.4308ZM6.10867 12.0694L6.19215 12.3584L5.96154 12.5191L5.87806 12.2301L6.10867 12.0694ZM5.89684 12.708L5.98032 12.997L5.74971 13.1588L5.66623 12.8697L5.89684 12.708ZM5.68397 13.3466L18.0504 56.1214C18.0556 56.1391 18.0692 56.1537 18.0869 56.16C18.0932 56.1621 18.0994 56.1631 18.1057 56.1631C18.1172 56.1631 18.1286 56.16 18.1391 56.1527L24.2925 51.8441L24.376 52.1331L17.9262 56.6494L5.45336 13.5073L5.68397 13.3466ZM24.3583 51.6552L24.2748 51.3662L24.5054 51.2044L24.5889 51.4935L24.3583 51.6552ZM24.5711 51.0177L24.4877 50.7276L24.7183 50.5669L24.8018 50.857L24.5711 51.0177ZM24.784 50.379L24.7005 50.09L24.9312 49.9293L25.0146 50.2183L24.784 50.379ZM24.9969 49.7404L24.9134 49.4514L25.144 49.2907L25.2275 49.5797L24.9969 49.7404ZM25.2098 49.1018L25.1263 48.8128L25.3569 48.651L25.4404 48.9401L25.2098 49.1018ZM25.4226 48.4632L25.3392 48.1741L25.5698 48.0135L25.6532 48.3025L25.4226 48.4632ZM25.6345 47.8256L25.551 47.5366L25.7816 47.3759L25.8651 47.6649L25.6345 47.8256ZM25.8473 47.187L25.7639 46.898L25.9945 46.7373L26.0779 47.0263L25.8473 47.187ZM26.0602 46.5484L25.9767 46.2593L26.2073 46.0986L26.2908 46.3877L26.0602 46.5484ZM26.2731 45.9098L24.6411 40.2634L24.8717 40.1027L26.5037 45.7491L26.2731 45.9098ZM24.8539 39.6248L25.0845 39.4641L25.168 39.7532L24.9374 39.9139L24.8539 39.6248ZM25.1503 39.2763L25.0668 38.9873L25.2974 38.8266L25.3809 39.1156L25.1503 39.2763ZM25.3632 38.6377L25.2797 38.3476L34.862 31.638L43.7818 38.1483C43.8016 38.1629 43.8288 38.1629 43.8496 38.1493L49.3624 34.2895L49.6055 34.4669L43.6044 38.669L34.6847 32.1587C34.6648 32.144 34.6377 32.144 34.6168 32.1576L25.3632 38.6377ZM49.1193 33.9702L49.5742 33.6519L49.8174 33.8293L49.3624 34.1475L49.1193 33.9702ZM49.3321 33.3315L49.7871 33.0133L50.0302 33.1907L49.5753 33.5089L49.3321 33.3315ZM49.545 32.6929L50 32.3747L50.2431 32.5521L49.7881 32.8703L49.545 32.6929ZM49.7579 32.0543L50.2128 31.736L50.456 31.9134L50.001 32.2317L49.7579 32.0543ZM49.9707 31.4157L50.4257 31.0974L50.6688 31.2748L50.2139 31.5931L49.9707 31.4157ZM50.1836 30.7781L50.6386 30.4599L50.8817 30.6372L50.4268 30.9555L50.1836 30.7781ZM50.3954 30.1395L50.8504 29.8212L51.0935 29.9986L50.6386 30.3169L50.3954 30.1395ZM50.6083 29.5009L51.0633 29.1826L51.3064 29.36L50.8515 29.6783L50.6083 29.5009ZM50.8212 28.8623L51.2762 28.544L51.5193 28.7214L51.0643 29.0397L50.8212 28.8623ZM15.2799 2.12805C15.2601 2.11344 15.233 2.11344 15.2121 2.127L7.66451 7.41228L7.58104 7.12323L15.4573 1.60839L51.7322 28.0838L51.2772 28.4021L15.2799 2.12805ZM7.59877 7.60011L7.68225 7.88916L7.45164 8.04985L7.36816 7.76081L7.59877 7.60011ZM7.3859 8.23873L7.46938 8.52777L7.23877 8.68951L7.15529 8.40047L7.3859 8.23873ZM7.1219 8.28255L7.03842 7.9935L7.26903 7.83281L7.35251 8.12185L7.1219 8.28255ZM7.05512 8.47038L7.1386 8.75943L6.90798 8.92013L6.82451 8.63108L7.05512 8.47038ZM6.84224 9.10899L6.92572 9.39804L6.69511 9.55874L6.61163 9.26969L6.84224 9.10899ZM6.63042 9.74761L6.71389 10.0367L6.48328 10.1974L6.3998 9.90831L6.63042 9.74761ZM6.41754 10.3852L6.50102 10.6742L6.27041 10.8349L6.18693 10.5459L6.41754 10.3852ZM6.20467 11.0238L6.28815 11.3128L6.05754 11.4735L5.97406 11.1845L6.20467 11.0238ZM5.9918 11.6624L6.07528 11.9515L5.84467 12.1132L5.76119 11.8242L5.9918 11.6624ZM5.77893 12.301L5.86241 12.5901L5.6318 12.7518L5.54832 12.4628L5.77893 12.301ZM5.56606 12.9396L5.64953 13.2287L5.41892 13.3894L5.33544 13.1003L5.56606 12.9396ZM5.35318 13.5772L17.8365 56.7589C17.8417 56.7767 17.8552 56.7913 17.873 56.7976C17.8792 56.7996 17.8855 56.8007 17.8918 56.8007C17.9032 56.8007 17.9147 56.7976 17.9252 56.7902L24.4094 52.25L24.4929 52.5391L17.7123 57.288L5.12257 13.739L5.35318 13.5772ZM24.4762 52.0622L24.3927 51.7731L24.6233 51.6114L24.7068 51.9005L24.4762 52.0622ZM24.6891 51.4246L24.6056 51.1356L24.8362 50.9749L24.9197 51.2639L24.6891 51.4246ZM24.9009 50.786L24.8174 50.497L25.048 50.3363L25.1315 50.6253L24.9009 50.786ZM25.1138 50.1474L25.0303 49.8583L25.2609 49.6976L25.3444 49.9867L25.1138 50.1474ZM25.3266 49.5088L25.2432 49.2197L25.4738 49.058L25.5572 49.3481L25.3266 49.5088ZM25.5395 48.8702L25.456 48.5811L25.6866 48.4204L25.7701 48.7095L25.5395 48.8702ZM25.7524 48.2326L25.6689 47.9435L25.8995 47.7828L25.983 48.0719L25.7524 48.2326ZM25.9653 47.594L25.8818 47.3049L26.1124 47.1432L26.1959 47.4322L25.9653 47.594ZM26.1781 46.9553L26.0946 46.6653L26.3253 46.5046L26.4087 46.7936L26.1781 46.9553ZM26.391 46.3167L26.3075 46.0277L26.5381 45.867L26.6216 46.156L26.391 46.3167ZM26.6039 45.6781L24.9718 40.0318L25.2025 39.8711L26.8345 45.5174L26.6039 45.6781ZM25.1847 39.3942L25.4153 39.2325L25.4988 39.5215L25.2682 39.6822L25.1847 39.3942ZM25.4811 39.0446L25.3976 38.7556L34.6492 32.2776L43.5689 38.788C43.5888 38.8026 43.6159 38.8026 43.6368 38.789L49.7036 34.5399L49.9467 34.7173L43.3905 39.3076L34.4707 32.7973C34.4509 32.7827 34.4238 32.7827 34.4029 32.7962L25.4811 39.0446ZM49.4615 34.2196L49.9165 33.9013L50.1596 34.0787L49.7047 34.3969L49.4615 34.2196ZM49.6744 33.5809L50.1294 33.2627L50.3725 33.4401L49.9175 33.7583L49.6744 33.5809ZM49.8873 32.9423L50.3422 32.6241L50.5854 32.8014L50.1304 33.1197L49.8873 32.9423ZM50.1001 32.3047L50.5551 31.9865L50.7982 32.1639L50.3433 32.4821L50.1001 32.3047ZM50.313 31.6661L50.768 31.3479L51.0111 31.5253L50.5561 31.8435L50.313 31.6661ZM50.5248 31.0275L50.9798 30.7092L51.2229 30.8866L50.768 31.2049L50.5248 31.0275ZM50.7377 30.3889L51.1927 30.0706L51.4358 30.248L50.9808 30.5663L50.7377 30.3889ZM50.9506 29.7503L51.4055 29.432L51.6487 29.6094L51.1937 29.9277L50.9506 29.7503ZM51.1635 29.1127L51.6184 28.7944L51.8615 28.9718L51.4066 29.2901L51.1635 29.1127ZM51.3763 28.4741L51.8313 28.1558L52.0744 28.3332L51.6195 28.6515L51.3763 28.4741ZM15.4928 1.49047C15.473 1.47586 15.4458 1.47586 15.425 1.48943L7.5466 7.00636L7.46312 6.71731L15.6702 0.970812L52.2863 27.6956L51.8313 28.0139L15.4928 1.49047ZM7.48086 7.19315L7.56434 7.48219L7.33373 7.64289L7.25025 7.35384L7.48086 7.19315ZM7.15112 7.4248L7.2346 7.71385L7.00399 7.87455L6.92051 7.5855L7.15112 7.4248ZM6.93825 8.06342L7.02172 8.35247L6.79111 8.5142L6.70763 8.22516L6.93825 8.06342ZM6.72537 8.70204L6.80885 8.99108L6.57824 9.15178L6.49476 8.86273L6.72537 8.70204ZM6.5125 9.34065L6.59598 9.6297L6.36537 9.7904L6.28189 9.50135L6.5125 9.34065ZM6.29963 9.97822L6.38311 10.2673L6.1525 10.429L6.06902 10.14L6.29963 9.97822ZM6.08676 10.6168L6.17024 10.9059L5.93962 11.0666L5.85615 10.7775L6.08676 10.6168ZM5.87389 11.2555L5.95736 11.5445L5.72675 11.7062L5.64327 11.4172L5.87389 11.2555ZM5.66101 11.8941L5.74449 12.1831L5.51388 12.3438L5.4304 12.0548L5.66101 11.8941ZM5.44814 12.5316L5.53162 12.8207L5.30101 12.9814L5.21753 12.6923L5.44814 12.5316ZM5.23527 13.1703L5.31875 13.4593L5.08814 13.6211L5.00466 13.332L5.23527 13.1703ZM17.4994 57.9256L4.79283 13.9706L5.02344 13.8099L17.6246 57.3986C17.6298 57.4163 17.6434 57.431 17.6612 57.4372C17.6674 57.4393 17.6737 57.4403 17.6799 57.4403C17.6914 57.4403 17.7029 57.4372 17.7133 57.4299L24.5284 52.658L24.6118 52.9481L17.4994 57.9256ZM24.5931 52.4692L24.5096 52.1801L24.7402 52.0194L24.8237 52.3085L24.5931 52.4692ZM24.8059 51.8316L24.7225 51.5425L24.9531 51.3818L25.0365 51.6709L24.8059 51.8316ZM25.0188 51.193L24.9353 50.9039L25.1659 50.7422L25.2494 51.0312L25.0188 51.193ZM25.2317 50.5543L25.1482 50.2643L25.3788 50.1036L25.4623 50.3926L25.2317 50.5543ZM25.4445 49.9157L25.3611 49.6267L25.5917 49.466L25.6752 49.755L25.4445 49.9157ZM25.6574 49.2771L25.5739 48.9881L25.8046 48.8274L25.888 49.1164L25.6574 49.2771ZM25.8703 48.6395L25.7868 48.3505L26.0174 48.1898L26.1009 48.4788L25.8703 48.6395ZM26.0832 48.0009L25.9997 47.7119L26.2303 47.5501L26.3138 47.8392L26.0832 48.0009ZM26.296 47.3623L26.2126 47.0733L26.4432 46.9126L26.5266 47.2016L26.296 47.3623ZM26.5089 46.7237L26.4254 46.4346L26.656 46.274L26.7395 46.563L26.5089 46.7237ZM26.7218 46.0851L26.6383 45.796L26.8689 45.6343L26.9524 45.9233L26.7218 46.0851ZM27.1642 45.2858L26.9336 45.4465L25.3016 39.8001L25.5322 39.6384L27.1642 45.2858ZM50.289 34.9667L43.1776 39.9462L34.2579 33.4359C34.238 33.4213 34.2109 33.4213 34.19 33.4348L25.5979 39.4516L25.5145 39.1615L34.4363 32.9152L43.3561 39.4255C43.3759 39.4401 43.403 39.4401 43.4239 39.4266L50.0459 34.7893L50.289 34.9667ZM50.5019 34.3281L50.0469 34.6463L49.8038 34.4689L50.2588 34.1507L50.5019 34.3281ZM50.7148 33.6905L50.2598 34.0088L50.0167 33.8314L50.4716 33.5131L50.7148 33.6905ZM50.9276 33.0519L50.4727 33.3701L50.2295 33.1928L50.6845 32.8745L50.9276 33.0519ZM51.1405 32.4133L50.6855 32.7315L50.4424 32.5541L50.8974 32.2359L51.1405 32.4133ZM51.3534 31.7747L50.8984 32.0929L50.6553 31.9155L51.1102 31.5973L51.3534 31.7747ZM51.5652 31.136L51.1102 31.4543L50.8671 31.2769L51.3221 30.9586L51.5652 31.136ZM51.7781 30.4985L51.3231 30.8167L51.08 30.6393L51.5349 30.3211L51.7781 30.4985ZM51.9909 29.8598L51.536 30.1781L51.2928 30.0007L51.7478 29.6825L51.9909 29.8598ZM52.2038 29.2212L51.7489 29.5395L51.5057 29.3621L51.9607 29.0438L52.2038 29.2212ZM52.4167 28.5826L51.9617 28.9009L51.7186 28.7235L52.1736 28.4052L52.4167 28.5826ZM52.6296 27.944L52.1746 28.2623L51.9315 28.0849L52.3864 27.7666L52.6296 27.944ZM52.3875 27.6247L15.7057 0.851855C15.6858 0.837246 15.6587 0.837245 15.6378 0.850811L7.42973 6.59836L7.34625 6.30931L15.8841 0.331155L52.8424 27.3064L52.3875 27.6247ZM28.3653 29.1649C28.3653 29.1461 28.3569 29.1284 28.3413 29.1179L28.0648 28.9155L28.5531 28.5732C28.5688 28.5628 28.5771 28.545 28.5781 28.5263C28.5781 28.5075 28.5698 28.4897 28.5541 28.4793L28.2776 28.2769L28.766 27.9346C28.7816 27.9242 28.791 27.9064 28.791 27.8876C28.791 27.8689 28.7827 27.8511 28.767 27.8407L28.4905 27.6383L28.9788 27.296C28.9945 27.2856 29.0029 27.2678 29.0039 27.249C29.0039 27.2303 28.9955 27.2125 28.9799 27.2021L28.7034 26.9996L29.1917 26.6574C29.2074 26.6469 29.2157 26.6292 29.2168 26.6104C29.2168 26.5916 29.2084 26.5739 29.1928 26.5635L28.9162 26.361L29.4046 26.0188C29.4202 26.0083 29.4286 25.9906 29.4296 25.9718C29.4296 25.953 29.4213 25.9353 29.4056 25.9248L29.1291 25.7224L29.6175 25.3801C29.6331 25.3697 29.6415 25.352 29.6425 25.3332C29.6425 25.3144 29.6342 25.2967 29.6185 25.2862L29.342 25.0838L29.8303 24.7415C29.846 24.7311 29.8543 24.7134 29.8554 24.6946C29.8554 24.6758 29.847 24.658 29.8314 24.6476L29.5549 24.4452L30.0432 24.1029C30.0589 24.0925 30.0672 24.0747 30.0683 24.056C30.0683 24.0372 30.0599 24.0194 30.0443 24.009L29.7677 23.8066L30.2561 23.4643C30.2717 23.4539 30.2801 23.4361 30.2811 23.4173C30.2811 23.3986 30.2728 23.3808 30.2571 23.3704L29.9806 23.1679L30.469 22.8257C30.4846 22.8152 30.494 22.7975 30.494 22.7787C30.494 22.7599 30.4856 22.7422 30.47 22.7318L30.1935 22.5293L30.6818 22.1871C30.6975 22.1766 30.7069 22.1589 30.7069 22.1401C30.7069 22.1213 30.6985 22.1036 30.6829 22.0931L30.4063 21.8907L30.8947 21.5484C30.9104 21.538 30.9197 21.5203 30.9197 21.5015C30.9197 21.4827 30.9114 21.465 30.8957 21.4545L17.5725 11.7334C17.5526 11.7188 17.5255 11.7188 17.5046 11.7323C17.4848 11.7469 17.4754 11.772 17.4827 11.796L17.7269 12.6391L17.3596 12.3709C17.3398 12.3563 17.3126 12.3563 17.2918 12.3699C17.2719 12.3845 17.2625 12.4096 17.2698 12.4336L17.514 13.2767L17.1467 13.0085C17.1269 12.9939 17.0998 12.9939 17.0789 13.0075C17.0591 13.0221 17.0497 13.0471 17.057 13.0711L17.3011 13.9143L16.9338 13.6461C16.914 13.6315 16.8869 13.6315 16.866 13.645C16.8451 13.6597 16.8368 13.6847 16.8441 13.7087L17.0883 14.5518L16.721 14.2837C16.7011 14.2691 16.674 14.2691 16.6531 14.2826C16.6333 14.2972 16.6239 14.3223 16.6312 14.3463L16.8754 15.1894L16.5081 14.9212C16.4883 14.9066 16.4611 14.9066 16.4403 14.9202C16.4204 14.9348 16.4111 14.9598 16.4184 14.9838L16.6625 15.827L16.2952 15.5588C16.2754 15.5442 16.2483 15.5442 16.2274 15.5578C16.2076 15.5724 16.1982 15.5974 16.2044 15.6214L16.4486 16.4646L16.0813 16.1964C16.0615 16.1818 16.0344 16.1818 16.0135 16.1953C15.9926 16.2099 15.9843 16.235 15.9905 16.259L16.2347 17.1021L15.8684 16.834C15.8486 16.8193 15.8215 16.8193 15.8006 16.8329C15.7808 16.8475 15.7714 16.8726 15.7787 16.8966L16.0229 17.7397L15.6566 17.4715C15.6368 17.4569 15.6097 17.4569 15.5888 17.4705C15.569 17.4851 15.5596 17.5101 15.5658 17.5341L15.81 18.3773L15.4427 18.1091C15.4229 18.0945 15.3957 18.0945 15.3759 18.1081C15.355 18.1227 15.3467 18.1477 15.353 18.1717L15.5971 19.0148L15.2298 18.7467C15.21 18.7321 15.1829 18.7321 15.163 18.7456C15.1422 18.7602 15.1338 18.7853 15.1401 18.8093L15.3843 19.6524L15.0169 19.3842C14.9971 19.3696 14.97 19.3696 14.9491 19.3832C14.9293 19.3978 14.9199 19.4229 14.9272 19.4469L19.5081 35.2912C19.5133 35.309 19.5269 35.3236 19.5447 35.3298C19.5509 35.3319 19.5572 35.333 19.5634 35.333C19.5749 35.333 19.5864 35.3298 19.5968 35.3225L28.3392 29.2014C28.3559 29.2014 28.3653 29.1837 28.3653 29.1649ZM28.4206 28.5252L27.9656 28.8435L27.7225 28.6661L28.1774 28.3478L28.4206 28.5252ZM21.0786 23.817L20.8407 22.9926L24.6567 25.7777L24.2017 26.096L21.0786 23.817ZM24.1016 26.1659L22.1523 27.5308L21.1308 23.9986L24.1016 26.1659ZM22.0636 27.6403C22.0689 27.6581 22.0824 27.6727 22.1002 27.679C22.1064 27.681 22.1127 27.6821 22.1189 27.6821C22.1304 27.6821 22.1419 27.679 22.1523 27.6716L24.1997 26.2379L24.4428 26.4153L21.9384 28.1683L20.6268 23.6302L20.9774 23.8869L22.0636 27.6403ZM24.2998 26.168L24.7548 25.8497L24.9979 26.0271L24.543 26.3454L24.2998 26.168ZM20.7875 22.8111L20.5495 21.9867L25.2108 25.3895L24.7558 25.7078L20.7875 22.8111ZM20.9252 23.7053L20.5746 23.4497L20.3367 22.6253L20.6873 22.881L20.9252 23.7053ZM21.8508 28.279C21.856 28.2967 21.8695 28.3113 21.8873 28.3176C21.8935 28.3197 21.8998 28.3207 21.9061 28.3207C21.9175 28.3207 21.929 28.3176 21.9395 28.3103L24.5419 26.4873L24.7851 26.6647L21.7255 28.807L20.1227 23.2629L20.4734 23.5186L21.8508 28.279ZM24.6421 26.4184L25.0971 26.1002L25.3402 26.2775L24.8852 26.5958L24.6421 26.4184ZM24.855 25.7798L25.3099 25.4615L25.5531 25.6389L25.0981 25.9572L24.855 25.7798ZM20.4963 21.8051L20.2584 20.9808L25.7659 25.0003L25.311 25.3186L20.4963 21.8051ZM20.6351 22.6994L20.2845 22.4438L20.0466 21.6194L20.3972 21.8751L20.6351 22.6994ZM20.4222 23.338L20.0716 23.0824L19.8337 22.258L20.1843 22.5137L20.4222 23.338ZM21.6379 28.9176C21.6431 28.9353 21.6567 28.9499 21.6744 28.9562C21.6807 28.9583 21.6869 28.9593 21.6932 28.9593C21.7047 28.9593 21.7162 28.9562 21.7266 28.9489L24.8842 26.7377L25.1273 26.9151L21.5137 29.4456L19.6198 22.8956L19.9704 23.1512L21.6379 28.9176ZM24.9844 26.6678L25.4393 26.3495L25.6825 26.5269L25.2275 26.8452L24.9844 26.6678ZM25.1972 26.0292L25.6522 25.7109L25.8953 25.8883L25.4404 26.2066L25.1972 26.0292ZM25.4101 25.3906L25.8651 25.0723L26.1082 25.2497L25.6532 25.568L25.4101 25.3906ZM20.2062 20.7992L19.9683 19.9749L26.3221 24.6121L25.8672 24.9304L20.2062 20.7992ZM20.344 21.6935L19.9934 21.4378L19.7554 20.6135L20.1061 20.8691L20.344 21.6935ZM20.1311 22.3321L19.7805 22.0765L19.5426 21.2521L19.8932 21.5077L20.1311 22.3321ZM19.9182 22.9697L19.5676 22.714L19.3297 21.8897L19.6803 22.1453L19.9182 22.9697ZM21.425 29.5562C21.4302 29.5739 21.4438 29.5885 21.4615 29.5948C21.4678 29.5969 21.4741 29.5979 21.4803 29.5979C21.4918 29.5979 21.5033 29.5948 21.5137 29.5875L25.2265 26.9882L25.4696 27.1656L21.3008 30.0852L19.1168 22.5293L19.4674 22.785L21.425 29.5562ZM25.3266 26.9172L25.7816 26.5989L26.0247 26.7763L25.5698 27.0946L25.3266 26.9172ZM25.5395 26.2786L25.9945 25.9603L26.2376 26.1377L25.7826 26.456L25.5395 26.2786ZM25.7524 25.641L26.2073 25.3227L26.4505 25.5001L25.9955 25.8184L25.7524 25.641ZM25.9653 25.0024L26.4202 24.6841L26.6633 24.8615L26.2084 25.1798L25.9653 25.0024ZM19.9151 19.7933L19.6772 18.9689L26.8762 24.2229L26.4213 24.5412L19.9151 19.7933ZM20.0528 20.6876L19.7022 20.4319L19.4643 19.6076L19.8149 19.8632L20.0528 20.6876ZM19.84 21.3262L19.4893 21.0705L19.2514 20.2462L19.602 20.5018L19.84 21.3262ZM19.6281 21.9638L19.2775 21.7081L19.0396 20.8837L19.3902 21.1394L19.6281 21.9638ZM19.4153 22.6024L19.0646 22.3467L18.8267 21.5224L19.1773 21.7791L19.4153 22.6024ZM21.2122 30.1948C21.2174 30.2125 21.2309 30.2272 21.2487 30.2334C21.2549 30.2355 21.2612 30.2365 21.2675 30.2365C21.2789 30.2365 21.2904 30.2334 21.3008 30.2261L25.5687 27.2376L25.8119 27.4149L21.088 30.7228L18.6128 22.161L18.9634 22.4166L21.2122 30.1948ZM25.6689 27.1676L26.1239 26.8494L26.367 27.0268L25.912 27.345L25.6689 27.1676ZM25.8818 26.529L26.3367 26.2108L26.5799 26.3882L26.1249 26.7064L25.8818 26.529ZM26.0946 25.8904L26.5496 25.5721L26.7927 25.7495L26.3378 26.0678L26.0946 25.8904ZM26.3075 25.2518L26.7625 24.9335L27.0056 25.1109L26.5506 25.4292L26.3075 25.2518ZM26.5204 24.6132L26.9753 24.2949L27.2185 24.4723L26.7635 24.7906L26.5204 24.6132ZM19.624 18.7863L19.386 17.962L27.4314 23.8337L26.9764 24.152L19.624 18.7863ZM19.7627 19.6816L19.4121 19.426L19.1742 18.6016L19.5248 18.8573L19.7627 19.6816ZM19.5499 20.3192L19.1993 20.0636L18.9613 19.2392L19.312 19.4949L19.5499 20.3192ZM19.337 20.9578L18.9864 20.7011L18.7485 19.8768L19.0991 20.1324L19.337 20.9578ZM19.1241 21.5964L18.7735 21.3408L18.5356 20.5164L18.8862 20.7721L19.1241 21.5964ZM18.9113 22.2351L18.5606 21.9794L18.3227 21.155L18.6733 21.4107L18.9113 22.2351ZM20.9993 30.8324C21.0045 30.8501 21.0181 30.8647 21.0358 30.871C21.0421 30.8731 21.0483 30.8741 21.0546 30.8741C21.0661 30.8741 21.0775 30.871 21.088 30.8637L25.911 27.4869L26.1541 27.6643L20.8751 31.3604L18.1088 21.7926L18.4594 22.0483L20.9993 30.8324ZM26.0112 27.417L26.4661 27.0988L26.7093 27.2762L26.2543 27.5944L26.0112 27.417ZM26.224 26.7784L26.679 26.4602L26.9221 26.6376L26.4672 26.9558L26.224 26.7784ZM26.4369 26.1398L26.8919 25.8215L27.135 25.9989L26.68 26.3172L26.4369 26.1398ZM26.6498 25.5022L27.1047 25.184L27.3479 25.3614L26.8929 25.6796L26.6498 25.5022ZM26.8626 24.8636L27.3176 24.5453L27.5607 24.7227L27.1058 25.041L26.8626 24.8636ZM27.0755 24.225L27.5305 23.9067L27.7736 24.0841L27.3187 24.4024L27.0755 24.225ZM19.3339 17.7804L19.096 16.956L27.9875 23.4455L27.5326 23.7638L19.3339 17.7804ZM19.4716 18.6757L19.121 18.4201L18.8831 17.5957L19.2337 17.8514L19.4716 18.6757ZM19.2587 19.3133L18.9081 19.0576L18.6702 18.2333L19.0208 18.4889L19.2587 19.3133ZM19.0459 19.9519L18.6953 19.6962L18.4573 18.8719L18.8079 19.1275L19.0459 19.9519ZM18.833 20.5905L18.4824 20.3349L18.2445 19.5105L18.5951 19.7662L18.833 20.5905ZM18.6201 21.2291L18.2695 20.9735L18.0316 20.1491L18.3822 20.4048L18.6201 21.2291ZM18.4072 21.8678L18.0566 21.6111L17.8187 20.7867L18.1693 21.0424L18.4072 21.8678ZM20.7864 31.471C20.7916 31.4887 20.8052 31.5033 20.8229 31.5096C20.8292 31.5117 20.8354 31.5127 20.8417 31.5127C20.8532 31.5127 20.8647 31.5096 20.8751 31.5023L26.2533 27.7363L26.4964 27.9137L20.6622 31.999L17.6048 21.4243L17.9554 21.681L20.7864 31.471ZM26.3534 27.6664L26.8084 27.3482L27.0515 27.5256L26.5966 27.8438L26.3534 27.6664ZM26.5663 27.0289L27.0213 26.7106L27.2644 26.888L26.8094 27.2062L26.5663 27.0289ZM26.7792 26.3902L27.2341 26.072L27.4773 26.2494L27.0223 26.5676L26.7792 26.3902ZM26.992 25.7516L27.447 25.4334L27.6901 25.6108L27.2352 25.929L26.992 25.7516ZM27.2049 25.113L27.6599 24.7947L27.903 24.9721L27.448 25.2904L27.2049 25.113ZM27.4178 24.4744L27.8727 24.1561L28.1159 24.3335L27.6609 24.6518L27.4178 24.4744ZM27.6307 23.8368L28.0856 23.5186L28.3288 23.6959L27.8738 24.0142L27.6307 23.8368ZM19.0427 16.7745L18.8048 15.9501L28.5416 23.0563L28.0867 23.3746L19.0427 16.7745ZM19.1805 17.6698L18.8299 17.4131L18.5919 16.5887L18.9426 16.8444L19.1805 17.6698ZM18.9676 18.3074L18.617 18.0517L18.3791 17.2274L18.7297 17.483L18.9676 18.3074ZM18.7547 18.946L18.4041 18.6903L18.1662 17.866L18.5168 18.1216L18.7547 18.946ZM18.5419 19.5846L18.1912 19.3289L17.9533 18.5046L18.3039 18.7602L18.5419 19.5846ZM18.33 20.2232L17.9794 19.9676L17.7415 19.1432L18.0921 19.3989L18.33 20.2232ZM18.1172 20.8618L17.7665 20.6062L17.5286 19.7818L17.8792 20.0375L18.1172 20.8618ZM17.9043 21.4994L17.5537 21.2437L17.3158 20.4194L17.6664 20.675L17.9043 21.4994ZM20.5735 32.1096C20.5788 32.1274 20.5923 32.142 20.6101 32.1482C20.6163 32.1503 20.6226 32.1514 20.6288 32.1514C20.6403 32.1514 20.6518 32.1482 20.6622 32.1409L26.5955 27.9868L26.8387 28.1642L20.4494 32.6376L17.1018 21.058L17.4525 21.3137L20.5735 32.1096ZM26.6957 27.9169L27.1507 27.5986L27.3938 27.776L26.9388 28.0943L26.6957 27.9169ZM26.9086 27.2782L27.3635 26.96L27.6067 27.1374L27.1517 27.4556L26.9086 27.2782ZM27.1214 26.6396L27.5764 26.3214L27.8195 26.4988L27.3646 26.817L27.1214 26.6396ZM27.3343 26.001L27.7893 25.6828L28.0324 25.8601L27.5774 26.1784L27.3343 26.001ZM27.5472 25.3634L28.0021 25.0452L28.2453 25.2226L27.7903 25.5408L27.5472 25.3634ZM27.7601 24.7248L28.215 24.4066L28.4581 24.584L28.0032 24.9022L27.7601 24.7248ZM27.9729 24.0862L28.4279 23.768L28.671 23.9453L28.2161 24.2636L27.9729 24.0862ZM28.1858 23.4476L28.6408 23.1293L28.8839 23.3067L28.4289 23.625L28.1858 23.4476ZM18.7516 15.7685L18.5137 14.9442L29.0968 22.6681L28.6418 22.9864L18.7516 15.7685ZM18.8904 16.6639L18.5398 16.4082L18.3019 15.5839L18.6525 15.8406L18.8904 16.6639ZM18.6775 17.3014L18.3269 17.0458L18.089 16.2214L18.4396 16.4771L18.6775 17.3014ZM18.4646 17.9401L18.114 17.6844L17.8761 16.86L18.2267 17.1157L18.4646 17.9401ZM18.2518 18.5787L17.9012 18.323L17.6632 17.4987L18.0139 17.7543L18.2518 18.5787ZM18.0389 19.2173L17.6883 18.9616L17.4504 18.1373L17.801 18.3929L18.0389 19.2173ZM17.826 19.8559L17.4754 19.6003L17.2375 18.7759L17.5881 19.0315L17.826 19.8559ZM17.6132 20.4935L17.2625 20.2378L17.0246 19.4135L17.3752 19.6691L17.6132 20.4935ZM17.4003 21.1321L17.0497 20.8764L16.8118 20.0521L17.1624 20.3077L17.4003 21.1321ZM20.3607 32.7482C20.3659 32.766 20.3794 32.7806 20.3972 32.7868C20.4034 32.7889 20.4097 32.79 20.416 32.79C20.4274 32.79 20.4389 32.7868 20.4494 32.7795L26.9367 28.2372L27.1799 28.4146L20.2354 33.2773L16.5968 20.6907L16.9474 20.9464L20.3607 32.7482ZM27.038 28.1663L27.4929 27.848L27.7361 28.0254L27.2811 28.3437L27.038 28.1663ZM27.2508 27.5276L27.7058 27.2094L27.9489 27.3868L27.494 27.705L27.2508 27.5276ZM27.4637 26.889L27.9187 26.5708L28.1618 26.7482L27.7068 27.0664L27.4637 26.889ZM27.6766 26.2515L28.1315 25.9332L28.3747 26.1106L27.9197 26.4289L27.6766 26.2515ZM27.8894 25.6128L28.3444 25.2946L28.5875 25.472L28.1326 25.7902L27.8894 25.6128ZM28.1023 24.9742L28.5573 24.656L28.8004 24.8334L28.3455 25.1516L28.1023 24.9742ZM28.3152 24.3356L28.7702 24.0173L29.0133 24.1947L28.5583 24.513L28.3152 24.3356ZM28.527 23.698L28.982 23.3798L29.2251 23.5572L28.7702 23.8754L28.527 23.698ZM28.7399 23.0594L29.1949 22.7412L29.438 22.9185L28.983 23.2368L28.7399 23.0594ZM18.4615 14.7626L18.2236 13.9383L29.6519 22.2789L29.1969 22.5972L18.4615 14.7626ZM18.5993 15.6579L18.2486 15.4023L18.0107 14.5779L18.3613 14.8336L18.5993 15.6579ZM18.3864 16.2955L18.0358 16.0399L17.7978 15.2155L18.1485 15.4712L18.3864 16.2955ZM18.1735 16.9341L17.8229 16.6774L17.585 15.8531L17.9356 16.1087L18.1735 16.9341ZM17.9606 17.5727L17.61 17.3171L17.3721 16.4927L17.7227 16.7484L17.9606 17.5727ZM17.7478 18.2114L17.3972 17.9557L17.1592 17.1313L17.5098 17.3881L17.7478 18.2114ZM17.5349 18.8489L17.1843 18.5933L16.9464 17.7689L17.297 18.0246L17.5349 18.8489ZM17.322 19.4876L16.9714 19.2309L16.7335 18.4065L17.0841 18.6622L17.322 19.4876ZM17.1091 20.1262L16.7585 19.8705L16.5206 19.0462L16.8712 19.3018L17.1091 20.1262ZM16.8963 20.7648L16.5457 20.5091L16.3077 19.6848L16.6584 19.9404L16.8963 20.7648ZM20.1478 33.3868C20.153 33.4046 20.1666 33.4192 20.1843 33.4255C20.1906 33.4275 20.1968 33.4286 20.2031 33.4286C20.2146 33.4286 20.2261 33.4255 20.2365 33.4181L27.279 28.4866L27.5221 28.664L20.0226 33.9149L16.0928 20.3223L16.4434 20.578L20.1478 33.3868ZM27.3802 28.4157L27.8352 28.0974L28.0783 28.2748L27.6234 28.5931L27.3802 28.4157ZM27.5931 27.7781L28.0481 27.4598L28.2912 27.6372L27.8362 27.9555L27.5931 27.7781ZM27.806 27.1395L28.2609 26.8212L28.5041 26.9986L28.0491 27.3169L27.806 27.1395ZM28.0188 26.5009L28.4738 26.1826L28.7169 26.36L28.262 26.6782L28.0188 26.5009ZM28.2317 25.8622L28.6867 25.544L28.9298 25.7214L28.4748 26.0396L28.2317 25.8622ZM28.4446 25.2236L28.8995 24.9054L29.1427 25.0827L28.6877 25.401L28.4446 25.2236ZM28.6575 24.586L29.1124 24.2678L29.3556 24.4452L28.9006 24.7634L28.6575 24.586ZM28.8693 23.9474L29.3242 23.6292L29.5674 23.8066L29.1124 24.1248L28.8693 23.9474ZM29.0822 23.3088L29.5371 22.9905L29.7803 23.1679L29.3253 23.4862L29.0822 23.3088ZM29.295 22.6702L29.75 22.3519L29.9931 22.5293L29.5382 22.8476L29.295 22.6702ZM18.1704 13.7567L17.9325 12.9323L30.207 21.8907L29.7521 22.209L18.1704 13.7567ZM18.3081 14.652L17.9575 14.3964L17.7196 13.572L18.0702 13.8277L18.3081 14.652ZM18.0952 15.2896L17.7446 15.0339L17.5067 14.2096L17.8573 14.4652L18.0952 15.2896ZM17.8824 15.9282L17.5318 15.6715L17.2938 14.8472L17.6445 15.1038L17.8824 15.9282ZM17.6695 16.5668L17.3189 16.3112L17.081 15.4868L17.4316 15.7425L17.6695 16.5668ZM17.4566 17.2054L17.106 16.9498L16.8681 16.1254L17.2187 16.3811L17.4566 17.2054ZM17.2448 17.843L16.8942 17.5874L16.6563 16.763L17.0069 17.0187L17.2448 17.843ZM17.0319 18.4816L16.6813 18.226L16.4434 17.4016L16.794 17.6573L17.0319 18.4816ZM16.8191 19.1202L16.4684 18.8646L16.2305 18.0402L16.5811 18.2959L16.8191 19.1202ZM16.6062 19.7589L16.2556 19.5032L16.0177 18.6788L16.3683 18.9345L16.6062 19.7589ZM16.3933 20.3975L16.0427 20.1418L15.8048 19.3175L16.1554 19.5742L16.3933 20.3975ZM19.9349 34.0244C19.9401 34.0422 19.9537 34.0568 19.9714 34.063C19.9777 34.0651 19.984 34.0662 19.9902 34.0662C20.0017 34.0662 20.0132 34.063 20.0236 34.0557L27.6213 28.736L27.8644 28.9134L19.8097 34.5524L15.5898 19.954L15.9404 20.2096L19.9349 34.0244ZM28.6335 27.8866L28.1785 28.2049L27.9354 28.0275L28.3903 27.7092L28.6335 27.8866ZM28.8463 27.248L28.3914 27.5663L28.1482 27.3889L28.6032 27.0706L28.8463 27.248ZM29.0592 26.6094L28.6042 26.9276L28.3611 26.7502L28.8161 26.432L29.0592 26.6094ZM29.2721 25.9718L28.8171 26.2901L28.574 26.1127L29.0289 25.7944L29.2721 25.9718ZM29.4849 25.3332L29.03 25.6515L28.7868 25.4741L29.2418 25.1558L29.4849 25.3332ZM29.6978 24.6946L29.2429 25.0128L28.9997 24.8354L29.4547 24.5172L29.6978 24.6946ZM29.9096 24.056L29.4547 24.3742L29.2115 24.1968L29.6665 23.8786L29.9096 24.056ZM30.1225 23.4173L29.6676 23.7356L29.4244 23.5582L29.8794 23.2399L30.1225 23.4173ZM30.3354 22.7798L29.8804 23.098L29.6373 22.9206L30.0923 22.6024L30.3354 22.7798ZM30.5483 22.1411L30.0933 22.4594L29.8502 22.282L30.3051 21.9638L30.5483 22.1411ZM17.6413 11.9264L30.7611 21.5025L30.3062 21.8208L17.8792 12.7508L17.6413 11.9264ZM17.4285 12.565L17.7791 12.8207L18.017 13.645L17.6664 13.3894L17.4285 12.565ZM17.2156 13.2037L17.5662 13.4593L17.8041 14.2837L17.4535 14.028L17.2156 13.2037ZM17.0027 13.8423L17.3533 14.0979L17.5912 14.9223L17.2406 14.6666L17.0027 13.8423ZM16.7898 14.4809L17.1405 14.7365L17.3784 15.5609L17.0278 15.3052L16.7898 14.4809ZM16.577 15.1185L16.9276 15.3741L17.1655 16.1985L16.8149 15.9428L16.577 15.1185ZM16.3641 15.7571L16.7147 16.0127L16.9526 16.8371L16.602 16.5814L16.3641 15.7571ZM16.1512 16.3957L16.5018 16.6513L16.7398 17.4757L16.3891 17.219L16.1512 16.3957ZM15.9384 17.0343L16.289 17.29L16.5269 18.1143L16.1763 17.8587L15.9384 17.0343ZM15.7255 17.6719L16.0761 17.9275L16.314 18.7519L15.9634 18.4962L15.7255 17.6719ZM15.5126 18.3105L15.8632 18.5672L16.1011 19.3916L15.7505 19.1349L15.5126 18.3105ZM15.3008 18.9491L15.6514 19.2048L15.8893 20.0291L15.5387 19.7735L15.3008 18.9491ZM19.5989 35.1921L15.0879 19.5877L15.4385 19.8434L19.7231 34.663C19.7283 34.6808 19.7419 34.6954 19.7596 34.7016C19.7659 34.7037 19.7721 34.7048 19.7784 34.7048C19.7899 34.7048 19.8014 34.7016 19.8118 34.6943L27.9646 28.9854L28.2077 29.1628L19.5989 35.1921Z" fill="white"/>
<path d="M2.55238 24.9106C2.75899 25.4668 3.30369 25.8341 4.40249 25.8341C5.50441 25.8341 5.80702 25.5075 5.80702 25.1391C5.80702 24.704 5.45015 24.4901 3.82022 24.2761C0.714791 23.8567 0.283829 22.7589 0.283829 21.8093C0.283829 20.6291 1.22088 19.3008 4.04874 19.3008C6.92564 19.3008 7.93366 20.5978 8.05157 21.7165H5.5138C5.40111 21.3491 5.10997 20.9318 3.95691 20.9318C2.98229 20.9318 2.81012 21.2876 2.81012 21.5631C2.81012 21.8865 3.07099 22.0838 4.58823 22.2987C7.89713 22.7766 8.33331 23.84 8.33331 24.9221C8.33331 26.3443 7.2053 27.5193 4.23135 27.5193C2.00246 27.5193 0.256699 26.6198 0 24.9127H2.55238V24.9106Z" fill="white"/>
<path d="M8.50867 19.5098H9.96955V17.9185H12.5605V19.5098H14.4472V21.3004H12.5605V24.5853C12.5605 25.249 12.7056 25.5537 13.4955 25.5537C13.7178 25.5537 13.9693 25.5516 14.1926 25.5046V27.1951C13.7522 27.3161 13.1595 27.3694 12.5585 27.3694C10.5518 27.3694 9.96955 26.5366 9.96955 25.0163V21.3015H8.50867V19.5098Z" fill="white"/>
<path d="M23.4639 25.1215C23.4639 26.1347 23.5109 27.1386 23.5286 27.3066H21.0941C21.0315 27.1208 21.0138 26.645 20.9992 26.4259C20.5609 27.1 19.6228 27.5174 18.091 27.5174C15.8621 27.5174 14.9626 26.2182 14.9626 24.9723C14.9626 22.925 16.8357 22.3573 19.2378 22.3573H20.9449V22.1121C20.9449 21.4808 20.658 20.9705 19.4621 20.9705C18.3487 20.9705 18.1035 21.3702 17.9971 21.8157H15.4207C15.4895 20.8547 16.1991 19.2988 19.4225 19.2988C22.9609 19.2988 23.4639 20.8933 23.4639 22.1966V25.1215ZM20.9439 23.9163C20.7571 23.9027 20.1946 23.9027 19.2826 23.9027C17.9731 23.9027 17.4576 24.2324 17.4576 24.8471C17.4576 25.3542 17.8854 25.7643 18.8204 25.7643C20.2333 25.7643 20.9439 25.1455 20.9439 24.0363V23.9163Z" fill="white"/>
<path d="M24.0441 19.5098H25.506V17.9185H28.097V19.5098H29.9836V21.3004H28.097V24.5853C28.097 25.249 28.242 25.5537 29.032 25.5537C29.2542 25.5537 29.5057 25.5516 29.729 25.5046V27.1951C29.2886 27.3161 28.6959 27.3694 28.0949 27.3694C26.0893 27.3694 25.507 26.5366 25.507 25.0163V21.3015H24.0451V19.5098H24.0441Z" fill="white"/>
<path d="M33.5492 19.5098H30.9728V27.3057H33.5492V19.5098Z" fill="white"/>
<path d="M43.7015 23.4018C43.7015 25.8018 41.9682 27.5173 38.9431 27.5173C35.9087 27.5173 34.357 25.5649 34.357 23.4039C34.357 21.2657 35.964 19.2998 39.0485 19.2998C42.2228 19.2988 43.7015 21.4671 43.7015 23.4018ZM36.9782 23.4028C36.9782 24.6153 37.6816 25.6567 39.0297 25.6567C40.4176 25.6567 41.052 24.631 41.052 23.4425C41.052 22.2654 40.4405 21.1583 39.011 21.1583C37.6127 21.1593 36.9782 22.2007 36.9782 23.4028Z" fill="white"/>
<path d="M44.5237 21.4776C44.5237 20.817 44.5237 20.0699 44.5081 19.5106H47.026C47.0573 19.7308 47.0876 20.2024 47.1011 20.5176C47.4737 19.9781 48.2187 19.2998 49.8059 19.2998C51.8114 19.2998 53 20.4883 53 22.4981V27.3065H50.3954V22.8915C50.3954 21.9993 50.0344 21.2146 48.8761 21.2146C47.674 21.2146 47.1147 22.0118 47.1147 23.4174V27.3065H44.5237V21.4776Z" fill="white"/>
</svg>
