<svg viewBox="0 0 391 284" fill="none" xmlns="http://www.w3.org/2000/svg">
    <mask id="mask0" mask-type="alpha" maskUnits="userSpaceOnUse" x="0" y="0" width="391" height="284">
    <rect width="391" height="284" fill="#C4C4C4"/>
    </mask>
    <g mask="url(#mask0)">
    <path opacity="0.5" d="M16.35 10.2778C16.3623 10.1383 16.4437 10.0123 16.5668 9.93969L317.091 -164.585C317.253 -164.68 317.456 -164.661 317.6 -164.537L377.837 -112.528C377.979 -112.405 378.027 -112.206 377.958 -112.034L376.872 -109.355L378.949 -107.562C379.091 -107.439 379.139 -107.24 379.069 -107.068L377.984 -104.389L380.059 -102.596C380.2 -102.473 380.251 -102.276 380.179 -102.102L379.094 -99.4233L381.171 -97.6302C381.312 -97.5068 381.36 -97.3077 381.291 -97.1356L380.205 -94.4572L382.282 -92.6641C382.424 -92.5407 382.472 -92.3416 382.403 -92.1695L381.317 -89.4911L383.394 -87.698C383.536 -87.5746 383.584 -87.3776 383.514 -87.2034L382.429 -84.525L384.506 -82.7319C384.647 -82.6085 384.695 -82.4094 384.626 -82.2373L383.541 -79.5589L385.616 -77.766C385.757 -77.6426 385.805 -77.4435 385.736 -77.2714L384.65 -74.593L386.727 -72.7999C386.869 -72.6765 386.917 -72.4774 386.848 -72.3053L385.762 -69.6269L387.839 -67.8338C387.981 -67.7104 388.029 -67.5134 387.959 -67.3392L386.874 -64.6608L388.949 -62.8679C389.09 -62.7445 389.138 -62.5454 389.069 -62.3733L387.984 -59.6949L390.059 -57.902C390.2 -57.7786 390.248 -57.5795 390.179 -57.4074L389.093 -54.729L391.17 -52.9359C391.312 -52.8125 391.36 -52.6134 391.29 -52.4413L260.973 269.047C260.921 269.178 260.806 269.275 260.668 269.308C260.619 269.32 260.57 269.323 260.519 269.318C260.43 269.309 260.346 269.273 260.277 269.212L209.783 225.631C209.642 225.508 209.593 225.311 209.663 225.136L210.748 222.458L208.673 220.665C208.532 220.542 208.484 220.345 208.553 220.171L209.639 217.492L207.564 215.699C207.422 215.576 207.374 215.379 207.443 215.205L208.529 212.526L206.452 210.733C206.311 210.61 206.262 210.413 206.332 210.239L207.417 207.56L205.342 205.767C205.201 205.644 205.153 205.447 205.222 205.273L206.307 202.594L204.233 200.801C204.091 200.678 204.043 200.481 204.112 200.307L205.198 197.628L203.123 195.835C202.982 195.712 202.931 195.515 203.003 195.341L204.088 192.662L202.013 190.87C201.872 190.746 201.824 190.549 201.893 190.375L202.979 187.697L200.904 185.904C200.762 185.78 200.714 185.583 200.783 185.409L201.869 182.731L199.792 180.938C199.65 180.814 199.602 180.617 199.672 180.443L200.757 177.765L198.682 175.972C198.541 175.848 198.493 175.651 198.562 175.477L199.647 172.799L197.573 171.006C197.431 170.882 197.383 170.685 197.452 170.511L198.538 167.833L196.463 166.04C196.322 165.916 196.273 165.72 196.343 165.545L213.269 123.79L153.133 71.8687L80.799 113.876C80.6374 113.97 80.4317 113.951 80.2904 113.828L29.8133 70.2443C29.7051 70.152 29.6508 70.0141 29.6633 69.8725C29.6755 69.7329 29.757 69.6069 29.8799 69.5364L32.1247 68.2321L28.7036 65.2784C28.5976 65.1864 28.5412 65.0482 28.5537 64.9066C28.5659 64.7671 28.6474 64.6411 28.7705 64.5684L31.0153 63.2641L27.5942 60.3103C27.486 60.2181 27.4317 60.0803 27.4442 59.9386C27.4567 59.797 27.5379 59.6731 27.661 59.6004L29.9058 58.2961L26.4847 55.3424C26.3787 55.2503 26.3223 55.1123 26.3348 54.9706C26.3473 54.829 26.4285 54.7051 26.5495 54.6322L28.7943 53.3279L25.3732 50.3741C25.265 50.2819 25.2107 50.144 25.2232 50.0024C25.2355 49.8629 25.317 49.7369 25.44 49.6642L27.6848 48.3598L24.2637 45.4061C24.1555 45.3139 24.1013 45.176 24.1138 45.0344C24.1261 44.8948 24.2075 44.7689 24.3285 44.696L26.5733 43.3916L23.1522 40.4379C23.0461 40.3459 22.9897 40.2078 23.0022 40.0662C23.0147 39.9245 23.0959 39.8006 23.2169 39.7278L25.4617 38.4234L22.0407 35.4697C21.9325 35.3775 21.8782 35.2396 21.8907 35.0979C21.9032 34.9563 21.9844 34.8325 22.1075 34.7598L24.3523 33.4554L20.9312 30.5017C20.8251 30.4097 20.7687 30.2716 20.7812 30.13C20.7937 29.9883 20.875 29.8644 20.996 29.7916L23.2408 28.4872L19.8196 25.5335C19.7115 25.4412 19.6572 25.3034 19.6697 25.1617C19.6822 25.0201 19.7634 24.8962 19.8865 24.8236L22.1313 23.5192L18.7103 20.5655C18.6042 20.4735 18.5478 20.3354 18.5603 20.1937C18.5725 20.0542 18.654 19.9282 18.7768 19.8577L21.0217 18.5533L17.6005 15.5996C17.4945 15.5076 17.4381 15.3695 17.4506 15.2279C17.4631 15.0862 17.5444 14.9623 17.6672 14.8918L19.912 13.5875L16.4909 10.6337C16.3918 10.5574 16.3375 10.4195 16.35 10.2778ZM376.523 -108.497L375.667 -106.386L377.278 -104.995L378.134 -107.107L376.523 -108.497ZM236.412 122.964L235.326 125.642L237.403 127.436C237.545 127.559 237.593 127.756 237.524 127.93L236.438 130.609L238.513 132.401C238.654 132.525 238.702 132.722 238.633 132.896L237.548 135.574L239.623 137.367C239.764 137.491 239.812 137.688 239.743 137.862L238.657 140.54L240.734 142.333C240.876 142.457 240.924 142.654 240.855 142.828L239.769 145.506L241.844 147.299C241.985 147.423 242.034 147.62 241.964 147.794L225.038 189.547L247.056 208.558L362.584 -76.446L330.58 -104.079L64.159 50.6419L67.3168 53.368L139.651 11.3606C139.813 11.2664 140.018 11.2855 140.16 11.4089L228.526 87.7063C228.668 87.8297 228.718 88.029 228.646 88.2009L227.561 90.8794L229.636 92.6722C229.777 92.7956 229.825 92.9947 229.756 93.1667L228.671 95.8452L230.748 97.6383C230.889 97.7617 230.937 97.9608 230.868 98.1329L229.782 100.811L231.857 102.604C231.999 102.728 232.047 102.927 231.978 103.099L230.892 105.777L232.967 107.57C233.108 107.694 233.156 107.893 233.087 108.065L232.002 110.743L234.077 112.536C234.218 112.659 234.266 112.856 234.197 113.031L233.111 115.709L235.186 117.502C235.328 117.625 235.376 117.822 235.307 117.996L234.221 120.675L236.296 122.468C236.435 122.591 236.483 122.79 236.412 122.964ZM233.869 121.532L233.014 123.644L234.625 125.035L235.481 122.923L233.869 121.532ZM233.515 120.071L234.371 117.96L232.759 116.569L231.904 118.68L233.515 120.071ZM232.405 115.105L233.261 112.994L231.65 111.603L230.794 113.714L232.405 115.105ZM231.296 110.137L232.152 108.026L230.54 106.635L229.685 108.746L231.296 110.137ZM230.186 105.171L231.042 103.06L229.431 101.669L228.575 103.78L230.186 105.171ZM229.077 100.205L229.932 98.0939L228.321 96.703L227.465 98.8142L229.077 100.205ZM227.967 95.2393L228.823 93.128L227.211 91.7372L226.356 93.8484L227.967 95.2393ZM226.857 90.2734L227.713 88.1621L139.82 12.2741L67.4858 54.2814C67.3241 54.3757 67.1185 54.3566 66.9769 54.2353L63.3553 51.1094L61.3814 52.2561L68.4242 58.3357L140.758 16.3284C140.92 16.2341 141.126 16.2532 141.267 16.3766L226.857 90.2734ZM330.409 -104.992C330.571 -105.087 330.776 -105.068 330.918 -104.944L362.932 -77.3041L363.787 -79.4153L329.47 -109.045L60.2743 47.2862L63.4577 50.0341L330.409 -104.992ZM363.286 -75.8403L247.64 209.455C247.588 209.586 247.473 209.683 247.337 209.716C247.289 209.728 247.237 209.731 247.188 209.726C247.099 209.717 247.015 209.68 246.947 209.62L224.691 190.403L223.836 192.514L248.168 213.522L364.897 -74.4494L363.286 -75.8403ZM224.335 188.941L241.031 147.755L239.42 146.364L222.724 187.55L224.335 188.941ZM239.921 142.789L238.31 141.398L237.454 143.51L239.066 144.9L239.921 142.789ZM237.954 139.934L238.809 137.823L237.198 136.432L236.342 138.543L237.954 139.934ZM236.844 134.968L237.7 132.857L236.088 131.466L235.233 133.578L236.844 134.968ZM235.734 130.003L236.59 127.891L234.979 126.5L234.123 128.612L235.734 130.003ZM233.776 129.468L232.92 131.579L234.531 132.97L235.387 130.858L233.776 129.468ZM233.422 128.006L234.277 125.895L232.666 124.504L231.81 126.615L233.422 128.006ZM232.312 123.038L233.168 120.927L231.556 119.536L230.701 121.647L232.312 123.038ZM231.203 118.072L232.058 115.961L230.447 114.57L229.591 116.681L231.203 118.072ZM230.093 113.106L230.949 110.995L229.337 109.604L228.482 111.715L230.093 113.106ZM228.983 108.14L229.839 106.029L228.228 104.638L227.372 106.749L228.983 108.14ZM227.874 103.174L228.729 101.063L227.118 99.6723L226.262 101.783L227.874 103.174ZM226.764 98.2085L227.62 96.0973L226.008 94.7064L225.153 96.8176L226.764 98.2085ZM225.654 93.2426L226.51 91.1314L140.932 17.2402L68.5975 59.2475C68.4359 59.3418 68.2323 59.3229 68.0889 59.1993L60.5826 52.7176L58.6087 53.8644L69.5361 63.2997L141.87 21.2924C142.032 21.1981 142.238 21.2172 142.379 21.3406L225.654 93.2426ZM62.654 50.5015L59.4706 47.7537L57.4967 48.9004L60.6801 51.6482L62.654 50.5015ZM329.299 -109.958C329.461 -110.053 329.667 -110.033 329.808 -109.91L364.135 -80.2733L364.991 -82.3845L328.361 -114.011L56.3894 43.9326L59.5728 46.6805L329.299 -109.958ZM364.489 -78.8095L363.633 -76.6983L365.245 -75.3074L366.1 -77.4186L364.489 -78.8095ZM365.599 -73.8437L248.75 214.421C248.698 214.552 248.583 214.649 248.447 214.682C248.398 214.694 248.347 214.697 248.298 214.692C248.209 214.683 248.125 214.646 248.056 214.586L223.488 193.372L222.632 195.483L249.278 218.49L367.21 -72.4506L365.599 -73.8437ZM223.132 191.91L223.987 189.799L222.376 188.408L221.52 190.519L223.132 191.91ZM222.022 186.944L238.718 145.758L237.107 144.368L220.411 185.553L222.022 186.944ZM237.606 140.792L235.995 139.401L235.139 141.513L236.751 142.904L237.606 140.792ZM235.641 137.938L236.497 135.826L234.885 134.436L234.03 136.547L235.641 137.938ZM233.682 137.403L232.827 139.514L234.438 140.905L235.294 138.794L233.682 137.403ZM233.328 135.939L234.184 133.828L232.573 132.437L231.717 134.548L233.328 135.939ZM232.219 130.973L233.074 128.862L231.463 127.471L230.607 129.582L232.219 130.973ZM231.109 126.007L231.965 123.896L230.353 122.505L229.498 124.616L231.109 126.007ZM229.999 121.041L230.855 118.93L229.244 117.539L228.388 119.65L229.999 121.041ZM228.89 116.075L229.745 113.964L228.134 112.573L227.278 114.685L228.89 116.075ZM227.78 111.109L228.636 108.998L227.024 107.607L226.169 109.719L227.78 111.109ZM226.67 106.144L227.526 104.032L225.915 102.641L225.059 104.753L226.67 106.144ZM225.561 101.178L226.416 99.0665L224.805 97.6756L223.949 99.7868L225.561 101.178ZM224.451 96.2119L225.307 94.1006L142.042 22.2061L69.7072 64.2134C69.5455 64.3077 69.3399 64.2886 69.1983 64.1673L57.8071 54.332L55.8333 55.4787L70.6456 68.2677L142.98 26.2604C143.142 26.1661 143.347 26.1852 143.489 26.3086L224.451 96.2119ZM59.879 52.1117L56.6956 49.3639L54.7217 50.5105L57.9051 53.2584L59.879 52.1117ZM58.7693 47.1458L55.5859 44.3979L53.6121 45.5446L56.7954 48.2925L58.7693 47.1458ZM328.19 -114.924C328.351 -115.018 328.557 -114.999 328.698 -114.876L365.338 -83.2404L366.194 -85.3517L327.251 -118.976L52.5024 40.5788L55.6858 43.3266L328.19 -114.924ZM365.692 -81.7788L364.836 -79.6676L366.448 -78.2767L367.304 -80.3879L365.692 -81.7788ZM366.802 -76.8129L365.946 -74.7017L367.557 -73.3108L368.413 -75.422L366.802 -76.8129ZM367.911 -71.8449L249.857 219.388C249.805 219.52 249.69 219.616 249.554 219.649C249.506 219.661 249.454 219.665 249.405 219.66C249.316 219.65 249.232 219.614 249.164 219.554L222.282 196.343L221.427 198.454L250.385 223.458L369.523 -70.454L367.911 -71.8449ZM221.928 194.879L222.784 192.768L221.173 191.377L220.317 193.488L221.928 194.879ZM220.819 189.913L221.675 187.802L220.063 186.411L219.207 188.523L220.819 189.913ZM219.709 184.948L236.405 143.762L234.794 142.371L218.098 183.557L219.709 184.948ZM217.748 184.412L216.893 186.524L218.504 187.914L219.36 185.803L217.748 184.412ZM217.394 182.951L234.09 141.765L232.479 140.374L215.783 181.56L217.394 182.951ZM232.981 136.797L231.369 135.406L230.514 137.517L232.125 138.908L232.981 136.797ZM231.015 133.942L231.871 131.831L230.26 130.44L229.404 132.551L231.015 133.942ZM229.906 128.976L230.761 126.865L229.15 125.474L228.294 127.585L229.906 128.976ZM228.796 124.011L229.652 121.899L228.04 120.508L227.185 122.62L228.796 124.011ZM227.686 119.045L228.542 116.933L226.931 115.542L226.075 117.654L227.686 119.045ZM226.577 114.079L227.433 111.968L225.821 110.577L224.965 112.688L226.577 114.079ZM225.467 109.113L226.323 107.002L224.711 105.611L223.856 107.722L225.467 109.113ZM224.358 104.147L225.213 102.036L223.602 100.645L222.746 102.756L224.358 104.147ZM223.248 99.1811L224.104 97.0699L143.151 27.1741L70.8166 69.1814C70.6549 69.2757 70.4514 69.2568 70.308 69.1332L55.0319 55.9443L53.058 57.091L71.7552 73.2336L144.09 31.2263C144.251 31.132 144.457 31.1511 144.598 31.2745L223.248 99.1811ZM57.1037 53.724L53.9203 50.9761L51.9465 52.1228L55.1299 54.8707L57.1037 53.724ZM55.9941 48.7581L52.8107 46.0102L50.8368 47.1569L54.0202 49.9048L55.9941 48.7581ZM54.8844 43.7922L51.701 41.0443L49.7272 42.191L52.9106 44.9389L54.8844 43.7922ZM327.08 -119.89C327.242 -119.984 327.447 -119.965 327.589 -119.842L366.541 -86.2097L367.397 -88.3209L326.141 -123.942L48.6175 37.2252L51.8009 39.973L327.08 -119.89ZM366.895 -84.7459L366.039 -82.6347L367.651 -81.2438L368.506 -83.355L366.895 -84.7459ZM368.005 -79.78L367.149 -77.6688L368.76 -76.2779L369.616 -78.3891L368.005 -79.78ZM369.114 -74.8141L368.259 -72.7029L369.87 -71.312L370.726 -73.4232L369.114 -74.8141ZM370.224 -69.8482L250.967 224.354C250.915 224.485 250.8 224.582 250.664 224.615C250.615 224.627 250.566 224.631 250.515 224.625C250.426 224.616 250.342 224.58 250.273 224.519L221.077 199.312L220.221 201.423L251.493 228.424L371.835 -68.4573L370.224 -69.8482ZM220.723 197.848L221.579 195.737L219.968 194.346L219.112 196.457L220.723 197.848ZM219.614 192.882L220.469 190.771L218.858 189.38L218.002 191.492L219.614 192.882ZM217.655 192.348L216.799 194.459L218.411 195.85L219.266 193.738L217.655 192.348ZM217.301 190.886L218.156 188.775L216.545 187.384L215.689 189.495L217.301 190.886ZM216.191 185.918L217.047 183.807L215.436 182.416L214.58 184.527L216.191 185.918ZM215.082 180.952L231.778 139.766L230.166 138.375L213.47 179.561L215.082 180.952ZM230.668 134.8L229.057 133.409L228.201 135.521L229.812 136.911L230.668 134.8ZM228.703 131.946L229.558 129.834L227.947 128.444L227.091 130.555L228.703 131.946ZM227.593 126.98L228.449 124.869L226.837 123.478L225.982 125.589L227.593 126.98ZM226.483 122.014L227.339 119.903L225.728 118.512L224.872 120.623L226.483 122.014ZM225.374 117.048L226.229 114.937L224.618 113.546L223.762 115.657L225.374 117.048ZM224.264 112.082L225.12 109.971L223.508 108.58L222.653 110.691L224.264 112.082ZM223.152 107.116L224.008 105.005L222.397 103.614L221.541 105.725L223.152 107.116ZM222.045 102.148L222.901 100.037L144.261 32.1378L71.9265 74.1452C71.7648 74.2395 71.5613 74.2206 71.4178 74.097L52.2571 57.5524L50.2832 58.6991L72.8651 78.1974L145.199 36.19C145.361 36.0958 145.567 36.1149 145.708 36.2383L222.045 102.148ZM54.3285 55.3363L51.1451 52.5884L49.1713 53.7351L52.3546 56.4829L54.3285 55.3363ZM53.2188 50.3704L50.0354 47.6225L48.0616 48.7692L51.245 51.517L53.2188 50.3704ZM52.1092 45.4045L48.9258 42.6566L46.952 43.8033L50.1353 46.5512L52.1092 45.4045ZM50.9995 40.4386L47.8161 37.6907L45.8423 38.8374L49.0257 41.5853L50.9995 40.4386ZM325.97 -124.856C326.132 -124.95 326.338 -124.931 326.479 -124.808L367.744 -89.1789L368.6 -91.2901L325.03 -128.908L44.7329 33.8694L47.9162 36.6173L325.97 -124.856ZM368.098 -87.7151L367.243 -85.6039L368.854 -84.213L369.71 -86.3242L368.098 -87.7151ZM369.208 -82.7493L368.352 -80.638L369.964 -79.2471L370.819 -81.3584L369.208 -82.7493ZM370.318 -77.7834L369.462 -75.6722L371.073 -74.2813L371.929 -76.3925L370.318 -77.7834ZM371.427 -72.8175L370.572 -70.7063L372.183 -69.3154L373.039 -71.4266L371.427 -72.8175ZM372.537 -67.8516L252.076 229.32C252.024 229.451 251.909 229.548 251.771 229.581C251.723 229.593 251.673 229.596 251.623 229.591C251.534 229.582 251.45 229.546 251.381 229.485L219.872 202.279L219.016 204.39L252.6 233.387L374.15 -66.4605L372.537 -67.8516ZM219.52 200.818L220.376 198.706L218.764 197.315L217.909 199.427L219.52 200.818ZM217.561 200.283L216.706 202.394L218.317 203.785L219.173 201.674L217.561 200.283ZM217.207 198.821L218.063 196.71L216.451 195.319L215.596 197.43L217.207 198.821ZM216.097 193.855L216.953 191.744L215.342 190.353L214.486 192.464L216.097 193.855ZM214.988 188.887L215.844 186.776L214.232 185.385L213.377 187.496L214.988 188.887ZM213.878 183.921L214.734 181.81L213.123 180.419L212.267 182.53L213.878 183.921ZM212.769 178.955L229.465 137.77L227.853 136.379L211.157 177.564L212.769 178.955ZM228.355 132.804L226.744 131.413L225.888 133.524L227.499 134.915L228.355 132.804ZM226.39 129.949L227.245 127.838L225.634 126.447L224.778 128.558L226.39 129.949ZM225.278 124.983L226.134 122.872L224.522 121.481L223.667 123.592L225.278 124.983ZM224.169 120.015L225.024 117.904L223.413 116.513L222.557 118.624L224.169 120.015ZM223.059 115.049L223.915 112.938L222.303 111.547L221.448 113.658L223.059 115.049ZM221.949 110.083L222.805 107.972L221.194 106.581L220.338 108.692L221.949 110.083ZM220.84 105.117L221.695 103.006L145.368 37.1035L73.0341 79.1109C72.8724 79.2051 72.6688 79.1863 72.5253 79.0626L49.4797 59.1644L47.5059 60.3111L73.9726 83.1631L146.307 41.1557C146.469 41.0615 146.674 41.0805 146.816 41.2039L220.84 105.117ZM51.5533 56.9485L48.3699 54.2007L46.396 55.3474L49.5794 58.0952L51.5533 56.9485ZM50.4438 51.9805L47.2604 49.2327L45.2866 50.3794L48.47 53.1272L50.4438 51.9805ZM49.3339 47.0167L46.1506 44.2689L44.1767 45.4156L47.3601 48.1634L49.3339 47.0167ZM48.2245 42.0488L45.0411 39.3009L43.0673 40.4476L46.2507 43.1954L48.2245 42.0488ZM47.1148 37.0829L43.9315 34.335L41.9576 35.4817L45.141 38.2296L47.1148 37.0829ZM324.861 -129.824C325.023 -129.918 325.226 -129.899 325.37 -129.776L368.948 -92.1482L369.803 -94.2594L323.92 -133.876L40.8461 30.5135L44.0295 33.2614L324.861 -129.824ZM369.302 -90.6844L368.446 -88.5732L370.057 -87.1823L370.913 -89.2935L369.302 -90.6844ZM370.411 -85.7185L369.556 -83.6073L371.167 -82.2164L372.023 -84.3276L370.411 -85.7185ZM371.521 -80.7526L370.665 -78.6414L372.277 -77.2505L373.132 -79.3617L371.521 -80.7526ZM372.63 -75.7867L371.775 -73.6755L373.386 -72.2846L374.242 -74.3958L372.63 -75.7867ZM373.74 -70.8208L372.884 -68.7096L374.496 -67.3187L375.351 -69.4299L373.74 -70.8208ZM374.852 -65.8547L253.188 234.286C253.136 234.417 253.021 234.514 252.885 234.547C252.837 234.559 252.785 234.562 252.736 234.557C252.648 234.548 252.564 234.512 252.495 234.451L218.673 205.249L217.817 207.36L253.712 238.355L376.463 -64.4617L374.852 -65.8547ZM376.811 -65.3197L377.666 -67.431L376.055 -68.8219L375.199 -66.7106L376.811 -65.3197ZM377.165 -63.856L254.298 239.252C254.246 239.383 254.131 239.48 253.993 239.513C253.944 239.525 253.895 239.528 253.844 239.523C253.755 239.514 253.671 239.478 253.602 239.417L217.468 208.218L216.612 210.329L254.824 243.321L378.776 -62.4651L377.165 -63.856ZM217.114 206.756L217.969 204.645L216.358 203.254L215.502 205.365L217.114 206.756ZM216.004 201.788L216.86 199.677L215.248 198.286L214.393 200.397L216.004 201.788ZM214.895 196.822L215.75 194.711L214.139 193.32L213.283 195.431L214.895 196.822ZM213.785 191.856L214.641 189.745L213.029 188.354L212.174 190.465L213.785 191.856ZM212.675 186.89L213.531 184.779L211.92 183.388L211.064 185.5L212.675 186.89ZM211.566 181.925L212.421 179.813L210.81 178.422L209.954 180.534L211.566 181.925ZM210.456 176.959L227.152 135.773L225.541 134.382L208.845 175.568L210.456 176.959ZM226.042 130.805L224.431 129.414L223.575 131.525L225.187 132.916L226.042 130.805ZM224.075 127.95L224.931 125.839L223.319 124.448L222.464 126.559L224.075 127.95ZM222.965 122.984L223.821 120.873L222.21 119.482L221.354 121.593L222.965 122.984ZM221.856 118.018L222.711 115.907L221.1 114.516L220.244 116.627L221.856 118.018ZM220.746 113.052L221.602 110.941L219.99 109.55L219.135 111.661L220.746 113.052ZM219.636 108.086L220.492 105.975L146.478 42.0694L74.1436 84.0767C73.982 84.171 73.7785 84.1521 73.635 84.0285L46.7045 60.7767L44.7307 61.9234L75.0823 88.129L147.417 46.1216C147.578 46.0274 147.784 46.0464 147.925 46.1698L219.636 108.086ZM48.7782 58.5587L45.5949 55.8108L43.621 56.9575L46.8044 59.7054L48.7782 58.5587ZM47.6686 53.5928L44.4852 50.8449L42.5114 51.9916L45.6947 54.7395L47.6686 53.5928ZM46.5589 48.6269L43.3755 45.879L41.4017 47.0258L44.5851 49.7736L46.5589 48.6269ZM45.4493 43.661L42.2659 40.9131L40.2921 42.0599L43.4754 44.8077L45.4493 43.661ZM44.3396 38.6951L41.1562 35.9473L39.1824 37.094L42.3658 39.8418L44.3396 38.6951ZM43.23 33.7292L40.0466 30.9814L38.0727 32.1281L41.2561 34.876L43.23 33.7292ZM323.751 -134.79C323.913 -134.884 324.117 -134.865 324.26 -134.742L370.153 -95.1172L371.009 -97.2284L322.813 -138.842L36.9633 27.1601L40.1467 29.908L323.751 -134.79ZM370.505 -93.6536L369.649 -91.5424L371.26 -90.1515L372.116 -92.2627L370.505 -93.6536ZM371.616 -88.6875L370.761 -86.5763L372.372 -85.1854L373.228 -87.2966L371.616 -88.6875ZM372.726 -83.7216L371.87 -81.6104L373.482 -80.2195L374.337 -82.3307L372.726 -83.7216ZM373.836 -78.7557L372.98 -76.6445L374.591 -75.2536L375.447 -77.3648L373.836 -78.7557ZM374.945 -73.7899L374.09 -71.6786L375.701 -70.2877L376.557 -72.399L374.945 -73.7899ZM376.904 -73.2549L377.76 -75.3661L376.148 -76.757L375.293 -74.6458L376.904 -73.2549ZM377.258 -71.7911L376.402 -69.6799L378.014 -68.289L378.869 -70.4002L377.258 -71.7911ZM378.368 -66.8252L377.512 -64.714L379.123 -63.3231L379.979 -65.4343L378.368 -66.8252ZM379.477 -61.8593L255.407 244.218C255.355 244.349 255.241 244.446 255.102 244.479C255.054 244.491 255.004 244.494 254.954 244.489C254.865 244.48 254.781 244.443 254.712 244.383L216.265 211.185L215.409 213.296L255.934 248.285L381.089 -60.4684L379.477 -61.8593ZM215.911 209.723L216.766 207.612L215.155 206.221L214.299 208.332L215.911 209.723ZM214.801 204.757L215.657 202.646L214.045 201.255L213.19 203.366L214.801 204.757ZM213.691 199.791L214.547 197.68L212.936 196.289L212.08 198.401L213.691 199.791ZM212.582 194.826L213.437 192.714L211.826 191.323L210.97 193.435L212.582 194.826ZM211.472 189.86L212.328 187.748L210.716 186.358L209.861 188.469L211.472 189.86ZM210.362 184.894L211.218 182.783L209.607 181.392L208.751 183.503L210.362 184.894ZM209.253 179.928L210.108 177.817L208.497 176.426L207.641 178.537L209.253 179.928ZM208.143 174.962L224.839 133.776L223.228 132.385L206.531 173.573L208.143 174.962ZM223.727 128.808L222.116 127.417L221.26 129.528L222.872 130.919L223.727 128.808ZM221.762 125.953L222.618 123.842L221.006 122.451L220.151 124.562L221.762 125.953ZM220.652 120.987L221.508 118.876L219.897 117.485L219.041 119.597L220.652 120.987ZM219.543 116.022L220.399 113.91L218.787 112.519L217.931 114.631L219.543 116.022ZM218.433 111.056L219.289 108.945L147.59 47.0355L75.2555 89.0428C75.0938 89.1371 74.8903 89.1182 74.7468 88.9946L43.9316 62.3871L41.9577 63.5338L76.194 93.0951L148.528 51.0877C148.69 50.9935 148.896 51.0126 149.037 51.1359L218.433 111.056ZM46.003 60.1709L42.8196 57.4231L40.8457 58.5698L44.0291 61.3177L46.003 60.1709ZM44.8934 55.2051L41.71 52.4572L39.7361 53.6039L42.9195 56.3518L44.8934 55.2051ZM43.7837 50.2391L40.6003 47.4913L38.6265 48.638L41.8098 51.3859L43.7837 50.2391ZM42.674 45.2733L39.4907 42.5254L37.5168 43.6721L40.7002 46.42L42.674 45.2733ZM41.5644 40.3074L38.381 37.5596L36.4072 38.7062L39.5906 41.4541L41.5644 40.3074ZM40.4547 35.3415L37.2714 32.5937L35.2975 33.7404L38.4809 36.4882L40.4547 35.3415ZM39.3451 30.3756L36.1617 27.6278L34.1878 28.7745L37.3712 31.5223L39.3451 30.3756ZM322.642 -139.756C322.803 -139.85 323.009 -139.831 323.15 -139.708L371.356 -98.0864L372.212 -100.198L321.703 -143.808L33.0784 23.8065L36.2618 26.5543L322.642 -139.756ZM371.71 -96.6226L370.854 -94.5114L372.466 -93.1205L373.321 -95.2317L371.71 -96.6226ZM372.82 -91.6568L371.964 -89.5455L373.575 -88.1546L374.431 -90.2659L372.82 -91.6568ZM373.929 -86.6909L373.074 -84.5796L374.685 -83.1887L375.541 -85.3L373.929 -86.6909ZM375.039 -81.7229L374.183 -79.6117L375.794 -78.2208L376.65 -80.332L375.039 -81.7229ZM376.998 -81.19L377.853 -83.3012L376.242 -84.6921L375.386 -82.5809L376.998 -81.19ZM377.352 -79.7262L376.496 -77.615L378.107 -76.2241L378.963 -78.3353L377.352 -79.7262ZM378.461 -74.7603L377.606 -72.6491L379.217 -71.2582L380.073 -73.3694L378.461 -74.7603ZM379.571 -69.7944L378.715 -67.6832L380.327 -66.2923L381.182 -68.4036L379.571 -69.7944ZM380.681 -64.8285L379.825 -62.7173L381.436 -61.3264L382.292 -63.4377L380.681 -64.8285ZM381.79 -59.8627L256.517 249.184C256.465 249.315 256.35 249.412 256.214 249.445C256.166 249.457 256.114 249.46 256.065 249.455C255.976 249.446 255.892 249.41 255.824 249.349L215.064 214.154L214.208 216.266L257.045 253.251L383.402 -58.4718L381.79 -59.8627ZM214.707 212.692L215.563 210.581L213.952 209.19L213.096 211.302L214.707 212.692ZM213.598 207.727L214.453 205.615L212.842 204.224L211.986 206.336L213.598 207.727ZM212.488 202.761L213.344 200.649L211.732 199.259L210.877 201.37L212.488 202.761ZM211.378 197.795L212.234 195.684L210.623 194.293L209.767 196.404L211.378 197.795ZM210.269 192.829L211.124 190.718L209.513 189.327L208.657 191.438L210.269 192.829ZM209.159 187.863L210.015 185.752L208.404 184.361L207.548 186.472L209.159 187.863ZM208.049 182.897L208.905 180.786L207.294 179.395L206.438 181.506L208.049 182.897ZM206.94 177.929L207.796 175.818L206.184 174.427L205.329 176.538L206.94 177.929ZM205.83 172.963L222.526 131.777L220.915 130.387L204.219 171.572L205.83 172.963ZM221.415 126.811L219.803 125.42L218.948 127.532L220.559 128.923L221.415 126.811ZM219.449 123.957L220.305 121.845L218.694 120.455L217.838 122.566L219.449 123.957ZM218.34 118.991L219.195 116.88L217.584 115.489L216.728 117.6L218.34 118.991ZM217.23 114.025L218.086 111.914L148.699 52.0035L76.3649 94.0109C76.2032 94.1051 75.9997 94.0862 75.8562 93.9626L41.1561 64.0015L39.1823 65.1482L77.3035 98.0631L149.638 56.0557C149.8 55.9615 150.005 55.9806 150.146 56.1039L217.23 114.025ZM43.2278 61.7832L40.0444 59.0354L38.0705 60.1821L41.2539 62.9299L43.2278 61.7832ZM42.1181 56.8173L38.9347 54.0695L36.9609 55.2161L40.1442 57.9641L42.1181 56.8173ZM41.0084 51.8514L37.8251 49.1036L35.8512 50.2503L39.0346 52.9981L41.0084 51.8514ZM39.8988 46.8856L36.7154 44.1377L34.7416 45.2844L37.9249 48.0323L39.8988 46.8856ZM38.7894 41.9176L35.606 39.1697L33.6321 40.3164L36.8155 43.0643L38.7894 41.9176ZM37.6797 36.9517L34.4963 34.2038L32.5225 35.3505L35.7059 38.0984L37.6797 36.9517ZM36.57 31.9858L33.3867 29.2379L31.4128 30.3846L34.5962 33.1325L36.57 31.9858ZM35.4604 27.0199L32.277 24.272L30.3032 25.4187L33.4866 28.1666L35.4604 27.0199ZM321.532 -144.722C321.694 -144.816 321.899 -144.797 322.041 -144.673L372.559 -101.054L373.415 -103.165L320.593 -148.774L29.1937 20.4508L32.3772 23.1986L321.532 -144.722ZM372.913 -99.5919L372.058 -97.4807L373.669 -96.0898L374.525 -98.201L372.913 -99.5919ZM374.023 -94.626L373.167 -92.5148L374.779 -91.1239L375.634 -93.2351L374.023 -94.626ZM375.132 -89.658L374.277 -87.5468L375.888 -86.1559L376.744 -88.2671L375.132 -89.658ZM377.091 -89.1251L377.947 -91.2363L376.336 -92.6272L375.48 -90.516L377.091 -89.1251ZM377.445 -87.6613L376.589 -85.5501L378.201 -84.1592L379.057 -86.2704L377.445 -87.6613ZM378.555 -82.6955L377.699 -80.5842L379.31 -79.1934L380.166 -81.3046L378.555 -82.6955ZM379.664 -77.7296L378.809 -75.6184L380.42 -74.2275L381.276 -76.3387L379.664 -77.7296ZM380.774 -72.7637L379.918 -70.6525L381.53 -69.2616L382.385 -71.3728L380.774 -72.7637ZM381.884 -67.7978L381.028 -65.6866L382.639 -64.2957L383.495 -66.4069L381.884 -67.7978ZM382.993 -62.8319L382.138 -60.7207L383.749 -59.3298L384.605 -61.441L382.993 -62.8319ZM384.103 -57.866L257.625 254.15C257.573 254.281 257.458 254.378 257.322 254.411C257.273 254.423 257.224 254.426 257.173 254.421C257.084 254.412 257 254.375 256.931 254.315L213.856 217.123L213.001 219.234L258.151 258.219L385.714 -56.473L384.103 -57.866ZM213.504 215.662L214.36 213.55L212.749 212.16L211.893 214.271L213.504 215.662ZM212.395 210.696L213.25 208.585L211.639 207.194L210.783 209.305L212.395 210.696ZM211.285 205.73L212.141 203.619L210.529 202.228L209.674 204.339L211.285 205.73ZM210.173 200.764L211.029 198.653L209.417 197.262L208.562 199.373L210.173 200.764ZM209.066 195.798L209.921 193.687L208.31 192.296L207.454 194.407L209.066 195.798ZM207.954 190.832L208.81 188.721L207.198 187.33L206.342 189.441L207.954 190.832ZM206.844 185.864L207.7 183.753L206.089 182.362L205.233 184.473L206.844 185.864ZM205.735 180.898L206.59 178.787L204.979 177.396L204.123 179.507L205.735 180.898ZM204.625 175.932L205.481 173.821L203.869 172.43L203.014 174.541L204.625 175.932ZM203.515 170.966L220.211 129.781L218.6 128.39L201.904 169.575L203.515 170.966ZM219.102 124.815L217.49 123.424L216.635 125.535L218.246 126.926L219.102 124.815ZM217.136 121.96L217.992 119.849L216.381 118.458L215.525 120.569L217.136 121.96ZM216.027 116.994L216.882 114.883L149.809 56.9694L77.4745 98.9768C77.3129 99.071 77.1073 99.0519 76.9659 98.9285L38.3809 65.6137L36.407 66.7604L78.4129 103.031L150.747 61.0237C150.909 60.9295 151.115 60.9485 151.256 61.0719L216.027 116.994ZM40.4525 63.3955L37.2691 60.6476L35.2953 61.7943L38.4787 64.5422L40.4525 63.3955ZM39.3431 58.4275L36.1597 55.6796L34.1858 56.8264L37.3692 59.5742L39.3431 58.4275ZM38.2335 53.4616L35.0501 50.7138L33.0762 51.8604L36.2596 54.6083L38.2335 53.4616ZM37.1238 48.4957L33.9404 45.7479L31.9665 46.8946L35.1499 49.6424L37.1238 48.4957ZM36.0141 43.5298L32.8308 40.782L30.8569 41.9287L34.0403 44.6765L36.0141 43.5298ZM34.9045 38.564L31.7211 35.8161L29.7472 36.9628L32.9306 39.7107L34.9045 38.564ZM33.7948 33.5981L30.6114 30.8502L28.6376 31.9969L31.8209 34.7448L33.7948 33.5981ZM32.6852 28.6322L29.5018 25.8843L27.5279 27.031L30.7114 29.7789L32.6852 28.6322ZM31.5755 23.6663L28.3921 20.9184L26.4183 22.0651L29.6017 24.813L31.5755 23.6663ZM320.422 -149.688C320.584 -149.782 320.788 -149.763 320.931 -149.639L373.762 -104.023L374.618 -106.134L319.484 -153.74L25.3088 17.0971L28.4922 19.845L320.422 -149.688ZM374.116 -102.559L373.261 -100.448L374.872 -99.0569L375.728 -101.168L374.116 -102.559ZM375.226 -97.5931L374.37 -95.4819L375.982 -94.091L376.837 -96.2022L375.226 -97.5931ZM377.185 -97.0603L378.04 -99.1715L376.429 -100.562L375.573 -98.4511L377.185 -97.0603ZM377.539 -95.5965L376.683 -93.4853L378.294 -92.0944L379.15 -94.2056L377.539 -95.5965ZM378.648 -90.6306L377.793 -88.5194L379.404 -87.1285L380.26 -89.2397L378.648 -90.6306ZM379.758 -85.6647L378.902 -83.5535L380.514 -82.1626L381.369 -84.2738L379.758 -85.6647ZM380.868 -80.6988L380.012 -78.5876L381.623 -77.1967L382.479 -79.3079L380.868 -80.6988ZM381.977 -75.7329L381.122 -73.6217L382.733 -72.2308L383.589 -74.342L381.977 -75.7329ZM383.087 -70.767L382.231 -68.6558L383.843 -67.2649L384.698 -69.3761L383.087 -70.767ZM384.197 -65.8011L383.341 -63.6899L384.952 -62.299L385.808 -64.4103L384.197 -65.8011ZM385.306 -60.8332L384.45 -58.7219L386.062 -57.331L386.917 -59.4423L385.306 -60.8332ZM386.416 -55.8673L258.734 259.118C258.682 259.249 258.567 259.346 258.429 259.378C258.381 259.39 258.331 259.394 258.28 259.389C258.191 259.379 258.107 259.343 258.039 259.283L212.651 220.094L211.795 222.205L259.262 263.187L388.027 -54.4764L386.416 -55.8673ZM212.299 218.631L213.155 216.52L211.543 215.129L210.688 217.24L212.299 218.631ZM211.189 213.665L212.045 211.554L210.434 210.163L209.578 212.274L211.189 213.665ZM210.08 208.699L210.935 206.588L209.324 205.197L208.468 207.308L210.08 208.699ZM208.97 203.733L209.826 201.622L208.214 200.231L207.359 202.342L208.97 203.733ZM207.86 198.767L208.716 196.656L207.105 195.265L206.249 197.376L207.86 198.767ZM206.751 193.799L207.607 191.688L205.995 190.297L205.14 192.408L206.751 193.799ZM205.641 188.833L206.497 186.722L204.886 185.331L204.03 187.442L205.641 188.833ZM204.532 183.867L205.387 181.756L203.776 180.365L202.92 182.476L204.532 183.867ZM203.422 178.901L204.278 176.79L202.666 175.399L201.811 177.511L203.422 178.901ZM202.312 173.936L203.168 171.824L201.557 170.433L200.701 172.545L202.312 173.936ZM201.203 168.97L217.899 127.784L216.287 126.393L199.591 167.581L201.203 168.97ZM216.789 122.816L215.178 121.425L214.322 123.536L215.933 124.927L216.789 122.816ZM214.824 119.961L215.679 117.85L150.919 61.9332L78.5844 103.941C78.4227 104.035 78.2192 104.016 78.0758 103.892L35.604 67.2216L33.6301 68.3683L79.5209 107.992L151.855 65.9851C152.017 65.8909 152.223 65.91 152.364 66.0334L214.824 119.961ZM37.6775 65.0057L34.4941 62.2578L32.5203 63.4045L35.7037 66.1524L37.6775 65.0057ZM36.5679 60.0398L33.3844 57.2919L31.4106 58.4386L34.594 61.1864L36.5679 60.0398ZM35.4582 55.0739L32.2748 52.326L30.301 53.4727L33.4843 56.2206L35.4582 55.0739ZM34.3485 50.108L31.1652 47.3601L29.1913 48.5068L32.3747 51.2547L34.3485 50.108ZM33.2389 45.1421L30.0555 42.3942L28.0817 43.541L31.265 46.2888L33.2389 45.1421ZM32.1292 40.1762L28.9459 37.4284L26.972 38.5751L30.1554 41.3229L32.1292 40.1762ZM31.0196 35.2103L27.8362 32.4625L25.8623 33.6092L29.0457 36.3571L31.0196 35.2103ZM29.9099 30.2444L26.7266 27.4966L24.7527 28.6433L27.9361 31.3911L29.9099 30.2444ZM28.8003 25.2786L25.6169 22.5307L23.643 23.6774L26.8265 26.4253L28.8003 25.2786ZM27.6908 20.3105L24.5075 17.5627L22.5336 18.7094L25.717 21.4573L27.6908 20.3105ZM319.313 -154.653C319.474 -154.748 319.68 -154.729 319.821 -154.605L374.968 -106.992L375.823 -109.103L318.374 -158.706L21.4239 13.7435L24.6073 16.4914L319.313 -154.653ZM375.319 -105.528L374.464 -103.417L376.075 -102.026L376.931 -104.137L375.319 -105.528ZM377.632 -103.532L376.777 -101.42L378.388 -100.029L379.244 -102.141L377.632 -103.532ZM378.742 -98.5657L377.886 -96.4545L379.498 -95.0636L380.353 -97.1748L378.742 -98.5657ZM379.852 -93.5998L378.996 -91.4886L380.607 -90.0977L381.463 -92.2089L379.852 -93.5998ZM380.961 -88.6339L380.106 -86.5227L381.717 -85.1318L382.573 -87.243L380.961 -88.6339ZM382.071 -83.668L381.215 -81.5568L382.827 -80.1659L383.684 -82.2748L382.071 -83.668ZM383.18 -78.7L382.325 -76.5888L383.936 -75.1979L384.792 -77.3092L383.18 -78.7ZM384.29 -73.7342L383.434 -71.6229L385.046 -70.2321L385.901 -72.3433L384.29 -73.7342ZM385.4 -68.7683L384.544 -66.6571L386.155 -65.2662L387.011 -67.3774L385.4 -68.7683ZM386.511 -63.8022L385.656 -61.691L387.267 -60.3001L388.123 -62.4113L386.511 -63.8022ZM387.619 -58.8365L386.763 -56.7253L388.375 -55.3344L389.23 -57.4456L387.619 -58.8365ZM260.372 268.153L390.342 -52.4795L388.731 -53.8704L259.846 264.084C259.794 264.215 259.679 264.312 259.543 264.345C259.495 264.357 259.443 264.36 259.394 264.355C259.305 264.346 259.221 264.309 259.153 264.249L211.452 223.062L210.596 225.173L260.372 268.153ZM211.096 221.6L211.951 219.489L210.34 218.098L209.484 220.209L211.096 221.6ZM209.986 216.634L210.842 214.523L209.23 213.132L208.375 215.243L209.986 216.634ZM208.876 211.668L209.732 209.557L208.121 208.166L207.265 210.277L208.876 211.668ZM207.767 206.7L208.623 204.589L207.011 203.198L206.156 205.309L207.767 206.7ZM206.657 201.734L207.513 199.623L205.902 198.232L205.046 200.343L206.657 201.734ZM205.548 196.768L206.403 194.657L204.792 193.266L203.936 195.378L205.548 196.768ZM204.438 191.803L205.294 189.691L203.682 188.3L202.827 190.412L204.438 191.803ZM203.328 186.837L204.184 184.725L202.573 183.335L201.717 185.446L203.328 186.837ZM202.219 181.871L203.074 179.76L201.463 178.369L200.607 180.48L202.219 181.871ZM201.109 176.905L201.965 174.794L200.353 173.403L199.498 175.514L201.109 176.905ZM199.999 171.939L200.855 169.828L199.244 168.437L198.388 170.548L199.999 171.939ZM197.279 165.58L198.89 166.971L215.586 125.785L213.975 124.394L197.279 165.58ZM30.8547 69.9827L80.6303 112.961L152.965 70.9532C153.126 70.8589 153.332 70.878 153.473 71.0014L213.621 122.931L214.476 120.819L152.028 66.9011L79.6938 108.909C79.5322 109.003 79.3265 108.984 79.1852 108.86L32.8285 68.836L30.8547 69.9827ZM29.7452 65.0147L32.9286 67.7625L34.9025 66.6158L31.7191 63.868L29.7452 65.0147ZM28.6356 60.0488L31.819 62.7966L33.7928 61.6499L30.6094 58.9021L28.6356 60.0488ZM27.5259 55.0829L30.7093 57.8307L32.6832 56.6841L29.4998 53.9362L27.5259 55.0829ZM26.4163 50.117L29.5997 52.8648L31.5735 51.7182L28.3902 48.9703L26.4163 50.117ZM25.3066 45.1511L28.49 47.899L30.4639 46.7522L27.2805 44.0044L25.3066 45.1511ZM24.197 40.1852L27.3803 42.9331L29.3542 41.7864L26.1709 39.0385L24.197 40.1852ZM23.0873 35.2193L26.2707 37.9672L28.2446 36.8205L25.0612 34.0726L23.0873 35.2193ZM21.9777 30.2534L25.1611 33.0013L27.1349 31.8546L23.9515 29.1068L21.9777 30.2534ZM20.868 25.2876L24.0514 28.0354L26.0253 26.8887L22.8419 24.1409L20.868 25.2876ZM19.7583 20.3217L22.9417 23.0695L24.9156 21.9228L21.7322 19.175L19.7583 20.3217ZM18.6487 15.3558L21.8321 18.1037L23.806 16.9569L20.6226 14.2091L18.6487 15.3558ZM20.7224 13.1378L318.201 -159.62C318.363 -159.714 318.568 -159.695 318.71 -159.571L376.169 -109.961L377.024 -112.072L317.264 -163.671L17.539 10.3899L20.7224 13.1378ZM200.734 43.4241C200.746 43.2825 200.828 43.1586 200.951 43.086L203.196 41.7816L199.774 38.8279C199.668 38.7358 199.612 38.5978 199.625 38.4561C199.637 38.3145 199.718 38.1906 199.841 38.12L202.086 36.8157L198.665 33.862C198.559 33.77 198.502 33.6319 198.515 33.4902C198.527 33.3507 198.609 33.2247 198.731 33.1542L200.976 31.8498L197.555 28.8961C197.449 28.8041 197.393 28.666 197.405 28.5243C197.418 28.3827 197.499 28.2588 197.622 28.1883L199.867 26.8839L196.446 23.9302C196.339 23.8382 196.283 23.7001 196.296 23.5585C196.308 23.4189 196.389 23.2929 196.512 23.2224L198.757 21.9181L195.336 18.9643C195.23 18.8723 195.173 18.7342 195.186 18.5926C195.198 18.453 195.28 18.327 195.402 18.2565L197.647 16.9522L194.226 13.9984C194.118 13.9062 194.064 13.7683 194.076 13.6267C194.088 13.4871 194.17 13.3612 194.293 13.2906L196.538 11.9863L193.117 9.03254C193.008 8.9403 192.954 8.80244 192.967 8.66079C192.979 8.52126 193.06 8.39526 193.183 8.32473L195.428 7.0204L192.007 4.06667C191.901 3.97465 191.844 3.83655 191.857 3.69489C191.869 3.55537 191.951 3.42937 192.074 3.35884L194.318 2.05452L190.897 -0.899222C190.791 -0.99124 190.735 -1.12934 190.747 -1.27099C190.76 -1.41263 190.841 -1.53651 190.964 -1.60703L193.209 -2.91138L189.788 -5.86513C189.682 -5.95713 189.625 -6.09522 189.638 -6.23687C189.65 -6.37641 189.731 -6.50241 189.854 -6.57293L192.099 -7.87728L188.678 -10.831C188.572 -10.923 188.516 -11.0611 188.528 -11.2028C188.54 -11.3444 188.622 -11.4683 188.745 -11.5388L190.989 -12.8432L187.568 -15.7969C187.462 -15.8889 187.406 -16.027 187.418 -16.1686C187.431 -16.3082 187.512 -16.4342 187.635 -16.5047L295.673 -79.2478C295.837 -79.3418 296.041 -79.3229 296.182 -79.1995C296.323 -79.0762 296.371 -78.8771 296.302 -78.705L293.81 -72.5536L296.785 -74.2817C296.947 -74.3759 297.152 -74.3568 297.294 -74.2334C297.435 -74.1101 297.483 -73.9131 297.414 -73.7389L294.921 -67.5874L297.897 -69.3156C298.059 -69.4098 298.264 -69.3907 298.405 -69.2673C298.547 -69.1439 298.597 -68.9446 298.526 -68.7728L296.031 -62.6216L299.006 -64.3497C299.168 -64.4439 299.374 -64.4248 299.515 -64.3015C299.656 -64.1781 299.705 -63.9811 299.635 -63.8069L297.143 -57.6555L300.118 -59.3836C300.28 -59.4778 300.486 -59.4588 300.627 -59.3354C300.768 -59.212 300.816 -59.015 300.747 -58.8408L298.254 -52.6893L301.23 -54.4175C301.392 -54.5117 301.597 -54.4926 301.739 -54.3692C301.88 -54.2459 301.928 -54.0489 301.859 -53.8747L299.366 -47.7232L302.342 -49.4514C302.503 -49.5456 302.707 -49.5268 302.85 -49.4031C302.992 -49.2797 303.04 -49.0807 302.971 -48.9086L300.478 -42.7571L303.454 -44.4853C303.615 -44.5795 303.821 -44.5604 303.962 -44.437C304.104 -44.3136 304.152 -44.1167 304.082 -43.9425L301.59 -37.791L304.565 -39.5192C304.727 -39.6134 304.933 -39.5943 305.074 -39.4709C305.215 -39.3475 305.265 -39.1482 305.194 -38.9764L302.702 -32.8249L305.677 -34.5531C305.839 -34.6473 306.044 -34.6282 306.186 -34.5048C306.327 -34.3814 306.375 -34.1845 306.306 -34.0103L303.813 -27.8588L306.789 -29.587C306.951 -29.6812 307.156 -29.6621 307.298 -29.5387C307.439 -29.4153 307.487 -29.2162 307.418 -29.0442L304.925 -22.8927L307.901 -24.6209C308.062 -24.7151 308.268 -24.696 308.409 -24.5726C308.551 -24.4492 308.601 -24.252 308.529 -24.078L306.037 -17.9266L309.012 -19.6547C309.174 -19.749 309.378 -19.7301 309.521 -19.6065C309.662 -19.4831 309.711 -19.2861 309.641 -19.112L262.791 96.4635C262.739 96.5947 262.624 96.6916 262.488 96.7245C262.44 96.7366 262.388 96.7398 262.339 96.7348C262.251 96.7256 262.167 96.6892 262.098 96.6309L200.907 43.7983C200.776 43.7036 200.721 43.5658 200.734 43.4241ZM200.813 38.5703L203.997 41.3181L205.971 40.1714L202.787 37.4236L200.813 38.5703ZM259.851 8.88049L262.288 2.86843L231.343 20.8397L234.526 23.5876L259.851 8.88049ZM235.225 24.1953L248.868 35.9739L259.314 10.2054L235.225 24.1953ZM249.452 36.8704C249.4 37.0016 249.285 37.0986 249.149 37.1315C249.101 37.1435 249.049 37.1467 249 37.1417C248.911 37.1325 248.827 37.0961 248.759 37.0378L234.426 24.661L232.452 25.8077L249.98 40.9421L263.4 7.83665L260.554 9.48858L249.452 36.8704ZM233.722 24.055L230.539 21.3072L228.565 22.4539L231.748 25.2018L233.722 24.055ZM262.825 1.54354L265.263 -4.46852L227.456 17.4859L230.639 20.2338L262.825 1.54354ZM261.089 8.16135L263.935 6.50943L266.373 0.497364L263.527 2.14929L261.089 8.16135ZM250.562 41.8364C250.51 41.9675 250.395 42.0645 250.259 42.0973C250.21 42.1094 250.161 42.1129 250.11 42.1076C250.021 42.0984 249.937 42.062 249.868 42.0037L231.649 26.2731L229.675 27.4198L251.087 45.9078L267.482 5.46536L264.636 7.1173L250.562 41.8364ZM230.947 25.6673L227.764 22.9195L225.79 24.0662L228.973 26.814L230.947 25.6673ZM229.838 20.6993L226.654 17.9515L224.68 19.0982L227.864 21.846L229.838 20.6993ZM265.8 -5.79341L268.237 -11.8055L223.571 14.1344L226.754 16.8823L265.8 -5.79341ZM264.064 0.824414L266.91 -0.827524L269.347 -6.83959L266.501 -5.18764L264.064 0.824414ZM265.173 5.7903L268.019 4.13838L270.457 -1.8737L267.611 -0.22175L265.173 5.7903ZM251.671 46.8022C251.619 46.9334 251.504 47.0303 251.368 47.0632C251.32 47.0753 251.268 47.0785 251.22 47.0735C251.131 47.0643 251.047 47.0279 250.978 46.9696L228.873 27.8854L226.899 29.0321L252.197 50.8737L271.566 3.09219L268.721 4.74411L251.671 46.8022ZM228.172 27.2775L224.989 24.5296L223.015 25.6763L226.198 28.4242L228.172 27.2775ZM227.062 22.3116L223.879 19.5637L221.905 20.7104L225.089 23.4583L227.062 22.3116ZM225.953 17.3457L222.769 14.5979L220.795 15.7446L223.979 18.4924L225.953 17.3457ZM268.775 -13.1325L271.212 -19.1445L219.686 10.7787L222.869 13.5265L268.775 -13.1325ZM267.039 -6.51465L269.884 -8.16659L272.322 -14.1786L269.476 -12.5267L267.039 -6.51465ZM268.148 -1.54665L270.994 -3.1986L273.431 -9.21066L270.585 -7.55872L268.148 -1.54665ZM269.258 3.41922L272.103 1.7673L274.541 -4.24477L271.695 -2.59283L269.258 3.41922ZM252.781 51.7681C252.729 51.8993 252.614 51.9962 252.478 52.0291C252.43 52.0412 252.378 52.0444 252.329 52.0394C252.24 52.0302 252.156 51.9938 252.088 51.9355L226.098 29.4955L224.124 30.6422L253.307 55.8396L275.651 0.718994L272.805 2.37093L252.781 51.7681ZM225.397 28.8898L222.213 26.1419L220.24 27.2886L223.423 30.0364L225.397 28.8898ZM224.287 23.9239L221.104 21.176L219.13 22.3227L222.313 25.0706L224.287 23.9239ZM223.178 18.958L219.994 16.2101L218.02 17.3568L221.204 20.1047L223.178 18.958ZM222.068 13.9921L218.884 11.2442L216.911 12.3909L220.094 15.1388L222.068 13.9921ZM271.749 -20.4694L274.187 -26.4815L215.801 7.42507L218.984 10.1729L271.749 -20.4694ZM270.013 -13.8516L272.859 -15.5035L275.296 -21.5156L272.451 -19.8637L270.013 -13.8516ZM271.123 -8.88572L273.968 -10.5376L276.406 -16.5497L273.56 -14.8978L271.123 -8.88572ZM272.232 -3.91983L275.078 -5.57176L277.516 -11.5838L274.67 -9.93188L272.232 -3.91983ZM273.342 1.04606L276.188 -0.605862L278.625 -6.61794L275.779 -4.96599L273.342 1.04606ZM253.891 56.734C253.839 56.8652 253.724 56.9621 253.588 56.995C253.539 57.0071 253.488 57.0103 253.439 57.0052C253.35 56.9961 253.266 56.9597 253.197 56.9014L223.323 31.1078L221.349 32.2545L254.416 60.8054L279.735 -1.65206L276.889 -0.000118974L253.891 56.734ZM222.622 30.502L219.438 27.7542L217.464 28.9009L220.648 31.6487L222.622 30.502ZM221.512 25.5361L218.329 22.7883L216.355 23.935L219.538 26.6828L221.512 25.5361ZM220.402 20.5703L217.219 17.8224L215.245 18.9691L218.428 21.717L220.402 20.5703ZM219.293 15.6023L216.109 12.8544L214.136 14.0011L217.319 16.749L219.293 15.6023ZM218.183 10.6364L215 7.88851L213.026 9.03522L216.209 11.7831L218.183 10.6364ZM274.724 -27.8085L277.161 -33.8206L211.916 4.06933L215.1 6.81718L274.724 -27.8085ZM272.988 -21.1907L275.833 -22.8426L278.271 -28.8547L275.425 -27.2027L272.988 -21.1907ZM274.097 -16.2227L276.943 -17.8746L279.38 -23.8867L276.535 -22.2347L274.097 -16.2227ZM275.207 -11.2568L278.052 -12.9087L280.49 -18.9208L277.644 -17.2688L275.207 -11.2568ZM276.316 -6.29088L279.162 -7.94283L281.6 -13.9549L278.754 -12.303L276.316 -6.29088ZM277.426 -1.32501L280.272 -2.97694L282.709 -8.98901L279.864 -7.33707L277.426 -1.32501ZM255 61.6999C254.948 61.8311 254.833 61.928 254.697 61.9609C254.649 61.973 254.597 61.9762 254.549 61.9711C254.46 61.962 254.376 61.9256 254.307 61.8672L220.548 32.7201L218.574 33.8668L255.526 65.7713L283.817 -4.02334L280.971 -2.3714L255 61.6999ZM219.846 32.1143L216.663 29.3664L214.689 30.5132L217.872 33.261L219.846 32.1143ZM218.737 27.1463L215.554 24.3984L213.58 25.5451L216.763 28.293L218.737 27.1463ZM217.627 22.1804L214.444 19.4326L212.47 20.5793L215.653 23.3271L217.627 22.1804ZM216.518 17.2145L213.334 14.4667L211.36 15.6134L214.544 18.3612L216.518 17.2145ZM215.408 12.2486L212.225 9.50078L210.251 10.6475L213.434 13.3954L215.408 12.2486ZM214.298 7.28275L211.115 4.53491L209.141 5.6816L212.324 8.42946L214.298 7.28275ZM277.698 -35.1454L280.136 -41.1575L208.031 0.715698L211.215 3.46357L277.698 -35.1454ZM275.962 -28.5276L278.808 -30.1796L281.245 -36.1916L278.4 -34.5397L275.962 -28.5276ZM277.072 -23.5617L279.918 -25.2137L282.355 -31.2257L279.509 -29.5738L277.072 -23.5617ZM278.182 -18.5958L281.027 -20.2478L283.465 -26.2598L280.619 -24.6079L278.182 -18.5958ZM279.291 -13.63L282.137 -15.2819L284.574 -21.294L281.729 -19.642L279.291 -13.63ZM280.401 -8.66407L283.246 -10.316L285.684 -16.3281L282.838 -14.6761L280.401 -8.66407ZM281.51 -3.69606L284.356 -5.34801L286.793 -11.3601L283.948 -9.70812L281.51 -3.69606ZM256.11 66.6658C256.058 66.7969 255.943 66.8939 255.807 66.9268C255.759 66.9388 255.709 66.9423 255.658 66.937C255.569 66.9279 255.485 66.8915 255.416 66.8331L217.773 34.3302L215.799 35.4769L256.636 70.7372L287.903 -6.3963L285.058 -4.74436L256.11 66.6658ZM217.071 33.7245L213.888 30.9766L211.914 32.1233L215.097 34.8712L217.071 33.7245ZM215.962 28.7586L212.778 26.0107L210.804 27.1574L213.988 29.9053L215.962 28.7586ZM214.852 23.7927L211.669 21.0448L209.695 22.1915L212.878 24.9394L214.852 23.7927ZM213.742 18.8268L210.559 16.079L208.585 17.2256L211.769 19.9735L213.742 18.8268ZM212.633 13.8609L209.449 11.113L207.475 12.2598L210.659 15.0076L212.633 13.8609ZM211.523 8.89502L208.34 6.14716L206.366 7.29387L209.549 10.0417L211.523 8.89502ZM210.413 3.92913L207.23 1.18129L205.256 2.328L208.44 5.07584L210.413 3.92913ZM280.671 -42.4847L283.108 -48.4968L204.145 -2.64024L207.328 0.10761L280.671 -42.4847ZM278.937 -35.8646L281.782 -37.5165L284.22 -43.5286L281.374 -41.8766L278.937 -35.8646ZM280.046 -30.8987L282.892 -32.5506L285.33 -38.5627L282.484 -36.9108L280.046 -30.8987ZM281.156 -25.9328L284.002 -27.5847L286.439 -33.5968L283.594 -31.9449L281.156 -25.9328ZM282.266 -20.9669L285.111 -22.6188L287.549 -28.6309L284.703 -26.979L282.266 -20.9669ZM283.375 -16.001L286.221 -17.6529L288.658 -23.665L285.813 -22.0131L283.375 -16.001ZM284.485 -11.0351L287.331 -12.6871L289.768 -18.6991L286.922 -17.0472L284.485 -11.0351ZM285.595 -6.06926L288.44 -7.7212L290.878 -13.7332L288.032 -12.0813L285.595 -6.06926ZM257.219 71.6338C257.167 71.765 257.053 71.8619 256.916 71.8948C256.868 71.9069 256.816 71.91 256.768 71.905C256.679 71.8958 256.595 71.8594 256.526 71.8011L214.997 35.9446L213.024 37.0913L257.745 75.7031L291.985 -8.76758L289.14 -7.11564L257.219 71.6338ZM214.296 35.3367L211.113 32.5889L209.139 33.7356L212.322 36.4834L214.296 35.3367ZM213.186 30.3708L210.003 27.623L208.029 28.7697L211.213 31.5176L213.186 30.3708ZM212.077 25.405L208.893 22.6571L206.92 23.8038L210.103 26.5517L212.077 25.405ZM210.967 20.4391L207.784 17.6912L205.81 18.8379L208.993 21.5858L210.967 20.4391ZM209.857 15.4732L206.674 12.7253L204.7 13.872L207.884 16.6199L209.857 15.4732ZM208.748 10.5073L205.564 7.75943L203.591 8.90613L206.774 11.654L208.748 10.5073ZM207.638 5.53929L204.455 2.79144L202.481 3.93816L205.665 6.686L207.638 5.53929ZM206.529 0.573405L203.345 -2.17444L201.371 -1.02773L204.555 1.72011L206.529 0.573405ZM283.645 -49.8217L286.083 -55.8337L200.262 -5.99362L203.445 -3.24575L283.645 -49.8217ZM281.911 -43.2036L284.757 -44.8556L287.195 -50.8676L284.349 -49.2157L281.911 -43.2036ZM283.021 -38.2378L285.867 -39.8897L288.304 -45.9017L285.459 -44.2498L283.021 -38.2378ZM284.131 -33.2719L286.976 -34.9238L289.414 -40.9359L286.568 -39.2839L284.131 -33.2719ZM285.24 -28.306L288.086 -29.9579L290.524 -35.97L287.678 -34.318L285.24 -28.306ZM286.35 -23.338L289.195 -24.9899L291.633 -31.002L288.787 -29.35L286.35 -23.338ZM287.459 -18.3721L290.305 -20.024L292.743 -26.0361L289.897 -24.3842L287.459 -18.3721ZM288.569 -13.4062L291.415 -15.0581L293.852 -21.0702L291.007 -19.4183L288.569 -13.4062ZM289.679 -8.4403L292.524 -10.0923L294.962 -16.1043L292.116 -14.4524L289.679 -8.4403ZM258.329 76.5997C258.277 76.7308 258.162 76.8278 258.026 76.8607C257.978 76.8727 257.928 76.8762 257.877 76.8709C257.788 76.8617 257.704 76.8253 257.636 76.767L212.222 37.5548L210.248 38.7015L258.855 80.6711L296.069 -11.1386L293.224 -9.48669L258.329 76.5997ZM211.521 36.949L208.337 34.2012L206.364 35.3478L209.547 38.0957L211.521 36.949ZM210.411 31.9831L207.228 29.2353L205.254 30.382L208.437 33.1298L210.411 31.9831ZM209.302 27.0172L206.118 24.2694L204.144 25.4161L207.328 28.1639L209.302 27.0172ZM208.192 22.0492L205.009 19.3014L203.035 20.4481L206.218 23.1959L208.192 22.0492ZM207.082 17.0833L203.899 14.3355L201.925 15.4822L205.109 18.2301L207.082 17.0833ZM205.973 12.1175L202.789 9.36962L200.816 10.5163L203.999 13.2642L205.973 12.1175ZM204.861 7.15134L201.678 4.40349L199.704 5.5502L202.887 8.29805L204.861 7.15134ZM203.751 2.18547L200.568 -0.56238L198.594 0.584331L201.778 3.33217L203.751 2.18547ZM202.642 -2.78041L199.458 -5.52828L197.484 -4.38157L200.668 -1.63371L202.642 -2.78041ZM286.62 -57.1586L289.057 -63.1707L196.375 -9.34745L199.558 -6.5996L286.62 -57.1586ZM284.886 -50.5406L287.732 -52.1925L290.169 -58.2046L287.323 -56.5527L284.886 -50.5406ZM285.993 -45.5749L288.839 -47.2269L291.277 -53.2389L288.431 -51.587L285.993 -45.5749ZM287.105 -40.6088L289.951 -42.2607L292.388 -48.2728L289.543 -46.6209L287.105 -40.6088ZM288.215 -35.6429L291.06 -37.2949L293.498 -43.3069L290.652 -41.655L288.215 -35.6429ZM289.324 -30.677L292.17 -32.329L294.608 -38.341L291.762 -36.6891L289.324 -30.677ZM290.434 -25.7112L293.28 -27.3631L295.717 -33.3751L292.872 -31.7232L290.434 -25.7112ZM291.544 -20.7453L294.389 -22.3972L296.827 -28.4093L293.981 -26.7573L291.544 -20.7453ZM292.653 -15.7794L295.499 -17.4313L297.937 -23.4434L295.091 -21.7914L292.653 -15.7794ZM293.763 -10.8114L296.609 -12.4633L299.046 -18.4754L296.2 -16.8234L293.763 -10.8114ZM259.439 81.5656C259.387 81.6967 259.272 81.7937 259.136 81.8265C259.087 81.8386 259.036 81.8418 258.987 81.8368C258.898 81.8276 258.814 81.7912 258.745 81.7329L209.447 39.167L207.473 40.3137L259.964 85.637L300.154 -13.5118L297.308 -11.8599L259.439 81.5656ZM208.746 38.5613L205.562 35.8134L203.588 36.9601L206.772 39.708L208.746 38.5613ZM207.636 33.5933L204.453 30.8454L202.479 31.9921L205.662 34.74L207.636 33.5933ZM206.527 28.6274L203.343 25.8795L201.369 27.0262L204.553 29.7741L206.527 28.6274ZM205.417 23.6615L202.233 20.9136L200.26 22.0604L203.443 24.8082L205.417 23.6615ZM204.307 18.6956L201.124 15.9478L199.15 17.0945L202.333 19.8423L204.307 18.6956ZM203.195 13.7295L200.012 10.9817L198.038 12.1284L201.222 14.8762L203.195 13.7295ZM202.086 8.76362L198.902 6.01576L196.929 7.16247L200.112 9.91033L202.086 8.76362ZM200.976 3.79774L197.793 1.04989L195.819 2.1966L199.002 4.94444L200.976 3.79774ZM199.867 -1.16815L196.683 -3.916L194.709 -2.76931L197.893 -0.0214456L199.867 -1.16815ZM198.757 -6.13403L195.573 -8.88189L193.6 -7.73519L196.783 -4.98732L198.757 -6.13403ZM289.594 -64.4977L292.032 -70.5098L192.49 -12.7032L195.674 -9.95533L289.594 -64.4977ZM287.858 -57.8799L290.704 -59.5318L293.142 -65.5439L290.296 -63.8919L287.858 -57.8799ZM288.968 -52.9119L291.814 -54.5638L294.251 -60.5759L291.405 -58.9239L288.968 -52.9119ZM290.078 -47.946L292.923 -49.5979L295.361 -55.61L292.515 -53.958L290.078 -47.946ZM291.19 -42.982L294.035 -44.6339L296.473 -50.646L293.627 -48.9941L291.19 -42.982ZM292.299 -38.014L295.145 -39.6659L297.582 -45.678L294.736 -44.0261L292.299 -38.014ZM293.409 -33.0481L296.254 -34.7L298.692 -40.7121L295.846 -39.0602L293.409 -33.0481ZM294.516 -28.0824L297.362 -29.7344L299.799 -35.7464L296.954 -34.0945L294.516 -28.0824ZM295.628 -23.1163L298.474 -24.7683L300.911 -30.7803L298.065 -29.1284L295.628 -23.1163ZM296.738 -18.1504L299.583 -19.8024L302.021 -25.8144L299.175 -24.1625L296.738 -18.1504ZM297.847 -13.1845L300.693 -14.8365L303.13 -20.8485L300.285 -19.1966L297.847 -13.1845ZM260.548 86.5314C260.496 86.6626 260.381 86.7595 260.245 86.7924C260.197 86.8045 260.145 86.8077 260.097 86.8027C260.008 86.7935 259.924 86.7571 259.855 86.6988L206.672 40.7793L204.698 41.926L261.074 90.6029L304.238 -15.8829L301.392 -14.231L260.548 86.5314ZM199.704 33.6044L202.887 36.3522L204.861 35.2056L201.678 32.4577L199.704 33.6044ZM198.594 28.6364L201.778 31.3843L203.752 30.2376L200.568 27.4897L198.594 28.6364ZM197.485 23.6705L200.668 26.4184L202.642 25.2717L199.458 22.5238L197.485 23.6705ZM196.375 18.7046L199.558 21.4525L201.532 20.3058L198.349 17.5579L196.375 18.7046ZM195.265 13.7387L198.449 16.4866L200.423 15.3399L197.239 12.592L195.265 13.7387ZM194.154 8.77263L197.337 11.5205L199.311 10.3738L196.127 7.62593L194.154 8.77263ZM193.044 3.80674L196.227 6.5546L198.201 5.40789L195.018 2.66005L193.044 3.80674ZM191.934 -1.15913L195.118 1.58871L197.091 0.442007L193.908 -2.30584L191.934 -1.15913ZM190.825 -6.12502L194.008 -3.37716L195.982 -4.52387L192.798 -7.27173L190.825 -6.12502ZM189.715 -11.0909L192.898 -8.34306L194.872 -9.48976L191.689 -12.2376L189.715 -11.0909ZM295.007 -77.8488L188.605 -16.0589L191.789 -13.311L292.569 -71.8346L295.007 -77.8488ZM296.116 -72.8808L293.27 -71.2289L290.833 -65.2168L293.679 -66.8688L296.116 -72.8808ZM297.226 -67.9149L294.38 -66.263L291.943 -60.2509L294.788 -61.9029L297.226 -67.9149ZM298.335 -62.949L295.49 -61.2971L293.052 -55.285L295.898 -56.937L298.335 -62.949ZM299.445 -57.9832L296.599 -56.3312L294.162 -50.3192L297.008 -51.9711L299.445 -57.9832ZM300.555 -53.0173L297.709 -51.3653L295.272 -45.3533L298.117 -47.0052L300.555 -53.0173ZM301.664 -48.0514L298.819 -46.3995L296.381 -40.3874L299.227 -42.0393L301.664 -48.0514ZM302.774 -43.0855L299.928 -41.4336L297.491 -35.4215L300.337 -37.0734L302.774 -43.0855ZM303.884 -38.1196L301.038 -36.4677L298.6 -30.4556L301.446 -32.1075L303.884 -38.1196ZM304.993 -33.1537L302.148 -31.5018L299.71 -25.4897L302.556 -27.1417L304.993 -33.1537ZM306.103 -28.1878L303.257 -26.5359L300.82 -20.5238L303.665 -22.1758L306.103 -28.1878ZM307.213 -23.222L304.367 -21.57L301.929 -15.5579L304.775 -17.2099L307.213 -23.222ZM262.184 95.5667L308.322 -18.254L305.476 -16.602L261.658 91.4973C261.606 91.6285 261.491 91.7254 261.355 91.7583C261.307 91.7704 261.255 91.7736 261.206 91.7686C261.117 91.7594 261.033 91.723 260.965 91.6647L203.897 42.3895L201.923 43.5362L262.184 95.5667Z" fill="#7D828B"/>
    </g>
</svg>
