<svg  viewBox="0 0 45 30" fill="none" xmlns="http://www.w3.org/2000/svg">
<path fill-rule="evenodd" clip-rule="evenodd" d="M33.5106 27.0968L22.5 30L11.4894 27.0968L0 30L4.78723 3.3871L13.883 1.93548L15.6318 2.22968C15.4015 2.61532 15.2081 3.03435 15.0372 3.47177L14.3617 3.3871L12.4468 26.129L22.0213 28.5484V22.636C22.321 23.0119 22.5 23.2258 22.5 23.2258C22.5 23.2258 22.6795 23.0124 22.9787 22.636V28.5484L32.5532 26.129L30.6383 3.3871L29.9681 3.47177C29.7981 3.0329 29.599 2.61629 29.3682 2.23016L31.117 1.93548L40.2128 3.3871L45 30L33.5106 27.0968ZM12.9255 3.3871L5.74468 4.35484L1.43617 28.5484L11.0106 26.129L12.9255 3.3871ZM39.2553 4.35484L32.0745 3.3871L33.9894 26.129L43.5638 28.5484L39.2553 4.35484ZM22.5 21.7742C22.5 21.7742 15.3191 11.1924 15.3191 7.25806C15.3191 3.32371 18.7152 0 22.5 0C26.2848 0 29.6809 3.32371 29.6809 7.25806C29.6809 11.1924 22.5 21.7742 22.5 21.7742ZM22.5 4.83871C21.1251 4.83871 20.0106 5.96516 20.0106 7.35436C20.0106 8.74403 21.1251 9.87048 22.5 9.87048C23.8749 9.87048 24.9894 8.74403 24.9894 7.35436C24.9894 5.96516 23.8749 4.83871 22.5 4.83871Z" fill="#161616"/>
</svg>
