<svg viewBox="0 0 601 799" fill="none" xmlns="http://www.w3.org/2000/svg">
<g opacity="0.5">
<path d="M645.315 337.321C645.289 337.09 645.148 336.884 644.941 336.769L140.049 60.1401C139.778 59.9907 139.442 60.0308 139.21 60.2422L41.8771 149.153C41.6488 149.364 41.5783 149.696 41.7003 149.979L43.615 154.377L40.2588 157.442C40.0305 157.653 39.96 157.986 40.082 158.268L41.9967 162.666L38.644 165.731C38.4157 165.942 38.3413 166.271 38.4673 166.557L40.3819 170.955L37.0258 174.02C36.7974 174.231 36.727 174.564 36.849 174.846L38.7636 179.244L35.4075 182.309C35.1792 182.52 35.1087 182.853 35.2307 183.135L37.1454 187.533L33.7892 190.599C33.5609 190.809 33.49 191.138 33.6125 191.424L35.5271 195.822L32.171 198.888C31.9426 199.099 31.8722 199.431 31.9942 199.714L33.9088 204.111L30.5562 207.176C30.3279 207.387 30.2574 207.72 30.3794 208.002L32.2941 212.4L28.9379 215.466C28.7096 215.676 28.6391 216.009 28.7611 216.291L30.6758 220.689L27.3197 223.755C27.0913 223.966 27.0204 224.295 27.1429 224.581L29.0575 228.978L25.7049 232.043C25.4765 232.254 25.4061 232.587 25.5281 232.869L27.4427 237.267L24.0901 240.332C23.8618 240.543 23.7913 240.875 23.9133 241.158L25.828 245.556L22.4718 248.621C22.2435 248.832 22.1731 249.165 22.2951 249.447L252.164 777.315C252.256 777.53 252.45 777.686 252.68 777.734C252.761 777.752 252.843 777.756 252.927 777.745C253.074 777.726 253.211 777.662 253.322 777.558L334.912 703.054C335.141 702.843 335.212 702.514 335.089 702.228L333.175 697.83L336.527 694.766C336.756 694.555 336.826 694.226 336.704 693.94L334.789 689.542L338.142 686.477C338.37 686.266 338.441 685.937 338.319 685.651L336.404 681.253L339.76 678.188C339.989 677.977 340.059 677.648 339.937 677.362L338.022 672.964L341.375 669.899C341.603 669.688 341.674 669.359 341.552 669.073L339.637 664.675L342.99 661.61C343.218 661.399 343.289 661.07 343.167 660.784L341.252 656.386L344.605 653.322C344.833 653.111 344.907 652.781 344.781 652.496L342.867 648.098L346.219 645.033C346.448 644.822 346.519 644.493 346.396 644.207L344.481 639.809L347.834 636.744C348.062 636.533 348.133 636.204 348.011 635.918L346.096 631.52L349.452 628.455C349.681 628.244 349.752 627.915 349.629 627.629L347.715 623.231L351.067 620.166C351.295 619.955 351.366 619.626 351.244 619.34L349.329 614.942L352.682 611.878C352.91 611.667 352.981 611.338 352.859 611.052L350.944 606.654L354.297 603.589C354.525 603.378 354.596 603.049 354.474 602.763L324.618 534.203L421.785 445.442L543.31 512.025C543.581 512.174 543.92 512.134 544.149 511.923L625.711 437.415C625.886 437.258 625.969 437.026 625.942 436.792C625.916 436.561 625.775 436.355 625.569 436.244L621.798 434.176L627.325 429.127C627.497 428.969 627.584 428.738 627.557 428.503C627.53 428.272 627.39 428.067 627.183 427.951L623.412 425.884L628.94 420.834C629.115 420.677 629.198 420.446 629.171 420.211C629.144 419.976 629.004 419.774 628.798 419.659L625.026 417.592L630.554 412.542C630.725 412.385 630.813 412.153 630.786 411.919C630.759 411.684 630.619 411.482 630.415 411.367L626.644 409.299L632.172 404.25C632.347 404.092 632.43 403.861 632.403 403.626C632.377 403.395 632.237 403.19 632.03 403.074L628.258 401.007L633.786 395.957C633.961 395.8 634.045 395.568 634.018 395.334C633.991 395.103 633.851 394.897 633.647 394.782L629.876 392.714L635.404 387.665C635.575 387.507 635.662 387.276 635.636 387.041C635.609 386.807 635.469 386.605 635.265 386.489L631.494 384.422L637.022 379.372C637.197 379.214 637.28 378.983 637.253 378.749C637.226 378.514 637.086 378.312 636.88 378.197L633.108 376.129L638.636 371.08C638.808 370.923 638.895 370.691 638.868 370.456C638.841 370.222 638.701 370.02 638.497 369.904L634.726 367.837L640.254 362.787C640.429 362.629 640.512 362.398 640.486 362.164C640.459 361.929 640.319 361.727 640.112 361.612L636.34 359.544L641.868 354.495C642.04 354.338 642.127 354.106 642.1 353.872C642.073 353.641 641.933 353.435 641.727 353.323L637.955 351.256L643.483 346.206C643.654 346.049 643.742 345.817 643.715 345.583C643.688 345.348 643.548 345.146 643.341 345.035L639.57 342.967L645.098 337.918C645.258 337.787 645.342 337.555 645.315 337.321ZM44.2315 155.785L45.7408 159.252L43.1372 161.63L41.6278 158.163L44.2315 155.785ZM286.297 533.832L288.212 538.23L284.856 541.296C284.627 541.507 284.557 541.836 284.679 542.122L286.594 546.519L283.241 549.584C283.013 549.795 282.942 550.124 283.064 550.41L284.979 554.808L281.626 557.873C281.398 558.084 281.327 558.413 281.449 558.699L283.364 563.097L280.008 566.162C279.78 566.373 279.709 566.702 279.831 566.988L281.746 571.386L278.393 574.451C278.165 574.662 278.094 574.991 278.216 575.277L308.072 643.833L272.495 676.334L68.7137 208.371L120.427 161.132L568.024 406.37L562.921 411.031L441.397 344.447C441.125 344.298 440.786 344.339 440.558 344.549L297.774 474.983C297.545 475.193 297.471 475.526 297.597 475.808L299.511 480.206L296.159 483.271C295.93 483.482 295.86 483.815 295.982 484.097L297.897 488.495L294.541 491.56C294.312 491.771 294.242 492.104 294.364 492.386L296.278 496.784L292.926 499.849C292.697 500.06 292.627 500.392 292.749 500.675L294.664 505.073L291.311 508.138C291.083 508.349 291.012 508.681 291.134 508.964L293.049 513.362L289.696 516.427C289.468 516.637 289.397 516.966 289.519 517.252L291.434 521.65L288.081 524.715C287.853 524.926 287.782 525.255 287.905 525.541L289.819 529.939L286.467 533.004C286.242 533.214 286.171 533.547 286.297 533.832ZM290.439 531.347L291.949 534.813L289.345 537.191L287.836 533.725L290.439 531.347ZM290.96 528.906L289.451 525.44L292.055 523.062L293.564 526.528L290.96 528.906ZM292.575 520.617L291.066 517.151L293.669 514.773L295.179 518.24L292.575 520.617ZM294.189 512.325L292.68 508.859L295.284 506.481L296.793 509.947L294.189 512.325ZM295.804 504.036L294.295 500.57L296.898 498.192L298.408 501.659L295.804 504.036ZM297.419 495.748L295.91 492.281L298.513 489.903L300.023 493.37L297.419 495.748ZM299.034 487.459L297.524 483.993L300.128 481.615L301.637 485.081L299.034 487.459ZM300.648 479.17L299.139 475.704L441.158 345.971L562.682 412.554C562.954 412.703 563.293 412.663 563.522 412.455L569.374 407.111L572.69 408.929L561.311 419.322L439.786 352.739C439.514 352.59 439.175 352.63 438.947 352.841L300.648 479.17ZM120.669 159.609C120.397 159.459 120.058 159.5 119.83 159.711L68.1007 206.962L66.5913 203.496L122.041 152.843L574.301 400.634L569.157 405.331L120.669 159.609ZM67.5802 209.407L271.569 677.847C271.661 678.062 271.856 678.218 272.082 678.267C272.163 678.285 272.248 678.288 272.329 678.277C272.475 678.258 272.613 678.194 272.724 678.091L308.684 645.239L310.194 648.705L270.876 684.619L64.9765 211.785L67.5802 209.407ZM309.209 642.797L279.759 575.172L282.362 572.794L311.813 640.419L309.209 642.797ZM281.373 566.884L283.977 564.506L285.486 567.972L282.883 570.35L281.373 566.884ZM284.501 562.061L282.992 558.594L285.595 556.217L287.105 559.683L284.501 562.061ZM286.116 553.772L284.607 550.306L287.21 547.928L288.72 551.394L286.116 553.772ZM287.731 545.483L286.221 542.017L288.825 539.639L290.334 543.106L287.731 545.483ZM290.947 544.511L292.456 547.978L289.853 550.355L288.343 546.889L290.947 544.511ZM291.468 542.07L289.958 538.604L292.562 536.226L294.071 539.692L291.468 542.07ZM293.082 533.778L291.573 530.311L294.176 527.934L295.686 531.4L293.082 533.778ZM294.697 525.489L293.188 522.023L295.791 519.645L297.301 523.111L294.697 525.489ZM296.312 517.201L294.802 513.734L297.406 511.356L298.915 514.823L296.312 517.201ZM297.926 508.912L296.417 505.445L299.021 503.067L300.53 506.534L297.926 508.912ZM299.541 500.623L298.032 497.157L300.636 494.779L302.145 498.245L299.541 500.623ZM301.156 492.334L299.647 488.868L302.25 486.49L303.76 489.957L301.156 492.334ZM302.771 484.046L301.261 480.579L439.54 354.26L561.064 420.843C561.336 420.993 561.672 420.952 561.903 420.741L574.032 409.66L577.348 411.478L559.692 427.608L438.167 361.025C437.896 360.875 437.556 360.916 437.328 361.127L302.771 484.046ZM570.507 406.072L575.651 401.375L578.967 403.192L573.823 407.89L570.507 406.072ZM122.284 151.32C122.012 151.17 121.673 151.211 121.444 151.422L65.9783 202.087L64.4689 198.621L123.656 144.555L580.578 394.901L575.434 399.598L122.284 151.32ZM65.4578 204.531L66.9672 207.998L64.3635 210.376L62.8542 206.909L65.4578 204.531ZM63.843 212.82L269.954 686.135C270.046 686.351 270.241 686.507 270.467 686.555C270.548 686.573 270.633 686.576 270.714 686.566C270.861 686.547 270.998 686.483 271.109 686.379L310.807 650.114L312.316 653.58L269.262 692.911L61.2398 215.201L63.843 212.82ZM311.331 647.672L309.822 644.206L312.426 641.828L313.935 645.295L311.331 647.672ZM312.946 639.384L283.496 571.759L286.1 569.381L315.55 637.006L312.946 639.384ZM285.114 563.47L287.718 561.092L289.227 564.558L286.623 566.936L285.114 563.47ZM288.238 558.648L286.729 555.181L289.333 552.803L290.842 556.27L288.238 558.648ZM291.454 557.675L292.964 561.142L290.36 563.519L288.851 560.053L291.454 557.675ZM291.975 555.231L290.466 551.764L293.069 549.386L294.579 552.853L291.975 555.231ZM293.59 546.942L292.08 543.475L294.684 541.098L296.193 544.564L293.59 546.942ZM295.205 538.653L293.695 535.187L296.299 532.809L297.808 536.276L295.205 538.653ZM296.819 530.365L295.31 526.898L297.914 524.52L299.423 527.987L296.819 530.365ZM298.434 522.076L296.925 518.609L299.528 516.232L301.038 519.698L298.434 522.076ZM300.049 513.787L298.539 510.321L301.143 507.943L302.653 511.409L300.049 513.787ZM301.664 505.498L300.154 502.032L302.758 499.654L304.267 503.121L301.664 505.498ZM303.278 497.21L301.769 493.743L304.373 491.365L305.882 494.832L303.278 497.21ZM304.893 488.921L303.384 485.455L437.925 362.548L559.449 429.132C559.721 429.281 560.06 429.241 560.289 429.033L578.695 412.22L582.011 414.037L558.077 435.9L436.553 369.317C436.281 369.168 435.942 369.208 435.714 369.419L304.893 488.921ZM575.169 408.624L580.313 403.927L583.629 405.744L578.485 410.442L575.169 408.624ZM576.784 400.336L581.928 395.638L585.244 397.456L580.1 402.153L576.784 400.336ZM123.898 143.031C123.627 142.882 123.288 142.922 123.059 143.133L63.8564 197.215L62.347 193.749L125.271 136.266L586.859 389.167L581.715 393.865L123.898 143.031ZM63.3354 199.656L64.8448 203.123L62.2411 205.5L60.7318 202.034L63.3354 199.656ZM61.7207 207.945L63.23 211.411L60.6264 213.789L59.117 210.323L61.7207 207.945ZM60.1063 216.237L268.344 694.427C268.436 694.642 268.63 694.798 268.857 694.847C268.937 694.865 269.023 694.868 269.103 694.858C269.25 694.839 269.387 694.774 269.498 694.671L312.933 654.992L314.443 658.459L267.651 701.203L57.5027 218.615L60.1063 216.237ZM313.454 652.548L311.944 649.081L314.548 646.704L316.057 650.17L313.454 652.548ZM315.068 644.259L313.559 640.793L316.163 638.415L317.672 641.881L315.068 644.259ZM316.683 635.97L287.233 568.346L289.837 565.968L319.287 633.593L316.683 635.97ZM319.903 634.998L321.412 638.464L318.809 640.842L317.299 637.375L319.903 634.998ZM320.424 632.557L290.974 564.932L293.577 562.554L323.027 630.179L320.424 632.557ZM292.588 556.64L295.192 554.262L296.701 557.728L294.097 560.106L292.588 556.64ZM295.712 551.817L294.203 548.351L296.806 545.973L298.316 549.44L295.712 551.817ZM297.327 543.529L295.818 540.062L298.421 537.684L299.931 541.151L297.327 543.529ZM298.942 535.24L297.432 531.773L300.036 529.396L301.545 532.862L298.942 535.24ZM300.556 526.951L299.047 523.485L301.651 521.107L303.16 524.573L300.556 526.951ZM302.171 518.663L300.662 515.196L303.266 512.818L304.775 516.285L302.171 518.663ZM303.786 510.374L302.277 506.907L304.88 504.529L306.39 507.996L303.786 510.374ZM305.401 502.085L303.891 498.619L306.495 496.241L308.004 499.707L305.401 502.085ZM307.016 493.796L305.506 490.33L436.311 370.841L557.835 437.424C558.107 437.573 558.443 437.533 558.674 437.322L583.358 414.775L586.674 416.593L556.463 444.189L434.938 377.606C434.667 377.456 434.327 377.497 434.099 377.708L307.016 493.796ZM579.832 411.18L584.976 406.482L588.292 408.3L583.148 412.998L579.832 411.18ZM581.447 402.891L586.59 398.194L589.907 400.011L584.763 404.709L581.447 402.891ZM583.061 394.603L588.205 389.905L591.521 391.723L586.378 396.42L583.061 394.603ZM125.513 134.742C125.242 134.593 124.902 134.634 124.674 134.844L61.734 192.34L60.2246 188.873L126.886 127.977L593.136 383.434L587.992 388.132L125.513 134.742ZM61.2135 194.784L62.7229 198.251L60.1192 200.629L58.6099 197.162L61.2135 194.784ZM59.5987 203.073L61.1081 206.539L58.5044 208.917L56.9951 205.451L59.5987 203.073ZM57.984 211.362L59.4933 214.828L56.8897 217.206L55.3803 213.739L57.984 211.362ZM56.3692 219.65L266.729 702.716C266.821 702.931 267.015 703.087 267.242 703.136C267.322 703.154 267.404 703.157 267.488 703.146C267.635 703.127 267.772 703.063 267.883 702.96L315.059 659.867L316.568 663.334L266.04 709.491L53.7655 222.028L56.3692 219.65ZM315.579 657.423L314.07 653.956L316.674 651.578L318.183 655.045L315.579 657.423ZM317.194 649.134L315.685 645.668L318.289 643.29L319.798 646.756L317.194 649.134ZM320.41 648.162L321.92 651.628L319.316 654.006L317.807 650.539L320.41 648.162ZM320.931 645.721L319.422 642.254L322.026 639.876L323.535 643.343L320.931 645.721ZM322.546 637.428L321.036 633.962L323.64 631.584L325.149 635.051L322.546 637.428ZM324.161 629.14L294.71 561.515L297.314 559.137L326.764 626.762L324.161 629.14ZM296.325 553.226L298.929 550.848L300.438 554.315L297.834 556.693L296.325 553.226ZM299.449 548.404L297.94 544.937L300.544 542.56L302.053 546.026L299.449 548.404ZM301.064 540.115L299.555 536.649L302.158 534.271L303.668 537.737L301.064 540.115ZM302.679 531.827L301.169 528.36L303.773 525.982L305.282 529.449L302.679 531.827ZM304.294 523.538L302.784 520.071L305.388 517.694L306.897 521.16L304.294 523.538ZM305.908 515.249L304.399 511.783L307.003 509.405L308.512 512.871L305.908 515.249ZM307.527 506.96L306.017 503.493L308.621 501.116L310.13 504.582L307.527 506.96ZM309.137 498.668L307.628 495.202L434.696 379.126L556.22 445.709C556.492 445.859 556.827 445.819 557.059 445.607L588.019 417.324L591.336 419.141L554.847 452.474L433.323 385.891C433.051 385.742 432.712 385.782 432.484 385.993L309.137 498.668ZM584.494 413.736L589.638 409.038L592.954 410.856L587.81 415.553L584.494 413.736ZM586.109 405.447L591.253 400.749L594.569 402.567L589.425 407.264L586.109 405.447ZM587.724 397.158L592.868 392.461L596.184 394.278L591.04 398.976L587.724 397.158ZM589.339 388.87L594.482 384.172L597.799 385.99L592.655 390.687L589.339 388.87ZM127.128 126.454C126.856 126.304 126.517 126.345 126.289 126.556L59.6116 187.464L58.1023 183.998L128.504 119.688L599.413 377.697L594.269 382.395L127.128 126.454ZM59.0911 189.909L60.6005 193.375L57.9968 195.753L56.4875 192.287L59.0911 189.909ZM57.4764 198.198L58.9857 201.664L56.3821 204.042L54.8727 200.575L57.4764 198.198ZM55.8616 206.486L57.3709 209.953L54.7673 212.331L53.2579 208.864L55.8616 206.486ZM54.2468 214.775L55.7562 218.241L53.1525 220.619L51.6432 217.153L54.2468 214.775ZM52.632 223.064L265.114 711.004C265.206 711.22 265.4 711.376 265.63 711.424C265.711 711.442 265.793 711.445 265.877 711.435C266.024 711.415 266.161 711.351 266.272 711.248L317.184 664.739L318.694 668.205L264.428 717.776L50.0249 225.442L52.632 223.064ZM317.702 662.298L316.193 658.832L318.796 656.454L320.306 659.92L317.702 662.298ZM320.918 661.326L322.427 664.792L319.824 667.17L318.314 663.703L320.918 661.326ZM321.439 658.885L319.93 655.418L322.533 653.04L324.043 656.507L321.439 658.885ZM323.054 650.596L321.544 647.129L324.148 644.752L325.657 648.218L323.054 650.596ZM324.668 642.304L323.159 638.837L325.762 636.46L327.272 639.926L324.668 642.304ZM326.283 634.015L324.774 630.549L327.377 628.171L328.887 631.637L326.283 634.015ZM327.898 625.726L298.448 558.102L301.051 555.724L330.501 623.349L327.898 625.726ZM300.062 549.813L302.666 547.435L304.175 550.902L301.572 553.279L300.062 549.813ZM303.186 544.991L301.677 541.524L304.281 539.146L305.79 542.613L303.186 544.991ZM304.805 536.701L303.295 533.235L305.899 530.857L307.408 534.324L304.805 536.701ZM306.419 528.409L304.91 524.943L307.513 522.565L309.023 526.031L306.419 528.409ZM308.034 520.121L306.524 516.654L309.128 514.276L310.637 517.743L308.034 520.121ZM309.649 511.832L308.139 508.365L310.743 505.988L312.252 509.454L309.649 511.832ZM311.263 503.543L309.754 500.077L433.084 387.414L554.609 453.997C554.88 454.147 555.216 454.107 555.448 453.895L592.685 419.879L596.002 421.696L553.236 460.763L431.712 394.179C431.44 394.03 431.101 394.07 430.873 394.281L311.263 503.543ZM589.157 416.291L594.301 411.594L597.617 413.411L592.473 418.109L589.157 416.291ZM590.771 407.999L595.915 403.301L599.231 405.119L594.087 409.817L590.771 407.999ZM592.386 399.714L597.53 395.016L600.846 396.834L595.703 401.531L592.386 399.714ZM594.001 391.422L599.145 386.724L602.461 388.542L597.317 393.239L594.001 391.422ZM595.615 383.133L600.759 378.435L604.075 380.253L598.932 384.95L595.615 383.133ZM128.742 118.162C128.471 118.012 128.135 118.052 127.903 118.264L57.4892 182.589L55.9799 179.123L130.118 111.396L605.693 371.96L600.549 376.658L128.742 118.162ZM56.9688 185.034L58.4781 188.5L55.8745 190.878L54.3651 187.411L56.9688 185.034ZM55.354 193.322L56.8633 196.789L54.2597 199.167L52.7503 195.7L55.354 193.322ZM53.7392 201.611L55.2486 205.077L52.6449 207.455L51.1356 203.989L53.7392 201.611ZM52.1244 209.9L53.6338 213.366L51.0301 215.744L49.5208 212.277L52.1244 209.9ZM50.5097 218.188L52.019 221.655L49.4154 224.033L47.906 220.566L50.5097 218.188ZM48.8914 226.477L263.496 719.294C263.588 719.509 263.782 719.665 264.009 719.714C264.089 719.732 264.175 719.735 264.255 719.724C264.402 719.705 264.539 719.641 264.65 719.538L319.3 669.615L320.809 673.081L262.81 726.069L46.2882 228.859L48.8914 226.477ZM45.6752 227.45L44.1658 223.983L46.7695 221.606L48.2788 225.072L45.6752 227.45ZM45.1547 229.894L261.881 727.582C261.973 727.798 262.167 727.954 262.397 728.002C262.478 728.02 262.56 728.023 262.644 728.012C262.791 727.993 262.928 727.929 263.039 727.826L321.426 674.49L322.935 677.956L261.192 734.358L42.551 232.272L45.1547 229.894ZM321.947 672.049L320.437 668.582L323.041 666.204L324.55 669.671L321.947 672.049ZM323.561 663.757L322.052 660.29L324.655 657.912L326.165 661.379L323.561 663.757ZM325.176 655.468L323.666 652.001L326.27 649.624L327.779 653.09L325.176 655.468ZM326.791 647.179L325.281 643.713L327.885 641.335L329.394 644.801L326.791 647.179ZM328.405 638.89L326.896 635.424L329.5 633.046L331.009 636.513L328.405 638.89ZM330.02 630.602L328.511 627.135L331.114 624.757L332.624 628.224L330.02 630.602ZM331.635 622.313L302.185 554.688L304.788 552.31L334.238 619.935L331.635 622.313ZM303.799 546.396L306.403 544.018L307.912 547.485L305.308 549.862L303.799 546.396ZM306.927 541.573L305.417 538.107L308.021 535.729L309.53 539.196L306.927 541.573ZM308.541 533.285L307.032 529.818L309.636 527.44L311.145 530.907L308.541 533.285ZM310.156 524.996L308.647 521.529L311.25 519.152L312.76 522.618L310.156 524.996ZM311.771 516.707L310.262 513.241L312.865 510.863L314.375 514.329L311.771 516.707ZM313.386 508.419L311.876 504.952L431.469 395.703L552.994 462.286C553.265 462.436 553.601 462.395 553.833 462.184L597.348 422.434L600.664 424.252L551.621 469.051L430.097 402.468C429.825 402.319 429.486 402.359 429.258 402.57L313.386 508.419ZM593.819 418.843L598.963 414.146L602.279 415.963L597.135 420.661L593.819 418.843ZM595.434 410.555L600.577 405.857L603.894 407.675L598.75 412.372L595.434 410.555ZM597.048 402.266L602.192 397.568L605.508 399.386L600.365 404.083L597.048 402.266ZM598.663 393.977L603.807 389.28L607.123 391.097L601.979 395.795L598.663 393.977ZM600.278 385.688L605.422 380.991L608.738 382.808L603.594 387.506L600.278 385.688ZM601.893 377.4L607.037 372.702L610.353 374.52L605.209 379.217L601.893 377.4ZM130.357 109.873C130.085 109.723 129.75 109.764 129.518 109.975L55.3634 177.714L53.854 174.248L131.73 103.108L611.967 366.227L606.823 370.925L130.357 109.873ZM54.8464 180.158L56.3557 183.625L53.7521 186.002L52.2427 182.536L54.8464 180.158ZM53.2281 188.447L54.7375 191.914L52.1338 194.292L50.6245 190.825L53.2281 188.447ZM51.6133 196.736L53.1227 200.203L50.519 202.58L49.0097 199.114L51.6133 196.736ZM49.9986 205.025L51.5079 208.491L48.9043 210.869L47.3949 207.403L49.9986 205.025ZM48.3838 213.313L49.8931 216.78L47.2895 219.158L45.7801 215.691L48.3838 213.313ZM45.1676 214.286L43.6582 210.819L46.2619 208.442L47.7712 211.908L45.1676 214.286ZM44.6471 216.73L46.1564 220.197L43.5528 222.575L42.0434 219.108L44.6471 216.73ZM43.0323 225.019L44.5417 228.485L41.938 230.863L40.4287 227.397L43.0323 225.019ZM41.4175 233.308L260.266 735.871C260.358 736.086 260.553 736.242 260.783 736.291C260.863 736.309 260.945 736.312 261.029 736.301C261.176 736.282 261.313 736.218 261.424 736.115L323.548 679.362L325.057 682.828L259.577 742.643L38.8139 235.685L41.4175 233.308ZM324.069 676.921L322.559 673.454L325.163 671.076L326.672 674.543L324.069 676.921ZM325.683 668.632L324.174 665.165L326.778 662.788L328.287 666.254L325.683 668.632ZM327.298 660.343L325.789 656.877L328.392 654.499L329.902 657.965L327.298 660.343ZM328.913 652.055L327.404 648.588L330.007 646.21L331.517 649.677L328.913 652.055ZM330.528 643.766L329.018 640.299L331.622 637.922L333.131 641.388L330.528 643.766ZM332.142 635.477L330.633 632.011L333.237 629.633L334.746 633.099L332.142 635.477ZM333.757 627.188L332.248 623.722L334.851 621.344L336.361 624.811L333.757 627.188ZM335.372 618.9L305.922 551.275L308.525 548.897L337.976 616.525L335.372 618.9ZM307.54 542.982L310.143 540.604L311.653 544.071L309.049 546.449L307.54 542.982ZM310.664 538.16L309.154 534.693L311.758 532.316L313.267 535.782L310.664 538.16ZM312.279 529.871L310.769 526.405L313.373 524.027L314.882 527.494L312.279 529.871ZM313.893 521.583L312.384 518.116L314.988 515.738L316.497 519.205L313.893 521.583ZM315.508 513.294L313.999 509.827L429.851 403.992L551.376 470.575C551.647 470.725 551.983 470.685 552.215 470.473L602.006 424.987L605.323 426.804L550.003 477.34L428.479 410.757C428.207 410.608 427.868 410.648 427.639 410.859L315.508 513.294ZM598.481 421.399L603.625 416.701L606.941 418.519L601.798 423.216L598.481 421.399ZM600.096 413.11L605.24 408.412L608.556 410.23L603.412 414.928L600.096 413.11ZM601.711 404.821L606.855 400.124L610.171 401.941L605.027 406.639L601.711 404.821ZM603.326 396.533L608.47 391.835L611.786 393.653L606.642 398.35L603.326 396.533ZM604.941 388.244L610.084 383.546L613.4 385.364L608.257 390.062L604.941 388.244ZM606.555 379.955L611.699 375.258L615.015 377.075L609.872 381.773L606.555 379.955ZM608.17 371.667L613.314 366.969L616.63 368.787L611.486 373.484L608.17 371.667ZM131.972 101.584C131.7 101.435 131.361 101.475 131.133 101.686L53.241 172.839L51.7316 169.372L133.344 94.819L618.244 360.494L613.101 365.192L131.972 101.584ZM52.7205 175.283L54.2299 178.75L51.6262 181.128L50.1169 177.661L52.7205 175.283ZM51.1057 183.572L52.6151 187.038L50.0114 189.416L48.5021 185.95L51.1057 183.572ZM49.491 191.861L51.0003 195.327L48.3967 197.705L46.8873 194.238L49.491 191.861ZM47.8766 200.153L49.386 203.619L46.7823 205.997L45.273 202.531L47.8766 200.153ZM44.66 201.122L43.1506 197.655L45.7543 195.278L47.2636 198.744L44.66 201.122ZM44.1395 203.566L45.6488 207.033L43.0452 209.411L41.5358 205.944L44.1395 203.566ZM42.5247 211.855L44.0341 215.321L41.4304 217.699L39.9211 214.233L42.5247 211.855ZM40.9099 220.144L42.4193 223.61L39.8156 225.988L38.3063 222.521L40.9099 220.144ZM39.2952 228.432L40.8045 231.899L38.2009 234.277L36.6915 230.81L39.2952 228.432ZM37.6804 236.721L258.651 744.16C258.743 744.375 258.938 744.531 259.164 744.58C259.245 744.598 259.33 744.601 259.411 744.59C259.558 744.571 259.695 744.507 259.806 744.404L325.666 684.237L327.176 687.704L257.959 750.932L35.0767 239.099L37.6804 236.721ZM326.191 681.796L324.682 678.33L327.285 675.952L328.795 679.418L326.191 681.796ZM327.806 673.507L326.296 670.041L328.9 667.663L330.409 671.129L327.806 673.507ZM329.42 665.219L327.911 661.752L330.515 659.374L332.024 662.841L329.42 665.219ZM331.035 656.93L329.526 653.463L332.13 651.086L333.639 654.552L331.035 656.93ZM332.65 648.641L331.141 645.175L333.744 642.797L335.254 646.263L332.65 648.641ZM334.265 640.352L332.755 636.886L335.359 634.508L336.868 637.975L334.265 640.352ZM335.88 632.064L334.37 628.597L336.974 626.219L338.483 629.686L335.88 632.064ZM337.494 623.772L335.985 620.305L338.588 617.927L340.098 621.394L337.494 623.772ZM339.109 615.483L309.659 547.858L312.262 545.48L341.712 613.105L339.109 615.483ZM311.277 539.569L313.88 537.191L315.39 540.658L312.786 543.035L311.277 539.569ZM314.401 534.747L312.892 531.28L315.495 528.902L317.005 532.369L314.401 534.747ZM316.016 526.458L314.506 522.991L317.11 520.614L318.619 524.08L316.016 526.458ZM317.63 518.169L316.121 514.703L428.237 412.284L549.761 478.868C550.033 479.017 550.369 478.977 550.601 478.765L606.67 427.546L609.986 429.363L548.389 485.633L426.864 419.049C426.593 418.9 426.254 418.94 426.025 419.151L317.63 518.169ZM603.144 423.954L608.288 419.257L611.604 421.074L606.46 425.772L603.144 423.954ZM604.759 415.666L609.903 410.968L613.219 412.786L608.075 417.483L604.759 415.666ZM606.374 407.377L611.517 402.679L614.833 404.497L609.69 409.195L606.374 407.377ZM607.988 399.088L613.132 394.391L616.448 396.208L611.304 400.906L607.988 399.088ZM609.603 390.796L614.746 386.098L618.063 387.916L612.919 392.614L609.603 390.796ZM611.217 382.507L616.361 377.81L619.677 379.627L614.534 384.325L611.217 382.507ZM612.832 374.219L617.976 369.521L621.292 371.339L616.148 376.036L612.832 374.219ZM614.447 365.93L619.591 361.232L622.907 363.05L617.763 367.748L614.447 365.93ZM133.587 93.2954C133.315 93.146 132.976 93.1866 132.747 93.3975L51.1191 167.967L49.6097 164.5L134.959 86.5303L624.521 354.758L619.377 359.455L133.587 93.2954ZM50.5981 170.408L52.1075 173.874L49.5038 176.252L47.9945 172.786L50.5981 170.408ZM48.9834 178.697L50.4927 182.163L47.8891 184.541L46.3797 181.074L48.9834 178.697ZM47.369 186.989L48.8784 190.455L46.2747 192.833L44.7654 189.367L47.369 186.989ZM44.1524 187.958L42.643 184.491L45.2467 182.113L46.756 185.58L44.1524 187.958ZM43.6319 190.402L45.1412 193.869L42.5376 196.246L41.0282 192.78L43.6319 190.402ZM42.0171 198.691L43.5265 202.157L40.9228 204.535L39.4135 201.069L42.0171 198.691ZM40.4023 206.98L41.9117 210.446L39.308 212.824L37.7987 209.357L40.4023 206.98ZM38.7876 215.268L40.2969 218.735L37.6933 221.113L36.1839 217.646L38.7876 215.268ZM37.1728 223.557L38.6821 227.024L36.0785 229.401L34.5691 225.935L37.1728 223.557ZM35.558 231.846L37.0674 235.312L34.4637 237.69L32.9544 234.223L35.558 231.846ZM33.9432 240.134L257.04 752.448C257.132 752.663 257.326 752.819 257.553 752.868C257.634 752.886 257.716 752.889 257.8 752.879C257.946 752.86 258.084 752.795 258.194 752.692L327.796 689.112L329.305 692.578L256.351 759.224L31.34 242.516L33.9432 240.134ZM328.313 686.671L326.804 683.205L329.408 680.827L330.917 684.294L328.313 686.671ZM329.928 678.383L328.419 674.916L331.022 672.538L332.532 676.005L329.928 678.383ZM331.543 670.094L330.033 666.627L332.637 664.25L334.147 667.716L331.543 670.094ZM333.161 661.805L331.652 658.338L334.255 655.96L335.765 659.427L333.161 661.805ZM334.772 653.517L333.263 650.05L335.867 647.672L337.376 651.139L334.772 653.517ZM336.391 645.227L334.881 641.761L337.485 639.383L338.994 642.85L336.391 645.227ZM338.005 636.935L336.496 633.469L339.099 631.091L340.609 634.557L338.005 636.935ZM339.62 628.646L338.11 625.18L340.714 622.802L342.223 626.269L339.62 628.646ZM341.235 620.358L339.725 616.891L342.329 614.513L343.838 617.98L341.235 620.358ZM342.849 612.069L313.399 544.444L316.003 542.066L345.453 609.691L342.849 612.069ZM315.014 536.155L317.618 533.778L319.127 537.244L316.523 539.622L315.014 536.155ZM318.138 531.333L316.629 527.867L319.232 525.489L320.742 528.956L318.138 531.333ZM319.753 523.045L318.243 519.578L426.622 420.573L548.146 487.156C548.418 487.306 548.757 487.265 548.986 487.054L611.332 430.101L614.648 431.919L546.774 493.925L425.25 427.342C424.978 427.192 424.639 427.233 424.411 427.444L319.753 523.045ZM607.806 426.51L612.95 421.812L616.266 423.63L611.123 428.327L607.806 426.51ZM609.421 418.218L614.565 413.52L617.881 415.338L612.737 420.035L609.421 418.218ZM611.036 409.929L616.179 405.231L619.496 407.049L614.352 411.747L611.036 409.929ZM612.65 401.64L617.794 396.943L621.11 398.76L615.967 403.458L612.65 401.64ZM614.265 393.352L619.409 388.654L622.725 390.472L617.581 395.169L614.265 393.352ZM615.88 385.063L621.024 380.365L624.34 382.183L619.196 386.88L615.88 385.063ZM617.495 376.774L622.639 372.077L625.955 373.894L620.811 378.592L617.495 376.774ZM619.109 368.485L624.253 363.788L627.569 365.605L622.426 370.303L619.109 368.485ZM620.724 360.197L625.868 355.499L629.184 357.317L624.04 362.014L620.724 360.197ZM135.201 85.0067C134.93 84.8573 134.594 84.8974 134.362 85.1087L48.9967 163.092L47.4873 159.625L136.574 78.2416L630.799 349.025L625.655 353.722L135.201 85.0067ZM48.4762 165.536L49.9856 169.003L47.3819 171.38L45.8726 167.914L48.4762 165.536ZM46.8615 173.825L48.3708 177.291L45.7671 179.669L44.2578 176.203L46.8615 173.825ZM43.6448 174.794L42.1354 171.327L44.7391 168.949L46.2484 172.416L43.6448 174.794ZM43.1243 177.238L44.6336 180.705L42.03 183.082L40.5206 179.616L43.1243 177.238ZM41.5095 185.527L43.0189 188.993L40.4152 191.371L38.9059 187.905L41.5095 185.527ZM39.8947 193.816L41.4041 197.282L38.8004 199.66L37.2911 196.193L39.8947 193.816ZM38.28 202.104L39.7893 205.571L37.1857 207.949L35.6763 204.482L38.28 202.104ZM36.6652 210.393L38.1745 213.859L35.5709 216.237L34.0615 212.771L36.6652 210.393ZM35.0504 218.682L36.5598 222.148L33.9561 224.526L32.4468 221.059L35.0504 218.682ZM33.4356 226.97L34.945 230.437L32.3413 232.815L30.832 229.348L33.4356 226.97ZM31.8213 235.263L33.3307 238.729L30.727 241.107L29.2177 237.64L31.8213 235.263ZM30.2065 243.551L255.426 760.74C255.518 760.956 255.712 761.112 255.942 761.16C256.023 761.178 256.105 761.181 256.189 761.17C256.335 761.151 256.473 761.087 256.584 760.984L329.922 693.99L331.432 697.457L254.733 767.516L27.6029 245.929L30.2065 243.551ZM330.439 691.546L328.93 688.08L331.533 685.702L333.043 689.168L330.439 691.546ZM332.054 683.258L330.545 679.791L333.148 677.413L334.658 680.88L332.054 683.258ZM333.669 674.969L332.159 671.502L334.763 669.125L336.272 672.591L333.669 674.969ZM335.283 666.68L333.774 663.214L336.378 660.836L337.887 664.302L335.283 666.68ZM336.898 658.391L335.389 654.925L337.993 652.547L339.502 656.014L336.898 658.391ZM338.513 650.099L337.003 646.633L339.607 644.255L341.116 647.721L338.513 650.099ZM340.127 641.811L338.618 638.344L341.222 635.966L342.731 639.433L340.127 641.811ZM341.742 633.522L340.233 630.055L342.836 627.678L344.346 631.144L341.742 633.522ZM343.357 625.233L341.848 621.767L344.451 619.389L345.961 622.855L343.357 625.233ZM344.972 616.944L343.462 613.478L346.066 611.1L347.575 614.567L344.972 616.944ZM346.586 608.656L317.136 541.031L319.74 538.653L349.191 606.281L346.586 608.656ZM318.751 532.739L321.354 530.361L322.864 533.827L320.26 536.205L318.751 532.739ZM321.875 527.916L320.365 524.45L425.007 428.858L546.531 495.441C546.803 495.591 547.139 495.551 547.37 495.339L615.997 432.65L619.313 434.467L545.162 502.206L423.638 435.623C423.366 435.473 423.027 435.514 422.799 435.725L321.875 527.916ZM612.469 429.062L617.612 424.364L620.929 426.182L615.785 430.88L612.469 429.062ZM614.083 420.773L619.227 416.076L622.543 417.893L617.399 422.591L614.083 420.773ZM615.698 412.485L620.842 407.787L624.158 409.605L619.014 414.302L615.698 412.485ZM617.313 404.196L622.457 399.498L625.773 401.316L620.629 406.013L617.313 404.196ZM618.928 395.907L624.071 391.21L627.388 393.027L622.244 397.725L618.928 395.907ZM620.542 387.618L625.686 382.921L629.002 384.738L623.859 389.436L620.542 387.618ZM622.157 379.33L627.301 374.632L630.617 376.45L625.473 381.147L622.157 379.33ZM623.772 371.041L628.916 366.343L632.232 368.161L627.088 372.859L623.772 371.041ZM625.387 362.752L630.531 358.055L633.847 359.872L628.703 364.57L625.387 362.752ZM627.001 354.46L632.145 349.763L635.461 351.58L630.317 356.278L627.001 354.46ZM136.816 76.718C136.545 76.5686 136.205 76.6092 135.977 76.82L46.8708 158.217L45.3615 154.75L138.189 69.9529L637.076 343.291L631.932 347.989L136.816 76.718ZM46.3539 160.661L47.8632 164.127L45.2595 166.505L43.7502 163.038L46.3539 160.661ZM42.6167 164.074L44.1261 167.541L41.5224 169.918L40.013 166.452L42.6167 164.074ZM41.0019 172.363L42.5113 175.829L39.9076 178.207L38.3983 174.741L41.0019 172.363ZM39.3871 180.651L40.8965 184.118L38.2928 186.496L36.7835 183.029L39.3871 180.651ZM37.7724 188.94L39.2817 192.407L36.6781 194.784L35.1687 191.318L37.7724 188.94ZM36.1576 197.229L37.6669 200.695L35.0633 203.073L33.5509 199.611L36.1576 197.229ZM34.5433 205.521L36.0526 208.988L33.449 211.365L31.9396 207.899L34.5433 205.521ZM32.9285 213.81L34.4378 217.276L31.8342 219.654L30.3248 216.188L32.9285 213.81ZM31.3137 222.098L32.8231 225.565L30.2194 227.943L28.7101 224.476L31.3137 222.098ZM29.6954 230.388L31.2048 233.854L28.6011 236.232L27.0918 232.765L29.6954 230.388ZM28.0842 238.676L29.5935 242.142L26.9899 244.52L25.4805 241.054L28.0842 238.676ZM253.119 775.805L23.8622 249.343L26.4659 246.965L253.808 769.029C253.9 769.245 254.094 769.401 254.32 769.449C254.401 769.467 254.487 769.47 254.567 769.46C254.714 769.441 254.851 769.377 254.962 769.274L332.037 698.863L333.546 702.329L253.119 775.805ZM332.562 696.422L331.052 692.955L333.656 690.577L335.165 694.044L332.562 696.422ZM334.176 688.133L332.667 684.666L335.271 682.289L336.78 685.755L334.176 688.133ZM335.791 679.844L334.282 676.378L336.885 674L338.395 677.466L335.791 679.844ZM337.405 671.552L335.896 668.085L338.5 665.708L340.009 669.174L337.405 671.552ZM339.02 663.263L337.511 659.797L340.114 657.419L341.624 660.885L339.02 663.263ZM340.635 654.975L339.126 651.508L341.729 649.13L343.239 652.597L340.635 654.975ZM342.25 646.686L340.74 643.219L343.344 640.842L344.853 644.308L342.25 646.686ZM343.865 638.397L342.355 634.931L344.959 632.553L346.468 636.019L343.865 638.397ZM345.479 630.108L343.97 626.642L346.574 624.264L348.083 627.731L345.479 630.108ZM347.094 621.82L345.585 618.353L348.188 615.975L349.698 619.442L347.094 621.82ZM348.709 613.531L347.199 610.065L349.803 607.687L351.312 611.153L348.709 613.531ZM352.927 602.861L350.323 605.239L320.873 537.614L323.477 535.236L352.927 602.861ZM623.976 437.026L543.548 510.498L422.024 443.915C421.752 443.766 421.413 443.806 421.184 444.017L323.997 532.792L322.488 529.325L423.393 437.15L544.917 503.734C545.189 503.883 545.528 503.842 545.756 503.632L620.66 435.209L623.976 437.026ZM625.591 428.734L620.447 433.432L617.131 431.614L622.274 426.916L625.591 428.734ZM627.205 420.445L622.062 425.143L618.745 423.325L623.889 418.628L627.205 420.445ZM628.82 412.157L623.676 416.854L620.36 415.037L625.504 410.339L628.82 412.157ZM630.435 403.868L625.291 408.566L621.975 406.748L627.119 402.05L630.435 403.868ZM632.05 395.579L626.906 400.277L623.59 398.459L628.734 393.762L632.05 395.579ZM633.664 387.29L628.521 391.988L625.204 390.17L630.348 385.473L633.664 387.29ZM635.279 379.002L630.135 383.699L626.819 381.882L631.963 377.184L635.279 379.002ZM636.894 370.713L631.75 375.411L628.434 373.593L633.578 368.895L636.894 370.713ZM638.509 362.424L633.365 367.122L630.049 365.304L635.193 360.607L638.509 362.424ZM640.124 354.136L634.98 358.833L631.664 357.016L636.807 352.318L640.124 354.136ZM641.738 345.847L636.595 350.545L633.278 348.727L638.422 344.029L641.738 345.847ZM638.209 342.256L138.435 68.4288C138.163 68.2794 137.824 68.32 137.595 68.5309L44.7519 153.341L43.2426 149.874L139.803 61.6642L643.353 337.558L638.209 342.256ZM341.779 400.296C341.752 400.062 341.612 399.86 341.405 399.744L337.634 397.677L343.162 392.627C343.333 392.47 343.42 392.239 343.393 392.004C343.366 391.769 343.226 391.567 343.02 391.456L339.249 389.388L344.776 384.339C344.948 384.181 345.035 383.95 345.008 383.715C344.982 383.484 344.841 383.279 344.635 383.167L340.863 381.099L346.391 376.05C346.563 375.893 346.65 375.661 346.623 375.427C346.596 375.192 346.456 374.99 346.25 374.878L342.478 372.811L348.006 367.761C348.177 367.604 348.265 367.372 348.238 367.138C348.211 366.907 348.071 366.701 347.864 366.59L344.093 364.522L349.621 359.473C349.792 359.315 349.879 359.084 349.852 358.849C349.826 358.618 349.685 358.413 349.479 358.301L345.708 356.233L351.236 351.184C351.41 351.026 351.494 350.795 351.467 350.56C351.441 350.329 351.3 350.124 351.094 350.012L347.322 347.945L352.85 342.895C353.025 342.737 353.109 342.506 353.082 342.272C353.055 342.041 352.915 341.835 352.709 341.723L348.937 339.656L354.465 334.606C354.636 334.449 354.724 334.218 354.697 333.983C354.67 333.752 354.53 333.546 354.323 333.435L350.552 331.367L356.08 326.318C356.251 326.16 356.338 325.929 356.311 325.694C356.285 325.46 356.145 325.258 355.938 325.146L352.167 323.079L357.695 318.029C357.866 317.872 357.953 317.64 357.926 317.406C357.9 317.175 357.759 316.969 357.553 316.857L353.782 314.79L359.309 309.74C359.481 309.583 359.568 309.351 359.541 309.117C359.514 308.882 359.374 308.68 359.168 308.569L355.396 306.501L360.924 301.452C361.096 301.294 361.183 301.063 361.156 300.828C361.129 300.597 360.989 300.392 360.783 300.28L179.274 200.83C178.999 200.681 178.663 200.721 178.435 200.932C178.206 201.142 178.136 201.475 178.258 201.758L182.655 211.858L177.656 209.119C177.384 208.969 177.045 209.01 176.817 209.221C176.588 209.432 176.517 209.761 176.64 210.047L181.037 220.147L176.038 217.408C175.766 217.258 175.427 217.299 175.198 217.51C174.97 217.721 174.896 218.054 175.021 218.336L179.422 228.436L174.423 225.697C174.151 225.547 173.812 225.588 173.583 225.799C173.355 226.01 173.284 226.338 173.407 226.625L177.803 236.725L172.804 233.986C172.533 233.836 172.194 233.877 171.965 234.088C171.737 234.299 171.666 234.628 171.788 234.914L176.185 245.014L171.186 242.275C170.915 242.125 170.575 242.166 170.347 242.377C170.119 242.588 170.048 242.917 170.17 243.203L174.567 253.303L169.568 250.564C169.296 250.415 168.96 250.455 168.729 250.666C168.5 250.877 168.43 251.209 168.552 251.492L172.949 261.592L167.95 258.853C167.678 258.704 167.339 258.744 167.11 258.955C166.882 259.166 166.811 259.495 166.934 259.781L171.33 269.882L166.331 267.142C166.06 266.993 165.72 267.034 165.492 267.244C165.264 267.455 165.19 267.788 165.315 268.07L169.712 278.171L164.713 275.432C164.441 275.282 164.102 275.323 163.874 275.534C163.646 275.744 163.575 276.073 163.697 276.359L168.094 286.46L163.095 283.721C162.823 283.571 162.484 283.612 162.256 283.823C162.027 284.034 161.957 284.366 162.079 284.649L166.476 294.749L161.477 292.01C161.205 291.86 160.866 291.901 160.637 292.112C160.409 292.323 160.335 292.652 160.461 292.938L164.857 303.038L159.858 300.299C159.587 300.15 159.251 300.19 159.019 300.401C158.791 300.612 158.72 300.941 158.842 301.227L241.482 490.996C241.573 491.211 241.768 491.367 241.994 491.416C242.075 491.434 242.161 491.437 242.241 491.427C242.388 491.407 242.525 491.343 242.636 491.244L341.509 400.925C341.722 400.762 341.806 400.531 341.779 400.296ZM341.432 392.245L336.288 396.942L332.972 395.125L338.116 390.427L341.432 392.245ZM242.451 345.527L238.151 335.656L290.141 364.141L284.998 368.839L242.451 345.527ZM283.868 369.877L261.823 390.013L243.398 347.703L283.868 369.877ZM260.897 391.526C260.989 391.742 261.184 391.898 261.41 391.946C261.491 391.964 261.576 391.968 261.657 391.957C261.803 391.938 261.941 391.874 262.052 391.774L285.211 370.616L288.527 372.433L260.205 398.306L236.533 343.949L241.314 346.567L260.897 391.526ZM286.348 369.58L291.492 364.882L294.808 366.7L289.664 371.397L286.348 369.58ZM237.204 333.481L232.905 323.609L296.422 358.408L291.278 363.105L237.204 333.481ZM240.37 344.388L235.589 341.769L231.29 331.898L236.071 334.516L240.37 344.388ZM259.283 399.815C259.374 400.031 259.569 400.187 259.795 400.235C259.876 400.253 259.958 400.257 260.042 400.246C260.189 400.227 260.326 400.163 260.437 400.063L289.877 373.171L293.193 374.988L258.594 406.594L229.676 340.19L234.456 342.808L259.283 399.815ZM291.01 372.135L296.154 367.438L299.47 369.255L294.327 373.953L291.01 372.135ZM292.625 363.843L297.769 359.146L301.085 360.963L295.941 365.661L292.625 363.843ZM231.957 321.434L227.658 311.562L302.7 352.678L297.556 357.375L231.957 321.434ZM235.123 332.341L230.343 329.722L226.043 319.851L230.824 322.469L235.123 332.341ZM233.509 340.629L228.728 338.011L224.428 328.14L229.209 330.758L233.509 340.629ZM257.668 408.104C257.76 408.319 257.954 408.475 258.181 408.524C258.261 408.542 258.347 408.545 258.427 408.534C258.574 408.515 258.711 408.451 258.822 408.352L294.539 375.726L297.856 377.544L256.979 414.883L222.814 336.428L227.594 339.047L257.668 408.104ZM295.672 374.687L300.816 369.99L304.132 371.807L298.989 376.505L295.672 374.687ZM297.287 366.399L302.431 361.701L305.747 363.519L300.603 368.216L297.287 366.399ZM298.902 358.11L304.046 353.412L307.362 355.23L302.218 359.928L298.902 358.11ZM226.71 309.383L222.411 299.512L308.977 346.941L303.833 351.639L226.71 309.383ZM229.876 320.29L225.096 317.672L220.796 307.801L225.577 310.419L229.876 320.29ZM228.262 328.583L223.481 325.964L219.182 316.093L223.962 318.711L228.262 328.583ZM226.647 336.871L221.866 334.253L217.567 324.381L222.348 327L226.647 336.871ZM256.053 416.393C256.145 416.608 256.339 416.764 256.566 416.813C256.646 416.831 256.732 416.834 256.812 416.823C256.959 416.804 257.096 416.74 257.208 416.64L299.201 378.279L302.518 380.096L255.364 423.172L215.952 332.667L220.732 335.285L256.053 416.393ZM300.335 377.243L305.479 372.545L308.795 374.363L303.651 379.061L300.335 377.243ZM301.95 368.954L307.094 364.257L310.41 366.074L305.266 370.772L301.95 368.954ZM303.565 360.666L308.708 355.968L312.025 357.785L306.881 362.483L303.565 360.666ZM305.179 352.377L310.323 347.679L313.639 349.497L308.495 354.194L305.179 352.377ZM221.464 297.336L217.164 287.465L315.254 341.208L310.11 345.906L221.464 297.336ZM224.63 308.243L219.849 305.625L215.549 295.754L220.33 298.372L224.63 308.243ZM223.015 316.532L218.234 313.914L213.935 304.042L218.715 306.661L223.015 316.532ZM221.4 324.821L216.619 322.203L212.32 312.331L217.101 314.949L221.4 324.821ZM219.785 333.11L215.005 330.491L210.705 320.62L215.486 323.238L219.785 333.11ZM254.438 424.681C254.53 424.897 254.724 425.053 254.951 425.101C255.032 425.119 255.117 425.122 255.198 425.112C255.344 425.093 255.482 425.029 255.593 424.929L303.864 380.834L307.18 382.652L253.75 431.46L209.09 328.908L213.871 331.527L254.438 424.681ZM304.998 379.798L310.141 375.101L313.457 376.918L308.314 381.616L304.998 379.798ZM306.612 371.51L311.756 366.812L315.072 368.63L309.928 373.327L306.612 371.51ZM308.227 363.221L313.371 358.523L316.687 360.341L311.543 365.039L308.227 363.221ZM309.841 354.929L314.985 350.231L318.301 352.049L313.158 356.746L309.841 354.929ZM311.456 346.64L316.6 341.943L319.916 343.76L314.772 348.458L311.456 346.64ZM216.216 285.286L211.917 275.415L321.531 335.471L316.387 340.169L216.216 285.286ZM219.383 296.193L214.602 293.575L210.302 283.703L215.083 286.322L219.383 296.193ZM217.768 304.485L212.987 301.867L208.688 291.995L213.469 294.614L217.768 304.485ZM216.153 312.774L211.373 310.156L207.073 300.284L211.854 302.903L216.153 312.774ZM214.539 321.063L209.758 318.444L205.458 308.573L210.239 311.191L214.539 321.063ZM212.924 329.351L208.143 326.733L203.844 316.862L208.624 319.48L212.924 329.351ZM252.823 432.97C252.915 433.185 253.11 433.341 253.336 433.39C253.417 433.408 253.502 433.411 253.583 433.401C253.729 433.382 253.867 433.317 253.978 433.218L308.527 383.39L311.843 385.207L252.135 439.749L202.232 325.15L207.013 327.768L252.823 432.97ZM309.66 382.354L314.804 377.656L318.12 379.474L312.976 384.172L309.66 382.354ZM311.274 374.062L316.418 369.364L319.734 371.182L314.591 375.879L311.274 374.062ZM312.889 365.773L318.033 361.076L321.349 362.893L316.205 367.591L312.889 365.773ZM314.504 357.484L319.648 352.787L322.964 354.604L317.82 359.302L314.504 357.484ZM316.119 349.196L321.262 344.498L324.579 346.316L319.435 351.013L316.119 349.196ZM317.733 340.907L322.877 336.209L326.193 338.027L321.05 342.725L317.733 340.907ZM210.97 273.239L206.67 263.368L327.808 329.738L322.664 334.436L210.97 273.239ZM214.136 284.146L209.355 281.528L205.055 271.656L209.836 274.275L214.136 284.146ZM212.521 292.435L207.74 289.817L203.441 279.945L208.222 282.563L212.521 292.435ZM210.906 300.724L206.125 298.105L201.826 288.234L206.607 290.852L210.906 300.724ZM209.291 309.012L204.511 306.394L200.211 296.522L204.992 299.141L209.291 309.012ZM207.677 317.301L202.896 314.683L198.596 304.811L203.377 307.43L207.677 317.301ZM206.062 325.593L201.282 322.975L196.982 313.103L201.763 315.722L206.062 325.593ZM251.209 441.259C251.301 441.474 251.495 441.63 251.721 441.679C251.802 441.697 251.884 441.7 251.968 441.689C252.115 441.67 252.252 441.606 252.363 441.506L313.189 385.942L316.505 387.759L250.52 448.038L195.367 321.389L200.148 324.007L251.209 441.259ZM314.322 384.906L319.466 380.208L322.782 382.026L317.638 386.724L314.322 384.906ZM315.937 376.617L321.081 371.92L324.397 373.737L319.253 378.435L315.937 376.617ZM317.552 368.329L322.695 363.631L326.012 365.449L320.868 370.146L317.552 368.329ZM319.166 360.04L324.31 355.342L327.626 357.16L322.483 361.858L319.166 360.04ZM320.781 351.751L325.925 347.054L329.241 348.871L324.097 353.569L320.781 351.751ZM322.396 343.463L327.54 338.765L330.856 340.583L325.712 345.28L322.396 343.463ZM324.011 335.174L329.155 330.476L332.471 332.294L327.327 336.991L324.011 335.174ZM205.726 261.188L201.427 251.317L334.089 324.001L328.945 328.699L205.726 261.188ZM208.889 272.099L204.108 269.481L199.809 259.609L204.59 262.228L208.889 272.099ZM207.274 280.388L202.494 277.77L198.194 267.898L202.975 270.517L207.274 280.388ZM205.66 288.677L200.879 286.058L196.579 276.187L201.36 278.805L205.66 288.677ZM204.045 296.965L199.264 294.347L194.964 284.476L199.745 287.094L204.045 296.965ZM202.43 305.254L197.649 302.636L193.35 292.764L198.131 295.383L202.43 305.254ZM200.815 313.543L196.034 310.925L191.735 301.053L196.516 303.671L200.815 313.543ZM199.2 321.832L194.42 319.213L190.12 309.342L194.901 311.96L199.2 321.832ZM249.594 449.551C249.686 449.766 249.881 449.922 250.107 449.971C250.188 449.989 250.273 449.992 250.354 449.982C250.5 449.962 250.638 449.898 250.749 449.799L317.852 388.501L321.168 390.318L248.905 456.327L188.509 317.63L193.29 320.248L249.594 449.551ZM318.985 387.462L324.128 382.764L327.445 384.582L322.301 389.279L318.985 387.462ZM320.599 379.173L325.743 374.475L329.059 376.293L323.916 380.991L320.599 379.173ZM322.214 370.884L327.358 366.187L330.674 368.004L325.53 372.702L322.214 370.884ZM323.829 362.596L328.973 357.898L332.289 359.716L327.145 364.413L323.829 362.596ZM325.444 354.307L330.588 349.609L333.904 351.427L328.76 356.124L325.444 354.307ZM327.059 346.018L332.202 341.321L335.518 343.138L330.375 347.836L327.059 346.018ZM328.673 337.726L333.817 333.028L337.133 334.846L331.989 339.544L328.673 337.726ZM330.288 329.437L335.431 324.74L338.748 326.557L333.604 331.255L330.288 329.437ZM200.479 249.141L196.18 239.27L340.362 318.269L335.219 322.966L200.479 249.141ZM203.642 260.049L198.861 257.431L194.562 247.559L199.342 250.177L203.642 260.049ZM202.027 268.338L197.246 265.719L192.947 255.848L197.728 258.466L202.027 268.338ZM200.412 276.626L195.632 274.008L191.332 264.137L196.113 266.755L200.412 276.626ZM198.798 284.915L194.017 282.297L189.717 272.425L194.498 275.044L198.798 284.915ZM197.183 293.207L192.403 290.589L188.103 280.717L192.884 283.336L197.183 293.207ZM195.569 301.496L190.788 298.878L186.488 289.006L191.269 291.624L195.569 301.496ZM193.954 309.785L189.173 307.166L184.873 297.295L189.654 299.913L193.954 309.785ZM192.339 318.073L187.558 315.455L183.259 305.584L188.039 308.202L192.339 318.073ZM247.98 457.84C248.071 458.055 248.266 458.211 248.492 458.26C248.573 458.278 248.655 458.281 248.739 458.27C248.886 458.251 249.023 458.187 249.134 458.087L322.514 391.053L325.83 392.87L247.291 464.619L181.647 313.872L186.428 316.49L247.98 457.84ZM323.647 390.017L328.791 385.32L332.107 387.137L326.963 391.835L323.647 390.017ZM325.262 381.729L330.406 377.031L333.722 378.849L328.578 383.546L325.262 381.729ZM326.877 373.44L332.021 368.742L335.337 370.56L330.193 375.257L326.877 373.44ZM328.491 365.148L333.635 360.45L336.951 362.268L331.807 366.965L328.491 365.148ZM330.106 356.859L335.25 352.161L338.566 353.979L333.422 358.676L330.106 356.859ZM331.721 348.57L336.864 343.873L340.181 345.69L335.037 350.388L331.721 348.57ZM333.339 340.281L338.483 335.583L341.799 337.401L336.655 342.099L333.339 340.281ZM334.954 331.992L340.097 327.295L343.414 329.112L338.27 333.81L334.954 331.992ZM336.568 323.704L341.712 319.006L345.028 320.824L339.885 325.521L336.568 323.704ZM195.233 237.095L190.933 227.223L346.643 312.535L341.499 317.232L195.233 237.095ZM198.395 248.002L193.614 245.384L189.315 235.512L194.096 238.131L198.395 248.002ZM196.784 256.29L192.003 253.672L187.704 243.8L192.484 246.419L196.784 256.29ZM195.166 264.579L190.385 261.961L186.085 252.09L190.866 254.708L195.166 264.579ZM193.551 272.868L188.77 270.25L184.471 260.378L189.251 262.997L193.551 272.868ZM191.936 281.157L187.155 278.539L182.856 268.667L187.637 271.285L191.936 281.157ZM190.321 289.446L185.541 286.827L181.241 276.956L186.022 279.574L190.321 289.446ZM188.707 297.734L183.926 295.116L179.626 285.244L184.407 287.863L188.707 297.734ZM187.092 306.023L182.311 303.405L178.012 293.533L182.792 296.152L187.092 306.023ZM185.478 314.315L180.697 311.697L176.397 301.825L181.178 304.444L185.478 314.315ZM246.365 466.128C246.457 466.344 246.651 466.5 246.878 466.548C246.958 466.566 247.044 466.569 247.124 466.559C247.271 466.54 247.408 466.476 247.519 466.376L327.176 393.608L330.492 395.426L245.676 472.908L174.785 310.11L179.566 312.728L246.365 466.128ZM328.31 392.573L333.454 387.875L336.77 389.693L331.626 394.39L328.31 392.573ZM329.924 384.281L335.068 379.583L338.384 381.401L333.24 386.098L329.924 384.281ZM331.539 375.992L336.683 371.294L339.999 373.112L334.855 377.809L331.539 375.992ZM333.154 367.703L338.297 363.006L341.614 364.823L336.47 369.521L333.154 367.703ZM334.768 359.414L339.912 354.717L343.228 356.534L338.084 361.232L334.768 359.414ZM336.387 351.125L341.53 346.428L344.847 348.245L339.703 352.943L336.387 351.125ZM338.001 342.837L343.145 338.139L346.461 339.957L341.318 344.654L338.001 342.837ZM339.616 334.548L344.76 329.85L348.076 331.668L342.932 336.365L339.616 334.548ZM341.231 326.259L346.375 321.562L349.691 323.379L344.547 328.077L341.231 326.259ZM342.846 317.97L347.99 313.273L351.306 315.09L346.162 319.788L342.846 317.97ZM189.986 225.044L185.686 215.173L352.92 306.798L347.776 311.496L189.986 225.044ZM193.152 235.951L188.371 233.333L184.071 223.461L188.852 226.08L193.152 235.951ZM191.537 244.243L186.757 241.625L182.457 231.754L187.238 234.372L191.537 244.243ZM189.923 252.532L185.142 249.914L180.842 240.042L185.623 242.661L189.923 252.532ZM188.304 260.818L183.523 258.199L179.224 248.328L184.004 250.946L188.304 260.818ZM186.69 269.11L181.909 266.492L177.609 256.62L182.39 259.239L186.69 269.11ZM185.075 277.399L180.294 274.78L175.994 264.909L180.775 267.527L185.075 277.399ZM183.463 285.687L178.683 283.069L174.383 273.197L179.164 275.815L183.463 285.687ZM181.845 293.976L177.064 291.358L172.765 281.486L177.546 284.105L181.845 293.976ZM180.23 302.265L175.45 299.646L171.15 289.775L175.931 292.393L180.23 302.265ZM178.616 310.554L173.835 307.935L169.535 298.064L174.316 300.682L178.616 310.554ZM244.75 474.417C244.842 474.632 245.036 474.788 245.263 474.837C245.343 474.855 245.429 474.858 245.509 474.848C245.656 474.829 245.793 474.764 245.905 474.665L331.839 396.164L335.155 397.982L244.061 481.196L167.924 306.352L172.705 308.97L244.75 474.417ZM343.047 383.956L337.903 388.654L334.587 386.836L339.73 382.139L343.047 383.956ZM344.661 375.664L339.517 380.362L336.201 378.544L341.345 373.846L344.661 375.664ZM346.276 367.375L341.132 372.073L337.816 370.255L342.959 365.558L346.276 367.375ZM347.89 359.087L342.747 363.784L339.43 361.967L344.574 357.269L347.89 359.087ZM349.505 350.798L344.361 355.495L341.045 353.678L346.189 348.98L349.505 350.798ZM351.123 342.509L345.98 347.206L342.663 345.389L347.807 340.691L351.123 342.509ZM352.738 334.22L347.594 338.918L344.278 337.1L349.422 332.402L352.738 334.22ZM354.353 325.931L349.209 330.629L345.893 328.811L351.037 324.114L354.353 325.931ZM355.968 317.643L350.824 322.34L347.508 320.523L352.652 315.825L355.968 317.643ZM357.583 309.354L352.439 314.051L349.123 312.234L354.266 307.536L357.583 309.354ZM180.439 203.122L359.197 301.062L354.053 305.759L184.739 212.997L180.439 203.122ZM178.825 211.415L183.605 214.033L187.905 223.904L183.124 221.286L178.825 211.415ZM177.21 219.703L181.991 222.322L186.29 232.193L181.509 229.575L177.21 219.703ZM175.595 227.992L180.376 230.61L184.675 240.482L179.895 237.863L175.595 227.992ZM173.98 236.281L178.761 238.899L183.061 248.77L178.28 246.152L173.98 236.281ZM172.366 244.569L177.146 247.188L181.446 257.059L176.665 254.441L172.366 244.569ZM170.751 252.858L175.532 255.476L179.831 265.348L175.05 262.73L170.751 252.858ZM169.136 261.147L173.917 263.765L178.216 273.637L173.436 271.018L169.136 261.147ZM167.521 269.435L172.302 272.054L176.602 281.925L171.821 279.307L167.521 269.435ZM165.906 277.724L170.687 280.343L174.987 290.214L170.206 287.596L165.906 277.724ZM164.292 286.013L169.072 288.631L173.372 298.503L168.591 295.884L164.292 286.013ZM162.677 294.302L167.458 296.92L171.757 306.791L166.976 304.173L162.677 294.302ZM242.446 489.481L161.063 302.594L165.843 305.212L243.135 482.706C243.227 482.921 243.422 483.077 243.648 483.126C243.729 483.144 243.814 483.147 243.895 483.136C244.041 483.117 244.179 483.053 244.29 482.953L336.501 398.716L339.817 400.534L242.446 489.481Z" fill="#7D828B"/>
<path d="M137.089 342.681C136.308 343.425 136.089 344.599 136.876 346.433C137.666 348.271 138.429 348.545 139.046 348.281C139.773 347.968 139.872 347.219 139.06 344.344C137.533 338.859 139.052 337.354 140.641 336.671C142.61 335.825 145.502 336.435 147.53 341.154C149.596 345.957 148.155 348.571 146.374 349.571L144.551 345.333C145.084 344.883 145.572 344.096 144.742 342.171C144.041 340.542 143.324 340.512 142.865 340.711C142.324 340.944 142.182 341.519 142.914 344.208C144.491 350.074 143.029 351.565 141.222 352.344C138.847 353.364 136.076 352.326 133.944 347.362C132.344 343.642 132.593 340.082 135.259 338.428L137.089 342.681Z" fill="#7D828B"/>
<path d="M150.376 348.749L151.426 351.188L154.083 350.047L155.942 354.371L153.285 355.512L154.641 358.662L151.652 359.947L150.297 356.797L144.814 359.155C143.707 359.633 143.302 360.092 143.869 361.412C144.029 361.784 144.212 362.203 144.451 362.541L141.628 363.755C141.112 363.108 140.598 362.155 140.166 361.151C138.726 357.804 139.698 356.232 142.236 355.142L148.437 352.476L147.388 350.037L150.376 348.749Z" fill="#7D828B"/>
<path d="M151.746 377.738C150.054 378.465 148.412 379.264 148.147 379.414L146.399 375.35C146.665 375.111 147.447 374.741 147.802 374.559C146.363 374.314 144.993 373.046 143.893 370.488C142.293 366.769 143.815 364.334 145.894 363.439C149.31 361.97 151.604 364.687 153.327 368.698C153.786 369.761 154.35 371.077 154.551 371.547L154.962 371.37C156.017 370.917 156.661 370.073 155.803 368.077C155.003 366.219 154.161 366.094 153.339 366.239L151.49 361.939C153.143 361.362 156.249 361.43 158.564 366.813C161.105 372.719 158.805 374.704 156.627 375.639L151.746 377.738ZM151.949 372.668C151.837 372.345 151.434 371.409 150.781 369.884C149.84 367.698 148.919 367.074 147.895 367.515C147.049 367.879 146.669 368.89 147.341 370.448C148.354 372.807 149.898 373.55 151.752 372.752L151.949 372.668Z" fill="#7D828B"/>
<path d="M161.531 374.679L162.581 377.118L165.237 375.977L167.096 380.301L164.44 381.442L165.795 384.592L162.807 385.876L161.452 382.726L155.969 385.085C154.862 385.559 154.457 386.022 155.024 387.342C155.184 387.713 155.366 388.133 155.605 388.47L152.783 389.685C152.266 389.038 151.752 388.085 151.321 387.081C149.881 383.733 150.853 382.162 153.39 381.071L159.592 378.406L158.542 375.967L161.531 374.679Z" fill="#7D828B"/>
<path d="M168.321 390.539L166.471 386.238L153.457 391.833L155.306 396.134L168.321 390.539Z" fill="#7D828B"/>
<path d="M169.146 410.284C165.141 412.008 161.029 410.345 158.861 405.294C156.682 400.227 158.827 396.237 162.435 394.686C166.005 393.153 170.44 394.422 172.656 399.573C174.934 404.873 172.376 408.895 169.146 410.284ZM164.316 399.062C162.292 399.932 161.057 401.851 162.027 404.104C163.024 406.421 165.191 406.743 167.176 405.89C169.141 405.044 170.548 403.228 169.523 400.845C168.519 398.513 166.324 398.199 164.316 399.062Z" fill="#7D828B"/>
<path d="M172.948 410.277C174.051 409.805 175.297 409.266 176.22 408.84L178.029 413.042C177.683 413.254 176.918 413.641 176.402 413.89C177.569 414.126 179.237 414.88 180.376 417.528C181.816 420.876 180.685 423.714 177.329 425.155L169.301 428.606L167.433 424.259L174.805 421.088C176.295 420.449 177.344 419.282 176.513 417.349C175.65 415.342 173.918 414.981 171.571 415.988L165.08 418.781L163.221 414.457L172.948 410.277Z" fill="#7D828B"/>
</g>
</svg>
