<?xml version="1.0" encoding="utf-8"?>
<!-- Generator: Adobe Illustrator 19.2.1, SVG Export Plug-In . SVG Version: 6.00 Build 0)  -->
<svg version="1.1" id="Слой_1" xmlns="http://www.w3.org/2000/svg" xmlns:xlink="http://www.w3.org/1999/xlink" x="0px" y="0px"
	 viewBox="0 0 97 129.3" style="enable-background:new 0 0 97 129.3;" xml:space="preserve" fill="#4a4949">
<g id="Направляющие_для_монтажной_области">
</g>
<g id="Слой_1_1_">
	<g>
		<g>
			<path d="M9.7,13c0.2,0,0.3,0.1,0.4,0.2s0.2,0.5,0.3,1.1l3.4,19.5c0.2,1,0.2,1.7,0.1,2.1c-0.1,0.4-0.4,0.7-0.9,0.9
				c-0.3,0.1-1,0.3-2.1,0.5l0.3,1.7l10.6-1.9l-0.3-1.6c-1.1,0.2-1.8,0.3-2.2,0.3c-0.3,0-0.6-0.1-0.8-0.2c-0.2-0.1-0.4-0.4-0.6-0.7
				s-0.3-0.9-0.5-1.8L14,14c-0.1-0.8-0.2-1.2-0.2-1.4c0-0.2,0.1-0.3,0.3-0.4c0.1-0.1,0.6-0.2,1.3-0.3c1.8-0.3,3.4-0.2,4.7,0.5
				c1.3,0.7,2.6,2,3.8,4l1.7-0.9l-4.1-7.7l-1.4,0.3v1l-16.9,3l-0.4-0.9l-1.4,0.2L0,20l1.9,0.3c0.3-1.5,0.7-2.8,1.4-3.8
				c0.6-1,1.3-1.8,2.1-2.3c0.8-0.5,1.9-0.9,3.3-1.2C9.2,13,9.5,12.9,9.7,13z M55,4.6c0.7-0.1,1.2-0.1,1.5,0s0.6,0.3,0.8,0.6
				c0.2,0.3,0.4,0.9,0.5,1.7l3.2,18c0.2,1.2,0.3,1.9,0.3,2c0,0.4-0.1,0.7-0.3,0.9c-0.1,0.3-0.3,0.5-0.6,0.6
				c-0.2,0.1-0.7,0.3-1.4,0.4L58.1,29l0.3,1.7l10.5-1.9l-0.3-1.7l-0.7,0.1c-0.9,0.2-1.6,0.2-1.9,0.1c-0.4-0.1-0.6-0.4-0.9-0.8
				c-0.1-0.2-0.2-0.8-0.4-1.8l-1.5-8.5l3.5-0.6L79.1,27l6.3-1.1l-0.3-1.7l-0.5,0.1c-0.6,0.1-1.2,0.1-1.8,0c-0.5-0.1-1.1-0.3-1.6-0.7
				c-0.2-0.1-0.7-0.5-1.4-1.2l-8.9-7.6c2.3-0.4,4-1.1,5.3-2s2.1-1.9,2.7-3.2c0.5-1.2,0.7-2.6,0.4-4c-0.2-1.4-0.8-2.6-1.8-3.5
				c-0.9-0.9-2.1-1.6-3.6-1.9c-1.5-0.3-3.6-0.2-6.3,0.2L53.4,2.9l0.3,1.7L55,4.6z M68.3,2.8c1.6-0.3,2.8-0.3,3.7-0.1
				s1.6,0.7,2.2,1.4c0.6,0.7,1,1.6,1.2,2.7c0.2,1.3,0.1,2.4-0.4,3.4s-1.3,1.7-2.3,2.2c-0.7,0.4-2.1,0.7-4,1.1l-5.7,1L61.2,4.1
				L68.3,2.8z M37.3,34.4L37,32.7c-0.2,0-0.5,0.1-0.9,0.1c-0.5,0.1-0.9,0.1-1.2,0.1c-0.3-0.1-0.5-0.2-0.6-0.3
				c-0.2-0.2-0.3-0.4-0.3-0.7c0-0.2,0-0.7,0.1-1.3l1.1-6.3l10-1.8l2.8,5c0.6,1,0.9,1.7,0.9,1.9c0.1,0.4-0.1,0.7-0.4,1
				c-0.2,0.2-0.6,0.3-1.2,0.4c-0.3,0.1-0.6,0.1-0.9,0.2l0.3,1.7l9.8-1.7l-0.3-1.7l-0.4,0.1c-0.7,0.1-1.3,0-1.8-0.3s-1.1-1-1.7-2.1
				L39.5,5.6l-3.2,0.6l-4.6,24.3c-0.2,1.2-0.4,1.9-0.6,2.3c-0.2,0.4-0.4,0.7-0.8,0.9c-0.3,0.2-0.8,0.4-1.6,0.5l0.3,1.7L37.3,34.4z
				 M37.7,9.6L44,20.7l-8.5,1.5L37.7,9.6z M16.9,68.3c-0.2,0-0.5,0.1-0.9,0.1c-0.5,0.1-0.9,0.1-1.2,0.1c-0.3-0.1-0.5-0.2-0.6-0.3
				c-0.2-0.2-0.3-0.4-0.3-0.7c0-0.2,0-0.7,0.1-1.3l1.1-6.3l9.9-1.8l2.8,5c0.6,1,0.9,1.7,0.9,1.9c0.1,0.4-0.1,0.7-0.4,1
				c-0.2,0.2-0.6,0.3-1.2,0.4c-0.3,0.1-0.6,0.1-0.9,0.2l0.3,1.7l9.8-1.7L36,64.9L35.6,65c-0.7,0.1-1.3,0-1.8-0.3s-1-1-1.7-2.1
				L19.4,41.2l-3.2,0.6L11.6,66c-0.2,1.1-0.4,1.9-0.6,2.3s-0.4,0.7-0.7,0.9c-0.3,0.2-0.8,0.4-1.6,0.5L9,71.4l8.2-1.4L16.9,68.3z
				 M17.6,45.2l6.3,11.1l-8.5,1.5L17.6,45.2z M61.3,62.1l-4-22.5c-0.2-0.9-0.2-1.6-0.1-2.1s0.4-0.9,0.7-1.2c0.3-0.2,0.8-0.3,1.6-0.5
				l0.5-0.1L59.7,34l-9.2,1.6l0.3,1.7l0.7-0.1c0.7-0.1,1.3-0.1,1.7,0c0.4,0.1,0.7,0.4,1,0.8c0.3,0.4,0.5,1,0.6,2l2.8,15.7L41.5,37.3
				l-8.4,1.5l0.3,1.7l0.7-0.1c1-0.2,1.7-0.2,2-0.1c0.4,0.1,0.7,0.4,0.8,0.8c0.1,0.2,0.2,0.9,0.4,2l3.1,17.4c0.2,1.1,0.2,1.8,0.1,2.3
				s-0.3,0.8-0.6,1.1c-0.3,0.2-0.9,0.4-1.9,0.6l-0.5,0.1l0.3,1.7l9.3-1.6L46.8,63c-1,0.2-1.7,0.2-2,0.2s-0.7-0.2-0.9-0.4
				c-0.3-0.2-0.5-0.5-0.6-0.7s-0.3-0.9-0.4-2l-3.4-19.6l19.4,22L61.3,62.1z M76.3,33.3c0.1-0.1,0.6-0.2,1.3-0.3
				c1.8-0.3,3.4-0.2,4.7,0.5s2.6,2,3.8,4l1.7-0.9L83.5,29l-1.4,0.3v1l-16.8,3l-0.4-0.9l-1.4,0.2l-1.4,8.6l1.9,0.3
				c0.3-1.5,0.7-2.8,1.3-3.8s1.3-1.8,2.1-2.3s1.9-0.9,3.3-1.2c0.5-0.1,0.9-0.1,1-0.1c0.2,0,0.3,0.1,0.4,0.2c0.1,0.1,0.2,0.5,0.3,1.1
				l3.4,19.4c0.2,1,0.2,1.7,0.1,2.1c-0.1,0.4-0.4,0.7-0.9,0.9c-0.3,0.1-1,0.3-2.1,0.5l0.3,1.7l10.6-1.9l-0.3-1.7
				c-1.1,0.2-1.8,0.3-2.2,0.3c-0.3,0-0.6-0.1-0.8-0.2s-0.4-0.4-0.6-0.7c-0.2-0.3-0.3-0.9-0.5-1.8L76,35c-0.1-0.8-0.2-1.2-0.2-1.4
				C76.1,33.5,76.2,33.4,76.3,33.3z M49.4,69.7c0.1-0.5,0.4-1,0.8-1.2c0.3-0.2,0.8-0.4,1.7-0.5l0.5-0.1l-0.3-1.7l-9.5,1.7l0.3,1.7
				l0.7-0.1c0.7-0.1,1.3-0.1,1.8,0c0.4,0.2,0.8,0.4,1,0.8c0.3,0.4,0.5,1.1,0.7,2.1L50,88.7L33.1,69.5L24.3,71l0.3,1.7l0.7-0.1
				c1-0.2,1.7-0.2,2.1-0.1s0.7,0.4,0.9,0.9c0.1,0.2,0.2,0.9,0.4,2.1l3.2,18.1c0.2,1.1,0.2,1.9,0.1,2.4s-0.3,0.9-0.6,1.1
				c-0.3,0.3-1,0.5-1.9,0.6L29,97.8l0.3,1.7l9.7-1.7l-0.3-1.7c-1,0.2-1.7,0.2-2.1,0.2s-0.7-0.2-1-0.4c-0.3-0.2-0.5-0.5-0.7-0.8
				c-0.1-0.2-0.3-0.9-0.5-2.1l-3.6-20.4l20.2,23l2.5-0.4l-4-23.3C49.3,71,49.3,70.3,49.4,69.7z M84.3,67.4c-1.6-1.9-3.7-3.4-6.2-4.3
				c-2.3-0.9-4.8-1.1-7.4-0.6c-2.8,0.5-5.2,1.6-7.3,3.3c-2.1,1.7-3.6,3.8-4.5,6.3c-0.9,2.5-1.1,5.1-0.6,7.9c0.7,3.8,2.4,6.8,5.1,9.2
				c3.4,2.8,7.4,3.9,12.1,3c4.2-0.8,7.5-2.8,9.7-6c2.2-3.3,3-7.1,2.2-11.5C86.9,71.7,85.9,69.3,84.3,67.4z M82.8,82.5
				c-0.6,2.2-1.5,4-2.8,5.2s-2.9,2-4.8,2.3c-1.9,0.3-3.7,0.2-5.4-0.6c-1.7-0.7-3.2-1.9-4.4-3.6s-2.1-3.9-2.6-6.5
				c-0.5-2.8-0.4-5.2,0.1-7.3c0.6-2.1,1.6-3.7,2.9-5c1.4-1.2,3.1-2.1,5.2-2.4c2-0.3,3.8-0.2,5.3,0.4s2.8,1.8,4,3.5
				c1.3,2,2.2,4.2,2.7,6.8C83.4,77.9,83.4,80.2,82.8,82.5z M24.8,98.7c-0.8,0.1-1.4,0.2-1.8,0c-0.4-0.1-0.7-0.4-0.9-0.7
				c-0.2-0.4-0.5-1-0.6-1.9l-3.2-18.4c-0.2-1.2-0.3-2-0.2-2.4c0.1-0.4,0.3-0.8,0.6-1.1c0.3-0.3,0.9-0.5,1.7-0.6l0.8-0.1l-0.3-1.7
				L10,73.7l0.3,1.7l0.9-0.2c0.8-0.1,1.4-0.2,1.8,0c0.4,0.1,0.7,0.3,0.9,0.7c0.2,0.3,0.4,1,0.6,2.1l3.3,18.8c0.2,1,0.2,1.7,0.1,2.1
				s-0.3,0.7-0.6,0.9c-0.3,0.2-0.9,0.4-1.7,0.6l-0.9,0.2l0.3,1.7l10.9-1.9l-0.3-1.7H24.8z"/>
		</g>
	</g>
	<rect x="12.6" y="101.3" transform="matrix(0.9846 -0.1746 0.1746 0.9846 -17.0032 11.175)" width="84.9" height="1.9"/>
	<g>
		<path d="M22.1,129.3l-0.2-0.9l0.7-0.2c0.4-0.1,0.7-0.2,0.8-0.4c0.1-0.1,0.1-0.5,0-1c-0.1-1-0.3-2.3-0.6-3.7l-0.5-2.6
			c-0.7,0.2-1.3,0.3-1.8,0.4l-0.1-0.6l0.9-0.7l0.2-0.1l0.1-0.1l0.3-0.2l-0.2-1c-0.1-0.8-0.2-1.4,0-1.8c0.1-0.4,0.5-1,1.2-1.9
			c0.9-1.2,1.5-1.9,1.7-2.1c0.4-0.4,0.9-0.6,1.6-0.8c0.2,0,0.4-0.1,0.6-0.1s0.5,0,0.7,0.1c0,0.9,0.1,1.8,0.2,2.8l-0.2,0.1
			c-0.4-0.2-0.7-0.4-1.1-0.5c-0.3-0.1-0.7-0.1-1-0.1c-0.4,0.1-0.7,0.2-0.9,0.4c-0.2,0.2-0.2,0.5-0.2,1c0,0.4,0.2,1.6,0.5,3.4
			l1.1-0.2c0.6-0.1,1.2-0.3,1.8-0.5l0.2,0.1c0,0.4-0.1,0.9,0,1.4c-0.4,0-0.8,0.1-1.2,0.2l-1.6,0.3c0.6,3.2,1,5.2,1.2,6.2
			c0.1,0.5,0.3,0.9,0.4,1c0.2,0.1,0.9,0.1,2-0.1l0.2,0.9c-1.1,0.1-2.1,0.3-3.1,0.5C24.8,128.7,23.6,128.9,22.1,129.3z"/>
		<path d="M42.8,124.6l0.2,0.9l-0.9,0.1c-0.5,0.1-0.9,0.1-1.3,0.2c-0.7,0.1-1.3,0.3-1.9,0.4l-0.1-0.1l-0.2-1.5l-2,2.1
			c-0.4,0.2-0.7,0.3-1.1,0.3c-0.8,0.1-1.4,0-1.9-0.4s-0.8-1-1-1.9c-0.2-1.1,0-1.9,0.5-2.5c0.6-0.7,2.2-1.5,4.6-2.5
			c-0.2-0.9-0.4-1.5-0.8-1.8c-0.5-0.5-1.2-0.6-2-0.5c-0.2,0-0.4,0.1-0.6,0.2s-0.4,0.2-0.6,0.3l-0.3,1.3h-0.8l-0.1-0.5l-0.1-0.5
			l-0.1-0.4c1-0.9,1.7-1.5,2.2-1.7c0.3-0.2,0.8-0.4,1.5-0.5c0.9-0.2,1.6-0.2,2.2,0s1,0.4,1.4,0.8c0.3,0.4,0.6,1,0.7,1.9
			c0.1,0.4,0.2,1,0.3,1.9c0.1,1,0.3,1.7,0.4,2.3c0.2,0.9,0.3,1.5,0.4,1.7c0.1,0.1,0.1,0.2,0.3,0.2C41.7,124.7,42.1,124.7,42.8,124.6
			z M37.9,120.8c-1.2,0.5-2,1-2.3,1.4s-0.4,0.9-0.3,1.4c0.1,0.4,0.3,0.8,0.6,1c0.3,0.2,0.6,0.3,1,0.2c0.6-0.1,1.1-0.5,1.6-1.3
			L37.9,120.8z"/>
		<path d="M45.7,125l-0.2-0.9c0.7-0.2,1.2-0.3,1.3-0.4c0.1-0.1,0.1-0.2,0.1-0.4c0-0.4-0.1-1.2-0.4-2.6c-0.5-2.8-0.8-4.3-0.9-4.6
			c-0.1-0.2-0.4-0.2-0.8-0.2l-0.7,0.1l-0.2-0.8c0.9-0.3,1.6-0.5,2.2-0.8s1.1-0.5,1.6-0.8c0.1-0.1,0.2-0.1,0.2-0.1
			c0.1,0,0.2,0.1,0.2,0.2s0,0.3,0.1,0.6c0,0.1,0,0.3,0.1,0.6l0.1,0.4l1.6-1.7c0.3-0.4,0.9-0.6,1.6-0.7c0.8-0.1,1.4-0.1,1.9,0.1
			s1,0.6,1.3,1.3l1.6-1.8c0.3-0.3,0.8-0.6,1.4-0.7c1.1-0.2,2-0.1,2.7,0.4c0.6,0.5,1.1,1.3,1.3,2.6l0.1,0.9c0.2,1,0.3,1.9,0.4,2.7
			c0.2,1,0.3,1.7,0.5,2c0.1,0.2,0.2,0.3,0.3,0.3c0.1,0.1,0.5,0,1.3-0.1l0.2,0.9c-0.9,0.1-1.7,0.2-2.4,0.4c-0.7,0.1-1.3,0.3-2,0.4
			l-0.2-0.2c-0.1-1.6-0.3-3.2-0.5-4.7c-0.3-1.8-0.7-2.9-1-3.3c-0.4-0.4-0.9-0.5-1.6-0.4c-0.5,0.1-0.8,0.3-1.1,0.6
			c-0.3,0.3-0.5,0.6-0.5,0.9c0,0.2,0,0.9,0.2,1.9c0.3,1.9,0.6,3.3,0.8,4c0.1,0.3,0.2,0.5,0.3,0.6c0.1,0.1,0.6,0.1,1.4,0l0.2,0.9
			c-1,0.1-1.9,0.3-2.8,0.4c-1.1,0.2-2.2,0.4-3.1,0.6l-0.2-0.9c0.7-0.1,1.1-0.3,1.2-0.5s0-1.2-0.3-2.8c-0.3-1.9-0.6-3-0.7-3.4
			c-0.2-0.4-0.4-0.8-0.7-0.9c-0.3-0.2-0.7-0.2-1.2-0.1c-0.4,0.1-0.7,0.2-1,0.4c-0.3,0.2-0.5,0.5-0.6,0.9c-0.1,0.2-0.1,0.5,0,0.8
			l0.1,0.4c0.1,0.2,0.2,0.8,0.3,1.7l0.2,1.3c0.2,1.2,0.4,2,0.5,2.2c0,0.1,0.1,0.2,0.2,0.3c0.1,0,0.5,0,1.2,0l0.2,0.9
			c-0.9,0.1-1.8,0.3-2.9,0.5C48.3,124.5,47.3,124.7,45.7,125z"/>
		<path d="M67.2,121.1l-0.2-0.9c0.8-0.2,1.3-0.3,1.4-0.4c0.1-0.1,0.2-0.3,0.1-0.7c0-0.5-0.2-1.5-0.5-3.1c-0.1-0.7-0.2-1.3-0.4-1.9
			l-0.3-1.3c-0.1-0.4-0.2-0.7-0.3-0.8c-0.1-0.1-0.4-0.1-0.8,0l-0.8,0.1l-0.2-0.8c1.7-0.4,3.1-1,4.2-1.7l0.3,0.2
			c0.1,1.4,0.5,3.5,0.9,6.1c0.3,1.5,0.5,2.5,0.6,2.8c0.1,0.2,0.2,0.4,0.3,0.4s0.6,0,1.5-0.1l0.2,0.9c-1.3,0.2-2.3,0.4-3.1,0.5
			C70,120.6,68.9,120.8,67.2,121.1z M67.4,104.7c0.5-0.1,0.9,0,1.3,0.3c0.4,0.3,0.6,0.6,0.7,1.1c0.1,0.5,0,0.9-0.3,1.3
			s-0.6,0.6-1.1,0.7s-0.9,0-1.3-0.3c-0.4-0.3-0.6-0.6-0.7-1.1c-0.1-0.5,0-0.9,0.3-1.3C66.6,105,67,104.8,67.4,104.7z"/>
		<path d="M73.6,104.8l-0.1-0.6c1-0.3,1.8-0.6,2.4-0.9c0.6-0.3,1.2-0.6,1.8-1l0.3,0.2c0.4,2.6,1,6.3,1.8,11c0.2,0.9,0.4,1.9,0.6,2.9
			c0.1,0.6,0.2,1,0.3,1.1s0.2,0.2,0.3,0.2s0.6,0,1.3-0.1l0.2,0.9l-1.2,0.2c-0.7,0.1-1.3,0.2-1.8,0.3l-3.3,0.7l-0.2-0.9l0.8-0.2
			c0.4-0.1,0.6-0.2,0.7-0.3c0.1-0.1,0.1-0.6-0.1-1.4c-0.2-1.1-0.4-2.7-0.8-4.7l-0.9-4.7c-0.3-1.4-0.4-2.2-0.6-2.4
			c0-0.1-0.1-0.1-0.2-0.2C74.9,104.7,74.4,104.7,73.6,104.8z"/>
		<path d="M83,108.5l-0.2-0.9c1.7-0.3,2.8-0.4,3.2-0.5c0.6-0.1,1.6-0.3,2.7-0.6l0.2,0.9c-0.7,0.2-1.1,0.3-1.2,0.4
			c-0.1,0.1-0.2,0.2-0.1,0.4c0,0.2,0.6,1.2,1.6,2.8l1.7,2.8l0.6-2.6c0.5-2.3,0.8-3.6,0.7-3.9c0-0.2-0.1-0.2-0.3-0.3
			c-0.1,0-0.5,0-1.2,0.1l-0.2-0.9l0.7-0.1c0.7-0.1,1.2-0.2,1.5-0.2s0.9-0.2,2-0.4l0.2,0.9c-0.4,0.1-0.6,0.2-0.8,0.3
			c-0.1,0.1-0.2,0.2-0.2,0.3c-0.1,0.2-0.4,1.3-0.8,3.3l-1.2,5l-1.1,4.7c-0.3,1-0.5,1.6-0.8,2.1c-0.3,0.4-0.6,0.7-1,1
			c-0.4,0.2-0.8,0.4-1.3,0.5s-1,0.1-1.6-0.1c0-0.8,0-1.5,0-2.2l0.3-0.2c0.5,0.4,1.1,0.5,1.6,0.4s0.9-0.3,1.1-0.7
			c0.3-0.4,0.6-1.4,1-3l-3.6-5.8l-1.9-3.1c-0.2-0.2-0.3-0.4-0.5-0.5C84,108.4,83.6,108.4,83,108.5z"/>
	</g>
</g>
</svg>
