<svg width="49" height="70" viewBox="0 0 49 70" fill="none" xmlns="http://www.w3.org/2000/svg">
<path d="M42.4363 41.9263C38.4369 49.2714 32.4611 58.0964 24.5 68.4051C16.5389 58.0964 10.5631 49.2714 6.56369 41.9263C2.49015 34.4451 0.5 28.5577 0.5 24.2278C0.5 21.1126 1.12047 18.0278 2.32613 15.1494C3.53179 12.271 5.29911 9.65526 7.52746 7.45168C9.75581 5.24808 12.4016 3.4998 15.3138 2.30692C18.226 1.11404 21.3475 0.5 24.5 0.5C27.6525 0.5 30.774 1.11404 33.6862 2.30692C36.5984 3.4998 39.2442 5.24808 41.4725 7.45168C43.7009 9.65526 45.4682 12.271 46.6739 15.1494C47.8795 18.0278 48.5 21.1126 48.5 24.2278C48.5 28.5577 46.5099 34.4451 42.4363 41.9263Z" fill="#F7F7F7" stroke="black"/>
<path d="M42.1657 26.9198C42.1657 26.9076 42.1603 26.8961 42.1501 26.8893L18.1061 9.3402C18.0932 9.33073 18.0756 9.33072 18.062 9.33953L12.4784 13.2488C12.4649 13.2583 12.4595 13.2745 12.4635 13.2901L12.5326 13.5284L12.3403 13.6632C12.3274 13.6726 12.3213 13.6889 12.3261 13.7045L12.3951 13.9428L12.2029 14.0775C12.19 14.087 12.1839 14.1032 12.1886 14.1188L12.2577 14.3571L12.0654 14.4919C12.0519 14.5014 12.0465 14.5176 12.0512 14.5332L12.1203 14.7715L11.928 14.9062C11.9151 14.9157 11.909 14.932 11.9138 14.9475L11.9828 15.1858L11.7905 15.3206C11.7777 15.3301 11.7716 15.3463 11.7756 15.3619L11.8447 15.6002L11.6524 15.7349C11.6389 15.7444 11.6335 15.7607 11.6382 15.7762L11.7073 16.0146L11.515 16.1493C11.5021 16.1588 11.496 16.175 11.5008 16.1906L11.5698 16.4289L11.3775 16.5636C11.3647 16.5731 11.3586 16.5894 11.3633 16.6049L11.4324 16.8433L11.2401 16.978C11.2272 16.9875 11.2211 17.0037 11.2252 17.0193L11.2943 17.2576L11.102 17.3923C11.0884 17.4018 11.083 17.4181 11.0871 17.4337L11.1561 17.672L10.9598 17.806C10.9469 17.8155 10.9408 17.8318 10.9456 17.8473L11.0146 18.0857L10.8224 18.2204C10.8095 18.2299 10.8034 18.2461 10.8081 18.2617L19.0749 46.8582C19.0783 46.8697 19.0871 46.8792 19.0986 46.8833C19.1027 46.8846 19.1067 46.8853 19.1108 46.8853C19.1182 46.8853 19.1257 46.8826 19.1325 46.8785L23.8116 43.6023C23.8244 43.5928 23.8305 43.5766 23.8258 43.561L23.7567 43.3227L23.949 43.1879C23.9619 43.1784 23.968 43.1622 23.9639 43.1466L23.8948 42.9083L24.0871 42.7736C24.1007 42.7641 24.1061 42.7478 24.102 42.7323L24.0329 42.494L24.2252 42.3592C24.2381 42.3497 24.2442 42.3335 24.2394 42.3179L24.1704 42.0796L24.3627 41.9449C24.3755 41.9354 24.3816 41.9191 24.3776 41.9036L24.3085 41.6652L24.5008 41.5305C24.5137 41.521 24.5197 41.5048 24.5157 41.4892L24.4466 41.2509L24.6389 41.1162C24.6524 41.1067 24.6579 41.0904 24.6538 41.0749L24.5847 40.8365L24.777 40.7018C24.7899 40.6923 24.796 40.6761 24.7912 40.6605L24.7222 40.4222L24.9145 40.2875C24.9273 40.278 24.9334 40.2617 24.9287 40.2462L24.8596 40.0078L25.0519 39.8731C25.0648 39.8636 25.0709 39.8474 25.0661 39.8318L24.9971 39.5935L25.1893 39.4587C25.2022 39.4493 25.2083 39.433 25.2036 39.4174L25.1345 39.1791L25.3268 39.0444C25.3397 39.0349 25.3457 39.0187 25.341 39.0031L25.2719 38.7648L25.4642 38.63C25.4778 38.6206 25.4832 38.6043 25.4784 38.5887L24.4046 34.8744L29.9788 30.9713L35.7662 35.1954C35.7791 35.2048 35.7967 35.2048 35.8102 35.196L40.4893 31.9198C40.4995 31.913 40.5049 31.9015 40.5056 31.8893C40.5056 31.8771 40.5001 31.8656 40.49 31.8589L40.3106 31.7275L40.6274 31.5054C40.6376 31.4987 40.643 31.4872 40.6437 31.475C40.6437 31.4628 40.6383 31.4513 40.6281 31.4445L40.4487 31.3132L40.7655 31.0911C40.7757 31.0843 40.7811 31.0728 40.7818 31.0606C40.7818 31.0484 40.7764 31.0369 40.7662 31.0302L40.5868 30.8988L40.9037 30.6767C40.9138 30.67 40.9192 30.6585 40.9199 30.6463C40.9199 30.6341 40.9145 30.6226 40.9043 30.6158L40.7249 30.4845L41.0418 30.2624C41.0519 30.2556 41.0574 30.2441 41.058 30.2319C41.058 30.2197 41.0526 30.2082 41.0425 30.2014L40.863 30.0701L41.1799 29.848C41.1901 29.8413 41.1955 29.8297 41.1961 29.8176C41.1961 29.8054 41.1907 29.7939 41.1806 29.7871L41.0012 29.6557L41.318 29.4337C41.3282 29.4269 41.3336 29.4154 41.3343 29.4032C41.3343 29.391 41.3289 29.3795 41.3187 29.3727L41.1393 29.2414L41.4561 29.0193C41.4663 29.0125 41.4717 29.001 41.4724 28.9889C41.4724 28.9767 41.467 28.9652 41.4568 28.9584L41.2774 28.827L41.5943 28.605C41.6044 28.5982 41.6098 28.5867 41.6105 28.5745C41.6105 28.5623 41.6051 28.5508 41.5949 28.544L41.4155 28.4127L41.7324 28.1906C41.7425 28.1838 41.7479 28.1723 41.7486 28.1601C41.7486 28.148 41.7432 28.1364 41.733 28.1297L41.5536 27.9983L41.8705 27.7763C41.8806 27.7695 41.8861 27.758 41.8867 27.7458C41.8867 27.7336 41.8813 27.7221 41.8712 27.7153L41.6917 27.584L42.0086 27.3619C42.0188 27.3551 42.0242 27.3436 42.0249 27.3314C42.0249 27.3193 42.0194 27.3077 42.0093 27.301L41.8299 27.1696L42.1467 26.9475C42.1596 26.9435 42.1657 26.932 42.1657 26.9198ZM12.5549 13.6049L12.6091 13.7925L12.4595 13.8967L12.4053 13.7092L12.5549 13.6049ZM22.4466 34.6016L22.5157 34.8399L22.3234 34.9746C22.3105 34.9841 22.3044 35.0004 22.3085 35.0159L22.3776 35.2543L22.1853 35.389C22.1717 35.3985 22.1663 35.4147 22.1711 35.4303L22.2401 35.6686L22.0478 35.8034C22.0343 35.8128 22.0289 35.8291 22.0336 35.8447L22.1027 36.083L21.9104 36.2177C21.8975 36.2272 21.8914 36.2434 21.8955 36.259L21.9646 36.4973L21.7723 36.6321C21.7587 36.6415 21.7533 36.6578 21.7574 36.6734L22.8312 40.387L20.7899 41.8162L13.4601 16.4648L16.4263 14.3876L37.7418 29.9448L37.4494 30.15L31.6619 25.9259C31.6491 25.9164 31.6315 25.9164 31.6179 25.9252L23.427 31.6605C23.4134 31.67 23.408 31.6862 23.4121 31.7018L23.4812 31.9401L23.2889 32.0748C23.276 32.0843 23.2699 32.1006 23.2747 32.1161L23.3437 32.3545L23.1514 32.4892C23.1386 32.4987 23.1325 32.5149 23.1372 32.5305L23.2063 32.7688L23.014 32.9036C23.0004 32.913 22.995 32.9293 22.9991 32.9449L23.0682 33.1832L22.8759 33.3179C22.8623 33.3274 22.8569 33.3436 22.861 33.3592L22.93 33.5975L22.7378 33.7323C22.7242 33.7417 22.7188 33.758 22.7235 33.7736L22.7926 34.0119L22.6003 34.1466C22.5868 34.1561 22.5814 34.1723 22.5861 34.1879L22.6552 34.4262L22.4629 34.561C22.448 34.5691 22.4419 34.586 22.4466 34.6016ZM22.6755 34.5014L22.7296 34.6889L22.58 34.7932L22.5258 34.6057L22.6755 34.5014ZM22.7188 34.3802L22.6646 34.1927L22.8143 34.0884L22.8684 34.2759L22.7188 34.3802ZM22.8562 33.9658L22.8021 33.7783L22.9517 33.674L23.0059 33.8616L22.8562 33.9658ZM22.9944 33.5515L22.9402 33.3639L23.0898 33.259L23.144 33.4465L22.9944 33.5515ZM23.1325 33.1371L23.0783 32.9496L23.2279 32.8453L23.2821 33.0329L23.1325 33.1371ZM23.2706 32.7228L23.2164 32.5352L23.3661 32.431L23.4202 32.6185L23.2706 32.7228ZM23.4087 32.3091L23.3545 32.1216L23.5042 32.0173L23.5583 32.2048L23.4087 32.3091ZM23.5468 31.8947L23.4927 31.7072L31.6396 26.0024L37.427 30.2265C37.4399 30.236 37.4575 30.236 37.471 30.2272L37.8068 29.9922L37.9646 30.1073L37.3119 30.5643L31.5245 26.3402C31.5116 26.3308 31.494 26.3308 31.4805 26.3396L23.5468 31.8947ZM16.4493 14.3111C16.4365 14.3016 16.4189 14.3016 16.4053 14.3104L13.4378 16.3883L13.3836 16.2007L16.5644 13.9733L38.102 29.6923L37.8068 29.8988L16.4493 14.3111ZM13.3951 16.5102L20.7317 41.8866C20.735 41.8982 20.7438 41.9076 20.7554 41.9117C20.7594 41.913 20.7635 41.9137 20.7675 41.9137C20.775 41.9137 20.7824 41.9117 20.7892 41.907L22.8522 40.4621L22.9063 40.6497L20.6511 42.2292L13.2455 16.6144L13.3951 16.5102ZM22.8948 40.3409L21.8359 36.6774L21.9856 36.5732L23.0445 40.2367L22.8948 40.3409ZM21.974 36.2631L22.1237 36.1588L22.1778 36.3463L22.0282 36.4506L21.974 36.2631ZM22.1663 36.0369L22.1122 35.8494L22.2618 35.7445L22.316 35.932L22.1663 36.0369ZM22.3044 35.6226L22.2503 35.4344L22.3999 35.3301L22.4541 35.5176L22.3044 35.6226ZM22.4426 35.2082L22.3884 35.0207L22.538 34.9164L22.5922 35.104L22.4426 35.2082ZM22.6139 35.1798L22.668 35.3673L22.5184 35.4716L22.4642 35.2834L22.6139 35.1798ZM22.6565 35.0579L22.6023 34.8704L22.752 34.7661L22.8061 34.9537L22.6565 35.0579ZM22.7946 34.6442L22.7405 34.456L22.8901 34.3511L22.9443 34.5386L22.7946 34.6442ZM22.9327 34.2299L22.8786 34.0423L23.0282 33.9381L23.0824 34.1256L22.9327 34.2299ZM23.0709 33.8155L23.0167 33.628L23.1663 33.523L23.2205 33.7113L23.0709 33.8155ZM23.209 33.4012L23.1548 33.2136L23.3044 33.1094L23.3586 33.2969L23.209 33.4012ZM23.3471 32.9868L23.2929 32.7993L23.4426 32.695L23.4967 32.8826L23.3471 32.9868ZM23.4852 32.5732L23.4311 32.3856L23.5807 32.2807L23.6348 32.4682L23.4852 32.5732ZM23.6233 32.1588L23.5692 31.9713L31.5015 26.4167L37.2889 30.6409C37.3018 30.6503 37.3194 30.6503 37.3329 30.6415L38.0289 30.1547L38.1867 30.2698L37.1738 30.9794L31.3864 26.7553C31.3735 26.7458 31.3559 26.7458 31.3424 26.7546L23.6233 32.1588ZM37.8712 29.9462L38.1664 29.7397L38.3241 29.8548L38.0289 30.0613L37.8712 29.9462ZM16.5874 13.8967C16.5746 13.8873 16.557 13.8873 16.5434 13.8961L13.3613 16.1242L13.3071 15.9367L16.7025 13.5596L38.4622 29.4411L38.167 29.6476L16.5874 13.8967ZM13.3186 16.2461L13.3728 16.4336L13.2232 16.5379L13.169 16.3504L13.3186 16.2461ZM13.1805 16.6605L20.5929 42.3017C20.5962 42.3132 20.605 42.3227 20.6166 42.3267C20.6206 42.3281 20.6247 42.3288 20.6287 42.3288C20.6362 42.3288 20.6436 42.3267 20.6504 42.322L22.928 40.7275L22.9822 40.9151L20.5123 42.6443L13.0309 16.7647L13.1805 16.6605ZM22.9713 40.605L22.9172 40.4174L23.0668 40.3132L23.121 40.5007L22.9713 40.605ZM23.1095 40.1906L22.0505 36.5271L22.2002 36.4229L23.2591 40.0864L23.1095 40.1906ZM22.188 36.1128L22.3376 36.0078L22.3918 36.196L22.2422 36.3003L22.188 36.1128ZM22.3803 35.8866L22.3261 35.6991L22.4757 35.5941L22.5299 35.7817L22.3803 35.8866ZM22.5522 35.8582L22.6064 36.0464L22.4568 36.1507L22.4026 35.9631L22.5522 35.8582ZM22.5949 35.7363L22.5407 35.5488L22.6904 35.4445L22.7445 35.6321L22.5949 35.7363ZM22.733 35.322L22.6788 35.1344L22.8285 35.0302L22.8826 35.2184L22.733 35.322ZM22.8711 34.9083L22.817 34.7207L22.9666 34.6158L23.0208 34.8034L22.8711 34.9083ZM23.0092 34.4939L22.9551 34.3064L23.1047 34.2021L23.1589 34.3897L23.0092 34.4939ZM23.1474 34.0796L23.0932 33.892L23.2428 33.7871L23.297 33.9746L23.1474 34.0796ZM23.2855 33.6652L23.2313 33.4777L23.3809 33.3734L23.4351 33.561L23.2855 33.6652ZM23.4236 33.2509L23.3694 33.0633L23.5191 32.9584L23.5732 33.1459L23.4236 33.2509ZM23.5617 32.8372L23.5076 32.6497L23.6572 32.5447L23.7113 32.7323L23.5617 32.8372ZM23.6998 32.4228L23.6457 32.2353L31.364 26.8311L37.1515 31.0552C37.1643 31.0647 37.1819 31.0647 37.1955 31.0559L38.251 30.3165L38.4087 30.4316L37.0357 31.3931L31.2483 27.1689C31.2354 27.1595 31.2178 27.1595 31.2049 27.1683L23.6998 32.4228ZM38.0932 30.108L38.3884 29.9015L38.5462 30.0166L38.251 30.2231L38.0932 30.108ZM38.2313 29.6937L38.5265 29.4872L38.6843 29.6023L38.3891 29.8088L38.2313 29.6937ZM16.7256 13.4824C16.7127 13.4729 16.6951 13.4729 16.6815 13.4817L13.2855 15.8602L13.2313 15.6726L16.8413 13.1452L38.8224 29.1886L38.5272 29.3951L16.7256 13.4824ZM13.2421 15.9821L13.2963 16.1696L13.1467 16.2739L13.0925 16.0863L13.2421 15.9821ZM13.104 16.3964L13.1582 16.584L13.0086 16.6882L12.9544 16.5007L13.104 16.3964ZM12.9659 16.8101L20.4547 42.7153C20.4581 42.7269 20.4669 42.7363 20.4784 42.7404C20.4825 42.7418 20.4866 42.7424 20.4906 42.7424C20.4981 42.7424 20.5055 42.7404 20.5123 42.7357L23.0038 40.9909L23.058 41.1784L20.3735 43.0579L12.8169 16.915L12.9659 16.8101ZM23.0478 40.869L22.9937 40.6808L23.1433 40.5766L23.1975 40.7641L23.0478 40.869ZM23.1853 40.4547L23.1311 40.2671L23.2807 40.1622L23.3349 40.3497L23.1853 40.4547ZM23.3234 40.0403L22.2645 36.3768L22.4141 36.2725L23.473 39.9361L23.3234 40.0403ZM23.4954 40.0126L23.5495 40.2001L23.3999 40.3044L23.3457 40.1168L23.4954 40.0126ZM23.538 39.8907L22.4791 36.2272L22.6287 36.1222L23.6877 39.7858L23.538 39.8907ZM22.6172 35.8128L22.7669 35.7086L22.821 35.8961L22.6714 36.0011L22.6172 35.8128ZM22.8095 35.586L22.7554 35.3985L22.905 35.2942L22.9591 35.4818L22.8095 35.586ZM22.9476 35.1723L22.8935 34.9848L23.0431 34.8799L23.0973 35.0681L22.9476 35.1723ZM23.0858 34.758L23.0316 34.5704L23.1812 34.4662L23.2354 34.6537L23.0858 34.758ZM23.2239 34.3436L23.1697 34.1561L23.3193 34.0518L23.3735 34.2394L23.2239 34.3436ZM23.362 33.9293L23.3078 33.7417L23.4575 33.6375L23.5116 33.825L23.362 33.9293ZM23.5001 33.5156L23.4459 33.3274L23.5956 33.2231L23.6497 33.4107L23.5001 33.5156ZM23.6376 33.1012L23.5834 32.9137L23.733 32.8088L23.7872 32.9963L23.6376 33.1012ZM23.7757 32.6869L23.7215 32.4994L31.2252 27.2454L37.0127 31.4696C37.0255 31.479 37.0431 31.479 37.0567 31.4702L38.4724 30.479L38.6301 30.5941L36.8969 31.8074L31.1095 27.5833C31.0966 27.5738 31.079 27.5738 31.0661 27.5826L23.7757 32.6869ZM38.3153 30.2698L38.6105 30.0633L38.7683 30.1784L38.4731 30.3849L38.3153 30.2698ZM38.4534 29.8562L38.7486 29.6497L38.9064 29.7648L38.6112 29.9713L38.4534 29.8562ZM38.5915 29.4418L38.8867 29.2353L39.0445 29.3504L38.7493 29.5569L38.5915 29.4418ZM16.8637 13.068C16.8508 13.0586 16.8332 13.0586 16.8197 13.0674L13.209 15.5955L13.1548 15.4079L16.9788 12.7302L39.1826 28.936L38.8874 29.1425L16.8637 13.068ZM13.1663 15.718L13.2205 15.9056L13.0708 16.0098L13.0167 15.8223L13.1663 15.718ZM13.0282 16.1317L13.0824 16.3192L12.9327 16.4235L12.8786 16.236L13.0282 16.1317ZM12.8901 16.546L12.9442 16.7336L12.7946 16.8385L12.7404 16.651L12.8901 16.546ZM12.752 16.9604L20.3173 43.1297C20.3207 43.1412 20.3295 43.1507 20.341 43.1548C20.3451 43.1561 20.3491 43.1568 20.3532 43.1568C20.3606 43.1568 20.3681 43.1548 20.3748 43.15L23.081 41.255L23.1352 41.4425L20.2367 43.4723L12.6023 17.0653L12.752 16.9604ZM23.1237 41.1331L23.0695 40.9455L23.2191 40.8413L23.2733 41.0288L23.1237 41.1331ZM23.2618 40.7187L23.2076 40.5312L23.3573 40.4269L23.4114 40.6145L23.2618 40.7187ZM23.4331 40.6903L23.4872 40.8785L23.3376 40.9828L23.2835 40.7952L23.4331 40.6903ZM23.4764 40.5691L23.4222 40.3809L23.5719 40.2766L23.626 40.4648L23.4764 40.5691ZM23.6145 40.1547L23.5604 39.9672L23.71 39.8629L23.7642 40.0505L23.6145 40.1547ZM23.7526 39.7404L22.6937 36.0769L22.8434 35.9719L23.9023 39.6355L23.7526 39.7404ZM22.8312 35.6625L22.9808 35.5583L23.035 35.7465L22.8853 35.8507L22.8312 35.6625ZM23.0241 35.4364L22.97 35.2489L23.1196 35.1439L23.1738 35.3314L23.0241 35.4364ZM23.1616 35.022L23.1074 34.8338L23.257 34.7289L23.3112 34.9171L23.1616 35.022ZM23.2997 34.6077L23.2455 34.4201L23.3952 34.3159L23.4493 34.5034L23.2997 34.6077ZM23.4378 34.1933L23.3837 34.0058L23.5333 33.9008L23.5874 34.0884L23.4378 34.1933ZM23.5759 33.7797L23.5218 33.5921L23.6714 33.4878L23.7256 33.6754L23.5759 33.7797ZM23.7141 33.3653L23.6599 33.1778L23.8095 33.0735L23.8637 33.261L23.7141 33.3653ZM23.8522 32.9509L23.798 32.7634L31.0871 27.6591L36.8745 31.8832C36.8874 31.8927 36.905 31.8927 36.9179 31.8839L38.6938 30.6402L38.8515 30.7553L36.7581 32.2211L30.9707 27.997C30.9578 27.9875 30.9402 27.9875 30.9267 27.9963L23.8522 32.9509ZM38.5374 30.4323L38.8326 30.2258L38.9903 30.3409L38.6951 30.5474L38.5374 30.4323ZM38.6755 30.018L38.9707 29.8115L39.1284 29.9266L38.8332 30.1331L38.6755 30.018ZM38.8136 29.6036L39.1088 29.3971L39.2666 29.5122L38.9714 29.7187L38.8136 29.6036ZM38.9517 29.1893L39.2469 28.9828L39.4047 29.0979L39.1095 29.3044L38.9517 29.1893ZM17.0011 12.6537C16.9882 12.6442 16.9706 12.6442 16.9571 12.653L13.1318 15.3314L13.0776 15.1439L17.1169 12.3165L39.5428 28.6842L39.2476 28.8907L17.0011 12.6537ZM13.0898 15.454L13.144 15.6415L12.9943 15.7458L12.9402 15.5582L13.0898 15.454ZM12.9517 15.8676L13.0058 16.0552L12.8562 16.1601L12.8021 15.9726L12.9517 15.8676ZM12.8136 16.282L12.8677 16.4695L12.7181 16.5738L12.6639 16.3863L12.8136 16.282ZM12.6754 16.6963L12.7296 16.8839L12.58 16.9882L12.5258 16.8006L12.6754 16.6963ZM12.5373 17.1107L20.1792 43.5441C20.1826 43.5556 20.1914 43.565 20.2029 43.5691C20.2069 43.5705 20.211 43.5711 20.2151 43.5711C20.2225 43.5711 20.23 43.5691 20.2367 43.5644L23.1575 41.519L23.2117 41.7065L20.0986 43.8866L12.3877 17.215L12.5373 17.1107ZM23.2002 41.3971L23.146 41.2096L23.2956 41.1053L23.3498 41.2929L23.2002 41.3971ZM23.3715 41.3687L23.4256 41.5562L23.276 41.6605L23.2218 41.473L23.3715 41.3687ZM23.4148 41.2468L23.3606 41.0593L23.5103 40.955L23.5644 41.1426L23.4148 41.2468ZM23.5529 40.8332L23.4988 40.6456L23.6484 40.5413L23.7025 40.7289L23.5529 40.8332ZM23.691 40.4188L23.6369 40.2313L23.7865 40.127L23.8407 40.3145L23.691 40.4188ZM23.8292 40.0044L23.775 39.8169L23.9246 39.7126L23.9788 39.9002L23.8292 40.0044ZM23.9666 39.5901L22.9077 35.9266L23.0573 35.8223L24.1162 39.4858L23.9666 39.5901ZM23.0458 35.5122L23.1954 35.408L23.2496 35.5955L23.1 35.6998L23.0458 35.5122ZM23.2381 35.2861L23.1839 35.0985L23.3336 34.9936L23.3877 35.1811L23.2381 35.2861ZM23.3762 34.8717L23.322 34.6842L23.4717 34.5799L23.5258 34.7675L23.3762 34.8717ZM23.5143 34.4574L23.4602 34.2698L23.6098 34.1649L23.664 34.3524L23.5143 34.4574ZM23.6524 34.0437L23.5983 33.8555L23.7479 33.7505L23.8021 33.9381L23.6524 34.0437ZM23.7906 33.6293L23.7364 33.4418L23.886 33.3375L23.9402 33.5251L23.7906 33.6293ZM23.9287 33.215L23.8745 33.0275L30.9497 28.0735L36.7371 32.2976C36.75 32.3071 36.7676 32.3071 36.7811 32.2983L38.9172 30.8027L39.075 30.9178L36.6213 32.6354L30.8339 28.4113C30.821 28.4018 30.8034 28.4019 30.7899 28.4107L23.9287 33.215ZM38.7594 30.5941L39.0546 30.3876L39.2124 30.5027L38.9172 30.7092L38.7594 30.5941ZM38.8976 30.1798L39.1928 29.9733L39.3505 30.0884L39.0553 30.2949L38.8976 30.1798ZM39.0357 29.7661L39.3309 29.5596L39.4886 29.6747L39.1934 29.8812L39.0357 29.7661ZM39.1738 29.3517L39.469 29.1453L39.6267 29.2603L39.3316 29.4668L39.1738 29.3517ZM39.3119 28.9374L39.6071 28.7309L39.7649 28.846L39.4697 29.0525L39.3119 28.9374ZM17.1392 12.24C17.1264 12.2305 17.1088 12.2305 17.0952 12.2393L13.0559 15.068L13.0018 14.8805L17.255 11.9028L39.903 28.4323L39.6078 28.6388L17.1392 12.24ZM13.0133 15.1899L13.0675 15.3775L12.9178 15.4824L12.8637 15.2949L13.0133 15.1899ZM12.8752 15.6036L12.9293 15.7911L12.7797 15.8954L12.7255 15.7079L12.8752 15.6036ZM12.7371 16.0179L12.7912 16.2055L12.6416 16.3097L12.5874 16.1222L12.7371 16.0179ZM12.5989 16.4323L12.6531 16.6198L12.5035 16.7241L12.4493 16.5366L12.5989 16.4323ZM12.4608 16.8466L12.515 17.0342L12.3654 17.1391L12.3112 16.9516L12.4608 16.8466ZM12.3227 17.261L20.0404 43.9584C20.0438 43.9699 20.0526 43.9794 20.0641 43.9835C20.0681 43.9848 20.0722 43.9855 20.0763 43.9855C20.0837 43.9855 20.0912 43.9835 20.0979 43.9787L23.2327 41.7837L23.2868 41.9713L19.9591 44.301L12.1738 17.3653L12.3227 17.261ZM12.1514 17.2888L12.0972 17.1012L12.2469 16.997L12.301 17.1845L12.1514 17.2888ZM12.1088 17.4106L19.9029 44.3721C19.9063 44.3836 19.9151 44.3931 19.9266 44.3971C19.9307 44.3985 19.9348 44.3992 19.9388 44.3992C19.9463 44.3992 19.9537 44.3971 19.9605 44.3924L23.3099 42.0471L23.364 42.2346L19.8224 44.7147L11.9591 17.5156L12.1088 17.4106ZM23.3532 41.9252L23.299 41.7377L23.4487 41.6327L23.5028 41.8203L23.3532 41.9252ZM23.4913 41.5109L23.4371 41.3233L23.5868 41.2191L23.6409 41.4066L23.4913 41.5109ZM23.6287 41.0972L23.5746 40.9097L23.7242 40.8054L23.7784 40.9929L23.6287 41.0972ZM23.7669 40.6828L23.7127 40.4953L23.8623 40.391L23.9165 40.5786L23.7669 40.6828ZM23.905 40.2685L23.8508 40.081L24.0004 39.9767L24.0546 40.1642L23.905 40.2685ZM24.0431 39.8541L23.9889 39.6666L24.1386 39.5623L24.1927 39.7499L24.0431 39.8541ZM24.1812 39.4398L23.1223 35.7763L23.2719 35.672L24.3308 39.3355L24.1812 39.4398ZM23.2604 35.3626L23.4101 35.2577L23.4642 35.4459L23.3146 35.5501L23.2604 35.3626ZM23.4527 35.1358L23.3986 34.9482L23.5482 34.844L23.6023 35.0315L23.4527 35.1358ZM23.5908 34.7214L23.5367 34.5339L23.6863 34.4296L23.7405 34.6172L23.5908 34.7214ZM23.729 34.3078L23.6748 34.1202L23.8244 34.0153L23.8786 34.2028L23.729 34.3078ZM23.8671 33.8934L23.8129 33.7059L23.9625 33.6016L24.0167 33.7891L23.8671 33.8934ZM24.0052 33.479L23.951 33.2915L30.8116 28.4878L36.599 32.7119C36.6118 32.7214 36.6295 32.7214 36.643 32.7126L39.1393 30.9645L39.297 31.0796L36.4839 33.0498L30.6965 28.8257C30.6836 28.8162 30.666 28.8162 30.6525 28.825L24.0052 33.479ZM38.9815 30.7559L39.2767 30.5494L39.4345 30.6645L39.1393 30.871L38.9815 30.7559ZM39.1196 30.3423L39.4148 30.1358L39.5726 30.2509L39.2774 30.4574L39.1196 30.3423ZM39.2578 29.9279L39.553 29.7214L39.7107 29.8365L39.4155 30.043L39.2578 29.9279ZM39.3959 29.5136L39.6911 29.3071L39.8488 29.4222L39.5536 29.6287L39.3959 29.5136ZM39.534 29.0992L39.8292 28.8927L39.9869 29.0078L39.6917 29.2143L39.534 29.0992ZM39.6721 28.6855L39.9673 28.479L40.1251 28.5941L39.8299 28.8006L39.6721 28.6855ZM17.2773 11.8257C17.2645 11.8162 17.2469 11.8162 17.234 11.825L12.9801 14.8033L12.926 14.6158L17.3931 11.4878L40.2632 28.1798L39.968 28.3863L17.2773 11.8257ZM12.9368 14.9259L12.9909 15.1134L12.8413 15.2183L12.7872 15.0308L12.9368 14.9259ZM12.7987 15.3395L12.8528 15.5271L12.7032 15.6313L12.649 15.4438L12.7987 15.3395ZM12.6605 15.7539L12.7147 15.9414L12.5651 16.0457L12.5109 15.8582L12.6605 15.7539ZM12.5224 16.1682L12.5766 16.3558L12.427 16.4607L12.3728 16.2732L12.5224 16.1682ZM12.385 16.5826L12.4392 16.7701L12.2895 16.8744L12.2354 16.6869L12.385 16.5826ZM12.213 16.611L12.1589 16.4235L12.3085 16.3192L12.3626 16.5068L12.213 16.611ZM12.1704 16.7322L12.2245 16.9198L12.0749 17.024L12.0207 16.8365L12.1704 16.7322ZM12.0322 17.1466L12.0864 17.3341L11.9368 17.4391L11.8826 17.2515L12.0322 17.1466ZM11.8941 17.5609L19.7648 44.7864C19.7682 44.798 19.777 44.8074 19.7885 44.8115C19.7926 44.8129 19.7966 44.8135 19.8007 44.8135C19.8082 44.8135 19.8156 44.8115 19.8224 44.8068L23.3864 42.3112L23.4405 42.4994L19.6843 45.1297L11.7445 17.6659L11.8941 17.5609ZM23.429 42.1893L23.3749 42.0017L23.5245 41.8968L23.5786 42.0843L23.429 42.1893ZM23.5671 41.7749L23.513 41.5874L23.6626 41.4831L23.7168 41.6707L23.5671 41.7749ZM23.7053 41.3613L23.6511 41.1737L23.8007 41.0694L23.8549 41.257L23.7053 41.3613ZM23.8434 40.9469L23.7892 40.7594L23.9388 40.6544L23.993 40.842L23.8434 40.9469ZM23.9815 40.5325L23.9273 40.345L24.077 40.2407L24.1311 40.4283L23.9815 40.5325ZM24.1196 40.1182L24.0654 39.9306L24.2151 39.8264L24.2692 40.0139L24.1196 40.1182ZM24.2577 39.7038L24.2036 39.5163L24.3532 39.4113L24.4074 39.5989L24.2577 39.7038ZM24.3958 39.2902L23.3369 35.6266L23.4866 35.5217L24.5455 39.1852L24.3958 39.2902ZM23.4751 35.2123L23.6247 35.108L23.6789 35.2956L23.5292 35.4005L23.4751 35.2123ZM23.6673 34.9855L23.6132 34.7979L23.7628 34.6937L23.817 34.8812L23.6673 34.9855ZM23.8055 34.5718L23.7513 34.3843L23.9009 34.2793L23.9551 34.4675L23.8055 34.5718ZM23.9429 34.1574L23.8887 33.9699L24.0384 33.8656L24.0925 34.0532L23.9429 34.1574ZM24.081 33.7431L24.0269 33.5555L30.6728 28.9022L36.4602 33.1263C36.4731 33.1358 36.4907 33.1358 36.5042 33.127L39.3607 31.127L39.5184 31.2421L36.3451 33.4641L30.5577 29.24C30.5448 29.2306 30.5272 29.2306 30.5137 29.2394L24.081 33.7431ZM39.2036 30.9184L39.4988 30.7119L39.6565 30.827L39.3613 31.0335L39.2036 30.9184ZM39.3417 30.5041L39.6369 30.2976L39.7947 30.4127L39.4995 30.6192L39.3417 30.5041ZM39.4798 30.0897L39.775 29.8832L39.9328 29.9983L39.6376 30.2048L39.4798 30.0897ZM39.6179 29.6754L39.9131 29.4689L40.0709 29.584L39.7757 29.7905L39.6179 29.6754ZM39.7561 29.2617L40.0513 29.0552L40.209 29.1703L39.9138 29.3768L39.7561 29.2617ZM39.8942 28.8473L40.1894 28.6408L40.3471 28.7559L40.0519 28.9624L39.8942 28.8473ZM40.0323 28.433L40.3275 28.2265L40.4852 28.3416L40.1901 28.5481L40.0323 28.433ZM17.4155 11.4113C17.4026 11.4018 17.385 11.4018 17.3721 11.4106L12.9036 14.5393L12.8494 14.3517L17.5312 11.0735L40.6234 27.9272L40.3282 28.1337L17.4155 11.4113ZM12.8603 14.6618L12.9144 14.8494L12.7648 14.9536L12.7107 14.7661L12.8603 14.6618ZM12.7228 15.0755L12.777 15.263L12.6274 15.3673L12.5732 15.1798L12.7228 15.0755ZM12.5847 15.4898L12.6389 15.6774L12.4893 15.7823L12.4351 15.5948L12.5847 15.4898ZM12.4466 15.9042L12.5008 16.0917L12.3511 16.196L12.297 16.0085L12.4466 15.9042ZM12.2753 15.9326L12.2211 15.7451L12.3708 15.6408L12.4249 15.8284L12.2753 15.9326ZM12.232 16.0545L12.2861 16.242L12.1365 16.3463L12.0823 16.1588L12.232 16.0545ZM12.0939 16.4682L12.148 16.6557L11.9984 16.76L11.9442 16.5724L12.0939 16.4682ZM11.9557 16.8825L12.0099 17.0701L11.8603 17.1743L11.8061 16.9868L11.9557 16.8825ZM11.8176 17.2969L11.8718 17.4844L11.7222 17.5887L11.668 17.4012L11.8176 17.2969ZM11.6795 17.7112L19.6267 45.2008C19.6301 45.2123 19.6389 45.2218 19.6504 45.2258C19.6545 45.2272 19.6585 45.2279 19.6626 45.2279C19.67 45.2279 19.6775 45.2252 19.6843 45.2211L23.4629 42.5752L23.517 42.7627L19.5461 45.5434L11.5306 17.8155L11.6795 17.7112ZM23.5055 42.4533L23.4514 42.2658L23.601 42.1615L23.6552 42.3491L23.5055 42.4533ZM23.6436 42.039L23.5895 41.8514L23.7391 41.7465L23.7933 41.934L23.6436 42.039ZM23.7818 41.6253L23.7276 41.4371L23.8772 41.3328L23.9314 41.521L23.7818 41.6253ZM23.9199 41.2109L23.8657 41.0234L24.0153 40.9191L24.0695 41.1067L23.9199 41.2109ZM24.058 40.7966L24.0038 40.6084L24.1535 40.5034L24.2076 40.6916L24.058 40.7966ZM24.1961 40.3822L24.142 40.1947L24.2916 40.0904L24.3457 40.278L24.1961 40.3822ZM24.3342 39.9686L24.2801 39.781L24.4297 39.6761L24.4839 39.8636L24.3342 39.9686ZM24.4724 39.5542L24.4182 39.366L24.5678 39.2617L24.622 39.4493L24.4724 39.5542ZM24.6105 39.1399L23.5516 35.4763L23.7012 35.3721L24.7601 39.0356L24.6105 39.1399ZM23.689 35.062L23.8386 34.9577L23.8928 35.1453L23.7432 35.2495L23.689 35.062ZM23.8813 34.8358L23.8271 34.6483L23.9768 34.5434L24.0309 34.7309L23.8813 34.8358ZM24.0194 34.4215L23.9652 34.234L24.1149 34.1297L24.169 34.3172L24.0194 34.4215ZM24.1575 34.0071L24.1034 33.8196L30.5353 29.3159L36.3227 33.54C36.3356 33.5495 36.3532 33.5495 36.3668 33.5407L39.5834 31.2881L39.7412 31.4032L36.2076 33.8771L30.4202 29.653C30.4074 29.6436 30.3898 29.6436 30.3762 29.6524L24.1575 34.0071ZM39.4257 31.0803L39.7209 30.8738L39.8786 30.9889L39.5834 31.1954L39.4257 31.0803ZM39.5638 30.6659L39.859 30.4594L40.0167 30.5745L39.7215 30.781L39.5638 30.6659ZM39.7019 30.2522L39.9971 30.0457L40.1548 30.1608L39.8597 30.3673L39.7019 30.2522ZM39.84 29.8379L40.1352 29.6314L40.293 29.7465L39.9978 29.953L39.84 29.8379ZM39.9781 29.4235L40.2733 29.217L40.4311 29.3321L40.1359 29.5386L39.9781 29.4235ZM40.1163 29.0092L40.4114 28.8027L40.5692 28.9178L40.274 29.1243L40.1163 29.0092ZM40.2544 28.5948L40.5496 28.3883L40.7073 28.5034L40.4121 28.7099L40.2544 28.5948ZM40.3918 28.1811L40.687 27.9746L40.8448 28.0897L40.5496 28.2962L40.3918 28.1811ZM17.5536 10.9969C17.5407 10.9875 17.5231 10.9875 17.5096 10.9963L12.8271 14.2752L12.7729 14.0877L17.6694 10.6591L40.9836 27.6754L40.6884 27.8819L17.5536 10.9969ZM12.7844 14.3978L12.8386 14.5853L12.689 14.6896L12.6348 14.502L12.7844 14.3978ZM12.6463 14.8114L12.7005 14.999L12.5509 15.1032L12.4967 14.9157L12.6463 14.8114ZM12.5082 15.2258L12.5624 15.4133L12.4127 15.5183L12.3586 15.3307L12.5082 15.2258ZM12.3369 15.2542L12.2828 15.0667L12.4324 14.9624L12.4865 15.15L12.3369 15.2542ZM12.2936 15.3761L12.3478 15.5636L12.1981 15.6679L12.144 15.4804L12.2936 15.3761ZM12.1555 15.7905L12.2096 15.978L12.06 16.0829L12.0058 15.8954L12.1555 15.7905ZM12.0174 16.2041L12.0715 16.3917L11.9219 16.4959L11.8677 16.3084L12.0174 16.2041ZM11.8792 16.6185L11.9334 16.806L11.7838 16.9103L11.7296 16.7228L11.8792 16.6185ZM11.7411 17.0328L11.7953 17.2204L11.6457 17.3246L11.5915 17.1371L11.7411 17.0328ZM11.6037 17.4472L11.6578 17.6347L11.5082 17.7397L11.454 17.5521L11.6037 17.4472ZM11.4656 17.8615L19.4893 45.6152C19.4927 45.6267 19.5015 45.6361 19.513 45.6402C19.517 45.6416 19.5211 45.6422 19.5252 45.6422C19.5326 45.6422 19.54 45.6402 19.5468 45.6355L23.5394 42.8399L23.5935 43.0275L19.4087 45.9577L11.3159 17.9658L11.4656 17.8615ZM23.582 42.7174L23.5279 42.5298L23.6775 42.4249L23.7317 42.6124L23.582 42.7174ZM23.7202 42.3037L23.666 42.1155L23.8156 42.0112L23.8698 42.1994L23.7202 42.3037ZM23.8583 41.8893L23.8041 41.7018L23.9537 41.5975L24.0079 41.7851L23.8583 41.8893ZM23.9964 41.475L23.9422 41.2875L24.0919 41.1832L24.146 41.3707L23.9964 41.475ZM24.1345 41.0606L24.0803 40.8731L24.23 40.7682L24.2841 40.9557L24.1345 41.0606ZM24.2726 40.6463L24.2185 40.4587L24.3681 40.3545L24.4223 40.542L24.2726 40.6463ZM24.4101 40.2326L24.3559 40.0451L24.5055 39.9408L24.5597 40.1283L24.4101 40.2326ZM24.5482 39.8183L24.494 39.6307L24.6436 39.5264L24.6978 39.714L24.5482 39.8183ZM24.6863 39.4039L24.6321 39.2164L24.7818 39.1121L24.8359 39.2996L24.6863 39.4039ZM24.8244 38.9895L23.7655 35.326L23.9151 35.2218L24.974 38.8853L24.8244 38.9895ZM23.9036 34.9117L24.0533 34.8074L24.1074 34.995L23.9578 35.0992L23.9036 34.9117ZM24.0959 34.6855L24.0417 34.498L24.1914 34.3937L24.2455 34.5813L24.0959 34.6855ZM24.234 34.2712L24.1799 34.083L30.3972 29.7295L36.1846 33.9537C36.1975 33.9631 36.2151 33.9631 36.2286 33.9543L39.8055 31.4499L39.9632 31.565L36.0695 34.2915L30.2821 30.0674C30.2693 30.0579 30.2516 30.0579 30.2381 30.0667L24.234 34.2712ZM39.6477 31.2427L39.9429 31.0362L40.1007 31.1513L39.8055 31.3578L39.6477 31.2427ZM39.7859 30.8284L40.081 30.6219L40.2388 30.737L39.9436 30.9435L39.7859 30.8284ZM39.924 30.414L40.2192 30.2075L40.3769 30.3226L40.0817 30.5291L39.924 30.414ZM40.0621 29.9997L40.3573 29.7932L40.515 29.9083L40.2198 30.1148L40.0621 29.9997ZM40.2002 29.5853L40.4954 29.3788L40.6532 29.4939L40.358 29.7004L40.2002 29.5853ZM40.3383 29.1717L40.6335 28.9652L40.7913 29.0803L40.4961 29.2868L40.3383 29.1717ZM40.4758 28.7573L40.771 28.5508L40.9287 28.6659L40.6335 28.8724L40.4758 28.7573ZM40.6139 28.3429L40.9091 28.1364L41.0668 28.2515L40.7716 28.458L40.6139 28.3429ZM40.752 27.9286L41.0472 27.7221L41.205 27.8372L40.9098 28.0437L40.752 27.9286ZM17.6917 10.5826C17.6788 10.5731 17.6612 10.5731 17.6477 10.5819L12.7506 14.0112L12.6964 13.8236L17.8068 10.2454L41.3431 27.4235L41.0479 27.63L17.6917 10.5826ZM12.7079 14.133L12.7621 14.3206L12.6125 14.4248L12.5583 14.2373L12.7079 14.133ZM12.5698 14.5474L12.624 14.7349L12.4744 14.8399L12.4202 14.6523L12.5698 14.5474ZM12.3985 14.5758L12.3444 14.3883L12.494 14.284L12.5482 14.4716L12.3985 14.5758ZM12.3552 14.6977L12.4094 14.8852L12.2597 14.9895L12.2056 14.802L12.3552 14.6977ZM12.2171 15.112L12.2712 15.2996L12.1216 15.4039L12.0675 15.2163L12.2171 15.112ZM12.0796 15.5264L12.1338 15.7139L11.9842 15.8182L11.93 15.6307L12.0796 15.5264ZM11.9415 15.9401L11.9957 16.1276L11.8461 16.2319L11.7919 16.0443L11.9415 15.9401ZM11.8034 16.3544L11.8576 16.542L11.7079 16.6462L11.6538 16.4587L11.8034 16.3544ZM11.6653 16.7688L11.7195 16.9563L11.5698 17.0613L11.5157 16.8737L11.6653 16.7688ZM11.5272 17.1831L11.5813 17.3707L11.4317 17.4756L11.3775 17.2881L11.5272 17.1831ZM11.3891 17.5975L11.4432 17.785L11.2936 17.8893L11.2394 17.7018L11.3891 17.5975ZM11.2509 18.0112L19.3505 46.0288C19.3539 46.0403 19.3627 46.0498 19.3742 46.0539C19.3782 46.0552 19.3823 46.0559 19.3864 46.0559C19.3938 46.0559 19.4013 46.0539 19.408 46.0491L23.6152 43.1033L23.6694 43.2908L19.2699 46.3721L11.1013 18.1161L11.2509 18.0112ZM23.6585 42.9814L23.6044 42.7939L23.754 42.6889L23.8082 42.8765L23.6585 42.9814ZM23.7967 42.5678L23.7425 42.3802L23.8921 42.2759L23.9463 42.4635L23.7967 42.5678ZM23.9341 42.1534L23.8799 41.9659L24.0296 41.8616L24.0837 42.0491L23.9341 42.1534ZM24.0722 41.739L24.0181 41.5515L24.1677 41.4472L24.2218 41.6348L24.0722 41.739ZM24.2103 41.3247L24.1562 41.1371L24.3058 41.0322L24.36 41.2204L24.2103 41.3247ZM24.3485 40.9103L24.2943 40.7228L24.4439 40.6185L24.4981 40.8061L24.3485 40.9103ZM24.4866 40.4967L24.4324 40.3091L24.582 40.2048L24.6362 40.3924L24.4866 40.4967ZM24.6247 40.0823L24.5705 39.8948L24.7202 39.7898L24.7743 39.9774L24.6247 40.0823ZM24.7628 39.6679L24.7086 39.4797L24.8583 39.3755L24.9124 39.563L24.7628 39.6679ZM24.9009 39.2536L24.8468 39.0661L24.9964 38.9618L25.0506 39.1493L24.9009 39.2536ZM25.039 38.8392L23.9801 35.1757L24.1298 35.0715L25.1887 38.735L25.039 38.8392ZM24.1183 34.7621L24.2679 34.6571L24.322 34.8447L24.1724 34.9489L24.1183 34.7621ZM24.3105 34.5352L24.2564 34.3477L30.2591 30.1446L36.0465 34.3687C36.0594 34.3782 36.077 34.3782 36.0905 34.3694L40.0269 31.6124L40.1846 31.7275L35.9307 34.7059L30.1433 30.4817C30.1305 30.4723 30.1129 30.4723 30.0993 30.4811L24.3105 34.5352ZM39.8698 31.4046L40.165 31.1981L40.3228 31.3132L40.0276 31.5197L39.8698 31.4046ZM40.0079 30.9902L40.3031 30.7837L40.4609 30.8988L40.1657 31.1053L40.0079 30.9902ZM40.146 30.5759L40.4412 30.3694L40.599 30.4845L40.3038 30.691L40.146 30.5759ZM40.2842 30.1622L40.5794 29.9557L40.7371 30.0708L40.4419 30.2773L40.2842 30.1622ZM40.4223 29.7478L40.7175 29.5413L40.8752 29.6564L40.58 29.8629L40.4223 29.7478ZM40.5597 29.3335L40.8549 29.127L41.0127 29.2421L40.7175 29.4486L40.5597 29.3335ZM40.6978 28.9191L40.993 28.7126L41.1508 28.8277L40.8556 29.0342L40.6978 28.9191ZM40.836 28.5048L41.1312 28.2983L41.2889 28.4134L40.9937 28.6199L40.836 28.5048ZM40.9741 28.0911L41.2693 27.8846L41.427 27.9997L41.1318 28.2062L40.9741 28.0911ZM41.1122 27.6767L41.4074 27.4702L41.5651 27.5853L41.2699 27.7918L41.1122 27.6767ZM17.8298 10.1689C17.817 10.1594 17.7994 10.1594 17.7858 10.1682L12.6741 13.7478L12.6199 13.5603L17.9449 9.83174L41.7026 27.1716L41.4074 27.3782L17.8298 10.1689ZM12.6314 13.869L12.6856 14.0565L12.536 14.1608L12.4818 13.9733L12.6314 13.869ZM12.4175 14.0193L12.4717 14.2068L12.322 14.3111L12.2679 14.1236L12.4175 14.0193ZM12.2794 14.4336L12.3335 14.6212L12.1839 14.7261L12.1297 14.5386L12.2794 14.4336ZM12.1413 14.848L12.1954 15.0355L12.0458 15.1398L11.9916 14.9523L12.1413 14.848ZM12.0031 15.2624L12.0573 15.4499L11.9077 15.5542L11.8535 15.3666L12.0031 15.2624ZM11.865 15.676L11.9192 15.8636L11.7696 15.9685L11.7154 15.781L11.865 15.676ZM11.7269 16.0904L11.7811 16.2779L11.6314 16.3822L11.5773 16.1947L11.7269 16.0904ZM11.5888 16.5047L11.6429 16.6923L11.4933 16.7972L11.4392 16.6097L11.5888 16.5047ZM11.4507 16.9191L11.5048 17.1066L11.3552 17.2109L11.301 17.0234L11.4507 16.9191ZM11.3125 17.3328L11.3667 17.5203L11.2171 17.6246L11.1629 17.437L11.3125 17.3328ZM11.1744 17.7471L11.2286 17.9347L11.079 18.0396L11.0248 17.8521L11.1744 17.7471ZM19.1318 46.7858L10.8874 18.2664L11.037 18.1622L19.213 46.4439C19.2164 46.4554 19.2252 46.4648 19.2367 46.4689C19.2408 46.4703 19.2449 46.4709 19.2489 46.4709C19.2564 46.4709 19.2638 46.4689 19.2706 46.4642L23.6924 43.368L23.7466 43.5562L19.1318 46.7858ZM23.7344 43.2455L23.6802 43.0579L23.8298 42.9537L23.884 43.1412L23.7344 43.2455ZM23.8725 42.8318L23.8183 42.6443L23.968 42.54L24.0221 42.7275L23.8725 42.8318ZM24.0106 42.4174L23.9564 42.2299L24.1061 42.125L24.1602 42.3125L24.0106 42.4174ZM24.1487 42.0031L24.0946 41.8149L24.2442 41.7106L24.2984 41.8982L24.1487 42.0031ZM24.2868 41.5887L24.2327 41.4012L24.3823 41.2969L24.4365 41.4845L24.2868 41.5887ZM24.425 41.1744L24.3708 40.9868L24.5204 40.8826L24.5746 41.0701L24.425 41.1744ZM24.5631 40.7607L24.5089 40.5732L24.6585 40.4689L24.7127 40.6564L24.5631 40.7607ZM24.7012 40.3464L24.647 40.1588L24.7967 40.0539L24.8508 40.2414L24.7012 40.3464ZM24.8393 39.932L24.7851 39.7445L24.9348 39.6402L24.9889 39.8277L24.8393 39.932ZM24.9774 39.5176L24.9233 39.3301L25.0729 39.2258L25.1271 39.4134L24.9774 39.5176ZM25.1155 39.1033L25.0614 38.9157L25.211 38.8108L25.2652 38.9984L25.1155 39.1033ZM25.4026 38.5847L25.253 38.6889L24.1941 35.0254L24.3437 34.9205L25.4026 38.5847ZM40.4067 31.8893L35.7926 35.1202L30.0052 30.8961C29.9923 30.8866 29.9747 30.8866 29.9612 30.8954L24.3864 34.7993L24.3322 34.6111L30.121 30.5583L35.9084 34.7824C35.9213 34.7918 35.9389 34.7918 35.9524 34.783L40.249 31.7742L40.4067 31.8893ZM40.5448 31.475L40.2496 31.6815L40.0919 31.5664L40.3871 31.3599L40.5448 31.475ZM40.6829 31.0613L40.3878 31.2678L40.23 31.1527L40.5252 30.9462L40.6829 31.0613ZM40.8211 30.6469L40.5259 30.8534L40.3681 30.7383L40.6633 30.5318L40.8211 30.6469ZM40.9592 30.2326L40.664 30.4391L40.5062 30.324L40.8014 30.1175L40.9592 30.2326ZM41.0973 29.8182L40.8021 30.0247L40.6444 29.9096L40.9395 29.7031L41.0973 29.8182ZM41.2347 29.4039L40.9395 29.6104L40.7818 29.4953L41.077 29.2888L41.2347 29.4039ZM41.3729 28.9902L41.0777 29.1967L40.9199 29.0816L41.2151 28.8751L41.3729 28.9902ZM41.511 28.5759L41.2158 28.7824L41.058 28.6673L41.3532 28.4608L41.511 28.5759ZM41.6491 28.1615L41.3539 28.368L41.1961 28.2529L41.4913 28.0464L41.6491 28.1615ZM41.7872 27.7471L41.492 27.9536L41.3343 27.8385L41.6295 27.632L41.7872 27.7471ZM41.9253 27.3328L41.6301 27.5393L41.4724 27.4242L41.7676 27.2177L41.9253 27.3328ZM41.7683 27.1256L17.9679 9.75456C17.9551 9.74508 17.9375 9.74508 17.9239 9.75388L12.5983 13.4831L12.5441 13.2955L18.0837 9.41671L42.0634 26.9191L41.7683 27.1256ZM26.1819 28.1249C26.1819 28.1127 26.1765 28.1012 26.1663 28.0945L25.9869 27.9631L26.3038 27.7411C26.3139 27.7343 26.3193 27.7228 26.32 27.7106C26.32 27.6984 26.3146 27.6869 26.3044 27.6801L26.125 27.5488L26.4419 27.3267C26.452 27.3199 26.4581 27.3084 26.4581 27.2962C26.4581 27.284 26.4527 27.2725 26.4426 27.2658L26.2631 27.1344L26.58 26.9123C26.5902 26.9056 26.5956 26.8941 26.5963 26.8819C26.5963 26.8697 26.5908 26.8582 26.5807 26.8514L26.4013 26.7201L26.7181 26.498C26.7283 26.4912 26.7337 26.4797 26.7344 26.4675C26.7344 26.4553 26.729 26.4438 26.7188 26.4371L26.5394 26.3057L26.8562 26.0836C26.8664 26.0769 26.8718 26.0654 26.8725 26.0532C26.8725 26.041 26.8671 26.0295 26.8569 26.0227L26.6775 25.8914L26.9944 25.6693C27.0045 25.6625 27.0099 25.651 27.0106 25.6388C27.0106 25.6266 27.0052 25.6151 26.995 25.6083L26.8156 25.477L27.1325 25.2549C27.1426 25.2482 27.1481 25.2366 27.1487 25.2245C27.1487 25.2123 27.1433 25.2008 27.1332 25.194L26.9537 25.0626L27.2706 24.8406C27.2808 24.8338 27.2862 24.8223 27.2868 24.8101C27.2868 24.7979 27.2814 24.7864 27.2713 24.7796L27.0919 24.6483L27.4087 24.4262C27.4189 24.4194 27.4243 24.4079 27.425 24.3957C27.425 24.3836 27.4195 24.3721 27.4094 24.3653L27.23 24.2339L27.5468 24.0119C27.557 24.0051 27.5631 23.9936 27.5631 23.9814C27.5631 23.9692 27.5577 23.9577 27.5475 23.9509L27.3681 23.8196L27.685 23.5975C27.6951 23.5907 27.7012 23.5792 27.7012 23.567C27.7012 23.5549 27.6958 23.5433 27.6856 23.5366L27.5062 23.4052L27.8231 23.1832C27.8332 23.1764 27.8393 23.1649 27.8393 23.1527C27.8393 23.1405 27.8339 23.129 27.8237 23.1222L19.1792 16.8148C19.1663 16.8053 19.1487 16.8053 19.1352 16.8142C19.1223 16.8236 19.1162 16.8399 19.121 16.8554L19.2794 17.4025L19.0411 17.2285C19.0282 17.219 19.0106 17.219 18.9971 17.2278C18.9842 17.2373 18.9781 17.2536 18.9828 17.2691L19.1413 17.8162L18.9029 17.6422C18.8901 17.6327 18.8725 17.6327 18.8589 17.6415C18.8461 17.651 18.84 17.6672 18.8447 17.6828L19.0031 18.2299L18.7648 18.0559C18.752 18.0464 18.7344 18.0464 18.7208 18.0552C18.7073 18.0647 18.7019 18.0809 18.7066 18.0965L18.865 18.6435L18.6267 18.4695C18.6138 18.4601 18.5962 18.4601 18.5827 18.4689C18.5698 18.4783 18.5637 18.4946 18.5685 18.5102L18.7269 19.0572L18.4886 18.8832C18.4757 18.8737 18.4581 18.8737 18.4446 18.8825C18.4317 18.892 18.4256 18.9083 18.4304 18.9238L18.5888 19.4709L18.3505 19.2969C18.3376 19.2874 18.32 19.2874 18.3065 19.2962C18.2936 19.3057 18.2875 19.3219 18.2916 19.3375L18.45 19.8846L18.2117 19.7106C18.1988 19.7011 18.1812 19.7011 18.1677 19.7099C18.1541 19.7194 18.1487 19.7356 18.1528 19.7512L18.3112 20.2982L18.0736 20.1242C18.0607 20.1148 18.0431 20.1148 18.0296 20.1236C18.0167 20.133 18.0106 20.1493 18.0153 20.1649L18.1738 20.7119L17.9361 20.5379C17.9233 20.5284 17.9057 20.5284 17.8921 20.5372C17.8792 20.5467 17.8732 20.563 17.8772 20.5785L18.0356 21.1256L17.7973 20.9516C17.7845 20.9421 17.7669 20.9421 17.754 20.9509C17.7405 20.9604 17.735 20.9767 17.7391 20.9922L17.8975 21.5393L17.6592 21.3653C17.6463 21.3558 17.6287 21.3558 17.6159 21.3646C17.6023 21.3741 17.5969 21.3903 17.601 21.4059L17.7594 21.953L17.5211 21.779C17.5082 21.7695 17.4906 21.7695 17.4771 21.7783C17.4642 21.7878 17.4581 21.804 17.4629 21.8196L20.4351 32.0999C20.4385 32.1114 20.4473 32.1209 20.4588 32.1249C20.4629 32.1263 20.4669 32.127 20.471 32.127C20.4784 32.127 20.4859 32.1249 20.4927 32.1202L26.165 28.1486C26.1758 28.1486 26.1819 28.1371 26.1819 28.1249ZM26.2178 27.7099L25.9226 27.9164L25.7648 27.8013L26.06 27.5948L26.2178 27.7099ZM21.4541 24.6551L21.2997 24.1202L23.7757 25.9272L23.4805 26.1337L21.4541 24.6551ZM23.4155 26.1791L22.1508 27.0647L21.4879 24.7729L23.4155 26.1791ZM22.0932 27.1358C22.0966 27.1473 22.1054 27.1568 22.1169 27.1608C22.121 27.1622 22.125 27.1629 22.1291 27.1629C22.1365 27.1629 22.144 27.1608 22.1508 27.1561L23.4791 26.2258L23.6369 26.3409L22.012 27.4784L21.1609 24.5339L21.3884 24.7004L22.0932 27.1358ZM23.5441 26.1805L23.8393 25.9739L23.9971 26.089L23.7019 26.2955L23.5441 26.1805ZM21.2652 24.0024L21.1108 23.4675L24.1352 25.6754L23.84 25.8819L21.2652 24.0024ZM21.3545 24.5826L21.1271 24.4167L20.9727 23.8819L21.2002 24.0477L21.3545 24.5826ZM21.9551 27.5501C21.9585 27.5616 21.9673 27.5711 21.9788 27.5752C21.9828 27.5765 21.9869 27.5772 21.991 27.5772C21.9984 27.5772 22.0059 27.5752 22.0126 27.5704L23.7012 26.3876L23.8589 26.5027L21.8738 27.8927L20.8339 24.2955L21.0614 24.4614L21.9551 27.5501ZM23.7662 26.3429L24.0614 26.1364L24.2191 26.2515L23.9239 26.458L23.7662 26.3429ZM23.9043 25.9286L24.1995 25.7221L24.3573 25.8372L24.0621 26.0437L23.9043 25.9286ZM21.0763 23.3497L20.9219 22.8148L24.4954 25.4228L24.2002 25.6293L21.0763 23.3497ZM21.1663 23.9299L20.9388 23.7641L20.7845 23.2292L21.012 23.3951L21.1663 23.9299ZM21.0282 24.3443L20.8007 24.1784L20.6463 23.6435L20.8738 23.8094L21.0282 24.3443ZM21.817 27.9645C21.8204 27.976 21.8292 27.9855 21.8407 27.9895C21.8447 27.9909 21.8488 27.9916 21.8528 27.9916C21.8603 27.9916 21.8677 27.9895 21.8745 27.9848L23.9233 26.5501L24.081 26.6652L21.7364 28.3071L20.5076 24.0572L20.735 24.2231L21.817 27.9645ZM23.9883 26.5048L24.2835 26.2983L24.4412 26.4134L24.146 26.6199L23.9883 26.5048ZM24.1264 26.0904L24.4216 25.8839L24.5793 25.999L24.2841 26.2055L24.1264 26.0904ZM24.2645 25.6761L24.5597 25.4696L24.7174 25.5846L24.4223 25.7911L24.2645 25.6761ZM20.8881 22.697L20.7337 22.1622L24.8562 25.171L24.561 25.3775L20.8881 22.697ZM20.9774 23.2773L20.7499 23.1114L20.5956 22.5765L20.8231 22.7424L20.9774 23.2773ZM20.8393 23.6916L20.6118 23.5257L20.4574 22.9909L20.6849 23.1567L20.8393 23.6916ZM20.7012 24.1053L20.4737 23.9394L20.3193 23.4046L20.5468 23.5704L20.7012 24.1053ZM21.6788 28.3788C21.6822 28.3903 21.691 28.3998 21.7025 28.4039C21.7066 28.4052 21.7107 28.4059 21.7147 28.4059C21.7222 28.4059 21.7296 28.4039 21.7364 28.3991L24.1453 26.7126L24.3031 26.8277L21.5983 28.7221L20.1812 23.8196L20.4087 23.9855L21.6788 28.3788ZM24.2103 26.6666L24.5055 26.4601L24.6633 26.5752L24.3681 26.7817L24.2103 26.6666ZM24.3485 26.2522L24.6436 26.0457L24.8014 26.1608L24.5062 26.3673L24.3485 26.2522ZM24.4866 25.8385L24.7818 25.632L24.9395 25.7471L24.6443 25.9536L24.4866 25.8385ZM24.6247 25.4242L24.9199 25.2177L25.0776 25.3328L24.7824 25.5393L24.6247 25.4242ZM20.6992 22.0444L20.5448 21.5095L25.2158 24.9184L24.9206 25.1249L20.6992 22.0444ZM20.7885 22.6246L20.561 22.4587L20.4067 21.9238L20.6342 22.0897L20.7885 22.6246ZM20.6504 23.0389L20.4229 22.8731L20.2686 22.3382L20.496 22.5041L20.6504 23.0389ZM20.513 23.4526L20.2855 23.2867L20.1311 22.7519L20.3586 22.9178L20.513 23.4526ZM20.3748 23.867L20.1474 23.7011L19.993 23.1662L20.2205 23.3328L20.3748 23.867ZM21.5407 28.7932C21.5441 28.8047 21.5529 28.8142 21.5644 28.8182C21.5685 28.8196 21.5725 28.8203 21.5766 28.8203C21.5841 28.8203 21.5915 28.8182 21.5983 28.8135L24.3674 26.8744L24.5252 26.9895L21.4602 29.1358L19.8542 23.5806L20.0817 23.7465L21.5407 28.7932ZM24.4324 26.8291L24.7276 26.6226L24.8854 26.7377L24.5902 26.9442L24.4324 26.8291ZM24.5705 26.4147L24.8657 26.2082L25.0235 26.3233L24.7283 26.5298L24.5705 26.4147ZM24.7086 26.0004L25.0038 25.7939L25.1616 25.909L24.8664 26.1155L24.7086 26.0004ZM24.8468 25.586L25.142 25.3795L25.2997 25.4946L25.0045 25.7011L24.8468 25.586ZM24.9849 25.1716L25.2801 24.9651L25.4378 25.0802L25.1426 25.2867L24.9849 25.1716ZM20.5103 21.391L20.3559 20.8561L25.5759 24.6659L25.2807 24.8724L20.5103 21.391ZM20.6003 21.9719L20.3728 21.806L20.2185 21.2712L20.4459 21.437L20.6003 21.9719ZM20.4622 22.3856L20.2347 22.2197L20.0803 21.6848L20.3078 21.8507L20.4622 22.3856ZM20.3241 22.7999L20.0966 22.6334L19.9422 22.0985L20.1697 22.2644L20.3241 22.7999ZM20.186 23.2143L19.9585 23.0484L19.8041 22.5136L20.0316 22.6794L20.186 23.2143ZM20.0478 23.6287L19.8203 23.4628L19.666 22.9279L19.8935 23.0938L20.0478 23.6287ZM21.4026 29.2069C21.406 29.2184 21.4148 29.2279 21.4263 29.2319C21.4304 29.2333 21.4344 29.2339 21.4385 29.2339C21.4459 29.2339 21.4534 29.2319 21.4602 29.2272L24.5895 27.0362L24.7472 27.1513L21.322 29.5494L19.5272 23.3416L19.7547 23.5075L21.4026 29.2069ZM24.6545 26.9909L24.9497 26.7844L25.1074 26.8995L24.8122 27.106L24.6545 26.9909ZM24.7926 26.5765L25.0878 26.37L25.2455 26.4851L24.9503 26.6916L24.7926 26.5765ZM24.9307 26.1622L25.2259 25.9557L25.3837 26.0708L25.0885 26.2773L24.9307 26.1622ZM25.0688 25.7485L25.364 25.542L25.5218 25.6571L25.2266 25.8636L25.0688 25.7485ZM25.207 25.3341L25.5021 25.1276L25.6599 25.2427L25.3647 25.4492L25.207 25.3341ZM25.3451 24.9198L25.6403 24.7133L25.798 24.8284L25.5028 25.0349L25.3451 24.9198ZM20.322 20.7383L20.1677 20.2035L25.9368 24.414L25.6416 24.6205L20.322 20.7383ZM20.4114 21.3192L20.1839 21.1534L20.0296 20.6185L20.257 20.7844L20.4114 21.3192ZM20.2733 21.7329L20.0458 21.567L19.8914 21.0322L20.1189 21.198L20.2733 21.7329ZM20.1352 22.1473L19.9077 21.9814L19.7533 21.4465L19.9808 21.6124L20.1352 22.1473ZM19.9971 22.5616L19.7696 22.3957L19.6152 21.8609L19.8427 22.0268L19.9971 22.5616ZM19.8589 22.976L19.6314 22.8101L19.4771 22.2752L19.7046 22.4411L19.8589 22.976ZM19.7208 23.3903L19.4933 23.2238L19.339 22.6889L19.5665 22.8548L19.7208 23.3903ZM21.2645 29.6212C21.2679 29.6327 21.2767 29.6422 21.2882 29.6463C21.2923 29.6476 21.2963 29.6483 21.3004 29.6483C21.3078 29.6483 21.3153 29.6463 21.322 29.6415L24.8116 27.1981L24.9693 27.3132L21.1839 29.9638L19.2002 23.1026L19.4277 23.2691L21.2645 29.6212ZM24.8766 27.1527L25.1717 26.9462L25.3295 27.0613L25.0343 27.2678L24.8766 27.1527ZM25.0147 26.739L25.3099 26.5325L25.4676 26.6476L25.1724 26.8541L25.0147 26.739ZM25.1528 26.3247L25.448 26.1182L25.6057 26.2333L25.3105 26.4398L25.1528 26.3247ZM25.2909 25.9103L25.5861 25.7038L25.7439 25.8189L25.4487 26.0254L25.2909 25.9103ZM25.429 25.496L25.7242 25.2895L25.882 25.4046L25.5868 25.6111L25.429 25.496ZM25.5671 25.0816L25.8623 24.8751L26.0201 24.9902L25.7249 25.1967L25.5671 25.0816ZM25.7053 24.6679L26.0005 24.4614L26.1582 24.5765L25.863 24.783L25.7053 24.6679ZM20.1331 20.0857L19.9788 19.5508L26.2963 24.1615L26.0011 24.368L20.1331 20.0857ZM20.2225 20.6666L19.995 20.5L19.8407 19.9651L20.0681 20.131L20.2225 20.6666ZM20.0844 21.0802L19.8569 20.9144L19.7025 20.3795L19.93 20.5454L20.0844 21.0802ZM19.9463 21.4946L19.7188 21.3287L19.5644 20.7938L19.7919 20.9597L19.9463 21.4946ZM19.8082 21.9089L19.5807 21.7431L19.4263 21.2082L19.6538 21.3741L19.8082 21.9089ZM19.6707 22.3233L19.4432 22.1574L19.2889 21.6226L19.5164 21.7884L19.6707 22.3233ZM19.5326 22.7377L19.3051 22.5718L19.1507 22.0369L19.3782 22.2028L19.5326 22.7377ZM19.3945 23.1513L19.167 22.9855L19.0126 22.4506L19.2401 22.6165L19.3945 23.1513ZM21.1264 30.0356C21.1298 30.0471 21.1386 30.0566 21.1501 30.0606C21.1541 30.062 21.1582 30.0627 21.1623 30.0627C21.1697 30.0627 21.1772 30.0606 21.1839 30.0559L25.0336 27.3605L25.1914 27.4756L21.0458 30.3782L18.8738 22.8649L19.1013 23.0308L21.1264 30.0356ZM25.0986 27.3152L25.3938 27.1087L25.5516 27.2238L25.2564 27.4303L25.0986 27.3152ZM25.2367 26.9008L25.5319 26.6943L25.6897 26.8094L25.3945 27.0159L25.2367 26.9008ZM25.3749 26.4865L25.6701 26.28L25.8278 26.3951L25.5326 26.6016L25.3749 26.4865ZM25.513 26.0721L25.8082 25.8656L25.9659 25.9807L25.6707 26.1872L25.513 26.0721ZM25.6511 25.6584L25.9463 25.4519L26.104 25.567L25.8088 25.7735L25.6511 25.6584ZM25.7892 25.2441L26.0844 25.0376L26.2422 25.1527L25.947 25.3592L25.7892 25.2441ZM25.9273 24.8297L26.2225 24.6232L26.3803 24.7383L26.0851 24.9448L25.9273 24.8297ZM26.0654 24.4154L26.3606 24.2089L26.5184 24.324L26.2232 24.5305L26.0654 24.4154ZM19.9442 19.433L19.7899 18.8981L26.6565 23.9096L26.3613 24.1161L19.9442 19.433ZM20.0343 20.0139L19.8068 19.848L19.6524 19.3131L19.8799 19.4797L20.0343 20.0139ZM19.8962 20.4276L19.6687 20.2617L19.5143 19.7268L19.7418 19.8927L19.8962 20.4276ZM19.7581 20.8419L19.5306 20.676L19.3762 20.1412L19.6037 20.307L19.7581 20.8419ZM19.6199 21.2563L19.3925 21.0904L19.2381 20.5555L19.4656 20.7214L19.6199 21.2563ZM19.4818 21.6706L19.2543 21.5048L19.1 20.9699L19.3275 21.1358L19.4818 21.6706ZM19.3437 22.085L19.1162 21.9191L18.9618 21.3842L19.1893 21.5501L19.3437 22.085ZM19.2056 22.4987L18.9781 22.3328L18.8237 21.7979L19.0512 21.9638L19.2056 22.4987ZM19.0675 22.913L18.84 22.7471L18.6856 22.2123L18.9131 22.3781L19.0675 22.913ZM20.9883 30.4499C20.9916 30.4614 21.0004 30.4709 21.012 30.475C21.016 30.4763 21.0201 30.477 21.0241 30.477C21.0316 30.477 21.039 30.475 21.0458 30.4702L25.255 27.523L25.4128 27.6381L20.907 30.7932L18.5461 22.6266L18.7736 22.7925L20.9883 30.4499ZM25.3207 27.477L25.6159 27.2705L25.7736 27.3856L25.4784 27.5921L25.3207 27.477ZM25.4588 27.0626L25.754 26.8561L25.9118 26.9712L25.6166 27.1777L25.4588 27.0626ZM25.5969 26.6483L25.8921 26.4418L26.0499 26.5569L25.7547 26.7634L25.5969 26.6483ZM25.7351 26.2346L26.0302 26.0281L26.188 26.1432L25.8928 26.3497L25.7351 26.2346ZM25.8732 25.8203L26.1684 25.6138L26.3261 25.7289L26.0309 25.9354L25.8732 25.8203ZM26.0113 25.4059L26.3065 25.1994L26.4642 25.3145L26.169 25.521L26.0113 25.4059ZM26.1494 24.9916L26.4446 24.7851L26.6024 24.9002L26.3072 25.1066L26.1494 24.9916ZM26.2868 24.5779L26.582 24.3714L26.7398 24.4865L26.4446 24.693L26.2868 24.5779ZM26.425 24.1635L26.7202 23.957L26.8779 24.0721L26.5827 24.2786L26.425 24.1635ZM19.756 18.7803L19.6017 18.2454L27.0167 23.6571L26.7215 23.8636L19.756 18.7803ZM19.8454 19.3612L19.6179 19.1953L19.4635 18.6605L19.691 18.8263L19.8454 19.3612ZM19.7073 19.7749L19.4798 19.609L19.3254 19.0741L19.5529 19.24L19.7073 19.7749ZM19.5692 20.1892L19.3417 20.0227L19.1873 19.4878L19.4148 19.6537L19.5692 20.1892ZM19.431 20.6036L19.2036 20.4377L19.0492 19.9028L19.2767 20.0687L19.431 20.6036ZM19.2929 21.018L19.0654 20.8521L18.9111 20.3172L19.1386 20.4838L19.2929 21.018ZM19.1548 21.4316L18.9273 21.2657L18.773 20.7309L19.0004 20.8968L19.1548 21.4316ZM19.0167 21.846L18.7892 21.6794L18.6348 21.1446L18.8623 21.3104L19.0167 21.846ZM18.8786 22.2603L18.6511 22.0945L18.4967 21.5596L18.7242 21.7255L18.8786 22.2603ZM18.7405 22.6747L18.513 22.5088L18.3586 21.9739L18.5861 22.1398L18.7405 22.6747ZM20.8501 30.8643C20.8535 30.8758 20.8623 30.8853 20.8738 30.8893C20.8779 30.8907 20.882 30.8914 20.886 30.8914C20.8935 30.8914 20.9009 30.8893 20.9077 30.8846L25.4771 27.6849L25.6348 27.8L20.7689 31.2069L18.2191 22.3876L18.4466 22.5535L20.8501 30.8643ZM25.5428 27.6388L25.838 27.4323L25.9957 27.5474L25.7005 27.7539L25.5428 27.6388ZM25.6809 27.2251L25.9761 27.0186L26.1338 27.1337L25.8386 27.3402L25.6809 27.2251ZM25.819 26.8108L26.1142 26.6043L26.272 26.7194L25.9768 26.9259L25.819 26.8108ZM25.9571 26.3964L26.2523 26.1899L26.4101 26.305L26.1149 26.5115L25.9571 26.3964ZM26.0952 25.9821L26.3904 25.7756L26.5482 25.8907L26.253 26.0972L26.0952 25.9821ZM26.2334 25.5677L26.5286 25.3612L26.6863 25.4763L26.3911 25.6828L26.2334 25.5677ZM26.3715 25.154L26.6667 24.9475L26.8244 25.0626L26.5292 25.2691L26.3715 25.154ZM26.5089 24.7397L26.8041 24.5332L26.9619 24.6483L26.6667 24.8548L26.5089 24.7397ZM26.647 24.3253L26.9422 24.1188L27.1 24.2339L26.8048 24.4404L26.647 24.3253ZM26.7852 23.911L27.0803 23.7045L27.2381 23.8196L26.9429 24.0261L26.7852 23.911ZM19.5671 18.1276L19.4128 17.5928L27.3769 23.4052L27.0817 23.6117L19.5671 18.1276ZM19.6565 18.7085L19.429 18.5427L19.2746 18.0078L19.5021 18.1737L19.6565 18.7085ZM19.5184 19.1222L19.2909 18.9563L19.1365 18.4215L19.364 18.5873L19.5184 19.1222ZM19.3803 19.5366L19.1528 19.37L18.9984 18.8351L19.2259 19.0017L19.3803 19.5366ZM19.2421 19.9509L19.0147 19.785L18.8603 19.2502L19.0878 19.4161L19.2421 19.9509ZM19.104 20.3653L18.8765 20.1994L18.7222 19.6645L18.9497 19.8304L19.104 20.3653ZM18.9666 20.779L18.7391 20.6131L18.5847 20.0782L18.8122 20.2441L18.9666 20.779ZM18.8285 21.1933L18.601 21.0274L18.4466 20.4926L18.6741 20.6584L18.8285 21.1933ZM18.6904 21.6077L18.4629 21.4418L18.3085 20.9069L18.536 21.0728L18.6904 21.6077ZM18.5522 22.022L18.3247 21.8561L18.1704 21.3213L18.3979 21.4871L18.5522 22.022ZM18.4141 22.4364L18.1866 22.2705L18.0323 21.7356L18.2597 21.9022L18.4141 22.4364ZM20.712 31.278C20.7154 31.2895 20.7242 31.2989 20.7357 31.303C20.7398 31.3044 20.7438 31.305 20.7479 31.305C20.7554 31.305 20.7628 31.303 20.7696 31.2983L25.6992 27.8467L25.8569 27.9618L20.6308 31.6205L17.8928 22.1486L18.1203 22.3145L20.712 31.278ZM26.3559 27.2956L26.0607 27.5021L25.903 27.387L26.1982 27.1805L26.3559 27.2956ZM26.494 26.8812L26.1988 27.0877L26.0411 26.9726L26.3363 26.7661L26.494 26.8812ZM26.6321 26.4668L26.3369 26.6733L26.1792 26.5582L26.4744 26.3517L26.6321 26.4668ZM26.7703 26.0532L26.4751 26.2597L26.3173 26.1446L26.6125 25.9381L26.7703 26.0532ZM26.9084 25.6388L26.6132 25.8453L26.4554 25.7302L26.7506 25.5237L26.9084 25.6388ZM27.0465 25.2245L26.7513 25.431L26.5935 25.3159L26.8887 25.1094L27.0465 25.2245ZM27.1839 24.8101L26.8887 25.0166L26.731 24.9015L27.0262 24.695L27.1839 24.8101ZM27.3221 24.3957L27.0269 24.6023L26.8691 24.4872L27.1643 24.2807L27.3221 24.3957ZM27.4602 23.9821L27.165 24.1886L27.0072 24.0735L27.3024 23.867L27.4602 23.9821ZM27.5983 23.5677L27.3031 23.7742L27.1453 23.6591L27.4405 23.4526L27.5983 23.5677ZM19.2239 16.9401L27.7364 23.1534L27.4412 23.3599L19.3782 17.475L19.2239 16.9401ZM19.0857 17.3544L19.3132 17.5203L19.4676 18.0552L19.2401 17.8893L19.0857 17.3544ZM18.9476 17.7688L19.1751 17.9347L19.3295 18.4695L19.102 18.3037L18.9476 17.7688ZM18.8095 18.1831L19.037 18.349L19.1914 18.8839L18.9639 18.718L18.8095 18.1831ZM18.6714 18.5975L18.8989 18.7634L19.0532 19.2982L18.8258 19.1324L18.6714 18.5975ZM18.5333 19.0112L18.7608 19.1771L18.9151 19.7119L18.6876 19.546L18.5333 19.0112ZM18.3952 19.4255L18.6226 19.5914L18.777 20.1263L18.5495 19.9604L18.3952 19.4255ZM18.257 19.8399L18.4845 20.0058L18.6389 20.5406L18.4114 20.3741L18.257 19.8399ZM18.1189 20.2542L18.3464 20.4201L18.5008 20.955L18.2733 20.7891L18.1189 20.2542ZM17.9808 20.6679L18.2083 20.8338L18.3627 21.3687L18.1352 21.2028L17.9808 20.6679ZM17.8427 21.0823L18.0702 21.2488L18.2245 21.7837L17.9971 21.6171L17.8427 21.0823ZM17.7052 21.4966L17.9327 21.6625L18.0871 22.1974L17.8596 22.0315L17.7052 21.4966ZM20.494 32.0356L17.5671 21.911L17.7946 22.0769L20.5746 31.6923C20.578 31.7038 20.5868 31.7133 20.5983 31.7174C20.6023 31.7187 20.6064 31.7194 20.6105 31.7194C20.6179 31.7194 20.6254 31.7174 20.6321 31.7126L25.9219 28.0085L26.0797 28.1236L20.494 32.0356Z" fill="#161616"/>
<path d="M9.43371 25.3644C9.56777 25.7253 9.92119 25.9636 10.6341 25.9636C11.3491 25.9636 11.5454 25.7517 11.5454 25.5127C11.5454 25.2304 11.3139 25.0916 10.2563 24.9528C8.24143 24.6806 7.96181 23.9683 7.96181 23.3522C7.96181 22.5865 8.5698 21.7246 10.4046 21.7246C12.2712 21.7246 12.9253 22.5662 13.0018 23.292H11.3552C11.2821 23.0537 11.0932 22.7828 10.345 22.7828C9.71266 22.7828 9.60094 23.0137 9.60094 23.1925C9.60094 23.4023 9.7702 23.5303 10.7546 23.6698C12.9016 23.9799 13.1846 24.6698 13.1846 25.3719C13.1846 26.2947 12.4527 27.057 10.5231 27.057C9.07691 27.057 7.9442 26.4734 7.77765 25.3658H9.43371V25.3644Z" fill="#161616"/>
<path d="M13.2982 21.8601H14.2461V20.8276H15.9272V21.8601H17.1513V23.022H15.9272V25.1533C15.9272 25.5839 16.0213 25.7816 16.5338 25.7816C16.678 25.7816 16.8412 25.7802 16.9861 25.7498V26.8466C16.7004 26.9251 16.3158 26.9597 15.9258 26.9597C14.6239 26.9597 14.2461 26.4194 14.2461 25.4329V23.0226H13.2982V21.8601Z" fill="#161616"/>
<path d="M23.0019 25.5016C23.0019 26.159 23.0324 26.8103 23.0439 26.9193H21.4643C21.4237 26.7988 21.4122 26.4901 21.4027 26.3479C21.1183 26.7853 20.5097 27.0561 19.5158 27.0561C18.0696 27.0561 17.486 26.2131 17.486 25.4047C17.486 24.0764 18.7013 23.7081 20.2598 23.7081H21.3675V23.549C21.3675 23.1393 21.1813 22.8083 20.4054 22.8083C19.683 22.8083 19.5239 23.0676 19.4548 23.3567H17.7832C17.8279 22.7331 18.2883 21.7236 20.3797 21.7236C22.6756 21.7236 23.0019 22.7582 23.0019 23.6038V25.5016ZM21.3668 24.7196C21.2456 24.7108 20.8807 24.7108 20.289 24.7108C19.4393 24.7108 19.1048 24.9247 19.1048 25.3235C19.1048 25.6525 19.3824 25.9186 19.989 25.9186C20.9057 25.9186 21.3668 25.5171 21.3668 24.7974V24.7196Z" fill="#161616"/>
<path d="M23.3783 21.8601H24.3269V20.8276H26.008V21.8601H27.2321V23.022H26.008V25.1533C26.008 25.5839 26.1021 25.7816 26.6146 25.7816C26.7589 25.7816 26.922 25.7802 27.0669 25.7498V26.8466C26.7812 26.9251 26.3966 26.9597 26.0067 26.9597C24.7054 26.9597 24.3276 26.4194 24.3276 25.4329V23.0226H23.379V21.8601H23.3783Z" fill="#161616"/>
<path d="M29.5454 21.8604H27.8738V26.9186H29.5454V21.8604Z" fill="#161616"/>
<path d="M36.1324 24.3861C36.1324 25.9433 35.0078 27.0564 33.045 27.0564C31.0762 27.0564 30.0694 25.7896 30.0694 24.3874C30.0694 23.0002 31.1121 21.7246 33.1134 21.7246C35.173 21.7239 36.1324 23.1308 36.1324 24.3861ZM31.7702 24.3868C31.7702 25.1735 32.2265 25.8492 33.1012 25.8492C34.0017 25.8492 34.4134 25.1837 34.4134 24.4125C34.4134 23.6488 34.0166 22.9304 33.089 22.9304C32.1818 22.9311 31.7702 23.6068 31.7702 24.3868Z" fill="#161616"/>
<path d="M36.666 23.1376C36.666 22.709 36.666 22.2243 36.6558 21.8614H38.2896C38.3099 22.0042 38.3295 22.3103 38.3383 22.5147C38.58 22.1647 39.0634 21.7246 40.0932 21.7246C41.3945 21.7246 42.1657 22.4958 42.1657 23.7998V26.9196H40.4758V24.055C40.4758 23.4761 40.2415 22.967 39.49 22.967C38.71 22.967 38.3471 23.4843 38.3471 24.3962V26.9196H36.666V23.1376Z" fill="#161616"/>
</svg>
