<svg width="35" height="49" viewBox="0 0 35 49" fill="none" xmlns="http://www.w3.org/2000/svg">
<path d="M17.5 49C5.8325 34.0795 0 23.4636 0 17.15C-3.42448e-08 14.8978 0.452651 12.6677 1.33211 10.587C2.21157 8.50625 3.50061 6.61564 5.12563 5.02312C6.75066 3.43059 8.67984 2.16733 10.803 1.30547C12.9262 0.443598 15.2019 0 17.5 0C19.7981 0 22.0738 0.443598 24.197 1.30547C26.3202 2.16733 28.2493 3.43059 29.8744 5.02312C31.4994 6.61564 32.7884 8.50625 33.6679 10.587C34.5474 12.6677 35 14.8978 35 17.15C35 23.4636 29.1675 34.0795 17.5 49Z" fill="#111010"/>
<path transform="translate(9,9)" d="M0.38 15V0.76H4.84L8.16 10.54L11.4 0.76H15.76V15H12.82V4.88L9.32 15H6.9L3.36 4.98V15H0.38Z" fill="#F7F7F7"/>
</svg>

