<svg width="131" height="144" viewBox="0 0 131 144" fill="none" xmlns="http://www.w3.org/2000/svg">
<g clip-path="url(#clip0)">
<path d="M16.2732 0H35.5047L51.7779 54.5587V144H40.347V64.5745H11.2985V144H0V54.2871L16.2732 0ZM40.0722 54.0154L27.1645 10.6925H24.6085L11.8333 54.0105H40.0722V54.0154Z" fill="#111010"/>
<path d="M63.9204 85.9942V64.5303H69.528C71.1421 64.5303 72.4814 65.0834 73.6098 66.1848C74.7382 67.2565 75.2876 68.6048 75.2876 70.1704V80.3492C75.2876 81.9148 74.7382 83.2631 73.6098 84.3644C72.4863 85.4361 71.1421 85.9893 69.528 85.9893H63.9204V85.9942ZM72.6924 70.1407C72.6924 68.3331 71.2598 66.9503 69.4348 66.9503H66.447V83.5693H69.4348C71.2598 83.5693 72.6924 82.1914 72.6924 80.3788V70.1407Z" fill="#10CFC9"/>
<path d="M82.9309 64.5303H93.3464V66.9552H85.4869V73.4843H92.6154V75.8747H85.4869V83.5742H93.5917V85.9942H82.9309V64.5303Z" fill="#10CFC9"/>
<path d="M102.82 64.5303V73.3904L105.837 83.5742H106.416L109.433 73.3904V64.5303H111.989V73.6967L108.305 85.9942H103.948L100.264 73.6967V64.5303H102.82Z" fill="#10CFC9"/>
<path d="M119.486 64.5303H129.906V66.9552H122.047V73.4843H129.175V75.8747H122.047V83.5742H130.146V85.9942H119.486V64.5303Z" fill="#10CFC9"/>
<path d="M63.9204 93.5352H66.5108V112.574H74.4585V114.994H63.9204V93.5352Z" fill="#10CFC9"/>
<path d="M90.0547 109.661C90.0547 111.162 89.5052 112.481 88.3817 113.617C87.2828 114.753 85.8208 115.306 84.0252 115.306C82.1658 115.306 80.7039 114.753 79.6098 113.617C78.5109 112.481 77.9663 111.133 77.9663 109.631V98.8696C77.9663 97.3682 78.5158 96.0496 79.6098 94.9137C80.7039 93.7778 82.1658 93.2246 84.0252 93.2246C85.8208 93.2246 87.2877 93.8074 88.3817 94.9433C89.5052 96.0792 90.0547 97.3633 90.0547 98.8696V109.661ZM87.4692 98.84C87.4692 97.1213 86.1299 95.6496 84.0252 95.6496C81.8617 95.6496 80.5518 97.1213 80.5518 98.84V109.666C80.5518 111.414 81.8617 112.886 84.0252 112.886C86.125 112.886 87.4692 111.414 87.4692 109.695V98.84Z" fill="#10CFC9"/>
<path d="M99.9891 107.546V114.999H97.4331V93.5352H103.252C104.625 93.5352 105.749 93.9945 106.696 94.9477C107.638 95.8663 108.128 97.0022 108.128 98.3208V102.736C108.128 104.084 107.643 105.22 106.696 106.169C105.749 107.087 104.625 107.546 103.252 107.546H99.9891ZM105.533 98.2863C105.533 96.9676 104.468 95.9552 103.129 95.9552H99.9891V105.122H103.129C104.468 105.122 105.533 104.079 105.533 102.82V98.2863Z" fill="#10CFC9"/>
<path d="M73.6049 127.964L71.4119 133.851H69.16L66.967 127.993L66.4176 125.786L66.2066 125.815L66.4176 129.401V144H63.9204V122.536H67.2418L70.2246 131.243H70.3473L73.3351 122.536H76.6515V144H74.1544V129.401L74.3653 125.815L74.1544 125.786L73.6049 127.964Z" fill="#10CFC9"/>
<path d="M84.241 122.536H94.6564V124.956H86.8019V131.49H93.9254V133.881H86.8019V141.575H94.9017V144H84.241V122.536Z" fill="#10CFC9"/>
<path d="M113.304 122.536V144H110.287L104.714 129.371L104.012 126.462H103.767L104.041 130.325V144H101.574V122.536H104.591L110.164 137.13L110.866 140.044H111.111L110.831 136.335V122.536H113.304Z" fill="#10CFC9"/>
<path d="M119.275 124.956V122.536H131V124.956H126.403V144H123.842V124.956H119.275Z" fill="#10CFC9"/>
<path d="M40.347 64.5747H11.2986V144H40.347V64.5747Z" fill="#10CFC9"/>
</g>
<defs>
<clipPath id="clip0">
<rect width="131" height="144" fill="white"/>
</clipPath>
</defs>
</svg>
